<?xml version="1.0" encoding="iso-8859-1"?>
<!-- Generator: Adobe Illustrator 19.0.0, SVG Export Plug-In . SVG Version: 6.00 Build 0)  -->
<svg version="1.1" id="Capa_1" xmlns="http://www.w3.org/2000/svg" xmlns:xlink="http://www.w3.org/1999/xlink" x="0px" y="0px"
	 viewBox="0 0 512 512" style="enable-background:new 0 0 512 512;" xml:space="preserve">
<g>
	<path style="fill:#62CD4D;" d="M225.37,168.792l-29.165-29.165c-10.692-10.692-28.029-10.692-38.721,0L18.002,279.108
		c-10.692,10.692-10.692,28.029,0,38.721l29.165,29.165c10.692,10.692,28.029,10.692,38.721,0L225.37,207.512
		C236.063,196.82,236.063,179.484,225.37,168.792z"/>
	<path style="fill:#62CD4D;" d="M372.272,315.694l-29.165-29.165c-10.692-10.692-28.029-10.692-38.721,0L164.904,426.01
		c-10.692,10.692-10.692,28.029,0,38.721l29.165,29.165c10.692,10.692,28.029,10.692,38.721,0l139.482-139.481
		C382.964,343.722,382.964,326.386,372.272,315.694z"/>
</g>
<path d="M86.875,220.229c2.63,0,5.21-1.06,7.07-2.92c1.859-1.87,2.93-4.44,2.93-7.08c0-2.63-1.07-5.2-2.93-7.07
	c-1.86-1.86-4.44-2.92-7.07-2.92c-2.63,0-5.21,1.06-7.07,2.92c-1.859,1.87-2.93,4.44-2.93,7.07c0,2.64,1.07,5.21,2.93,7.08
	C81.664,219.169,84.245,220.229,86.875,220.229z"/>
<path d="M512,114.092c0-30.453-11.858-59.082-33.392-80.615c-21.533-21.534-50.163-33.393-80.615-33.393
	c-30.452,0-59.082,11.858-80.616,33.392l-64.756,64.757l-6.58-6.58c-3.906-3.905-10.236-3.904-14.143,0
	c-3.905,3.906-3.905,10.237,0,14.143l6.58,6.58l-27.69,27.69l-7.511-7.511c-7.061-7.06-16.448-10.948-26.433-10.948
	s-19.372,3.888-26.432,10.948l-46.248,46.248c-3.905,3.905-3.905,10.237,0,14.142c3.905,3.906,10.235,3.906,14.143,0l46.248-46.248
	c3.282-3.282,7.646-5.09,12.288-5.09c4.643,0,9.007,1.808,12.289,5.09l29.165,29.166c3.283,3.282,5.091,7.646,5.091,12.289
	c0,4.643-1.808,9.006-5.091,12.289l-1.862,1.862l-8.706-8.706c-3.906-3.905-10.236-3.905-14.143,0
	c-3.905,3.905-3.905,10.237,0,14.143l8.706,8.706l-17.875,17.875l-8.556-8.642c-3.887-3.925-10.217-3.955-14.143-0.071
	c-3.924,3.886-3.956,10.217-0.07,14.142l8.627,8.713l-17.867,17.867l-8.58-8.666c-3.887-3.925-10.217-3.955-14.143-0.071
	c-3.924,3.886-3.956,10.217-0.07,14.142l8.65,8.737l-17.867,17.867l-8.604-8.69c-3.887-3.925-10.219-3.955-14.143-0.07
	c-3.925,3.886-3.956,10.217-0.07,14.142l8.674,8.761l-17.867,17.868l-8.627-8.714c-3.888-3.925-10.216-3.956-14.143-0.071
	c-3.924,3.886-3.956,10.217-0.07,14.142l7.813,7.891c-6.336,2.703-13.96,1.484-19.123-3.678l-29.166-29.165
	c-6.775-6.776-6.775-17.803,0-24.579l39.212-39.211c3.905-3.905,3.905-10.237,0-14.142c-3.904-3.905-10.234-3.905-14.143,0
	L10.93,272.036c-14.573,14.574-14.573,38.289,0,52.864l29.166,29.165c7.287,7.287,16.86,10.93,26.432,10.93
	s19.146-3.644,26.433-10.93l139.482-139.482c7.06-7.06,10.948-16.448,10.948-26.432c0-9.984-3.889-19.372-10.948-26.432
	l-7.511-7.511l27.69-27.69l38.376,38.376c1.953,1.953,4.512,2.929,7.071,2.929c2.559,0,5.118-0.977,7.071-2.929
	c3.905-3.905,3.905-10.237,0-14.142l-38.376-38.376L331.52,47.62c4.733-4.733,9.885-8.893,15.368-12.458
	c-16.347,17.175-25.344,39.576-25.344,63.374c0,24.576,9.57,47.681,26.948,65.057c17.378,17.378,40.481,26.948,65.058,26.948
	c23.797,0,46.199-8.996,63.372-25.343c-3.565,5.482-7.725,10.633-12.457,15.367l-64.756,64.756l-38.41-38.41
	c-3.906-3.905-10.236-3.905-14.143,0c-3.905,3.905-3.905,10.237,0,14.143l38.41,38.41l-27.69,27.69l-7.696-7.697
	c-7.061-7.06-16.448-10.948-26.433-10.948c-9.985,0-19.372,3.888-26.433,10.948L157.832,418.937
	c-7.06,7.06-10.948,16.448-10.948,26.432c0,9.984,3.889,19.373,10.948,26.433l29.166,29.165c7.06,7.06,16.447,10.948,26.432,10.948
	s19.372-3.888,26.433-10.948l139.482-139.482c7.06-7.06,10.948-16.448,10.948-26.432s-3.889-19.373-10.948-26.432l-7.325-7.326
	l27.69-27.69l6.486,6.487c1.953,1.953,4.512,2.929,7.071,2.929s5.118-0.976,7.071-2.929c3.905-3.905,3.905-10.237,0-14.143
	l-6.486-6.487l64.756-64.756C500.14,173.174,512,144.544,512,114.092z M365.201,347.344L225.719,486.825
	c-3.282,3.283-7.646,5.09-12.289,5.09c-4.642,0-9.006-1.808-12.288-5.09l-29.166-29.166c-5.164-5.164-6.38-12.792-3.673-19.132
	l7.674,7.751c1.956,1.975,4.53,2.964,7.106,2.964c2.543,0,5.086-0.964,7.036-2.894c3.924-3.886,3.956-10.217,0.07-14.142
	l-8.627-8.714l17.868-17.868l8.582,8.667c1.955,1.975,4.529,2.964,7.105,2.964c2.543,0,5.087-0.964,7.036-2.894
	c3.925-3.886,3.956-10.218,0.069-14.142l-8.651-8.737l17.868-17.868l8.604,8.69c1.956,1.975,4.53,2.964,7.106,2.964
	c2.543,0,5.086-0.964,7.036-2.894c3.924-3.886,3.956-10.217,0.07-14.142l-8.675-8.761l17.867-17.868l8.627,8.714
	c1.956,1.975,4.53,2.964,7.106,2.964c2.543,0,5.086-0.964,7.036-2.894c3.924-3.886,3.956-10.217,0.07-14.142l-8.698-8.785
	l17.86-17.86l8.706,8.706c1.953,1.953,4.512,2.929,7.071,2.929s5.118-0.976,7.071-2.929c3.905-3.905,3.905-10.237,0-14.143
	l-8.706-8.706l1.862-1.862c3.389-3.389,7.838-5.083,12.289-5.083c4.45,0,8.901,1.694,12.289,5.082l14.761,14.761
	c0.002,0.002,0.004,0.005,0.007,0.008s0.005,0.004,0.008,0.007l14.389,14.389l0,0C371.977,329.541,371.977,340.568,365.201,347.344z
	 M464.464,149.449c-13.599,13.599-31.682,21.09-50.915,21.09c-19.233,0-37.315-7.49-50.915-21.09
	c-13.6-13.599-21.091-31.682-21.091-50.915c0-19.234,7.49-37.315,21.091-50.916c13.599-13.599,31.682-21.09,50.915-21.09
	c19.233,0,37.315,7.49,50.915,21.09c13.6,13.599,21.091,31.682,21.091,50.916C485.555,117.767,478.065,135.85,464.464,149.449
	L464.464,149.449z"/>
<path d="M378.193,63.177c-9.443,9.444-14.645,22.001-14.645,35.357c0,13.355,5.201,25.913,14.645,35.356
	c9.748,9.747,22.553,14.621,35.356,14.621c12.803,0,25.608-4.874,35.356-14.621c9.443-9.444,14.645-22.001,14.645-35.356
	c0-13.356-5.201-25.913-14.645-35.357C429.41,43.683,397.69,43.683,378.193,63.177z M434.763,119.748
	c-11.695,11.697-30.73,11.697-42.427,0c-5.667-5.666-8.787-13.2-8.787-21.214c0-8.014,3.12-15.548,8.787-21.214
	c5.849-5.849,13.529-8.772,21.214-8.772c7.682,0,15.366,2.925,21.214,8.772c5.667,5.666,8.787,13.2,8.787,21.214
	S440.43,114.082,434.763,119.748z"/>
<path d="M333.183,192.948c1.87-1.86,2.94-4.44,2.94-7.08c0-2.63-1.07-5.21-2.94-7.07c-1.85-1.86-4.43-2.92-7.069-2.92
	c-2.63,0-5.21,1.06-7.07,2.92c-1.86,1.86-2.92,4.44-2.92,7.07c0,2.64,1.06,5.22,2.92,7.08s4.44,2.93,7.07,2.93
	C328.753,195.878,331.324,194.808,333.183,192.948z"/>
<g>
</g>
<g>
</g>
<g>
</g>
<g>
</g>
<g>
</g>
<g>
</g>
<g>
</g>
<g>
</g>
<g>
</g>
<g>
</g>
<g>
</g>
<g>
</g>
<g>
</g>
<g>
</g>
<g>
</g>
</svg>
