<?xml version="1.0" encoding="iso-8859-1"?>
<!-- Generator: Adobe Illustrator 19.0.0, SVG Export Plug-In . SVG Version: 6.00 Build 0)  -->
<svg version="1.1" id="Capa_1" xmlns="http://www.w3.org/2000/svg" xmlns:xlink="http://www.w3.org/1999/xlink" x="0px" y="0px"
	 viewBox="0 0 512.001 512.001" style="enable-background:new 0 0 512.001 512.001;" xml:space="preserve">
<rect x="173.829" y="222.324" transform="matrix(-0.7071 0.7071 -0.7071 -0.7071 618.1497 256.0611)" style="fill:#D8D8E4;" width="164.428" height="67.459"/>
<g>
	<polygon style="fill:#EF3C3C;" points="135.212,251.481 77.267,251.481 10,318.748 10,376.693 135.307,502 193.441,502 
		260.52,434.922 260.52,376.788 	"/>
	<polygon style="fill:#EF3C3C;" points="376.693,10 318.748,10 251.481,77.267 251.481,135.212 376.788,260.519 434.922,260.519 
		502,193.441 502,135.307 	"/>
</g>
<path d="M509.072,128.236L383.766,2.929C381.889,1.054,379.346,0,376.693,0h-57.945c-2.652,0-5.195,1.054-7.071,2.929
	l-67.268,67.267c-1.86,1.861-2.931,4.445-2.929,7.076v57.94c0,2.652,1.054,5.196,2.929,7.071l31.78,31.78L174.063,276.189
	l-31.78-31.78c-1.876-1.875-4.419-2.929-7.071-2.929H77.268c-2.652,0-5.195,1.054-7.071,2.929L2.929,311.677
	C1.054,313.552,0,316.096,0,318.748v57.945c0,2.652,1.054,5.196,2.929,7.071l125.307,125.308c1.876,1.875,4.419,2.929,7.071,2.929
	h58.135c2.652,0,5.195-1.054,7.071-2.929l67.078-67.078c1.86-1.861,2.931-4.445,2.929-7.076v-58.129
	c0-2.652-1.054-5.196-2.929-7.071l-31.685-31.685l102.126-102.126l31.685,31.685c1.876,1.875,4.419,2.929,7.071,2.929h58.134
	c2.652,0,5.195-1.054,7.071-2.929l67.078-67.078c1.875-1.875,2.929-4.419,2.929-7.071v-58.134
	C512,132.655,510.947,130.111,509.072,128.236z M250.52,410.779l-57.15-57.149c-3.906-3.905-10.236-3.905-14.143,0
	c-3.905,3.905-3.905,10.237,0,14.143l67.15,67.15L189.299,492h-49.85L20,372.551V322.89l61.41-61.409h49.659L250.52,380.93V410.779z
	 M221.763,323.889l-33.557-33.557l102.126-102.126l33.557,33.557L221.763,323.889z M492,189.299l-61.221,61.22H380.93L261.48,131.07
	v-29.66l59.555,59.555c1.953,1.953,4.512,2.929,7.071,2.929s5.118-0.976,7.071-2.929c3.905-3.905,3.905-10.237,0-14.143
	l-69.555-69.555L322.891,20h49.66L492,139.449V189.299z"/>
<path d="M360.399,51.34c-1.859,1.87-2.92,4.44-2.92,7.07c0,2.64,1.061,5.21,2.92,7.07c1.87,1.87,4.44,2.93,7.07,2.93
	c2.64,0,5.21-1.06,7.07-2.93c1.87-1.86,2.939-4.44,2.939-7.07s-1.069-5.2-2.939-7.07c-1.851-1.86-4.431-2.92-7.07-2.92
	C364.84,48.42,362.26,49.48,360.399,51.34z"/>
<path d="M451.329,156.412l-0.008,18.706c-0.002,5.523,4.473,10.002,9.996,10.004c0.001,0,0.002,0,0.004,0
	c5.521,0,9.998-4.475,10-9.996l0.01-22.851c0.001-2.654-1.053-5.199-2.929-7.076L405.724,82.52c-3.906-3.905-10.236-3.905-14.143,0
	c-3.905,3.905-3.905,10.237,0,14.143L451.329,156.412z"/>
<path d="M144.62,443.68c-2.63,0-5.21,1.07-7.07,2.93s-2.93,4.44-2.93,7.07s1.069,5.21,2.93,7.07c1.86,1.86,4.44,2.93,7.07,2.93
	s5.21-1.07,7.069-2.93c1.86-1.86,2.931-4.44,2.931-7.07s-1.07-5.21-2.931-7.07C149.83,444.75,147.25,443.68,144.62,443.68z"/>
<path d="M60.766,355.683l0.008-18.706c0.002-5.523-4.473-10.002-9.996-10.004c-0.001,0-0.002,0-0.004,0
	c-5.521,0-9.998,4.475-10,9.996l-0.01,22.85c-0.001,2.654,1.053,5.199,2.929,7.076l62.679,62.679
	c1.953,1.953,4.512,2.929,7.071,2.929s5.118-0.977,7.071-2.929c3.905-3.905,3.905-10.237,0-14.142L60.766,355.683z"/>
<g>
</g>
<g>
</g>
<g>
</g>
<g>
</g>
<g>
</g>
<g>
</g>
<g>
</g>
<g>
</g>
<g>
</g>
<g>
</g>
<g>
</g>
<g>
</g>
<g>
</g>
<g>
</g>
<g>
</g>
</svg>
