<?xml version="1.0" encoding="iso-8859-1"?>
<!-- Generator: Adobe Illustrator 19.0.0, SVG Export Plug-In . SVG Version: 6.00 Build 0)  -->
<svg version="1.1" id="Capa_1" xmlns="http://www.w3.org/2000/svg" xmlns:xlink="http://www.w3.org/1999/xlink" x="0px" y="0px"
	 viewBox="0 0 511.999 511.999" style="enable-background:new 0 0 511.999 511.999;" xml:space="preserve">
<path style="fill:#99BBFF;" d="M144.304,118.03H96.292c-32.777,0-59.349,26.572-59.349,59.349v265.267
	c0,32.778,26.572,59.349,59.349,59.349h319.413c32.778,0,59.349-26.572,59.349-59.349V177.38c0-32.777-26.572-59.349-59.349-59.349
	h-48.011H144.304z"/>
<circle style="fill:#EDF2FA;" cx="255.995" cy="118.03" r="108.028"/>
<circle style="fill:#FEA02C;" cx="255.995" cy="118.03" r="16.004"/>
<path d="M415.707,108.028h-42.105C368.506,47.61,317.712,0,255.999,0S143.491,47.61,138.397,108.028H96.292
	c-38.24,0-69.352,31.112-69.352,69.352v265.267c0,38.241,31.112,69.352,69.352,69.352h319.414c38.24,0,69.352-31.112,69.352-69.352
	V177.38C485.059,139.14,453.947,108.028,415.707,108.028z M180.007,56.184l5.695,5.694c1.952,1.952,4.512,2.929,7.072,2.929
	c2.56,0,5.12-0.977,7.073-2.931c3.906-3.906,3.906-10.24-0.001-14.146l-5.693-5.692c14.45-11.782,32.306-19.537,51.844-21.527v8.104
	c0,5.524,4.479,10.003,10.003,10.003c5.523,0,10.003-4.478,10.003-10.003v-8.104c19.538,1.99,37.395,9.745,51.844,21.527
	l-5.693,5.692c-3.907,3.906-3.907,10.24-0.001,14.146c1.953,1.954,4.513,2.931,7.073,2.931c2.56,0,5.119-0.976,7.072-2.929
	l5.695-5.694c11.782,14.45,19.537,32.305,21.527,51.843h-8.104c-5.523,0-10.003,4.478-10.003,10.003s4.479,10.003,10.003,10.003
	h8.104c-5.026,49.371-46.844,88.023-97.519,88.023s-92.492-38.652-97.519-88.023h8.104c5.523,0,10.003-4.478,10.003-10.003
	s-4.479-10.003-10.003-10.003h-8.104C160.47,88.49,168.225,70.633,180.007,56.184z M465.053,442.647
	c0,27.21-22.137,49.347-49.347,49.347H96.292c-27.21,0-49.347-22.137-49.347-49.347V177.38c0-27.21,22.137-49.347,49.347-49.347
	h42.105c5.095,60.418,55.889,108.028,117.602,108.028s112.508-47.61,117.602-108.028h42.105c27.21,0,49.347,22.137,49.347,49.347
	L465.053,442.647L465.053,442.647z"/>
<path d="M208.108,101.93l22.106,12.763c-0.141,1.093-0.221,2.206-0.221,3.337c0,14.34,11.666,26.007,26.007,26.007
	c14.341,0,26.007-11.667,26.007-26.007S270.34,92.024,256,92.024c-5.929,0-11.396,1.998-15.775,5.349l-22.114-12.768
	c-4.785-2.763-10.901-1.122-13.664,3.661C201.684,93.05,203.324,99.169,208.108,101.93z M262.001,118.03
	c0,3.31-2.692,6.002-6.002,6.002s-6.002-2.692-6.002-6.002s2.692-6.002,6.002-6.002C259.309,112.029,262.001,114.721,262.001,118.03
	z"/>
<path d="M255.999,200.052c27.689,0,53.32-13.838,68.562-37.015c3.035-4.616,1.754-10.818-2.862-13.854
	c-4.614-3.036-10.818-1.752-13.854,2.862c-11.53,17.534-30.912,28.001-51.846,28.001s-40.316-10.468-51.846-28.002
	c-3.036-4.615-9.237-5.898-13.854-2.862c-4.616,3.036-5.898,9.237-2.862,13.854C202.68,186.214,228.31,200.052,255.999,200.052z"/>
<path d="M174.546,438.113H92.269c-5.523,0-10.003,4.478-10.003,10.003c0,5.524,4.479,10.003,10.003,10.003h82.277
	c5.523,0,10.003-4.478,10.003-10.003C184.549,442.591,180.071,438.113,174.546,438.113z"/>
<path d="M174.546,398.103H92.269c-5.523,0-10.003,4.478-10.003,10.003c0,5.524,4.479,10.003,10.003,10.003h82.277
	c5.523,0,10.003-4.478,10.003-10.003C184.549,402.581,180.071,398.103,174.546,398.103z"/>
<path d="M92.269,378.097h65.567c5.523,0,10.003-4.478,10.003-10.003c0-5.524-4.479-10.003-10.003-10.003H92.269
	c-5.523,0-10.003,4.478-10.003,10.003C82.267,373.619,86.746,378.097,92.269,378.097z"/>
<path d="M183.624,318.082H92.269c-5.523,0-10.003,4.478-10.003,10.003c0,5.524,4.479,10.003,10.003,10.003h91.355
	c5.523,0,10.003-4.478,10.003-10.003C193.626,322.56,189.148,318.082,183.624,318.082z"/>
<path d="M210.409,278.072h-79.95c-5.523,0-10.003,4.478-10.003,10.003c0,5.524,4.479,10.003,10.003,10.003h79.95
	c5.523,0,10.003-4.478,10.003-10.003C220.411,282.55,215.932,278.072,210.409,278.072z"/>
<path d="M92.266,298.077c2.631,0,5.211-1.07,7.072-2.931c1.87-1.86,2.931-4.441,2.931-7.072c0-2.631-1.06-5.211-2.931-7.072
	c-1.86-1.86-4.431-2.931-7.072-2.931c-2.631,0-5.211,1.07-7.071,2.931c-1.86,1.86-2.932,4.441-2.932,7.072
	c0,2.631,1.07,5.211,2.932,7.072C87.055,297.007,89.637,298.077,92.266,298.077z"/>
<path d="M92.269,258.067h76.378c5.523,0,10.003-4.478,10.003-10.003c0-5.524-4.479-10.003-10.003-10.003H92.269
	c-5.523,0-10.003,4.478-10.003,10.003C82.267,253.588,86.746,258.067,92.269,258.067z"/>
<path d="M419.729,438.113h-82.277c-5.523,0-10.003,4.478-10.003,10.003c0,5.524,4.479,10.003,10.003,10.003h82.277
	c5.523,0,10.003-4.478,10.003-10.003C429.731,442.591,425.253,438.113,419.729,438.113z"/>
<path d="M419.729,398.103h-82.277c-5.523,0-10.003,4.478-10.003,10.003c0,5.524,4.479,10.003,10.003,10.003h82.277
	c5.523,0,10.003-4.478,10.003-10.003C429.731,402.581,425.253,398.103,419.729,398.103z"/>
<path d="M419.729,358.092h-65.567c-5.523,0-10.003,4.478-10.003,10.003c0,5.524,4.479,10.003,10.003,10.003h65.567
	c5.523,0,10.003-4.478,10.003-10.003C429.731,362.57,425.253,358.092,419.729,358.092z"/>
<path d="M376.03,338.087c5.523,0,10.003-4.478,10.003-10.003c0-5.524-4.479-10.003-10.003-10.003h-47.656
	c-5.523,0-10.003,4.478-10.003,10.003c0,5.524,4.479,10.003,10.003,10.003H376.03z"/>
<path d="M419.731,318.082c-2.641,0-5.211,1.07-7.071,2.931c-1.86,1.86-2.932,4.441-2.932,7.072c0,2.631,1.07,5.211,2.932,7.072
	c1.859,1.86,4.431,2.931,7.071,2.931c2.631,0,5.211-1.07,7.072-2.931c1.86-1.86,2.931-4.441,2.931-7.072
	c0-2.631-1.069-5.211-2.931-7.072C424.942,319.152,422.361,318.082,419.731,318.082z"/>
<path d="M429.731,288.074c0-5.524-4.479-10.003-10.003-10.003H301.59c-5.523,0-10.003,4.478-10.003,10.003
	c0,5.524,4.479,10.003,10.003,10.003h118.138C425.253,298.077,429.731,293.599,429.731,288.074z"/>
<path d="M343.351,258.067h76.378c5.523,0,10.003-4.478,10.003-10.003c0-5.524-4.479-10.003-10.003-10.003h-76.378
	c-5.523,0-10.003,4.478-10.003,10.003C333.348,253.588,337.827,258.067,343.351,258.067z"/>
<g>
</g>
<g>
</g>
<g>
</g>
<g>
</g>
<g>
</g>
<g>
</g>
<g>
</g>
<g>
</g>
<g>
</g>
<g>
</g>
<g>
</g>
<g>
</g>
<g>
</g>
<g>
</g>
<g>
</g>
</svg>
