<?xml version="1.0" encoding="iso-8859-1"?>
<!-- Generator: Adobe Illustrator 19.0.0, SVG Export Plug-In . SVG Version: 6.00 Build 0)  -->
<svg version="1.1" id="Capa_1" xmlns="http://www.w3.org/2000/svg" xmlns:xlink="http://www.w3.org/1999/xlink" x="0px" y="0px"
	 viewBox="0 0 512 512" style="enable-background:new 0 0 512 512;" xml:space="preserve">
<g>
	<path style="fill:#FF5D5D;" d="M160.114,46L160.114,46c0,19.882,16.118,36,36,36h120c19.882,0,36-16.118,36-36l0,0
		c0-19.882-16.118-36-36-36h-120C176.232,10,160.114,26.118,160.114,46z"/>
	<path style="fill:#FF5D5D;" d="M160.114,480.057V502h192v-21.943c0-17.705-14.352-32.057-32.057-32.057H192.171
		C174.466,448,160.114,462.352,160.114,480.057z"/>
</g>
<g>
	<path style="fill:#6A80FF;" d="M358.208,384H272v-50h86.208c6.696,0,12.125,5.429,12.125,12.125v25.75
		C370.333,378.571,364.905,384,358.208,384z"/>
	<path style="fill:#6A80FF;" d="M240,384h-86.125c-6.696,0-12.125-5.429-12.125-12.125v-25.75c0-6.696,5.429-12.125,12.125-12.125
		H240V384z"/>
	<path style="fill:#6A80FF;" d="M358.208,281H272v-50h86.208c6.696,0,12.125,5.429,12.125,12.125v25.75
		C370.333,275.571,364.905,281,358.208,281z"/>
	<path style="fill:#6A80FF;" d="M240,281h-86.125c-6.696,0-12.125-5.429-12.125-12.125v-25.75c0-6.696,5.429-12.125,12.125-12.125
		H240V281z"/>
	<path style="fill:#6A80FF;" d="M358.208,178H272v-50h86.208c6.696,0,12.125,5.429,12.125,12.125v25.75
		C370.333,172.571,364.905,178,358.208,178z"/>
	<path style="fill:#6A80FF;" d="M240,178h-86.125c-6.696,0-12.125-5.429-12.125-12.125v-25.75c0-6.696,5.429-12.125,12.125-12.125
		H240V178z"/>
</g>
<path d="M37,343c2.63,0,5.21-1.07,7.069-2.931C45.93,338.21,47,335.63,47,333s-1.07-5.21-2.931-7.07C42.21,324.069,39.63,323,37,323
	s-5.21,1.069-7.07,2.93S27,330.359,27,333c0,2.64,1.069,5.21,2.93,7.069C31.79,341.93,34.37,343,37,343z"/>
<path d="M475,359.667c-5.522,0-10,4.478-10,10v5.592C465,392.761,450.761,407,433.259,407H331.167v-13h27.041
	c12.2,0,22.125-9.925,22.125-22.125v-25.75c0-12.2-9.925-22.125-22.125-22.125H282v-33h76.208c12.2,0,22.125-9.925,22.125-22.125
	v-25.75c0-12.2-9.925-22.125-22.125-22.125H282v-33h76.208c12.2,0,22.125-9.925,22.125-22.125v-25.75
	c0-12.2-9.925-22.125-22.125-22.125H282V92h34.114c25.364,0,46-20.636,46-46s-20.636-46-46-46h-120c-25.364,0-46,20.636-46,46
	s20.636,46,46,46H230v26h-76.125c-12.2,0-22.125,9.925-22.125,22.125v25.75c0,12.2,9.925,22.125,22.125,22.125H230v33h-76.125
	c-12.2,0-22.125,9.925-22.125,22.125v25.75c0,12.2,9.925,22.125,22.125,22.125H230v33h-76.125c-12.2,0-22.125,9.925-22.125,22.125
	v25.75c0,12.2,9.925,22.125,22.125,22.125h27v13H78.741C61.239,407,47,392.761,47,375.259v-3.592c0-5.522-4.478-10-10-10
	s-10,4.478-10,10v3.592C27,403.789,50.211,427,78.741,427h102.134v12.553c-17.72,4.949-30.761,21.226-30.761,40.503V502
	c0,5.522,4.478,10,10,10h192c5.522,0,10-4.478,10-10v-21.943c0-19.344-13.133-35.67-30.947-40.556V427h102.092
	c28.53,0,51.741-23.211,51.741-51.741v-5.592C485,364.145,480.522,359.667,475,359.667z M311.167,407H282v-13h29.167V407z
	 M358.208,344c1.172,0,2.125,0.953,2.125,2.125v25.75c0,1.172-0.953,2.125-2.125,2.125H282v-30H358.208z M358.208,241
	c1.172,0,2.125,0.953,2.125,2.125v25.75c0,1.172-0.953,2.125-2.125,2.125H282v-30H358.208z M358.208,138
	c1.172,0,2.125,0.953,2.125,2.125v25.75c0,1.172-0.953,2.125-2.125,2.125H282v-30H358.208z M170.114,46c0-14.337,11.663-26,26-26
	h120c14.337,0,26,11.663,26,26s-11.663,26-26,26H272h-32h-43.886C181.777,72,170.114,60.337,170.114,46z M262,92v36v50v53v50v53v50
	v23h-12v-23v-50v-53v-50v-53v-50V92H262z M250,427h12v11h-12V427z M153.875,168c-1.172,0-2.125-0.953-2.125-2.125v-25.75
	c0-1.172,0.953-2.125,2.125-2.125H230v30H153.875z M153.875,271c-1.172,0-2.125-0.953-2.125-2.125v-25.75
	c0-1.172,0.953-2.125,2.125-2.125H230v30H153.875z M151.75,371.875v-25.75c0-1.172,0.953-2.125,2.125-2.125H230v30h-76.125
	C152.703,374,151.75,373.047,151.75,371.875z M200.875,394H230v13h-29.125V394z M230,427v11h-29.125v-11H230z M342.114,480.057V492
	h-172v-11.943c0-12.162,9.895-22.057,22.057-22.057H240h32h48.057C332.22,458,342.114,467.895,342.114,480.057z M311.167,438H282
	v-11h29.167V438z"/>
<path d="M475,343c2.63,0,5.21-1.07,7.069-2.931C483.93,338.21,485,335.63,485,333s-1.07-5.21-2.931-7.07
	C480.21,324.07,477.63,323,475,323s-5.21,1.069-7.07,2.93c-1.86,1.861-2.93,4.44-2.93,7.07s1.069,5.21,2.93,7.069
	C469.79,341.93,472.37,343,475,343z"/>
<g>
</g>
<g>
</g>
<g>
</g>
<g>
</g>
<g>
</g>
<g>
</g>
<g>
</g>
<g>
</g>
<g>
</g>
<g>
</g>
<g>
</g>
<g>
</g>
<g>
</g>
<g>
</g>
<g>
</g>
</svg>
