<?xml version="1.0" encoding="iso-8859-1"?>
<!-- Generator: Adobe Illustrator 19.0.0, SVG Export Plug-In . SVG Version: 6.00 Build 0)  -->
<svg version="1.1" id="Capa_1" xmlns="http://www.w3.org/2000/svg" xmlns:xlink="http://www.w3.org/1999/xlink" x="0px" y="0px"
	 viewBox="0 0 512.001 512.001" style="enable-background:new 0 0 512.001 512.001;" xml:space="preserve">
<path style="fill:#D8D8E4;" d="M492,279.998H20c-5.523,0-10-4.477-10-10v-27.81c0-5.523,4.477-10,10-10h472c5.523,0,10,4.477,10,10
	v27.81C502,275.521,497.523,279.998,492,279.998z"/>
<path style="fill:#2E9DE3;" d="M116.637,379h40.727c11.397,0,20.637-9.239,20.637-20.637V153.637
	c0-11.397-9.239-20.637-20.637-20.637h-40.727C105.239,133,96,142.239,96,153.637v204.727C96,369.761,105.239,379,116.637,379z"/>
<path style="fill:#4DBAF6;" d="M62.637,354.4h12.727C86.761,354.4,96,345.161,96,333.763V178.237
	c0-11.397-9.239-20.637-20.637-20.637H62.637C51.239,157.6,42,166.839,42,178.237v155.527C42,345.161,51.239,354.4,62.637,354.4z"/>
<path style="fill:#2E9DE3;" d="M395.363,133h-40.727C343.239,133,334,142.239,334,153.636v204.727
	C334,369.76,343.239,379,354.637,379h40.727c11.397,0,20.637-9.239,20.637-20.637V153.636C416,142.239,406.761,133,395.363,133z"/>
<path style="fill:#4DBAF6;" d="M449.363,157.6h-12.727c-11.397,0-20.637,9.239-20.637,20.637v155.527
	c0,11.397,9.239,20.637,20.637,20.637h12.727c11.397,0,20.637-9.239,20.637-20.637V178.236C470,166.839,460.761,157.6,449.363,157.6
	z"/>
<path d="M492,222h-12v-43.764c0-16.893-13.744-30.636-30.637-30.636h-12.727c-3.842,0-7.518,0.717-10.909,2.014
	C423.751,134.617,410.892,123,395.363,123h-40.727C337.744,123,324,136.744,324,153.637v68.553H188v-68.553
	C188,136.744,174.256,123,157.363,123h-40.727c-15.529,0-28.387,11.617-30.364,26.615c-3.392-1.297-7.067-2.014-10.909-2.014H62.637
	C45.744,147.6,32,161.343,32,178.236V222H20c-11.028,0-20,8.972-20,20v28c0,11.028,8.972,20,20,20h12v43.764
	c0,16.893,13.744,30.636,30.637,30.636h12.727c3.842,0,7.518-0.717,10.909-2.014C88.249,377.383,101.108,389,116.637,389h40.727
	C174.256,389,188,375.257,188,358.363V290h136v68.363C324,375.257,337.744,389,354.637,389h40.727
	c15.529,0,28.387-11.617,30.364-26.615c3.392,1.297,7.067,2.014,10.909,2.014h12.727c16.893,0,30.637-13.743,30.637-30.636V290h12
	c11.028,0,20-8.972,20-20v-28C512,230.972,503.028,222,492,222z M20,270v-28h12v28H20z M75.363,344.4H62.637
	C56.771,344.4,52,339.628,52,333.764V280v-48v-53.764c0-5.865,4.771-10.636,10.637-10.636h12.727
	c5.865,0,10.637,4.771,10.637,10.636v155.527C86,339.628,81.229,344.4,75.363,344.4z M168,358.363
	c0,5.865-4.771,10.637-10.637,10.637H138v-81.54c0-5.523-4.477-10-10-10s-10,4.477-10,10V369h-1.363
	c-5.865,0-10.637-4.771-10.637-10.637v-24.6V178.236v-24.6c0-5.865,4.771-10.637,10.637-10.637h40.727
	c5.865,0,10.637,4.771,10.637,10.637L168,358.363L168,358.363z M188,270v-27.811h136V270H188z M406,358.363
	c0,5.865-4.771,10.637-10.637,10.637h-40.727c-5.865,0-10.637-4.771-10.637-10.637V153.637c0-5.865,4.771-10.637,10.637-10.637H374
	v81.54c0,5.523,4.477,10,10,10s10-4.477,10-10V143h1.363c5.865,0,10.637,4.771,10.637,10.637v24.6v155.527V358.363z M460,333.764
	c0,5.865-4.771,10.636-10.637,10.636h-12.727c-5.865,0-10.637-4.771-10.637-10.636V178.236c0-5.865,4.771-10.636,10.637-10.636
	h12.727c5.865,0,10.637,4.771,10.637,10.636V232v48V333.764z M492,270h-12v-28h12V270z"/>
<path d="M384,252.203c-2.63,0-5.21,1.07-7.07,2.93c-1.86,1.86-2.93,4.44-2.93,7.07c0,2.64,1.07,5.21,2.93,7.08
	c1.86,1.86,4.44,2.92,7.07,2.92s5.21-1.06,7.07-2.92c1.86-1.87,2.93-4.45,2.93-7.08c0-2.63-1.07-5.2-2.93-7.07
	C389.21,253.273,386.63,252.203,384,252.203z"/>
<path d="M128,239.793c-2.63,0-5.21,1.07-7.07,2.93c-1.86,1.86-2.93,4.44-2.93,7.07s1.07,5.21,2.93,7.07
	c1.86,1.86,4.44,2.93,7.07,2.93c2.63,0,5.21-1.07,7.07-2.93s2.93-4.44,2.93-7.07s-1.07-5.21-2.93-7.07
	C133.21,240.863,130.63,239.793,128,239.793z"/>
<g>
</g>
<g>
</g>
<g>
</g>
<g>
</g>
<g>
</g>
<g>
</g>
<g>
</g>
<g>
</g>
<g>
</g>
<g>
</g>
<g>
</g>
<g>
</g>
<g>
</g>
<g>
</g>
<g>
</g>
</svg>
