<?xml version="1.0" encoding="iso-8859-1"?>
<!-- Generator: Adobe Illustrator 19.0.0, SVG Export Plug-In . SVG Version: 6.00 Build 0)  -->
<svg version="1.1" id="Capa_1" xmlns="http://www.w3.org/2000/svg" xmlns:xlink="http://www.w3.org/1999/xlink" x="0px" y="0px"
	 viewBox="0 0 512 512" style="enable-background:new 0 0 512 512;" xml:space="preserve">
<circle style="fill:#7D9BFF;" cx="256" cy="256" r="246"/>
<circle style="fill:#6A80FF;" cx="256" cy="256" r="200.5"/>
<circle style="fill:#7D9BFF;" cx="256" cy="256" r="88"/>
<circle style="fill:#FFFFFF;" cx="256" cy="256" r="36"/>
<path d="M256,302c25.364,0,46-20.636,46-46s-20.636-46-46-46s-46,20.636-46,46S230.636,302,256,302z M256,230
	c14.337,0,26,11.663,26,26s-11.663,26-26,26s-26-11.663-26-26S241.663,230,256,230z"/>
<path d="M256,354c54.037,0,98-43.963,98-98s-43.963-98-98-98s-98,43.963-98,98S201.963,354,256,354z M256,178
	c43.01,0,78,34.99,78,78s-34.99,78-78,78s-78-34.99-78-78S212.99,178,256,178z"/>
<path d="M437.02,74.98C388.667,26.629,324.38,0,256,0S123.333,26.629,74.98,74.98C26.629,123.333,0,187.62,0,256
	s26.629,132.667,74.98,181.02C123.333,485.371,187.62,512,256,512s132.667-26.629,181.02-74.98C485.371,388.667,512,324.38,512,256
	S485.371,123.333,437.02,74.98z M256,492C125.869,492,20,386.131,20,256S125.869,20,256,20s236,105.869,236,236S386.131,492,256,492
	z"/>
<path d="M404.847,107.153c-82.074-82.072-215.618-82.072-297.692,0C67.396,146.912,45.5,199.773,45.5,256
	s21.896,109.088,61.654,148.846c40.727,40.727,94.693,61.692,149.028,61.689c41.141-0.003,82.498-12.027,118.445-36.601
	c4.56-3.117,5.729-9.34,2.612-13.899c-3.118-4.56-9.339-5.729-13.899-2.612c-75.482,51.602-177.278,42.047-242.044-22.72
	C85.315,354.723,65.5,306.884,65.5,256c0-50.885,19.815-98.724,55.797-134.704c74.275-74.275,195.132-74.275,269.407,0
	c64.847,64.847,74.346,166.723,22.587,242.239c-3.123,4.556-1.961,10.779,2.595,13.901c4.556,3.121,10.779,1.961,13.901-2.595
	C486.989,291.386,476.5,178.807,404.847,107.153z"/>
<path d="M391.285,390.12l-0.273,0.274c-3.905,3.905-3.905,10.237,0,14.143c1.953,1.952,4.512,2.929,7.071,2.929
	s5.118-0.977,7.071-2.929l0.34-0.343c3.887-3.924,3.856-10.255-0.067-14.142C401.504,386.165,395.171,386.194,391.285,390.12z"/>
<path d="M224.409,105.11c-1.477-5.321-6.991-8.435-12.311-6.961c-33.453,9.285-63.717,29.543-85.215,57.041
	c-11.018,14.093-19.595,29.764-25.492,46.576c-1.828,5.211,0.915,10.918,6.127,12.746c1.095,0.384,2.211,0.566,3.31,0.566
	c4.128,0,7.992-2.576,9.437-6.693c5.174-14.751,12.702-28.505,22.375-40.877c18.882-24.15,45.449-41.939,74.809-50.088
	C222.77,115.943,225.887,110.433,224.409,105.11z"/>
<path d="M256,112.197c5.522,0,10-4.478,10-10s-4.478-10-10-10h-0.187c-5.522,0-10,4.478-10,10s4.478,10,10,10H256z"/>
<g>
</g>
<g>
</g>
<g>
</g>
<g>
</g>
<g>
</g>
<g>
</g>
<g>
</g>
<g>
</g>
<g>
</g>
<g>
</g>
<g>
</g>
<g>
</g>
<g>
</g>
<g>
</g>
<g>
</g>
</svg>
