<?xml version="1.0" encoding="iso-8859-1"?>
<!-- Generator: Adobe Illustrator 19.0.0, SVG Export Plug-In . SVG Version: 6.00 Build 0)  -->
<svg version="1.1" id="Capa_1" xmlns="http://www.w3.org/2000/svg" xmlns:xlink="http://www.w3.org/1999/xlink" x="0px" y="0px"
	 viewBox="0 0 512.002 512.002" style="enable-background:new 0 0 512.002 512.002;" xml:space="preserve">
<g>
	<path style="fill:#62CD4D;" d="M261.074,208.926l-51.955,51.955c-3.905,3.905-3.905,10.238,0,14.143l27.92,27.92
		c3.905,3.905,10.238,3.905,14.143,0l51.955-51.955c3.905-3.905,3.905-10.238,0-14.143l-27.92-27.92
		C271.311,205.02,264.979,205.02,261.074,208.926z"/>
	<path style="fill:#62CD4D;" d="M499.082,129.531L382.53,12.981c-3.905-3.905-10.238-3.905-14.143,0l-21.91,21.91
		c-3.905,3.905-3.905,10.238,0,14.143l116.551,116.551c3.905,3.905,10.238,3.905,14.143,0l21.91-21.91
		C502.987,139.769,502.987,133.437,499.082,129.531z"/>
	<path style="fill:#62CD4D;" d="M12.921,382.469L129.473,499.02c3.905,3.905,10.238,3.905,14.143,0l21.91-21.91
		c3.905-3.905,3.905-10.238,0-14.143L48.975,346.415c-3.905-3.905-10.238-3.905-14.143,0l-21.91,21.91
		C9.016,372.231,9.016,378.563,12.921,382.469z"/>
</g>
<path d="M506.153,122.46L389.603,5.91c-3.777-3.778-8.8-5.858-14.144-5.858c-5.343,0-10.366,2.08-14.144,5.857l-5.975,5.975
	l-2.353-0.938c-17.97-7.162-38.259-4.961-54.275,5.891c-16.016,10.853-25.581,28.882-25.588,48.228l-0.046,131.578
	c-6.611-1.673-13.913,0.05-19.076,5.212l-51.955,51.955c-5.212,5.212-6.921,12.606-5.166,19.267l-131.814,0.046
	c-19.346,0.007-37.375,9.573-48.228,25.588c-10.853,16.015-13.055,36.305-5.891,54.275l0.903,2.267l-6.001,6.001
	c-7.798,7.798-7.798,20.488,0,28.287l116.55,116.549c3.777,3.778,8.8,5.858,14.144,5.858c5.343,0,10.366-2.08,14.144-5.857
	l5.716-5.716l3.216,1.282c6.976,2.78,14.302,4.15,21.59,4.15c11.489,0,22.887-3.402,32.686-10.042
	c16.016-10.854,25.58-28.883,25.587-48.228l0.046-132.225c1.506,0.352,3.042,0.551,4.581,0.551c5.122,0,10.244-1.95,14.144-5.849
	l51.955-51.956c5.022-5.022,6.79-12.069,5.344-18.535l24.791-0.01c5.523-0.002,9.999-4.481,9.997-10.005
	c-0.002-5.521-4.479-9.997-10.001-9.997c-0.001,0-0.003,0-0.004,0l-40.371,0.017l-6.89-6.89l0.051-147.567
	c0.005-12.897,6.131-24.442,16.807-31.678c8.906-6.034,19.422-7.999,29.619-5.72l-0.145,0.145c-7.798,7.798-7.798,20.487,0,28.286
	l116.55,116.551c3.899,3.898,9.022,5.849,14.144,5.849s10.244-1.95,14.144-5.849l0.482-0.482c2.598,10.47,0.693,21.337-5.515,30.499
	c-7.234,10.677-18.78,16.802-31.679,16.807l-31.193,0.017c-5.523,0.003-9.999,4.482-9.996,10.006
	c0.003,5.521,4.479,9.996,10.001,9.996c0.002,0,0.004,0,0.005,0l31.192-0.017c19.345-0.007,37.374-9.572,48.228-25.587
	c10.853-16.015,13.055-36.305,5.891-54.274l-1.248-3.13l5.742-5.742C513.952,142.948,513.952,130.258,506.153,122.46z
	 M202.675,479.208c-9.189,6.227-20.096,8.126-30.597,5.491l0.52-0.52c7.798-7.798,7.798-20.487,0-28.286L143.604,426.9
	c-3.906-3.904-10.237-3.904-14.144,0c-3.905,3.905-3.905,10.238,0,14.144l28.994,28.993l-21.909,21.91L19.994,375.398l21.91-21.91
	l31.554,31.555c3.905,3.903,10.236,3.905,14.144,0c3.905-3.905,3.905-10.238,0-14.144l-31.554-31.555
	c-7.799-7.797-20.487-7.797-28.287,0l-0.107,0.107c-2.245-10.167-0.272-20.644,5.743-29.522
	c7.234-10.676,18.78-16.802,31.678-16.807l147.948-0.052l6.51,6.51l-0.052,147.95C219.477,460.428,213.351,471.974,202.675,479.208z
	 M244.109,295.872l-27.92-27.92l51.955-51.955l20.603,20.603c0.003,0.003,0.007,0.007,0.01,0.01l7.306,7.306L244.109,295.872z
	 M353.549,41.963l21.909-21.91l116.551,116.55l-21.91,21.91L353.549,41.963z"/>
<path d="M377.675,219.501c-5.522,0-10.001,4.478-10.001,10.001v0.004c0,5.522,4.478,9.999,10.001,9.999s10.001-4.479,10.001-10.003
	S383.198,219.501,377.675,219.501z"/>
<path d="M110.284,397.718c-2.641,0-5.21,1.07-7.07,2.93c-1.86,1.86-2.93,4.44-2.93,7.07c0,2.64,1.069,5.21,2.93,7.07
	c1.86,1.869,4.44,2.93,7.07,2.93s5.21-1.061,7.069-2.93c1.86-1.86,2.931-4.44,2.931-7.07c0-2.63-1.07-5.21-2.931-7.07
	C115.494,398.788,112.914,397.718,110.284,397.718z"/>
<g>
</g>
<g>
</g>
<g>
</g>
<g>
</g>
<g>
</g>
<g>
</g>
<g>
</g>
<g>
</g>
<g>
</g>
<g>
</g>
<g>
</g>
<g>
</g>
<g>
</g>
<g>
</g>
<g>
</g>
</svg>
