<?xml version="1.0" encoding="iso-8859-1"?>
<!-- Generator: Adobe Illustrator 19.0.0, SVG Export Plug-In . SVG Version: 6.00 Build 0)  -->
<svg version="1.1" id="Capa_1" xmlns="http://www.w3.org/2000/svg" xmlns:xlink="http://www.w3.org/1999/xlink" x="0px" y="0px"
	 viewBox="0 0 512 512" style="enable-background:new 0 0 512 512;" xml:space="preserve">
<g>
	<polygon style="fill:#B3B6C3;" points="288.408,327.575 341.978,327.575 502,487.575 448.43,487.575 	"/>
	<polygon style="fill:#B3B6C3;" points="257.995,327.575 201.189,455.575 96,455.575 96,378.575 64,378.575 64,455.575 10,455.575 
		10,487.575 186.988,487.575 225,487.575 226.988,487.575 297.995,327.575 	"/>
</g>
<path style="fill:#EF3C3C;" d="M496.412,38.744l-22.219-12.828c-5.344-3.085-12.176-1.254-15.261,4.089l-137.367,249.57H156.987
	c-6.17,0-11.172,5.002-11.172,11.172v25.656c0,6.17,5.002,11.172,11.172,11.172h184.841c0.251,0,0.497-0.021,0.745-0.038
	c4.116,0.274,8.226-1.737,10.427-5.55L500.501,54.005C503.586,48.662,501.756,41.829,496.412,38.744z"/>
<circle style="fill:#FFB954;" cx="80" cy="340.909" r="37.33"/>
<path d="M233,289.576c2.63,0,5.21-1.07,7.069-2.931c1.86-1.859,2.931-4.439,2.931-7.069s-1.07-5.21-2.931-7.07
	c-1.859-1.86-4.439-2.93-7.069-2.93s-5.21,1.069-7.07,2.93s-2.93,4.44-2.93,7.07s1.069,5.21,2.93,7.069
	C227.79,288.506,230.37,289.576,233,289.576z"/>
<path d="M458,429.441v-97.777c0-5.522-4.478-10-10-10s-10,4.478-10,10v77.78l-78.91-78.899c0.963-1.079,1.826-2.267,2.571-3.557
	c0.033-0.059,0.066-0.118,0.1-0.177L438,188.296v61.367c0,5.522,4.478,10,10,10s10-4.478,10-10v-96.125
	c0-0.471-0.044-0.931-0.107-1.384l51.328-93.253c5.753-10.094,2.267-22.999-7.809-28.817l-22.219-12.827
	c-10.111-5.838-23.083-2.361-28.922,7.748c-0.034,0.06-0.067,0.119-0.101,0.179L315.655,269.575H276c-5.522,0-10,4.478-10,10
	s4.478,10,10,10h45.565c3.646,0,7.003-1.984,8.761-5.178L467.618,34.962c0.334-0.526,1.029-0.702,1.575-0.386l22.218,12.827
	c0.561,0.323,0.753,1.042,0.43,1.602c-0.034,0.06-0.067,0.118-0.101,0.178L344.313,317.031c-0.348,0.548-0.958,0.533-1.073,0.528
	c-0.446-0.029-0.893-0.029-1.339,0l-0.173,0.012l-184.741,0.004c-0.646,0-1.172-0.525-1.172-1.172v-25.656
	c0-0.646,0.525-1.172,1.172-1.172h33.346c5.522,0,10-4.478,10-10s-4.478-10-10-10h-33.346c-11.674,0-21.172,9.498-21.172,21.172
	v25.656c0,11.674,9.498,21.172,21.172,21.172h85.629l-8.885,20.02L106,407.968v-27.534c12.839-8.475,21.333-23.023,21.333-39.525
	c0-26.1-21.233-47.333-47.333-47.333s-47.333,21.233-47.333,47.333c0,16.502,8.494,31.051,21.333,39.525v65.142H10
	c-5.522,0-10,4.478-10,10v32c0,5.522,4.478,10,10,10h216.988c3.954,0,7.536-2.33,9.141-5.943l62.151-140.045l143.08,143.06
	c1.875,1.875,4.418,2.929,7.07,2.929H502c4.045,0,7.691-2.437,9.239-6.174c1.548-3.736,0.691-8.038-2.169-10.897L458,429.441z
	 M222.166,383.656l-27.479,61.919H106v-16.108L222.166,383.656z M80,313.575c15.071,0,27.333,12.262,27.333,27.333
	c0,15.072-12.262,27.334-27.333,27.334s-27.333-12.262-27.333-27.334C52.667,325.837,64.929,313.575,80,313.575z M220.485,477.575
	H20v-12h44c5.522,0,10-4.478,10-10v-67h12v67c0,5.522,4.478,10,10,10h105.189c3.954,0,7.536-2.33,9.141-5.943l54.168-122.057h18.118
	L220.485,477.575z M452.571,477.575l-140.02-140h25.285l140.019,140H452.571z"/>
<path d="M80,350.906c2.63,0,5.21-1.061,7.069-2.931c1.86-1.859,2.931-4.439,2.931-7.069s-1.07-5.21-2.931-7.07
	c-1.859-1.86-4.439-2.93-7.069-2.93s-5.21,1.069-7.07,2.93s-2.93,4.44-2.93,7.07c0,2.64,1.069,5.21,2.93,7.069
	C74.79,349.846,77.37,350.906,80,350.906z"/>
<path d="M448,279.666c-2.63,0-5.21,1.06-7.07,2.93c-1.86,1.86-2.93,4.431-2.93,7.07c0,2.63,1.069,5.21,2.93,7.07
	c1.86,1.859,4.44,2.93,7.07,2.93s5.21-1.07,7.069-2.93c1.86-1.86,2.931-4.44,2.931-7.07c0-2.64-1.07-5.21-2.931-7.07
	C453.21,280.726,450.63,279.666,448,279.666z"/>
<g>
</g>
<g>
</g>
<g>
</g>
<g>
</g>
<g>
</g>
<g>
</g>
<g>
</g>
<g>
</g>
<g>
</g>
<g>
</g>
<g>
</g>
<g>
</g>
<g>
</g>
<g>
</g>
<g>
</g>
</svg>
