<?xml version="1.0" encoding="iso-8859-1"?>
<!-- Generator: Adobe Illustrator 19.0.0, SVG Export Plug-In . SVG Version: 6.00 Build 0)  -->
<svg version="1.1" id="Capa_1" xmlns="http://www.w3.org/2000/svg" xmlns:xlink="http://www.w3.org/1999/xlink" x="0px" y="0px"
	 viewBox="0 0 512 512" style="enable-background:new 0 0 512 512;" xml:space="preserve">
<rect x="10.667" y="236.21" style="fill:#B3B6C3;" width="490.67" height="40"/>
<path style="fill:#4DBAF6;" d="M440.414,120h-12.829C411.246,120,398,133.246,398,149.586v212.829
	c0,16.34,13.246,29.586,29.586,29.586h12.829c16.34,0,29.586-13.246,29.586-29.586V149.586C470,133.246,456.754,120,440.414,120z"/>
<path style="fill:#2E9DE3;" d="M368.414,120h-12.829C339.246,120,326,133.246,326,149.586v212.829
	c0,16.34,13.246,29.586,29.586,29.586h12.829c16.34,0,29.586-13.246,29.586-29.586V149.586C398,133.246,384.754,120,368.414,120z"/>
<path style="fill:#4DBAF6;" d="M71.586,392h12.829c16.34,0,29.586-13.246,29.586-29.586V149.586C114,133.246,100.754,120,84.414,120
	H71.586C55.246,120,42,133.246,42,149.586v212.829C42,378.754,55.246,392,71.586,392z"/>
<path style="fill:#2E9DE3;" d="M143.586,392h12.829c16.34,0,29.586-13.246,29.586-29.586V149.586
	c0-16.34-13.246-29.586-29.586-29.586h-12.829C127.246,120,114,133.246,114,149.586v212.829C114,378.754,127.246,392,143.586,392z"
	/>
<path d="M253.67,246.21c2.63,0,5.21-1.07,7.07-2.93c1.859-1.86,2.93-4.44,2.93-7.07s-1.07-5.21-2.93-7.07
	c-1.86-1.859-4.44-2.93-7.07-2.93c-2.64,0-5.22,1.07-7.07,2.93c-1.87,1.86-2.93,4.44-2.93,7.07s1.06,5.21,2.93,7.07
	C248.46,245.14,251.03,246.21,253.67,246.21z"/>
<path d="M502,226.21h-22v-76.624C480,127.758,462.242,110,440.414,110h-12.828c-11.758,0-22.329,5.158-29.586,13.324
	C390.743,115.158,380.172,110,368.414,110h-12.828C333.758,110,316,127.758,316,149.586v76.624h-27c-5.522,0-10,4.478-10,10
	s4.478,10,10,10h27v20H196v-20h20c5.522,0,10-4.478,10-10s-4.478-10-10-10h-20v-76.624C196,127.758,178.242,110,156.414,110h-12.828
	c-11.758,0-22.329,5.158-29.586,13.324C106.743,115.158,96.172,110,84.414,110H71.586C49.758,110,32,127.758,32,149.586v76.204H10
	c-5.522,0-10,4.478-10,10v40c0,5.522,4.478,10,10,10h22v76.624C32,384.242,49.758,402,71.586,402h12.828
	c11.758,0,22.329-5.158,29.586-13.324c7.257,8.166,17.828,13.324,29.586,13.324h12.828C178.242,402,196,384.242,196,362.414V286.21
	h120v76.204C316,384.242,333.758,402,355.586,402h12.828c11.758,0,22.329-5.158,29.586-13.324
	c7.257,8.166,17.828,13.324,29.586,13.324h12.828C462.242,402,480,384.242,480,362.414V286.21h22c5.522,0,10-4.478,10-10v-40
	C512,230.688,507.522,226.21,502,226.21z M20,265.79v-20h12v20H20z M176,362.414c0,10.8-8.786,19.586-19.586,19.586h-12.828
	c-10.8,0-19.586-8.786-19.586-19.586V331v-38c0-5.522-4.478-10-10-10s-10,4.478-10,10v38v31.414c0,10.8-8.786,19.586-19.586,19.586
	H71.586C60.786,382,52,373.214,52,362.414V149.586C52,138.786,60.786,130,71.586,130h12.828c10.8,0,19.586,8.786,19.586,19.586V175
	v30c0,5.522,4.478,10,10,10s10-4.478,10-10v-30v-25.414c0-10.8,8.786-19.586,19.586-19.586h12.828
	c10.8,0,19.586,8.786,19.586,19.586V362.414z M368.414,382h-12.828c-10.8,0-19.586-8.786-19.586-19.586V149.586
	c0-10.8,8.786-19.586,19.586-19.586h12.828c10.8,0,19.586,8.786,19.586,19.586v212.828C388,373.214,379.214,382,368.414,382z
	 M460,362.414c0,10.8-8.786,19.586-19.586,19.586h-12.828c-10.8,0-19.586-8.786-19.586-19.586V149.586
	c0-10.8,8.786-19.586,19.586-19.586h12.828c10.8,0,19.586,8.786,19.586,19.586V362.414z M492,266.21h-12v-20h12V266.21z"/>
<path d="M114,243c-2.63,0-5.21,1.069-7.07,2.93S104,250.37,104,253s1.069,5.21,2.93,7.069c1.86,1.86,4.44,2.931,7.07,2.931
	s5.21-1.07,7.069-2.931C122.93,258.21,124,255.63,124,253s-1.07-5.21-2.931-7.07C119.21,244.069,116.63,243,114,243z"/>
<g>
</g>
<g>
</g>
<g>
</g>
<g>
</g>
<g>
</g>
<g>
</g>
<g>
</g>
<g>
</g>
<g>
</g>
<g>
</g>
<g>
</g>
<g>
</g>
<g>
</g>
<g>
</g>
<g>
</g>
</svg>
