<?xml version="1.0" encoding="iso-8859-1"?>
<!-- Generator: Adobe Illustrator 19.0.0, SVG Export Plug-In . SVG Version: 6.00 Build 0)  -->
<svg version="1.1" id="Capa_1" xmlns="http://www.w3.org/2000/svg" xmlns:xlink="http://www.w3.org/1999/xlink" x="0px" y="0px"
	 viewBox="0 0 511.999 511.999" style="enable-background:new 0 0 511.999 511.999;" xml:space="preserve">
<path style="fill:#41489D;" d="M175.3,216.526l67.296-67.296c6.211-6.211,16.278-6.211,22.489,0c6.21,6.211,6.21,16.278,0,22.489
	l-67.296,67.296L175.3,216.526z"/>
<circle style="fill:#FEA02C;" cx="115.993" cy="286.392" r="51.997"/>
<circle style="fill:#FFFFFF;" cx="115.993" cy="286.392" r="15.999"/>
<path style="fill:#2E9DE3;" d="M326.49,426.228c-6.143,0-12.283-2.343-16.97-7.029L17.058,126.739
	c-9.372-9.372-9.372-24.566,0-33.939s24.566-9.372,33.939,0L326.49,368.292l134.56-134.56c9.372-9.372,24.566-9.372,33.939,0
	c9.371,9.372,9.371,24.566,0,33.939l-151.53,151.529C338.773,423.886,332.631,426.228,326.49,426.228z"/>
<path d="M501.969,416.23H360.571L502.059,274.74c13.254-13.255,13.254-34.824,0-48.08c-13.256-13.255-34.825-13.255-48.081,0
	l-33.838,33.839c-3.905,3.905-3.905,10.236,0,14.142c3.905,3.904,10.236,3.904,14.141,0l33.838-33.839
	c5.459-5.458,14.34-5.458,19.798-0.001c5.458,5.459,5.458,14.341,0,19.799L336.388,412.129c-2.644,2.645-6.16,4.101-9.898,4.101
	c-3.739,0-7.255-1.456-9.898-4.101L176.233,271.772c-5.452-22.463-23.162-40.173-45.624-45.624L24.128,119.668
	c-5.458-5.458-5.458-14.34,0-19.798c5.459-5.459,14.34-5.459,19.798,0l275.493,275.492c1.875,1.875,4.419,2.929,7.071,2.929
	c2.652,0,5.196-1.054,7.071-2.929l45.558-45.559c3.905-3.905,3.905-10.236,0-14.142c-3.906-3.904-10.236-3.904-14.142,0
	l-38.488,38.488L211.642,239.302l60.513-60.513c10.097-10.098,10.097-26.53,0-36.629c-4.893-4.894-11.396-7.588-18.315-7.588
	c-6.919,0-13.423,2.694-18.315,7.587l-60.513,60.513L58.067,85.728c-6.422-6.422-14.959-9.957-24.04-9.957
	s-17.619,3.536-24.04,9.957c-13.255,13.256-13.255,34.825,0,48.081l11.916,11.916c-1.193,1.647-1.904,3.665-1.904,5.854v264.65
	H9.999c-5.523,0-9.999,4.478-9.999,9.999c0,5.522,4.477,9.999,9.999,9.999h97.661c5.523,0,9.999-4.478,9.999-9.999
	c0-5.522-4.477-9.999-9.999-9.999H39.998v-252.41l62.15,62.15c-27.539,6.31-48.151,30.994-48.151,60.418
	c0,34.185,27.811,61.996,61.996,61.996c29.425,0,54.11-20.613,60.418-48.151L292.408,416.23h-91.42
	c-5.523,0-9.999,4.478-9.999,9.999c0,5.522,4.477,9.999,9.999,9.999h300.981c5.523,0,9.999-4.478,9.999-9.999
	C511.968,420.707,507.491,416.23,501.969,416.23z M249.666,156.3c1.115-1.114,2.597-1.729,4.174-1.729
	c1.576,0,3.059,0.614,4.173,1.729c2.302,2.302,2.302,6.048,0.001,8.348l-60.513,60.512l-8.347-8.347L249.666,156.3z
	 M115.993,328.385c-23.158,0-41.997-18.84-41.997-41.997c0-23.158,18.84-41.997,41.997-41.997s41.997,18.84,41.997,41.997
	C157.99,309.545,139.15,328.385,115.993,328.385z"/>
<path d="M153.66,416.23c-2.63,0-5.21,1.069-7.07,2.93c-1.87,1.86-2.93,4.439-2.93,7.07c0,2.63,1.06,5.21,2.93,7.069
	c1.86,1.86,4.44,2.931,7.07,2.931s5.21-1.07,7.07-2.931c1.86-1.859,2.93-4.439,2.93-7.069c0-2.631-1.07-5.21-2.93-7.07
	S156.29,416.23,153.66,416.23z"/>
<path d="M399.715,305.066c2.63,0,5.21-1.069,7.07-2.93c1.86-1.859,2.93-4.439,2.93-7.07c0-2.63-1.07-5.21-2.93-7.069
	c-1.86-1.86-4.44-2.931-7.07-2.931c-2.63,0-5.21,1.07-7.07,2.931c-1.86,1.859-2.93,4.439-2.93,7.069c0,2.631,1.07,5.211,2.93,7.07
	C394.505,303.996,397.075,305.066,399.715,305.066z"/>
<path d="M115.993,260.389c-14.335,0-25.998,11.662-25.998,25.998s11.663,25.998,25.998,25.998s25.998-11.662,25.998-25.998
	S130.328,260.389,115.993,260.389z M115.993,292.387c-3.309,0-6-2.691-6-6s2.691-6,6-6s6,2.691,6,6S119.302,292.387,115.993,292.387
	z"/>
<g>
</g>
<g>
</g>
<g>
</g>
<g>
</g>
<g>
</g>
<g>
</g>
<g>
</g>
<g>
</g>
<g>
</g>
<g>
</g>
<g>
</g>
<g>
</g>
<g>
</g>
<g>
</g>
<g>
</g>
</svg>
