<?xml version="1.0" encoding="iso-8859-1"?>
<!-- Generator: Adobe Illustrator 19.0.0, SVG Export Plug-In . SVG Version: 6.00 Build 0)  -->
<svg version="1.1" id="Capa_1" xmlns="http://www.w3.org/2000/svg" xmlns:xlink="http://www.w3.org/1999/xlink" x="0px" y="0px"
	 viewBox="0 0 512 512" style="enable-background:new 0 0 512 512;" xml:space="preserve">
<g>
	<circle style="fill:#FEA02C;" cx="256.09" cy="64" r="36"/>
	<circle style="fill:#FEA02C;" cx="138.09" cy="64" r="36"/>
</g>
<g>
	<path style="fill:#B3B6C3;" d="M480,502V26c0-8.837-7.163-16-16-16l0,0c-8.837,0-16,7.163-16,16v476"/>
	<path style="fill:#B3B6C3;" d="M64,502V26c0-8.837-7.163-16-16-16l0,0c-8.837,0-16,7.163-16,16v476"/>
</g>
<circle style="fill:#FEA02C;" cx="161.51" cy="376.32" r="72"/>
<circle style="fill:#FFFFFF;" cx="161.51" cy="376.32" r="32"/>
<circle style="fill:#FEA02C;" cx="350.17" cy="376.32" r="72"/>
<circle style="fill:#FFFFFF;" cx="350.17" cy="376.32" r="32"/>
<circle style="fill:#FF6E37;" cx="256" cy="205.32" r="60"/>
<circle style="fill:#FFFFFF;" cx="256" cy="205.32" r="28"/>
<circle style="fill:#FEA02C;" cx="374.09" cy="64" r="36"/>
<g>
	<circle style="fill:#4DBAF6;" cx="382.67" cy="205.38" r="36"/>
	<circle style="fill:#4DBAF6;" cx="128" cy="205.38" r="36"/>
</g>
<path d="M502,492h-12V26c0-14.337-11.664-26-26-26s-26,11.663-26,26v28h-19.016c-4.58-20.57-22.963-36-44.892-36
	S333.779,33.43,329.2,54h-28.34c-4.58-20.57-22.963-36-44.892-36s-40.313,15.43-44.892,36h-27.731c-4.58-20.57-22.963-36-44.892-36
	S98.138,33.43,93.558,54H74V26C74,11.663,62.336,0,48,0S22,11.663,22,26v466H10c-5.523,0-10,4.478-10,10s4.477,10,10,10h206.333
	c5.523,0,10-4.478,10-10s-4.477-10-10-10H74v-98h7.446c8.107,36.745,40.914,64.325,80.06,64.325c41.828,0,76.417-31.488,81.368-72
	h26.25c4.951,40.512,39.541,72,81.368,72s76.417-31.488,81.368-72H438V492H297.667c-5.523,0-10,4.478-10,10s4.477,10,10,10H502
	c5.523,0,10-4.478,10-10S507.523,492,502,492z M374.091,38c14.336,0,26,11.663,26,26s-11.664,26-26,26s-26-11.663-26-26
	S359.755,38,374.091,38z M255.966,38c14.336,0,26,11.663,26,26s-11.664,26-26,26s-26-11.663-26-26S241.63,38,255.966,38z M138.45,38
	c14.336,0,26,11.663,26,26s-11.664,26-26,26s-26-11.663-26-26S124.114,38,138.45,38z M93.558,74c4.58,20.57,22.963,36,44.892,36
	s40.313-15.43,44.892-36h27.731c4.58,20.57,22.963,36,44.892,36s40.313-15.43,44.892-36h28.34c4.58,20.57,22.963,36,44.892,36
	s40.313-15.43,44.892-36H438v121.379h-9.108c-4.58-20.57-22.963-36-44.892-36s-40.313,15.43-44.892,36h-13.826
	c-4.842-33.906-34.059-60.062-69.282-60.062s-64.44,26.156-69.282,60.062h-13.826c-4.58-20.57-22.963-36-44.892-36
	s-40.313,15.43-44.892,36H74V74H93.558z M410,205.379c0,14.337-11.664,26-26,26s-26-11.663-26-26s11.664-26,26-26
	S410,191.042,410,205.379z M306,205.317c0,27.57-22.43,50-50,50s-50-22.43-50-50s22.43-50,50-50S306,177.747,306,205.317z
	 M154,205.379c0,14.337-11.664,26-26,26s-26-11.663-26-26s11.664-26,26-26S154,191.042,154,205.379z M42,492V26c0-3.309,2.691-6,6-6
	s6,2.691,6,6v466H42z M161.506,438.325c-34.187,0-62-27.813-62-62s27.813-62,62-62s62,27.813,62,62S195.693,438.325,161.506,438.325
	z M350.494,438.325c-34.187,0-62-27.813-62-62s27.813-62,62-62s62,27.813,62,62S384.681,438.325,350.494,438.325z M431.862,366.325
	c-4.951-40.512-39.541-72-81.368-72s-76.417,31.488-81.368,72h-26.25c-4.951-40.512-39.541-72-81.368-72
	c-44.435,0-80.702,35.534-81.941,79.675H74V215.379h9.108c4.58,20.57,22.963,36,44.892,36s40.313-15.43,44.892-36h13.841
	c4.895,33.846,34.085,59.938,69.266,59.938s64.372-26.092,69.266-59.938h13.841c4.58,20.57,22.963,36,44.892,36
	s40.313-15.43,44.892-36H438v150.946L431.862,366.325L431.862,366.325z M458,26c0-3.309,2.691-6,6-6s6,2.691,6,6v466h-12V26z"/>
<path d="M255.67,492c-2.63,0-5.21,1.069-7.07,2.93c-1.86,1.86-2.93,4.44-2.93,7.07s1.07,5.21,2.93,7.069
	c1.86,1.86,4.44,2.931,7.07,2.931c2.63,0,5.21-1.07,7.07-2.931c1.86-1.859,2.93-4.439,2.93-7.069s-1.07-5.21-2.93-7.07
	C260.87,493.069,258.3,492,255.67,492z"/>
<path d="M161.506,334.325c-23.159,0-42,18.841-42,42s18.841,42,42,42s42-18.841,42-42S184.665,334.325,161.506,334.325z
	 M161.506,398.325c-12.131,0-22-9.869-22-22s9.869-22,22-22s22,9.869,22,22S173.637,398.325,161.506,398.325z"/>
<path d="M161.51,366.33c-2.64,0-5.21,1.06-7.08,2.92c-1.86,1.87-2.92,4.439-2.92,7.069c0,2.631,1.06,5.211,2.92,7.08
	c1.87,1.86,4.44,2.931,7.08,2.931c2.63,0,5.21-1.07,7.07-2.931c1.86-1.869,2.93-4.439,2.93-7.08c0-2.63-1.07-5.199-2.93-7.069
	C166.72,367.39,164.14,366.33,161.51,366.33z"/>
<path d="M350.494,334.325c-23.159,0-42,18.841-42,42s18.841,42,42,42s42-18.841,42-42S373.652,334.325,350.494,334.325z
	 M350.494,398.325c-12.131,0-22-9.869-22-22s9.869-22,22-22s22,9.869,22,22S362.625,398.325,350.494,398.325z"/>
<path d="M350.49,366.33c-2.63,0-5.21,1.06-7.07,2.92c-1.86,1.859-2.93,4.439-2.93,7.069c0,2.641,1.07,5.211,2.93,7.08
	c1.86,1.86,4.44,2.931,7.07,2.931s5.21-1.07,7.07-2.931c1.87-1.869,2.93-4.439,2.93-7.08c0-2.63-1.06-5.199-2.93-7.069
	C355.7,367.39,353.13,366.33,350.49,366.33z"/>
<path d="M256,167.317c-20.953,0-38,17.047-38,38s17.047,38,38,38s38-17.047,38-38S276.953,167.317,256,167.317z M256,223.317
	c-9.925,0-18-8.075-18-18s8.075-18,18-18c9.925,0,18,8.075,18,18S265.925,223.317,256,223.317z"/>
<path d="M256,195.319c-2.63,0-5.21,1.07-7.07,2.931c-1.86,1.859-2.93,4.43-2.93,7.069c0,2.631,1.07,5.211,2.93,7.07
	c1.86,1.86,4.44,2.93,7.07,2.93s5.21-1.069,7.07-2.93c1.86-1.87,2.93-4.439,2.93-7.07c0-2.63-1.07-5.21-2.93-7.069
	C261.21,196.39,258.63,195.319,256,195.319z"/>
<path d="M138.45,74c2.63,0,5.21-1.07,7.07-2.931c1.86-1.859,2.93-4.439,2.93-7.069s-1.07-5.21-2.93-7.07
	c-1.86-1.86-4.44-2.93-7.07-2.93s-5.21,1.069-7.07,2.93s-2.93,4.44-2.93,7.07c0,2.63,1.07,5.21,2.93,7.069
	C133.24,72.93,135.82,74,138.45,74z"/>
<path d="M255.97,74c2.63,0,5.2-1.07,7.07-2.931c1.86-1.859,2.93-4.439,2.93-7.069s-1.07-5.21-2.93-7.07
	c-1.87-1.86-4.44-2.93-7.07-2.93c-2.64,0-5.21,1.069-7.07,2.93c-1.87,1.86-2.93,4.44-2.93,7.07c0,2.63,1.06,5.21,2.93,7.069
	C250.76,72.93,253.33,74,255.97,74z"/>
<path d="M374.09,74c2.63,0,5.21-1.07,7.07-2.931c1.86-1.859,2.93-4.439,2.93-7.069s-1.07-5.21-2.93-7.07S376.72,54,374.09,54
	s-5.21,1.069-7.07,2.93c-1.86,1.86-2.93,4.44-2.93,7.07c0,2.63,1.07,5.21,2.93,7.069C368.88,72.93,371.46,74,374.09,74z"/>
<path d="M376.93,198.31c-1.86,1.86-2.93,4.44-2.93,7.07s1.07,5.21,2.93,7.07c1.86,1.859,4.44,2.93,7.07,2.93s5.21-1.07,7.07-2.93
	c1.86-1.86,2.93-4.44,2.93-7.07s-1.07-5.21-2.93-7.07c-1.86-1.859-4.44-2.93-7.07-2.93S378.79,196.45,376.93,198.31z"/>
<path d="M120.93,198.31c-1.86,1.86-2.93,4.431-2.93,7.07c0,2.63,1.07,5.21,2.93,7.07c1.86,1.859,4.44,2.93,7.07,2.93
	c2.63,0,5.21-1.07,7.07-2.93c1.86-1.86,2.93-4.44,2.93-7.07s-1.07-5.21-2.93-7.07c-1.86-1.859-4.44-2.93-7.07-2.93
	C125.37,195.38,122.79,196.45,120.93,198.31z"/>
<g>
</g>
<g>
</g>
<g>
</g>
<g>
</g>
<g>
</g>
<g>
</g>
<g>
</g>
<g>
</g>
<g>
</g>
<g>
</g>
<g>
</g>
<g>
</g>
<g>
</g>
<g>
</g>
<g>
</g>
</svg>
