<?xml version="1.0" encoding="iso-8859-1"?>
<!-- Generator: Adobe Illustrator 19.0.0, SVG Export Plug-In . SVG Version: 6.00 Build 0)  -->
<svg version="1.1" id="Capa_1" xmlns="http://www.w3.org/2000/svg" xmlns:xlink="http://www.w3.org/1999/xlink" x="0px" y="0px"
	 viewBox="0 0 511.999 511.999" style="enable-background:new 0 0 511.999 511.999;" xml:space="preserve">
<g>
	<circle style="fill:#5A54E0;" cx="447.469" cy="117.746" r="33.999"/>
	<circle style="fill:#5A54E0;" cx="480.548" cy="209.934" r="21.447"/>
</g>
<g>
	<path style="fill:#EF3C3C;" d="M66.513,356.698c-8.504,0-16.741-4.529-21.095-12.521c-6.342-11.64-2.047-26.215,9.591-32.557
		l288.758-158.782c11.639-6.343,26.215-2.048,32.557,9.591c6.343,11.64,2.048,26.215-9.591,32.557L77.975,353.768
		C74.329,355.754,70.393,356.698,66.513,356.698z"/>
	<path style="fill:#EF3C3C;" d="M485.998,428.255c-5.773,0-11.349-3.134-14.202-8.607l-25.107-48.496l-79.09-152.767
		c-4.084-7.836-1.043-17.499,6.793-21.583c7.837-4.086,17.499-1.043,21.583,6.793l82.703,159.744l21.495,41.519
		c4.084,7.836,1.043,17.499-6.793,21.583C491.018,427.672,488.49,428.255,485.998,428.255z"/>
</g>
<g>
	<path style="fill:#B3B6C3;" d="M81.998,428.255H10v-66.831c0-19.882,16.118-35.999,35.999-35.999l0,0
		c19.882,0,35.999,16.118,35.999,35.999V428.255z"/>
	<path style="fill:#B3B6C3;" d="M469.531,363.342c-17.926,0-32.456,14.531-32.456,32.456v32.456h64.912v-32.456
		C501.987,377.874,487.457,363.342,469.531,363.342z"/>
</g>
<path d="M191.355,246.649c2.63,0,5.21-1.069,7.07-2.93c1.86-1.86,2.93-4.439,2.93-7.07c0-2.63-1.07-5.21-2.93-7.069
	c-1.86-1.87-4.44-2.931-7.07-2.931c-2.63,0-5.21,1.061-7.07,2.931c-1.87,1.859-2.93,4.439-2.93,7.069c0,2.631,1.06,5.21,2.93,7.07
	C186.145,245.579,188.715,246.649,191.355,246.649z"/>
<path d="M447.469,127.743c2.63,0,5.21-1.07,7.07-2.931c1.86-1.859,2.93-4.439,2.93-7.069c0-2.631-1.07-5.21-2.93-7.07
	c-1.86-1.86-4.44-2.93-7.07-2.93c-2.63,0-5.21,1.069-7.07,2.93c-1.86,1.86-2.93,4.439-2.93,7.07c0,2.63,1.07,5.21,2.93,7.069
	C442.259,126.672,444.839,127.743,447.469,127.743z"/>
<path d="M486.631,356.951l-53.984-104.273l28.976-17.654c5.27,3.985,11.827,6.354,18.929,6.354
	c17.341,0,31.447-14.107,31.447-31.447s-14.107-31.447-31.447-31.447c-17.341,0-31.447,14.107-31.447,31.447
	c0,2.972,0.423,5.845,1.197,8.573l-26.872,16.371l-18.588-35.903c-3.21-6.158-8.626-10.697-15.25-12.782
	c-0.797-0.251-1.6-0.461-2.406-0.634c0.243-0.67,0.474-1.346,0.677-2.036c1.648-5.595,1.826-11.385,0.597-16.926l28-17.669
	c7.96,7.916,18.922,12.817,31.008,12.817c24.261,0,43.999-19.738,43.999-43.999s-19.738-43.999-43.999-43.999
	c-24.261,0-43.999,19.737-43.999,43.999c0,4.98,0.844,9.765,2.376,14.233l-27.258,17.201c-3.843-3.633-8.51-6.341-13.73-7.878
	c-8.712-2.566-17.902-1.588-25.916,2.782l-116.439,64.162c-4.837,2.665-6.598,8.747-3.932,13.584
	c2.666,4.837,8.748,6.596,13.584,3.933l116.398-64.141c3.283-1.789,7.066-2.192,10.654-1.136c3.587,1.057,6.548,3.447,8.337,6.731
	c1.789,3.283,2.193,7.067,1.136,10.654c-1.057,3.587-3.447,6.548-6.764,8.355L85.645,338.138
	c-5.167-8.764-13.152-15.668-22.703-19.467l93.871-51.575c4.84-2.66,6.608-8.739,3.949-13.58c-2.66-4.839-8.739-6.608-13.58-3.949
	l-96.957,53.271c-5.817,3.17-10.472,7.858-13.565,13.541C15.759,320.707,0,339.259,0,361.423v66.831c0,5.522,4.477,10,10,10h71.998
	c5.523,0,10-4.478,10-10v-66.831c0-1.301-0.068-2.585-0.174-3.859L355.83,212.393c0.188,3.593,1.122,7.2,2.889,10.59l76.527,147.815
	c-5.132,7.019-8.171,15.66-8.171,25v32.456c0,5.522,4.477,10,10,10h64.912c5.523,0,10-4.478,10-10v-32.456
	C511.987,378.47,501.547,363.543,486.631,356.951z M480.552,198.483c6.313,0,11.448,5.136,11.448,11.448
	c0,6.312-5.136,11.448-11.448,11.448s-11.448-5.136-11.448-11.448C469.104,203.619,474.24,198.483,480.552,198.483z M71.998,418.255
	H19.999v-56.832c0-14.337,11.664-25.999,25.999-25.999s25.999,11.663,25.999,25.999V418.255z M447.469,93.744
	c13.233,0,23.999,10.767,23.999,23.999c0,13.233-10.767,23.999-23.999,23.999s-23.999-10.767-23.999-23.999
	S434.236,93.744,447.469,93.744z M379.014,205.668c1.42-0.74,3.045-0.886,4.573-0.402c1.529,0.48,2.779,1.529,3.507,2.926
	l75.449,145.735c-4.09,0.68-7.985,1.941-11.594,3.706l-74.484-143.87C374.937,210.829,376.08,207.198,379.014,205.668z
	 M491.988,418.255h-44.913v-22.456c0-12.383,10.074-22.456,22.456-22.456c12.383,0,22.456,10.074,22.456,22.456V418.255z"/>
<g>
</g>
<g>
</g>
<g>
</g>
<g>
</g>
<g>
</g>
<g>
</g>
<g>
</g>
<g>
</g>
<g>
</g>
<g>
</g>
<g>
</g>
<g>
</g>
<g>
</g>
<g>
</g>
<g>
</g>
</svg>
