<?xml version="1.0" encoding="iso-8859-1"?>
<!-- Generator: Adobe Illustrator 19.0.0, SVG Export Plug-In . SVG Version: 6.00 Build 0)  -->
<svg version="1.1" id="Capa_1" xmlns="http://www.w3.org/2000/svg" xmlns:xlink="http://www.w3.org/1999/xlink" x="0px" y="0px"
	 viewBox="0 0 512.002 512.002" style="enable-background:new 0 0 512.002 512.002;" xml:space="preserve">
<g>
	<rect x="319.54" y="276.001" style="fill:#D8D8E4;" width="48" height="51"/>
	<polygon style="fill:#D8D8E4;" points="448.001,448.001 366.519,448.001 366.519,502.001 477.845,502.001 	"/>
	<polyline style="fill:#D8D8E4;" points="74.249,462.006 57.343,502.001 139.797,502.001 139.797,462.006 	"/>
</g>
<path style="fill:#2E9DE3;" d="M167.381,98.049L86.673,17.181c-9.573-9.573-25.093-9.573-34.666,0l0,0
	c-9.573,9.573-9.573,25.093,0,34.666l80.708,80.868c9.573,9.573,25.093,9.573,34.666,0l0,0
	C176.954,123.142,176.954,107.622,167.381,98.049z"/>
<polygon style="fill:#D8D8E4;" points="64.001,64.001 64.001,302.455 120.001,302.441 120.001,124.335 "/>
<g>
	<path style="fill:#EF3C3C;" d="M415.918,236.001h-144.75c-8.56,0-15.5,6.94-15.5,15.5v9c0,8.56,6.94,15.5,15.5,15.5h144.75
		c8.56,0,15.5-6.94,15.5-15.5v-9C431.418,242.941,424.478,236.001,415.918,236.001z"/>
	<path style="fill:#EF3C3C;" d="M429.422,267.916l70.5-122.11c4.28-7.414,1.74-16.893-5.673-21.173l-7.794-4.5
		c-7.414-4.28-16.893-1.74-21.173,5.673l-63.429,109.862"/>
</g>
<path style="fill:#D8D8E4;" d="M220.001,392.001h268.25c7.594,0,13.75,6.156,13.75,13.75v28.5c0,7.594-6.156,13.75-13.75,13.75
	H210.988L220.001,392.001z"/>
<path style="fill:#4DBAF6;" d="M204.5,372.522l0.005-0.014l-63.825-51.675c-13.814-11.467-31.558-18.363-50.914-18.363
	C45.713,302.469,10,338.182,10,382.235s35.713,79.766,79.766,79.766h81.016c0.062,0,0.123,0.005,0.185,0.005
	c28.185,0,51.033-22.848,51.033-51.033C222,395.629,215.218,381.877,204.5,372.522z"/>
<circle style="fill:#FFFFFF;" cx="89.64" cy="382.231" r="36"/>
<path d="M64.001,191.334c5.523,0,10-4.478,10-10v-1.333c0-5.522-4.477-10-10-10s-10,4.478-10,10v1.333
	C54.001,186.857,58.478,191.334,64.001,191.334z"/>
<path d="M488.251,458.001c13.096,0,23.75-10.654,23.75-23.75v-28.5c0-13.096-10.654-23.75-23.75-23.75h-49.638l-19.413-56.39
	c-3.832-11.131-14.316-18.61-26.087-18.61h-15.57v-21h38.375c10.188,0,18.996-6.009,23.077-14.666l69.588-120.529
	c7.03-12.178,2.843-27.804-9.333-34.834l-7.794-4.5c-5.898-3.406-12.771-4.31-19.35-2.548c-6.579,1.764-12.078,5.983-15.483,11.882
	l-60.736,105.195h-124.72c-14.061,0-25.5,11.439-25.5,25.5v9c0,14.061,11.439,25.5,25.5,25.5h38.375v21h-15.57
	c-11.772,0-22.256,7.479-26.088,18.609l-19.412,56.391h-23.821c-3.35-6.201-7.766-11.852-13.151-16.64
	c-0.223-0.218-0.457-0.427-0.703-0.625l-63.779-51.64c-5.255-4.356-10.976-8.057-17.018-11.084V195.005l12.648,12.648
	c1.953,1.952,4.512,2.929,7.071,2.929s5.119-0.977,7.071-2.929l37.821-37.82c31.214-31.216,31.214-82.006,0-113.222l-28.547-28.547
	c-3.905-3.904-10.237-3.904-14.142,0c-3.905,3.905-3.905,10.237,0,14.143l28.547,28.547c23.417,23.417,23.417,61.52,0,84.937
	l-30.75,30.75L130,166.722V143.47c5.973,4.267,13.008,6.409,20.047,6.409c8.838,0,17.676-3.364,24.404-10.092
	c6.519-6.52,10.108-15.187,10.108-24.404c0-9.216-3.587-17.88-10.102-24.397L93.745,10.11C87.226,3.591,78.559,0.001,69.34,0.001
	S51.455,3.591,44.937,10.11c-6.519,6.519-10.109,15.186-10.109,24.404S38.418,52.4,44.93,58.911l9.12,9.138
	c-0.03,0.314-0.048,0.631-0.048,0.952v60.454c0,5.522,4.477,10,10,10s10-4.478,10-10V88.041l36.011,36.082
	c-0.001,0.071-0.011,0.14-0.011,0.211v22.387l-4.36-4.36c-3.905-3.904-10.237-3.904-14.142,0c-3.905,3.905-3.905,10.237,0,14.143
	l18.502,18.502v119.797c-6.6-1.53-13.386-2.333-20.235-2.333c-5.377,0-10.645,0.477-15.765,1.387v-70.188c0-5.522-4.477-10-10-10
	s-10,4.478-10,10v76.242C22.252,313.757,0,345.445,0,382.236c0,39.494,25.638,73.112,61.145,85.086l-10.432,24.679H10.001
	c-5.523,0-10,4.478-10,10s4.477,10,10,10h47.342h82.455h41.189c5.523,0,10-4.478,10-10s-4.477-10-10-10h-31.189v-20h20.853
	c0.111,0.003,0.232,0.005,0.317,0.005c14.785,0,28.357-5.287,38.93-14.067c0.359,0.039,0.722,0.062,1.091,0.062H356.52v34h-10.852
	c-5.523,0-10,4.478-10,10s4.477,10,10,10h20.852h111.326h24.156c5.523,0,10-4.478,10-10s-4.477-10-10-10h-18.257l-18.791-34H488.251
	z M59.079,24.252c2.741-2.741,6.385-4.251,10.261-4.251s7.521,1.51,10.255,4.244l80.708,80.868c0.002,0.002,0.005,0.005,0.007,0.007
	c2.741,2.741,4.25,6.385,4.25,10.262c0,3.876-1.51,7.521-4.25,10.262c-5.659,5.658-14.866,5.659-20.517,0.007L59.078,44.776
	c-2.741-2.741-4.251-6.385-4.251-10.262S56.337,26.994,59.079,24.252z M473.941,130.806c0.735-1.272,1.921-2.183,3.34-2.563
	c1.419-0.38,2.901-0.185,4.173,0.55l7.794,4.5c2.626,1.517,3.529,4.887,2.013,7.514l-55.027,95.309
	c-4.097-5.397-10.291-9.115-17.357-9.936L473.941,130.806z M265.667,260.501v-9c0-3.033,2.467-5.5,5.5-5.5h144.75
	c3.033,0,5.5,2.467,5.5,5.5v9c0,0.645-0.117,1.262-0.322,1.837l-0.333,0.577c-0.167,0.289-0.315,0.583-0.45,0.88
	c-1.004,1.337-2.598,2.206-4.394,2.206h-48.375h-48h-48.375C268.135,266.001,265.667,263.535,265.667,260.501z M357.542,286.001v31
	h-28v-31H357.542z M286.796,332.121c1.054-3.062,3.938-5.119,7.177-5.119h15.57c0,5.522,4.477,10,10,10h48c5.523,0,10-4.478,10-10
	h15.57c3.238,0,6.122,2.058,7.176,5.119l17.171,49.88H269.625L286.796,332.121z M255.606,402.001h175.873h56.772
	c2.068,0,3.75,1.683,3.75,3.75v28.5c0,2.067-1.682,3.75-3.75,3.75h-40.25h-81.482h-140.85c4.045-8.153,6.331-17.327,6.331-27.028
	c0-3.024-0.239-6.02-0.679-8.972H255.606z M129.797,492.001h-57.37l8.633-20.423c2.866,0.277,5.769,0.423,8.706,0.423h40.031
	V492.001z M171.092,452.006c-0.109-0.003-0.227-0.005-0.309-0.005H89.766C51.297,452.001,20,420.705,20,382.236
	c0-38.47,31.297-69.767,69.766-69.767c16.239,0,32.053,5.703,44.527,16.058c0.031,0.026,0.063,0.052,0.095,0.077l63.421,51.35
	c0.039,0.035,0.077,0.068,0.115,0.103C206.87,387.863,212,399.132,212,410.973C212,433.557,193.661,451.939,171.092,452.006z
	 M460.893,492.001h-84.374v-34h65.583L460.893,492.001z"/>
<path d="M138.909,409.992l-3.686,3.686l-6.779-6.779c4.551-7.134,7.201-15.593,7.201-24.663c0-25.364-20.636-46-46-46
	s-46,20.636-46,46s20.636,46,46,46c9.067,0,17.523-2.648,24.655-7.196l6.78,6.781l-3.686,3.687c-3.905,3.905-3.905,10.237,0,14.143
	c1.953,1.952,4.512,2.929,7.071,2.929s5.119-0.977,7.071-2.929l10.755-10.755c0.001-0.001,0.002-0.002,0.002-0.002
	c0.002-0.001,0.002-0.002,0.003-0.003l10.755-10.755c3.905-3.905,3.905-10.237,0-14.143
	C149.146,406.087,142.814,406.087,138.909,409.992z M89.645,408.236c-14.336,0-26-11.663-26-26s11.664-26,26-26s26,11.663,26,26
	c0,3.504-0.701,6.847-1.963,9.901l-16.966-16.966c-3.905-3.904-10.237-3.904-14.143,0c-3.905,3.905-3.905,10.237,0,14.143
	l16.962,16.962C96.485,407.536,93.146,408.236,89.645,408.236z"/>
<path d="M303.501,492.001c-2.63,0-5.21,1.069-7.07,2.93c-1.86,1.86-2.93,4.44-2.93,7.07s1.07,5.21,2.93,7.069
	c1.86,1.86,4.44,2.931,7.07,2.931s5.21-1.07,7.07-2.931c1.86-1.859,2.93-4.439,2.93-7.069s-1.07-5.21-2.93-7.07
	S306.131,492.001,303.501,492.001z"/>
<g>
</g>
<g>
</g>
<g>
</g>
<g>
</g>
<g>
</g>
<g>
</g>
<g>
</g>
<g>
</g>
<g>
</g>
<g>
</g>
<g>
</g>
<g>
</g>
<g>
</g>
<g>
</g>
<g>
</g>
</svg>
