<?xml version="1.0" encoding="iso-8859-1"?>
<!-- Generator: Adobe Illustrator 19.0.0, SVG Export Plug-In . SVG Version: 6.00 Build 0)  -->
<svg version="1.1" id="Capa_1" xmlns="http://www.w3.org/2000/svg" xmlns:xlink="http://www.w3.org/1999/xlink" x="0px" y="0px"
	 viewBox="0 0 511.999 511.999" style="enable-background:new 0 0 511.999 511.999;" xml:space="preserve">
<rect x="381.01" y="11" style="fill:#D8D8E4;" width="40" height="451"/>
<g>
	<rect x="37" y="462" style="fill:#62CD4D;" width="438" height="40"/>
	<path style="fill:#62CD4D;" d="M61.013,64H451c13.255,0,24,10.745,24,24l0,0c0,13.255-10.745,24-24,24H61.013
		c-13.255,0-24-10.745-24-24l0,0C37.013,74.745,47.758,64,61.013,64z"/>
</g>
<path d="M475,452h-43.987V122H451c18.748,0,34-15.252,34-34s-15.252-34-34-34h-19.987V10c0-5.522-4.477-10-10-10h-40
	c-5.523,0-10,4.478-10,10v44h-310c-18.748,0-34,15.252-34,34s15.252,34,34,34H153c5.523,0,10-4.478,10-10s-4.477-10-10-10H61.013
	c-7.72,0-14-6.28-14-14s6.28-14,14-14h320h40H451c7.72,0,14,6.28,14,14s-6.28,14-14,14h-29.987h-40H242c-5.523,0-10,4.478-10,10
	s4.477,10,10,10h129.013v330h-90.358l44.672-44.672c3.905-3.905,3.906-10.237,0-14.143c-3.906-3.903-10.237-3.904-14.143,0
	l-58.243,58.243c-0.184,0.184-0.35,0.377-0.516,0.571H37c-5.523,0-10,4.478-10,10v40c0,5.522,4.477,10,10,10h438
	c5.523,0,10-4.478,10-10v-40C485,456.478,480.523,452,475,452z M391.013,54V20h20v34H391.013z M391.013,122h20v330h-20V122z
	 M465,492H47v-20h334.013h40H465V492z"/>
<path d="M208.07,119.069c1.86-1.859,2.93-4.439,2.93-7.069s-1.07-5.21-2.93-7.07S203.63,102,201,102s-5.21,1.069-7.07,2.93
	c-1.86,1.86-2.93,4.44-2.93,7.07s1.07,5.21,2.93,7.069c1.86,1.86,4.44,2.931,7.07,2.931S206.21,120.93,208.07,119.069z"/>
<path d="M350.328,382.328l0.167-0.167c3.905-3.905,3.905-10.237,0-14.143c-3.905-3.904-10.237-3.904-14.143,0l-0.167,0.167
	c-3.905,3.905-3.905,10.237,0,14.143c1.953,1.952,4.512,2.929,7.071,2.929S348.375,384.28,350.328,382.328z"/>
<path d="M428.079,95.06c1.86-1.859,2.93-4.439,2.93-7.069c0-2.631-1.07-5.21-2.93-7.07s-4.44-2.93-7.07-2.93s-5.21,1.069-7.07,2.93
	s-2.93,4.43-2.93,7.07c0,2.63,1.07,5.21,2.93,7.069c1.86,1.86,4.44,2.931,7.07,2.931C423.65,97.99,426.22,96.92,428.079,95.06z"/>
<path d="M388.079,95.06c1.86-1.859,2.93-4.439,2.93-7.069c0-2.631-1.07-5.21-2.93-7.07s-4.44-2.93-7.07-2.93s-5.21,1.069-7.07,2.93
	s-2.93,4.439-2.93,7.07c0,2.63,1.07,5.21,2.93,7.069c1.86,1.86,4.44,2.931,7.07,2.931C383.65,97.99,386.22,96.92,388.079,95.06z"/>
<path d="M348.079,95.06c1.86-1.859,2.93-4.439,2.93-7.069c0-2.631-1.07-5.21-2.93-7.07s-4.44-2.93-7.07-2.93s-5.21,1.069-7.07,2.93
	s-2.93,4.43-2.93,7.07c0,2.63,1.07,5.21,2.93,7.069c1.86,1.86,4.44,2.931,7.07,2.931C343.65,97.99,346.22,96.92,348.079,95.06z"/>
<g>
</g>
<g>
</g>
<g>
</g>
<g>
</g>
<g>
</g>
<g>
</g>
<g>
</g>
<g>
</g>
<g>
</g>
<g>
</g>
<g>
</g>
<g>
</g>
<g>
</g>
<g>
</g>
<g>
</g>
</svg>
