<?xml version="1.0" encoding="iso-8859-1"?>
<!-- Generator: Adobe Illustrator 19.0.0, SVG Export Plug-In . SVG Version: 6.00 Build 0)  -->
<svg version="1.1" id="Capa_1" xmlns="http://www.w3.org/2000/svg" xmlns:xlink="http://www.w3.org/1999/xlink" x="0px" y="0px"
	 viewBox="0 0 512 512" style="enable-background:new 0 0 512 512;" xml:space="preserve">
<g>
	<rect x="435" y="286" style="fill:#41489D;" width="40" height="72"/>
	<path style="fill:#41489D;" d="M153,10h-40v40.333C113,57.881,119.119,64,126.667,64h12.667C146.881,64,153,57.881,153,50.333V10z"
		/>
</g>
<path style="fill:#EF3C3C;" d="M89.5,148h87c28.995,0,52.5,23.505,52.5,52.5v249c0,28.995-23.505,52.5-52.5,52.5h-87
	C60.505,502,37,478.495,37,449.5v-249C37,171.505,60.505,148,89.5,148z"/>
<rect x="37" y="198.33" style="fill:#FFEFD5;" width="192" height="249.67"/>
<path d="M350.56,121.56c-2.63,0-5.21,1.07-7.07,2.93s-2.93,4.44-2.93,7.07c0,2.64,1.07,5.21,2.93,7.07
	c1.86,1.87,4.44,2.93,7.07,2.93c2.64,0,5.21-1.06,7.08-2.93c1.86-1.86,2.92-4.44,2.92-7.07s-1.06-5.21-2.92-7.07
	C355.77,122.63,353.2,121.56,350.56,121.56z"/>
<path d="M485,93.995V10c0-5.523-4.477-10-10-10H37c-5.523,0-10,4.477-10,10s4.477,10,10,10h66v30.333
	c0,9.467,5.59,17.649,13.64,21.431l-29.272,66.29c-32.292,1.09-58.448,26.781-60.26,58.888C27.044,197.398,27,200.016,27,200.5v249
	c0,34.462,28.038,62.5,62.5,62.5h87c34.462,0,62.5-28.038,62.5-62.5v-249c0-0.484-0.044-3.102-0.108-3.558
	C237.041,164.13,209.768,138,176.5,138h-1.891l-28.677-64.943C155.78,70.193,163,61.094,163,50.333V20h61.912
	c0.166,0.194,0.333,0.388,0.516,0.571l89.664,89.664c1.953,1.953,4.512,2.929,7.071,2.929s5.119-0.976,7.071-2.929
	c3.905-3.905,3.905-10.237,0-14.143L253.143,20h133.77c0.166,0.194,0.333,0.388,0.516,0.571L465,98.143v133.715l-81.202-81.202
	c-3.905-3.905-10.237-3.905-14.143,0c-3.905,3.905-3.905,10.237,0,14.143L465,260.143V276h-30c-5.523,0-10,4.477-10,10v72
	c0,5.523,4.477,10,10,10h40c5.523,0,10-4.477,10-10v-72V94.005C485,94.002,485,93.998,485,93.995z M219,438H47V208.333h122V306
	c0,5.523,4.477,10,10,10s10-4.477,10-10v-97.667h30V438z M173.58,185.181c-1.249,0.808-2.3,1.886-3.083,3.152H87.029L100.423,158
	h61.154L173.58,185.181z M109.255,138L121,111.402V138H109.255z M77.835,159.641l-12.67,28.693H48.784
	C52.925,174.501,63.933,163.616,77.835,159.641z M176.5,492h-87c-20.524,0-37.696-14.625-41.645-34h170.29
	C214.196,477.375,197.024,492,176.5,492z M217.216,188.333h-20.381l-13.118-29.708C199.691,161.371,212.642,173.056,217.216,188.333
	z M141,138v-26.598L152.745,138H141z M143,50.333c0,2.021-1.645,3.667-3.667,3.667h-8.152c-0.02,0-0.039,0-0.058,0h-0.266
	c-0.009,0-0.019,0-0.028,0h-4.163c-2.021,0-3.667-1.645-3.667-3.667V20h20v30.333H143z M415.143,20H465v49.857L415.143,20z M445,296
	h20v52h-20V296z"/>
<path d="M179,333.67c-2.63,0-5.21,1.06-7.07,2.92c-1.86,1.87-2.93,4.45-2.93,7.08s1.07,5.21,2.93,7.07
	c1.86,1.86,4.44,2.93,7.07,2.93s5.21-1.07,7.07-2.93s2.93-4.44,2.93-7.07s-1.07-5.21-2.93-7.08
	C184.21,334.73,181.63,333.67,179,333.67z"/>
<g>
</g>
<g>
</g>
<g>
</g>
<g>
</g>
<g>
</g>
<g>
</g>
<g>
</g>
<g>
</g>
<g>
</g>
<g>
</g>
<g>
</g>
<g>
</g>
<g>
</g>
<g>
</g>
<g>
</g>
</svg>
