<?xml version="1.0" encoding="iso-8859-1"?>
<!-- Generator: Adobe Illustrator 19.0.0, SVG Export Plug-In . SVG Version: 6.00 Build 0)  -->
<svg version="1.1" id="Capa_1" xmlns="http://www.w3.org/2000/svg" xmlns:xlink="http://www.w3.org/1999/xlink" x="0px" y="0px"
	 viewBox="0 0 512 512" style="enable-background:new 0 0 512 512;" xml:space="preserve">
<path style="fill:#FF5D5D;" d="M199.384,182.889L197.999,177v-32.002c0-45.196,36.639-80.998,81.835-80.998h140.33
	c45.196,0,81.835,36.639,81.835,81.835V284.31c0,37.074-14.018,72.777-39.242,99.948L449.999,398h-200l-0.098-0.418l-0.007,7.524
	l-41.899-41.9c-26.884-26.884-41.988-63.347-41.988-101.367v-37.843C166.006,203.757,180.325,186.865,199.384,182.889z"/>
<path style="fill:#FF8E4B;" d="M267.997,398H432c9.94,0,17.999,8.058,17.999,17.999v68.003c0,9.94-8.058,17.999-17.999,17.999
	H267.997c-9.94,0-17.999-8.058-17.999-17.999v-68.003C249.999,406.058,258.057,398,267.997,398z"/>
<path style="fill:#EF3C3C;" d="M312.616,128.889l1.386-5.889V90.998c0-45.196-36.639-80.998-81.835-80.998H91.836
	C46.64,10,10.001,46.639,10.001,91.835V230.31c0,37.074,14.018,72.777,39.242,99.948L62.001,344h200l0.098-0.418l0.007,7.524
	l41.899-41.9c26.884-26.884,41.988-63.347,41.988-101.367v-37.843C345.994,149.757,331.675,132.865,312.616,128.889z"/>
<path style="fill:#FF6E37;" d="M244.003,344H80c-9.94,0-17.999,8.058-17.999,17.999v68.003C62.001,439.942,70.06,448,80,448h164.003
	c9.94,0,17.999-8.058,17.999-17.999v-68.003C262.001,352.058,253.943,344,244.003,344z"/>
<path d="M56.398,151.93c-1.859-1.86-4.439-2.93-7.069-2.93s-5.21,1.069-7.07,2.93s-2.93,4.44-2.93,7.07s1.069,5.21,2.93,7.069
	c1.86,1.86,4.44,2.931,7.07,2.931s5.21-1.07,7.069-2.931c1.86-1.859,2.931-4.439,2.931-7.069S58.258,153.79,56.398,151.93z"/>
<path d="M49.33,133.667c5.522,0,10-4.478,10-10v-21.833C59.33,78.215,78.545,59,102.165,59h38.583c5.522,0,10-4.478,10-10
	s-4.478-10-10-10h-38.583C67.517,39,39.33,67.188,39.33,101.834v21.833C39.33,129.189,43.807,133.667,49.33,133.667z"/>
<path d="M420.164,54h-103.99c-4.535-10.175-10.953-19.519-19.121-27.571C279.766,9.386,256.722,0,232.167,0H91.836
	C41.199,0,0.001,41.197,0.001,91.835V230.31c0,39.727,14.885,77.639,41.913,106.751l12.537,13.506
	c-1.569,3.494-2.45,7.361-2.45,11.433v68.002C52.001,445.439,64.561,458,80,458h159.999v26.001
	c0,15.438,12.561,27.999,27.999,27.999H432c15.438,0,27.999-12.561,27.999-27.999v-68.002c0-4.072-0.881-7.939-2.451-11.433
	l12.537-13.506c27.029-29.112,41.914-67.024,41.914-106.751V145.835C511.999,95.197,470.801,54,420.164,54z M20.001,230.31V91.835
	C20.001,52.225,52.226,20,91.836,20h140.33c39.61,0,71.835,31.85,71.835,70.997V118h-0.004c-28.671,0-51.996,23.325-51.996,51.996
	v69.557c0,5.522,4.478,10,10,10s10-4.478,10-10v-69.557c0-17.643,14.354-31.996,31.996-31.996s31.996,14.354,31.996,31.996v37.843
	c0,35.62-13.871,69.109-39.059,94.296l-32.242,32.242c-0.857-0.239-1.758-0.377-2.691-0.377h-17.999H80H66.363l-9.791-10.547
	C32.989,298.051,20.001,264.973,20.001,230.31z M72.001,430.001V418h90c5.522,0,10-4.478,10-10s-4.478-10-10-10h-90v-36.001
	c0-4.411,3.588-7.999,7.998-7.999h164.003c4.411,0,7.999,3.588,7.999,7.999v68.002c0,4.411-3.588,7.999-7.999,7.999H80
	C75.589,438,72.001,434.412,72.001,430.001z M432,492H267.998c-4.411,0-7.999-3.588-7.999-7.999v-31.04
	c7.249-5.065,12.003-13.466,12.003-22.96V408h85.997H432c4.411,0,7.999,3.588,7.999,7.999V452h-56c-5.522,0-10,4.478-10,10
	s4.478,10,10,10h56v12.001C439.999,488.412,436.411,492,432,492z M491.999,284.31c0,34.663-12.987,67.741-36.571,93.144L445.637,388
	H432h-74.001h-85.997v-26.001c0-2.057-0.229-4.061-0.652-5.993l39.729-39.729c28.965-28.965,44.916-67.476,44.916-108.438v-37.843
	c0-21.585-13.223-40.136-31.992-47.989v-31.01c0-5.773-0.55-11.454-1.589-16.997h97.751C459.775,74,492,106.225,492,145.835V284.31
	H491.999z"/>
<path d="M342.999,452c-2.63,0-5.21,1.069-7.07,2.93s-2.93,4.44-2.93,7.07s1.069,5.21,2.93,7.069c1.86,1.86,4.44,2.931,7.07,2.931
	s5.21-1.07,7.069-2.931c1.86-1.859,2.931-4.439,2.931-7.069s-1.07-5.21-2.931-7.07C348.208,453.069,345.628,452,342.999,452z"/>
<path d="M409.835,93h-25.837c-5.522,0-10,4.478-10,10s4.478,10,10,10h25.837c23.619,0,42.835,19.215,42.835,42.834V213
	c0,5.522,4.478,10,10,10s10-4.478,10-10v-57.166C472.67,121.188,444.483,93,409.835,93z"/>
<g>
</g>
<g>
</g>
<g>
</g>
<g>
</g>
<g>
</g>
<g>
</g>
<g>
</g>
<g>
</g>
<g>
</g>
<g>
</g>
<g>
</g>
<g>
</g>
<g>
</g>
<g>
</g>
<g>
</g>
</svg>
