<?xml version="1.0" encoding="iso-8859-1"?>
<!-- Generator: Adobe Illustrator 19.0.0, SVG Export Plug-In . SVG Version: 6.00 Build 0)  -->
<svg version="1.1" id="Capa_1" xmlns="http://www.w3.org/2000/svg" xmlns:xlink="http://www.w3.org/1999/xlink" x="0px" y="0px"
	 viewBox="0 0 512.003 512.003" style="enable-background:new 0 0 512.003 512.003;" xml:space="preserve">
<polygon style="fill:#7D9BFF;" points="154.105,502.002 10.001,357.898 10.001,154.104 154.105,10 357.899,10 502.003,154.104 
	502.003,357.898 357.899,502.002 "/>
<polygon style="fill:#6A80FF;" points="172.331,458.001 54.002,339.672 54.002,172.33 172.331,54.001 339.673,54.001 
	458.002,172.33 458.002,339.672 339.673,458.001 "/>
<g>
	<path style="fill:#FFFFFF;" d="M394.002,256.001L394.002,256.001c0,35.826,22.189,67.906,55.71,80.545l8.29,3.126V172.33
		l-8.29,3.126C416.191,188.095,394.002,220.175,394.002,256.001z"/>
	<path style="fill:#FFFFFF;" d="M118.002,256.001L118.002,256.001c0-35.826-22.189-67.906-55.71-80.545l-8.29-3.126v167.342
		l8.29-3.126C95.813,323.907,118.002,291.826,118.002,256.001z"/>
	<circle style="fill:#FFFFFF;" cx="254.501" cy="256" r="36"/>
</g>
<path d="M509.074,147.032L364.971,2.929C363.095,1.054,360.552,0,357.899,0H154.105c-2.652,0-5.195,1.054-7.071,2.929L2.93,147.032
	c-1.875,1.876-2.929,4.419-2.929,7.072v203.795c0,2.652,1.054,5.195,2.929,7.071l47.05,47.05c3.906,3.904,10.236,3.904,14.143,0
	c3.905-3.905,3.905-10.237,0-14.143l-44.122-44.121v-195.51L158.247,20h195.51l138.246,138.246v195.51L353.757,492.002h-195.51
	l-37.375-37.375c-3.906-3.904-10.236-3.904-14.143,0c-3.905,3.905-3.905,10.237,0,14.143l40.304,40.304
	c1.876,1.875,4.419,2.929,7.071,2.929h203.795c2.652,0,5.195-1.054,7.071-2.929L509.074,364.97c1.875-1.876,2.929-4.419,2.929-7.071
	V154.104C512.003,151.451,510.949,148.908,509.074,147.032z"/>
<path d="M86.502,424.4c-2.63,0-5.21,1.07-7.07,2.931c-1.86,1.859-2.93,4.439-2.93,7.069c0,2.631,1.069,5.21,2.93,7.07
	s4.44,2.93,7.07,2.93s5.21-1.069,7.069-2.93c1.86-1.86,2.931-4.439,2.931-7.07c0-2.63-1.07-5.21-2.931-7.069
	C91.712,425.471,89.132,424.4,86.502,424.4z"/>
<path d="M211.002,44.001h-38.671c-2.652,0-5.195,1.054-7.071,2.929L46.931,165.259c-1.875,1.876-2.929,4.419-2.929,7.071v167.342
	c0,2.652,1.054,5.195,2.929,7.071L165.26,465.072c1.876,1.875,4.419,2.929,7.071,2.929h167.342c2.652,0,5.195-1.054,7.071-2.929
	l118.329-118.329c1.875-1.876,2.929-4.419,2.929-7.071V172.33c0-2.652-1.054-5.195-2.929-7.071L346.744,46.93
	c-1.876-1.875-4.419-2.929-7.071-2.929h-34.671c-5.522,0-10,4.478-10,10s4.478,10,10,10h30.528l104.377,104.377
	c-15.782,7.178-29.232,18.498-39.126,33.029c-10.977,16.123-16.779,35.001-16.779,54.595s5.803,38.472,16.779,54.595
	c9.894,14.531,23.344,25.851,39.126,33.029L335.53,448.001H176.474L72.097,343.624c15.781-7.178,29.232-18.498,39.126-33.029
	c10.977-16.123,16.779-35.001,16.779-54.595s-5.803-38.472-16.779-54.595c-9.894-14.531-23.344-25.851-39.126-33.029L176.474,64.001
	h34.528c5.522,0,10-4.478,10-10S216.524,44.001,211.002,44.001z M404.002,256.001c0-29.866,17.5-57.13,44-69.333v138.665
	C421.501,313.131,404.002,285.867,404.002,256.001z M108.002,256.001c0,29.866-17.5,57.13-44,69.333V186.668
	C90.502,198.871,108.002,226.135,108.002,256.001z"/>
<path d="M259.002,44.001c-2.63,0-5.21,1.069-7.07,2.93s-2.93,4.44-2.93,7.07s1.069,5.21,2.93,7.069c1.86,1.86,4.44,2.931,7.07,2.931
	s5.21-1.07,7.069-2.931c1.86-1.859,2.931-4.439,2.931-7.069s-1.07-5.21-2.931-7.07C264.212,45.07,261.632,44.001,259.002,44.001z"/>
<path d="M300.502,256.001c0-25.364-20.636-46-46-46s-46,20.636-46,46s20.636,46,46,46S300.502,281.365,300.502,256.001z
	 M228.502,256.001c0-14.337,11.663-26,26-26s26,11.663,26,26s-11.663,26-26,26S228.502,270.338,228.502,256.001z"/>
<path d="M233.034,89.029c-5.522,0-10,4.478-10,10v25.96h-18.556v-25.96c0-5.522-4.478-10-10-10s-10,4.478-10,10v35.96
	c0,5.522,4.478,10,10,10h28.556v26.04c0,5.522,4.478,10,10,10s10-4.478,10-10v-26.066c5.282-0.269,9.486-4.625,9.486-9.974
	s-4.204-9.705-9.486-9.974V99.029C243.034,93.507,238.557,89.029,233.034,89.029z"/>
<path d="M327.525,114.2c0-13.879-11.292-25.171-25.172-25.171h-8.213c-13.879,0-25.171,11.292-25.171,25.171v41.657
	c0,13.88,11.292,25.172,25.171,25.172h8.213c13.88,0,25.172-11.292,25.172-25.172V114.2z M307.525,155.857
	c0,2.852-2.32,5.172-5.172,5.172h-8.213c-2.852,0-5.171-2.32-5.171-5.172V114.2c0-2.852,2.319-5.171,5.171-5.171h8.213
	c2.852,0,5.172,2.319,5.172,5.171V155.857z"/>
<path d="M317.525,422.973c5.522,0,10-4.478,10-10v-35.96c0-5.522-4.478-10-10-10h-28.556v-26.04c0-5.522-4.478-10-10-10
	s-10,4.478-10,10v26.066c-5.282,0.269-9.486,4.625-9.486,9.974s4.204,9.705,9.486,9.974v25.986c0,5.522,4.478,10,10,10
	s10-4.478,10-10v-25.96h18.556v25.96C307.525,418.495,312.003,422.973,317.525,422.973z"/>
<path d="M209.65,330.973c-13.879,0-25.171,11.292-25.171,25.172v41.657c0,13.879,11.292,25.171,25.171,25.171h8.213
	c13.88,0,25.172-11.292,25.172-25.171v-41.657c0-13.88-11.292-25.172-25.172-25.172H209.65z M223.035,356.145v41.657
	c0,2.852-2.32,5.171-5.172,5.171h-8.213c-2.852,0-5.171-2.319-5.171-5.171v-41.657c0-2.852,2.319-5.172,5.171-5.172h8.213
	C220.715,350.973,223.035,353.293,223.035,356.145z"/>
<g>
</g>
<g>
</g>
<g>
</g>
<g>
</g>
<g>
</g>
<g>
</g>
<g>
</g>
<g>
</g>
<g>
</g>
<g>
</g>
<g>
</g>
<g>
</g>
<g>
</g>
<g>
</g>
<g>
</g>
</svg>
