<?xml version="1.0" encoding="iso-8859-1"?>
<!-- Generator: Adobe Illustrator 19.0.0, SVG Export Plug-In . SVG Version: 6.00 Build 0)  -->
<svg version="1.1" id="Capa_1" xmlns="http://www.w3.org/2000/svg" xmlns:xlink="http://www.w3.org/1999/xlink" x="0px" y="0px"
	 viewBox="0 0 512 512" style="enable-background:new 0 0 512 512;" xml:space="preserve">
<polygon style="fill:#41489D;" points="479.894,89.689 479.894,501.976 448.436,501.976 448.436,118.871 "/>
<path style="fill:#2E9DE3;" d="M388.237,123.791l80.393-80.393c7.632-7.632,20.007-7.632,27.639,0l0,0
	c7.632,7.632,7.632,20.007,0,27.639l-80.393,80.393c-7.632,7.632-20.007,7.632-27.639,0l0,0
	C380.605,143.798,380.605,131.424,388.237,123.791z"/>
<path style="fill:#4DBAF6;" d="M357.857,376.643l-210.963-67.595l0,0c-11.428-4.548-23.892-7.051-36.94-7.051
	c-55.203,0-99.955,44.752-99.955,99.956s44.795,100.024,99.999,100.024c0,0,228.224,0.05,229.489,0.05
	c35.366,0,64.035-28.67,64.035-64.035C403.521,409.012,384.267,384.541,357.857,376.643z"/>
<circle style="fill:#FFFFFF;" cx="109.959" cy="401.949" r="63.993"/>
<circle style="fill:#EC5A32;" cx="109.959" cy="401.949" r="27.997"/>
<path d="M502.001,491.977h-12.107V91.555l13.445-13.445c5.58-5.58,8.653-13,8.653-20.891s-3.073-15.31-8.653-20.891
	c-11.519-11.52-30.262-11.518-41.78,0l-66.849,66.849l-4.534-9.689l19.17-81.164c1.27-5.374-2.059-10.761-7.433-12.03
	c-5.374-1.271-10.761,2.059-12.03,7.433l-19.97,84.549c-0.518,2.192-0.28,4.496,0.675,6.536l9.119,19.489
	c-4.648,5.365-7.193,12.14-7.193,19.31c0,7.891,3.074,15.31,8.653,20.89c5.759,5.759,13.325,8.639,20.89,8.639
	c0.013,0,0.026-0.001,0.039-0.001v52.913l-6.199-20.004c-0.503-1.623-1.411-3.091-2.639-4.266l-52.813-50.531L328.98,62.649
	c-0.761-5.469-5.814-9.283-11.279-8.529c-5.47,0.76-9.288,5.809-8.529,11.279l11.944,86.05c0.31,2.231,1.364,4.293,2.992,5.85
	l53.454,51.145l24.534,79.165v51.645l-88.395,12.38l-30.892-10.137c-5.242-1.721-10.895,1.135-12.619,6.382
	c-1.722,5.247,1.137,10.896,6.383,12.619l30.035,9.857c1.419,0.918,3.072,1.48,4.825,1.583l43.308,14.212
	c0.084,0.027,0.168,0.054,0.253,0.079c4.55,1.361,8.818,3.313,12.745,5.742l-184.485-0.009
	c-4.897-36.086-35.89-63.997-73.298-63.997c-40.8,0-73.992,33.193-73.992,73.992s33.193,73.992,73.992,73.992
	c37.406,0,68.397-27.907,73.297-63.989l203.499,0.01c4.329,7.821,6.772,16.735,6.772,26.025c0,29.137-23.185,52.948-52.074,53.986
	H110.039h-0.042c-49.625-0.003-89.999-40.387-89.999-90.028c0-49.602,40.354-89.957,89.956-89.957
	c11.483,0,22.668,2.135,33.243,6.343c0.222,0.089,0.447,0.169,0.675,0.241l54.471,17.278c5.262,1.664,10.885-1.244,12.555-6.508
	c1.67-5.264-1.244-10.885-6.508-12.555l-54.138-17.173c-12.838-5.06-26.393-7.625-40.297-7.625C49.325,291.998,0,341.323,0,401.953
	c0,37.174,18.531,70.098,46.835,90.025H10.051c-5.521,0-9.999,4.478-9.999,9.999s4.478,9.999,9.999,9.999h491.95
	c5.521,0,9.999-4.478,9.999-9.999S507.522,491.977,502.001,491.977z M395.307,144.36c-3.722-3.722-3.722-9.776,0-13.498L475.7,50.47
	c1.86-1.861,4.305-2.792,6.749-2.792c2.444,0,4.888,0.931,6.748,2.792c3.723,3.722,3.723,9.777,0,13.499l-80.392,80.392
	C405.086,148.084,399.028,148.084,395.307,144.36z M421.297,160.019c0.563-0.484,1.116-0.984,1.649-1.517l15.49-15.49v194.304
	l-16.344-52.737V163.93C422.093,162.542,421.809,161.221,421.297,160.019z M360.855,367.104l-4.026-1.321l56.652-7.934
	c3.964-0.555,7.107-3.387,8.196-7.06l12.763,41.181l-36.986-0.002C388.099,380.217,375.179,371.418,360.855,367.104z
	 M109.954,455.947c-29.772,0-53.994-24.223-53.994-53.994s24.222-53.994,53.994-53.994c26.356,0,48.348,18.987,53.052,43.998
	l-16.399-0.001c-4.401-16.114-19.161-27.999-36.652-27.999c-20.951,0-37.996,17.045-37.996,37.996s17.045,37.996,37.996,37.996
	c17.49,0,32.249-11.882,36.651-27.995l16.399,0.001C158.299,436.963,136.308,455.947,109.954,455.947z M109.953,411.952
	l14.955,0.001c-3.233,4.819-8.728,7.998-14.954,7.998c-9.924,0-17.998-8.074-17.998-17.998c0-9.924,8.074-17.998,17.998-17.998
	c6.226,0,11.722,3.181,14.955,8l-14.955-0.001c-5.521,0-9.999,4.477-9.999,9.999S104.43,411.952,109.953,411.952z M413.52,437.991
	c0-9.026-1.6-17.794-4.694-26.024l29.61,0.001v80.01H390.07C404.487,478.461,413.52,459.267,413.52,437.991z M458.435,491.977
	V123.013l11.461-11.461v380.426H458.435z"/>
<path d="M302.762,473.019c1.859-1.86,2.93-4.44,2.93-7.069s-1.07-5.209-2.93-7.069c-1.86-1.869-4.44-2.93-7.069-2.93
	c-2.64,0-5.209,1.061-7.069,2.93c-1.87,1.86-2.93,4.431-2.93,7.069c0,2.63,1.06,5.209,2.93,7.069c1.86,1.859,4.431,2.93,7.069,2.93
	C298.322,475.949,300.902,474.879,302.762,473.019z"/>
<path d="M338.342,475.946c20.929,0,37.955-17.026,37.955-37.955c0-5.521-4.478-9.999-9.999-9.999s-9.999,4.478-9.999,9.999
	c0,9.901-8.056,17.957-17.957,17.957h-5.573c-5.521,0-9.999,4.478-9.999,9.999s4.478,9.999,9.999,9.999H338.342z"/>
<path d="M244.768,350.412c2.64,0,5.209-1.07,7.068-2.93c1.87-1.86,2.931-4.44,2.931-7.069c0-2.64-1.061-5.209-2.931-7.069
	c-1.859-1.87-4.43-2.93-7.068-2.93c-2.631,0-5.209,1.06-7.069,2.93c-1.86,1.86-2.93,4.431-2.93,7.069c0,2.63,1.069,5.209,2.93,7.069
	C239.558,349.342,242.137,350.412,244.768,350.412z"/>
<g>
</g>
<g>
</g>
<g>
</g>
<g>
</g>
<g>
</g>
<g>
</g>
<g>
</g>
<g>
</g>
<g>
</g>
<g>
</g>
<g>
</g>
<g>
</g>
<g>
</g>
<g>
</g>
<g>
</g>
</svg>
