<?xml version="1.0" encoding="iso-8859-1"?>
<!-- Generator: Adobe Illustrator 19.0.0, SVG Export Plug-In . SVG Version: 6.00 Build 0)  -->
<svg version="1.1" id="Capa_1" xmlns="http://www.w3.org/2000/svg" xmlns:xlink="http://www.w3.org/1999/xlink" x="0px" y="0px"
	 viewBox="0 0 512 512" style="enable-background:new 0 0 512 512;" xml:space="preserve">
<rect x="232.021" y="70.58" style="fill:#B3B6C3;" width="48" height="431.43"/>
<circle style="fill:#EF3C3C;" cx="256.01" cy="186.65" r="60"/>
<circle style="fill:#FFFFFF;" cx="256.01" cy="186.65" r="20.769"/>
<circle style="fill:#2E9DE3;" cx="256.01" cy="376.03" r="92"/>
<circle style="fill:#FFFFFF;" cx="256.01" cy="376.03" r="46"/>
<circle style="fill:#62CD4D;" cx="256.01" cy="50" r="40"/>
<path d="M56.007,492h-0.01c-5.522,0-9.995,4.478-9.995,10s4.482,10,10.005,10s10-4.478,10-10S61.531,492,56.007,492z"/>
<path d="M455.998,492H290.01v-19.807c26.19-9.261,48.011-29.011,59.525-55.395c2.209-5.063-0.104-10.956-5.165-13.165
	c-5.063-2.21-10.956,0.103-13.165,5.165c-13.053,29.91-42.569,49.236-75.195,49.236c-45.215,0-82-36.785-82-82s36.785-82,82-82
	c32.475,0,61.936,19.201,75.055,48.917c2.232,5.054,8.137,7.338,13.188,5.109c5.052-2.231,7.34-8.135,5.109-13.188
	c-11.553-26.168-33.303-45.767-59.352-54.988V247.81c21.453-11.974,36-34.894,36-61.158s-14.547-49.184-36-61.158V86.615
	c9.833-9.136,16-22.166,16-36.615c0-27.57-22.43-50-50-50s-50,22.43-50,50c0,14.449,6.167,27.479,16,36.615v38.879
	c-21.453,11.974-36,34.894-36,61.158s14.547,49.184,36,61.158v32.058c-39.576,14.034-68,51.84-68,96.166s28.424,82.132,68,96.166
	V492H95.51c-5.522,0-10,4.478-10,10s4.478,10,10,10h360.487c5.522,0,10-4.478,10-10S461.52,492,455.998,492z M256.01,20
	c16.542,0,30,13.458,30,30s-13.458,30-30,30s-30-13.458-30-30S239.469,20,256.01,20z M242.01,97.991
	c4.446,1.299,9.14,2.009,14,2.009s9.554-0.71,14-2.009v20.07c-4.525-0.922-9.207-1.409-14-1.409s-9.475,0.486-14,1.409V97.991
	L242.01,97.991z M206.01,186.652c0-27.57,22.43-50,50-50s50,22.43,50,50s-22.43,50-50,50S206.01,214.223,206.01,186.652z
	 M242.01,255.244c4.525,0.922,9.207,1.409,14,1.409c4.793,0,9.475-0.486,14-1.409v19.767c-4.599-0.637-9.272-0.977-14-0.977
	c-4.749,0-9.421,0.334-14,0.965V255.244L242.01,255.244z M242.01,492v-14.931c4.579,0.631,9.251,0.965,14,0.965
	c4.729,0,9.402-0.34,14-0.975V492H242.01z"/>
<path d="M286.78,186.652c0-16.966-13.803-30.769-30.77-30.769s-30.77,13.803-30.77,30.769c0,16.967,13.803,30.77,30.77,30.77
	S286.78,203.619,286.78,186.652z M245.241,186.652c0-5.938,4.831-10.769,10.77-10.769s10.77,4.831,10.77,10.769
	s-4.831,10.77-10.77,10.77S245.241,192.591,245.241,186.652z"/>
<path d="M338.007,375.325l0.003,0.709c0,5.522,4.478,10,10,10s10-4.478,10-10l-0.003-0.859c-0.042-5.522-4.566-9.989-10.075-9.925
	C342.41,365.292,337.966,369.802,338.007,375.325z"/>
<path d="M200.01,376.034c0,30.879,25.121,56,56,56s56-25.121,56-56s-25.121-56-56-56S200.01,345.155,200.01,376.034z
	 M292.01,376.034c0,19.851-16.149,36-36,36s-36-16.149-36-36s16.149-36,36-36C275.862,340.034,292.01,356.184,292.01,376.034z"/>
<path d="M248.94,368.96c-1.86,1.859-2.93,4.439-2.93,7.07c0,2.64,1.069,5.21,2.93,7.069c1.86,1.87,4.44,2.931,7.07,2.931
	s5.21-1.061,7.069-2.931c1.86-1.859,2.931-4.43,2.931-7.069c0-2.631-1.07-5.211-2.931-7.07c-1.859-1.86-4.439-2.93-7.069-2.93
	S250.801,367.1,248.94,368.96z"/>
<path d="M256.01,60c2.63,0,5.21-1.07,7.069-2.931c1.86-1.859,2.931-4.439,2.931-7.069s-1.07-5.21-2.931-7.07
	c-1.859-1.86-4.439-2.93-7.069-2.93s-5.21,1.069-7.07,2.93c-1.86,1.861-2.93,4.44-2.93,7.07s1.069,5.21,2.93,7.069
	C250.801,58.93,253.38,60,256.01,60z"/>
<g>
</g>
<g>
</g>
<g>
</g>
<g>
</g>
<g>
</g>
<g>
</g>
<g>
</g>
<g>
</g>
<g>
</g>
<g>
</g>
<g>
</g>
<g>
</g>
<g>
</g>
<g>
</g>
<g>
</g>
</svg>
