<?xml version="1.0" encoding="iso-8859-1"?>
<!-- Generator: Adobe Illustrator 19.0.0, SVG Export Plug-In . SVG Version: 6.00 Build 0)  -->
<svg version="1.1" id="Capa_1" xmlns="http://www.w3.org/2000/svg" xmlns:xlink="http://www.w3.org/1999/xlink" x="0px" y="0px"
	 viewBox="0 0 512 512" style="enable-background:new 0 0 512 512;" xml:space="preserve">
<path style="fill:#FEA02C;" d="M319.484,150.464L251.28,82.26c-15.622-15.622-40.95-15.622-56.572,0l-19.542,19.542
	c-15.622,15.622-15.622,40.95,0,56.572l68.204,68.204c15.622,15.622,40.95,15.622,56.572,0l19.542-19.542
	C335.105,191.412,335.105,166.085,319.484,150.464z"/>
<rect x="135.295" y="176.448" transform="matrix(-0.7071 -0.7071 0.7071 -0.7071 127.761 515.2192)" style="fill:#D8D8E4;" width="70.582" height="109.404"/>
<path style="fill:#FEA02C;" d="M166.01,303.937l-68.204-68.204c-15.622-15.622-40.95-15.622-56.572,0l-19.542,19.542
	c-15.622,15.622-15.622,40.95,0,56.572l68.204,68.204c15.622,15.622,40.95,15.622,56.572,0l19.542-19.542
	C181.631,344.886,181.631,319.558,166.01,303.937z"/>
<path style="fill:#62CD4D;" d="M502,401.434v-96.455c0-22.092-17.91-40.002-40.002-40.002h-27.636
	c-22.092,0-40.002,17.91-40.002,40.002v96.455c0,22.092,17.91,40.002,40.002,40.002h27.636C484.091,441.436,502,423.526,502,401.434
	z"/>
<rect x="284.953" y="317.915" style="fill:#D8D8E4;" width="109.405" height="70.583"/>
<path style="fill:#62CD4D;" d="M284.956,401.434v-96.455c0-22.092-17.91-40.002-40.002-40.002h-27.636
	c-22.092,0-40.002,17.91-40.002,40.002v96.455c0,22.092,17.91,40.002,40.002,40.002h27.636
	C267.047,441.436,284.956,423.526,284.956,401.434z"/>
<path d="M461.998,254.977h-27.636c-27.571,0-50.002,22.431-50.002,50.002v2.935h-11.033c-5.523,0-10,4.478-10,10s4.477,10,10,10
	h11.033v50.582h-89.403v-50.582h7.701c5.523,0,10-4.478,10-10s-4.477-10-10-10h-7.701v-2.935c0-27.571-22.431-50.002-50.002-50.002
	h-27.636c-2.376,0-4.71,0.178-6.999,0.5l23.904-23.905l2.075,2.075c9.444,9.443,22.001,14.646,35.357,14.646
	c13.356,0,25.913-5.201,35.357-14.646l19.542-19.542c19.495-19.496,19.495-51.218,0-70.714l-5.933-5.933
	c-3.905-3.904-10.237-3.905-14.143,0.001c-3.905,3.905-3.905,10.236,0,14.143l5.933,5.933c11.698,11.697,11.698,30.73,0,42.428
	l-19.542,19.542c-5.666,5.667-13.201,8.787-21.214,8.787c-8.014,0-15.548-3.12-21.214-8.787l-34.103-34.103l-24.955-24.955
	c-0.001-0.001-0.003-0.003-0.004-0.004l-9.143-9.142c-5.666-5.666-8.787-13.2-8.787-21.214c0-8.013,3.121-15.548,8.787-21.214
	l19.542-19.542c11.697-11.696,30.73-11.698,42.428,0l8.435,8.435c3.905,3.904,10.237,3.904,14.144,0
	c3.905-3.905,3.905-10.237,0-14.144l-8.435-8.435c-19.497-19.495-51.218-19.495-70.713,0l-19.542,19.542
	c-9.444,9.444-14.646,22.001-14.646,35.357c0,13.357,5.201,25.913,14.646,35.357l2.075,2.075l-63.217,63.218l-2.075-2.075
	c-9.444-9.443-22.001-14.646-35.357-14.646c-13.357,0-25.913,5.201-35.357,14.646l-19.542,19.542
	c-19.496,19.496-19.496,51.218,0,70.714l68.204,68.204c9.748,9.747,22.553,14.622,35.357,14.622
	c12.805,0,25.609-4.874,35.358-14.622l13.776-13.777v28.088c0,27.571,22.431,50.002,50.002,50.002h27.636
	c27.571,0,50.002-22.431,50.002-50.002v-2.936h89.403v2.936c0,27.571,22.431,50.002,50.002,50.002h27.636
	c27.571,0,50.002-22.431,50.002-50.002v-96.454C512,277.407,489.57,254.977,461.998,254.977z M184.313,181.662l35.768,35.768
	l-63.218,63.218l-35.767-35.768L184.313,181.662z M158.938,353.437l-19.542,19.542c-11.697,11.697-30.731,11.698-42.428,0
	l-68.204-68.204c-11.698-11.697-11.698-30.73,0-42.428l19.542-19.542c5.666-5.667,13.201-8.787,21.214-8.787
	s15.548,3.12,21.214,8.787l34.102,34.103l24.955,24.955l0.001,0.001l9.146,9.146c4.619,4.619,7.406,10.383,8.377,16.388v9.652
	C166.346,343.053,163.558,348.818,158.938,353.437z M274.956,401.434c0,16.543-13.459,30.001-30.001,30.001h-27.636
	c-16.543,0-30.001-13.459-30.001-30.001v-63.098c0.496-4.06,0.496-8.166,0-12.227v-21.13c0-16.543,13.459-30.001,30.001-30.001
	h27.636c16.543,0,30.001,13.459,30.001,30.001v12.936v70.583V401.434z M491.999,401.434c0,16.543-13.459,30.001-30.001,30.001
	h-27.636c-16.543,0-30.001-13.459-30.001-30.001v-12.937v-70.583v-12.936c0-16.543,13.459-30.001,30.001-30.001h27.636
	c16.543,0,30.001,13.459,30.001,30.001V401.434z"/>
<path d="M331.252,310.84c-1.86,1.859-2.93,4.439-2.93,7.069c0,2.641,1.07,5.21,2.93,7.07c1.87,1.87,4.44,2.94,7.07,2.94
	c2.64,0,5.21-1.07,7.07-2.94c1.86-1.86,2.93-4.43,2.93-7.07c0-2.63-1.07-5.21-2.93-7.069c-1.86-1.86-4.43-2.931-7.07-2.931
	C335.692,307.909,333.112,308.98,331.252,310.84z"/>
<path d="M288.3,129.281c2.63,0,5.21-1.069,7.07-2.93c1.86-1.87,2.93-4.439,2.93-7.07c0-2.63-1.07-5.21-2.93-7.069
	c-1.86-1.87-4.44-2.931-7.07-2.931c-2.64,0-5.21,1.061-7.07,2.931c-1.87,1.859-2.93,4.439-2.93,7.069c0,2.631,1.06,5.2,2.93,7.07
	C283.09,128.212,285.66,129.281,288.3,129.281z"/>
<path d="M250.988,391.433h-39.706c-5.523,0-10,4.478-10,10s4.477,10,10,10h39.706c5.523,0,10-4.478,10-10
	S256.512,391.433,250.988,391.433z"/>
<path d="M468.033,391.433h-39.705c-5.523,0-10,4.478-10,10s4.477,10,10,10h39.705c5.523,0,10-4.478,10-10
	S473.556,391.433,468.033,391.433z"/>
<path d="M130.794,320.604l-28.076,28.076c-3.905,3.905-3.905,10.237,0,14.144c1.953,1.952,4.512,2.929,7.071,2.929
	s5.119-0.977,7.071-2.929l28.076-28.076c3.905-3.905,3.905-10.237,0-14.144C141.032,316.699,134.699,316.699,130.794,320.604z"/>
<path d="M287.601,163.797l-28.076,28.076c-3.905,3.905-3.905,10.237,0,14.144c1.953,1.952,4.512,2.929,7.071,2.929
	c2.559,0,5.119-0.977,7.071-2.929l28.076-28.076c3.905-3.905,3.905-10.237,0-14.144
	C297.839,159.892,291.506,159.892,287.601,163.797z"/>
<g>
</g>
<g>
</g>
<g>
</g>
<g>
</g>
<g>
</g>
<g>
</g>
<g>
</g>
<g>
</g>
<g>
</g>
<g>
</g>
<g>
</g>
<g>
</g>
<g>
</g>
<g>
</g>
<g>
</g>
</svg>
