<?xml version="1.0" encoding="iso-8859-1"?>
<!-- Generator: Adobe Illustrator 19.0.0, SVG Export Plug-In . SVG Version: 6.00 Build 0)  -->
<svg version="1.1" id="Capa_1" xmlns="http://www.w3.org/2000/svg" xmlns:xlink="http://www.w3.org/1999/xlink" x="0px" y="0px"
	 viewBox="0 0 512 512" style="enable-background:new 0 0 512 512;" xml:space="preserve">
<g>
	<rect x="399.73" y="128" style="fill:#4DBAF6;" width="32" height="154"/>
	<rect x="186.72" y="128" style="fill:#4DBAF6;" width="32" height="154"/>
</g>
<g>
	<path style="fill:#EF3C3C;" d="M366.914,228H38c-15.464,0-28,12.536-28,28l0,0c0,15.464,12.536,28,28,28h328.914
		c15.464,0,28-12.536,28-28l0,0C394.914,240.536,382.378,228,366.914,228z"/>
	<path style="fill:#EF3C3C;" d="M474,74H145.713c-15.464,0-28,12.536-28,28l0,0c0,15.464,12.536,28,28,28H474
		c15.464,0,28-12.536,28-28l0,0C502,86.536,489.464,74,474,74z"/>
</g>
<g>
	<rect x="293.73" y="284" style="fill:#4DBAF6;" width="32" height="154"/>
	<rect x="80.72" y="284" style="fill:#4DBAF6;" width="32" height="154"/>
</g>
<path d="M474,64H351.5c-5.523,0-10,4.478-10,10s4.477,10,10,10H474c9.925,0,18,8.075,18,18s-8.075,18-18,18h-41.476h-32H218.901h-32
	h-41.189c-9.925,0-18-8.075-18-18s8.075-18,18-18H267c5.523,0,10-4.478,10-10s-4.477-10-10-10H145.712c-20.953,0-38,17.047-38,38
	s17.047,38,38,38h31.189v78H38c-20.953,0-38,17.047-38,38s17.047,38,38,38h32.103v134h-10c-5.523,0-10,4.478-10,10s4.477,10,10,10
	h72c5.523,0,10-4.478,10-10s-4.477-10-10-10h-10v-59c0-5.522-4.477-10-10-10s-10,4.478-10,10v59h-12V294h193.623v134h-10
	c-5.523,0-10,4.478-10,10s4.477,10,10,10h72c5.523,0,10-4.478,10-10s-4.477-10-10-10h-10V294h116.798c5.523,0,10-4.478,10-10
	s-4.477-10-10-10h-10V140H474c20.953,0,38-17.047,38-38S494.953,64,474,64z M390.524,226.258c-6.489-5.162-14.693-8.258-23.61-8.258
	H228.901v-78h161.623V226.258z M196.901,140h12v78h-12V140z M315.726,428h-12V294h12V428z M361,274h-35.274h-32H38
	c-9.925,0-18-8.075-18-18s8.075-18,18-18h148.901h32h148.013c9.925,0,18,8.075,18,18c0,9.925-8.075,18-18,18H361z M422.524,274h-12
	V140h12V274z"/>
<path d="M310.918,84h1.194c5.523,0,10-4.478,10-10s-4.477-10-10-10h-1.194c-5.523,0-10,4.478-10,10S305.396,84,310.918,84z"/>
<path d="M105.03,320.43c-1.86,1.86-2.93,4.44-2.93,7.07s1.07,5.21,2.93,7.069c1.87,1.86,4.44,2.931,7.07,2.931s5.21-1.07,7.07-2.931
	c1.87-1.859,2.93-4.439,2.93-7.069s-1.06-5.21-2.93-7.07c-1.86-1.86-4.43-2.93-7.07-2.93C109.47,317.5,106.89,318.569,105.03,320.43
	z"/>
<g>
</g>
<g>
</g>
<g>
</g>
<g>
</g>
<g>
</g>
<g>
</g>
<g>
</g>
<g>
</g>
<g>
</g>
<g>
</g>
<g>
</g>
<g>
</g>
<g>
</g>
<g>
</g>
<g>
</g>
</svg>
