<?xml version="1.0" encoding="iso-8859-1"?>
<!-- Generator: Adobe Illustrator 19.0.0, SVG Export Plug-In . SVG Version: 6.00 Build 0)  -->
<svg version="1.1" id="Capa_1" xmlns="http://www.w3.org/2000/svg" xmlns:xlink="http://www.w3.org/1999/xlink" x="0px" y="0px"
	 viewBox="0 0 512 512" style="enable-background:new 0 0 512 512;" xml:space="preserve">
<path style="fill:#5A54E0;" d="M163.82,317.827l161.225,93.083c7.233,4.176,9.711,13.425,5.536,20.658l-36.976,64.045
	c-4.176,7.233-13.425,9.711-20.658,5.536l-161.225-93.083c-7.233-4.176-9.711-13.425-5.536-20.658l36.976-64.045
	C147.338,316.129,156.586,313.651,163.82,317.827z"/>
<path style="fill:#6A80FF;" d="M192.709,155.764l1.247-30.565c0.527-12.903-9.791-23.649-22.703-23.649h-34.13
	c-12.549,0-22.722,10.173-22.722,22.722v28.051c0,54.717,12.42,108.721,36.323,157.942l0,0"/>
<path style="fill:#2E9DE3;" d="M273.551,71.515l17.643,10.186c13.338,7.701,17.908,24.756,10.207,38.094
	c7.701-13.337,24.756-17.908,38.094-10.207l17.643,10.186c13.338,7.701,17.908,24.756,10.207,38.094
	c7.701-13.337,24.756-17.908,38.094-10.207l17.643,10.186c13.338,7.701,17.908,24.756,10.207,38.094
	c7.701-13.337,24.756-17.908,38.094-10.207l17.643,10.186c13.338,7.701,17.908,24.756,10.207,38.094l-13.478,23.343l0.049-0.053
	l-32.656,56.563c-19.019,32.942-45.746,60.777-77.888,81.117l-37.116,23.489L150.725,310.265l23.804-102.608
	c5.246-22.612,13.811-44.322,25.417-64.426l35.513-61.509C243.157,68.384,260.213,63.814,273.551,71.515z"/>
<path style="fill:#FFFFFF;" d="M271.845,256.984l49.602,28.638c20.566,11.874,27.613,38.172,15.739,58.737l-31.853,55.17
	l-124.078-71.636l31.853-55.17C224.98,252.157,251.279,245.11,271.845,256.984z"/>
<path style="fill:#6A80FF;" d="M258.601,278.209H72.435c-8.352,0-15.123,6.771-15.123,15.123v73.953
	c0,8.352,6.771,15.123,15.123,15.123h186.167c8.352,0,15.123-6.771,15.123-15.123v-73.953
	C273.724,284.98,266.954,278.209,258.601,278.209z"/>
<g>
	<path style="fill:#4DBAF6;" d="M314.615,123.415l14.202-27.095c5.995-11.437,20.304-15.586,31.487-9.129l29.558,17.066
		c10.868,6.275,14.592,20.171,8.317,31.039l-14.026,24.293c-27.359,47.386-65.116,87.945-110.427,118.62l0,0"/>
	<path style="fill:#4DBAF6;" d="M286.728,10.033h-20.372c-15.401,0-27.886,12.485-27.886,27.886
		c0-15.401-12.485-27.886-27.886-27.886h-20.372c-15.401,0-27.886,12.485-27.886,27.886c0-15.401-12.485-27.886-27.886-27.886
		h-20.372c-15.401,0-27.886,12.485-27.886,27.886c0-15.401-12.485-27.886-27.886-27.886H37.921
		c-15.401,0-27.886,12.485-27.886,27.886v26.955l-0.016-0.071v65.313c0,38.037,9.229,75.508,26.894,109.194l20.399,38.9h216.412
		l30.689-100.764c6.763-22.205,10.2-45.29,10.2-68.502V37.919C314.615,22.517,302.129,10.033,286.728,10.033z"/>
</g>
<path style="fill:#FFFFFF;" d="M195.471,171.506h-57.276c-23.747,0-42.999,19.251-42.999,42.999v63.704h143.273v-63.704
	C238.47,190.758,219.218,171.506,195.471,171.506z"/>
<path d="M510.693,209.057c-2.621-9.78-8.893-17.953-17.661-23.016l-17.643-10.186c-9.539-5.507-20.5-6.379-30.267-3.327
	c-0.115-0.515-0.236-1.03-0.374-1.543c-2.621-9.78-8.893-17.953-17.661-23.016l-17.642-10.186c-0.338-0.195-0.683-0.37-1.025-0.554
	c3.051-6.831,3.668-14.439,1.705-21.768c-2.263-8.448-7.682-15.509-15.255-19.881l-29.557-17.064
	c-7.793-4.498-16.845-5.598-25.489-3.092c-5.957,1.727-11.162,5.007-15.191,9.487V37.919c0-20.901-17.004-37.905-37.905-37.905
	h-20.372c-11.021,0-20.954,4.731-27.886,12.263c-6.932-7.533-16.866-12.263-27.886-12.263h-20.372
	c-11.021,0-20.954,4.731-27.886,12.263c-6.932-7.533-16.866-12.263-27.886-12.263H114.07c-11.021,0-20.954,4.731-27.886,12.263
	C79.252,4.744,69.318,0.014,58.298,0.014H37.921c-20.901,0-37.905,17.004-37.905,37.905L0,130.116
	c0,39.499,9.696,78.866,28.04,113.847l20.4,38.9c0.202,0.385,0.432,0.745,0.674,1.092c-1.17,2.9-1.82,6.063-1.82,9.377v73.953
	c0,13.863,11.278,25.143,25.142,25.143h20.733c-0.136,2.609,0.13,5.25,0.827,7.847c1.738,6.487,5.898,11.909,11.699,15.258
	l55.611,32.235c1.582,0.917,3.31,1.354,5.016,1.354c3.457,0,6.819-1.79,8.678-4.997c2.775-4.786,1.144-10.917-3.643-13.692
	l-55.626-32.244c-1.18-0.682-2.025-1.782-2.379-3.099c-0.151-0.565-0.301-1.545,0.004-2.661h145.248
	c13.863,0,25.142-11.279,25.142-25.143v-73.953c0-3.082-0.56-6.035-1.58-8.767c45.064-31.131,83.284-72.542,110.665-119.967
	l5.734-9.93c0.291,0.147,0.579,0.303,0.864,0.467l17.643,10.186c4.133,2.387,7.09,6.24,8.325,10.849
	c1.235,4.611,0.601,9.425-1.785,13.558l-24.047,41.65l-14.015-8.091c-4.792-2.767-10.92-1.126-13.686,3.667
	c-2.767,4.792-1.125,10.919,3.667,13.686l22.691,13.101c1.537,0.888,3.266,1.343,5.01,1.343c0.868,0,1.739-0.112,2.593-0.342
	c2.567-0.688,4.755-2.367,6.084-4.668l29.056-50.327c4.926-8.532,15.874-11.466,24.407-6.539l17.643,10.186
	c4.133,2.387,7.09,6.24,8.325,10.849c1.235,4.611,0.601,9.425-1.784,13.558l-29.056,50.327c-0.051,0.089-0.09,0.181-0.139,0.272
	l-16.89,29.255c-18.136,31.411-43.921,58.265-74.569,77.662l-33.363,21.112c-1.824-2.119-3.991-3.957-6.483-5.396l-11.035-6.371
	l26.843-46.494c14.617-25.318,5.911-57.807-19.406-72.424l-5.252-3.032c-4.79-2.765-10.919-1.125-13.686,3.667
	c-2.766,4.792-1.124,10.92,3.668,13.686l5.252,3.032c15.748,9.092,21.163,29.303,12.071,45.052l-26.968,46.711
	c-4.373-1.363-9.263,0.419-11.649,4.553c-2.767,4.792-1.125,10.919,3.667,13.686l26.477,15.287c1.18,0.682,2.025,1.782,2.379,3.099
	c0.204,0.763,0.41,2.279-0.51,3.872l-36.976,64.046c-1.408,2.438-4.535,3.276-6.967,1.87l-48.505-28.035
	c-4.791-2.766-10.919-1.13-13.688,3.661c-2.769,4.79-1.13,10.919,3.66,13.688l48.509,28.037c3.949,2.28,8.266,3.363,12.529,3.363
	c8.696,0,17.164-4.51,21.816-12.566l36.976-64.046c1.636-2.834,2.682-5.896,3.128-9.041c0.378-0.177,0.752-0.369,1.114-0.598
	l37.116-23.488c33.377-21.123,61.458-50.368,81.207-84.575l32.656-56.563c0.051-0.089,0.091-0.181,0.139-0.272l13.289-23.019
	C511.968,229.052,513.313,218.837,510.693,209.057z M45.786,234.656c-16.844-32.121-25.748-68.27-25.748-104.54l0.016-92.198
	c0-9.852,8.015-17.867,17.867-17.867h20.372c9.852,0,17.867,8.015,17.867,17.867v58.113c0,5.533,4.486,10.019,10.019,10.019
	c5.534,0,10.019-4.487,10.019-10.019V37.919c0-9.852,8.015-17.867,17.867-17.867h20.372c9.852,0,17.867,8.015,17.867,17.867v58.113
	c0,5.533,4.486,10.019,10.019,10.019s10.019-4.487,10.019-10.019V37.919c0-9.852,8.015-17.867,17.867-17.867h20.372
	c9.852,0,17.867,8.015,17.867,17.867v58.113c0,5.533,4.486,10.019,10.019,10.019s10.019-4.487,10.019-10.019V37.919
	c0-9.852,8.015-17.867,17.867-17.867h20.372c9.852,0,17.867,8.015,17.867,17.867v71.025c0,22.24-3.285,44.306-9.766,65.584
	l-28.86,94.765c-2.33-0.715-4.803-1.103-7.365-1.103h-10.113v-53.686c0-29.234-23.783-53.017-53.018-53.017h-57.276
	c-29.234,0-53.018,23.783-53.018,53.017v53.686H72.435c-2.915,0-5.713,0.504-8.319,1.421L45.786,234.656z M228.451,268.191H105.216
	v-53.686c0-18.185,14.794-32.979,32.98-32.979h57.276c18.185,0,32.98,14.794,32.98,32.979L228.451,268.191L228.451,268.191z
	 M258.601,372.39H72.435c-2.814,0-5.104-2.289-5.104-5.105v-73.953c0-2.814,2.289-5.104,5.104-5.104h22.761h143.273h20.132
	c2.814,0,5.104,2.289,5.104,5.104v21.019h-58.531c-5.534,0-10.019,4.487-10.019,10.019c0,5.533,4.486,10.019,10.019,10.019h58.531
	v32.895C263.706,370.099,261.416,372.39,258.601,372.39z M375.475,154.58c-21.454,37.159-49.94,70.42-83.314,97.484l21.837-71.7
	c5.282-17.342,8.613-35.164,9.957-53.187l13.735-26.205c1.621-3.092,4.36-5.33,7.714-6.303c3.354-0.973,6.866-0.547,9.89,1.199
	l29.557,17.064c2.939,1.696,5.041,4.436,5.919,7.714c0.878,3.277,0.428,6.701-1.269,9.639L375.475,154.58z"/>
<path d="M194.542,445.241c-2.635,0-5.22,1.072-7.083,2.936s-2.936,4.439-2.936,7.083c0,2.635,1.072,5.22,2.936,7.083
	c1.864,1.863,4.448,2.936,7.083,2.936s5.22-1.072,7.083-2.936c1.864-1.864,2.936-4.448,2.936-7.083c0-2.645-1.072-5.22-2.936-7.083
	C199.762,446.314,197.178,445.241,194.542,445.241z"/>
<path d="M160.759,314.352c-2.645,0-5.23,1.071-7.094,2.936c-1.864,1.865-2.926,4.447-2.926,7.083c0,2.635,1.062,5.22,2.926,7.082
	c1.874,1.864,4.448,2.937,7.094,2.937c2.635,0,5.21-1.072,7.083-2.937c1.864-1.863,2.936-4.447,2.936-7.082
	c0-2.636-1.072-5.22-2.936-7.083C165.979,315.424,163.394,314.352,160.759,314.352z"/>
<g>
</g>
<g>
</g>
<g>
</g>
<g>
</g>
<g>
</g>
<g>
</g>
<g>
</g>
<g>
</g>
<g>
</g>
<g>
</g>
<g>
</g>
<g>
</g>
<g>
</g>
<g>
</g>
<g>
</g>
</svg>
