<?xml version="1.0" encoding="iso-8859-1"?>
<!-- Generator: Adobe Illustrator 19.0.0, SVG Export Plug-In . SVG Version: 6.00 Build 0)  -->
<svg version="1.1" id="Capa_1" xmlns="http://www.w3.org/2000/svg" xmlns:xlink="http://www.w3.org/1999/xlink" x="0px" y="0px"
	 viewBox="0 0 512 512" style="enable-background:new 0 0 512 512;" xml:space="preserve">
<path style="fill:#62CD4D;" d="M20.006,159.064H492c5.523,0,10,4.477,10,10v147.998c0,5.523-4.477,10-10,10H20.006
	c-5.523,0-10-4.477-10-10V169.064C10.006,163.541,14.483,159.064,20.006,159.064z"/>
<g>
	<polygon style="fill:#D8D8E4;" points="10.001,424.934 55.855,424.934 153.721,327.069 107.873,327.062 	"/>
	<polygon style="fill:#D8D8E4;" points="251.6,424.934 153.727,327.062 130.8,349.99 205.744,424.934 	"/>
	<polygon style="fill:#D8D8E4;" points="260.388,424.934 306.243,424.934 404.109,327.069 358.26,327.062 	"/>
	<polygon style="fill:#D8D8E4;" points="501.987,424.934 404.115,327.062 381.187,349.99 456.131,424.934 	"/>
</g>
<path d="M512,317.062V169.064c0-11.028-8.972-20-20-20h-20v-42c0-16.542-13.458-30-30-30h-79.999c-16.542,0-30,13.458-30,30v42
	H180.004v-42c0-16.542-13.458-30-30-30H70.005c-16.542,0-30,13.458-30,30v42h-20c-11.028,0-20,8.972-20,20v147.998
	c0,11.028,8.972,20,20,20H83.73L2.929,417.863c-2.86,2.86-3.715,7.161-2.167,10.898c1.548,3.736,5.194,6.173,9.239,6.173h120.8
	c5.523,0,10-4.478,10-10c0-5.522-4.477-10-10-10H79.998l50.802-50.802l67.872,67.873c1.875,1.875,4.419,2.929,7.071,2.929h178.01
	c5.523,0,10-4.478,10-10c0-5.522-4.477-10-10-10h-53.367l50.802-50.801l67.873,67.873c1.875,1.875,4.419,2.929,7.071,2.929h45.855
	c4.044,0,7.691-2.437,9.239-6.173c1.548-3.737,0.692-8.038-2.167-10.898l-80.801-80.801h63.742
	C503.028,337.062,512,328.091,512,317.062z M352.002,107.065c0-5.514,4.486-10,10-10h79.999c5.514,0,10,4.486,10,10v42h-99.999
	V107.065z M60.005,107.065c0-5.514,4.486-10,10-10h79.999c5.514,0,10,4.486,10,10v42H60.005
	C60.005,149.064,60.005,107.065,60.005,107.065z M20.004,297.022h61.001c5.523,0,10-4.478,10-10c0-5.522-4.477-10-10-10H20.002
	l-0.009-107.958c0,0,0.004-0.001,0.013-0.001H492v20.04h-60.999c-5.523,0-10,4.478-10,10s4.477,10,10,10H492v107.959H107.874h-0.001
	H20.006L20.004,297.022z M255.742,414.934l-77.872-77.872h156.248l-77.872,77.872L255.742,414.934L255.742,414.934z M47.295,414.934
	H34.141l77.872-77.871l17.569,0.002l-5.854,5.854c-0.002,0.002-0.003,0.003-0.005,0.005l-72.011,72.01L47.295,414.934
	L47.295,414.934z M227.003,414.934h-17.117l-64.943-64.944l8.785-8.785l73.73,73.729H227.003z M284.53,414.934l77.872-77.871
	l17.569,0.002l-5.854,5.854c-0.002,0.002-0.003,0.004-0.005,0.005l-72.01,72.01L284.53,414.934L284.53,414.934z M460.274,414.934
	L395.33,349.99l8.786-8.786l73.729,73.73L460.274,414.934L460.274,414.934z"/>
<path d="M386.66,209.099c2.64,0,5.21-1.069,7.07-2.93c1.87-1.86,2.93-4.43,2.93-7.07c0-2.63-1.06-5.21-2.93-7.069
	c-1.86-1.86-4.43-2.931-7.07-2.931c-2.63,0-5.21,1.07-7.07,2.931c-1.86,1.869-2.93,4.439-2.93,7.069s1.07,5.21,2.93,7.07
	C381.45,208.029,384.03,209.099,386.66,209.099z"/>
<path d="M125.344,297.018c2.63,0,5.2-1.06,7.07-2.93c1.86-1.86,2.93-4.43,2.93-7.07c0-2.63-1.07-5.2-2.93-7.069
	c-1.87-1.86-4.44-2.931-7.07-2.931c-2.64,0-5.21,1.07-7.08,2.931c-1.86,1.859-2.92,4.439-2.92,7.069c0,2.641,1.06,5.21,2.92,7.07
	C120.134,295.959,122.714,297.018,125.344,297.018z"/>
<g>
</g>
<g>
</g>
<g>
</g>
<g>
</g>
<g>
</g>
<g>
</g>
<g>
</g>
<g>
</g>
<g>
</g>
<g>
</g>
<g>
</g>
<g>
</g>
<g>
</g>
<g>
</g>
<g>
</g>
</svg>
