<?xml version="1.0" encoding="iso-8859-1"?>
<!-- Generator: Adobe Illustrator 19.0.0, SVG Export Plug-In . SVG Version: 6.00 Build 0)  -->
<svg version="1.1" id="Capa_1" xmlns="http://www.w3.org/2000/svg" xmlns:xlink="http://www.w3.org/1999/xlink" x="0px" y="0px"
	 viewBox="0 0 512.002 512.002" style="enable-background:new 0 0 512.002 512.002;" xml:space="preserve">
<g>
	<polygon style="fill:#2E9DE3;" points="98.501,454.001 32.827,454.001 10.001,502.001 121.327,502.001 	"/>
	<polygon style="fill:#2E9DE3;" points="454.838,454.001 389.164,454.001 366.338,502.001 477.664,502.001 	"/>
</g>
<g>
	<rect x="401.801" y="167.53" style="fill:#D8D8E4;" width="40" height="286.47"/>
	<polygon style="fill:#D8D8E4;" points="121.327,352.001 81.327,352.001 44.177,454.001 84.177,454.001 	"/>
</g>
<g>
	<path style="fill:#2E9DE3;" d="M21.173,304.001h143.656c6.17,0,11.172,5.002,11.172,11.172v25.656
		c0,6.17-5.002,11.172-11.172,11.172H21.173c-6.17,0-11.172-5.001-11.172-11.172v-25.656
		C10.001,309.003,15.003,304.001,21.173,304.001z"/>
	<path style="fill:#2E9DE3;" d="M181.589,304.001l210.824-123.308c5.344-3.085,12.176-1.254,15.261,4.089l12.828,22.219
		c3.085,5.344,1.254,12.176-4.089,15.261L205.589,345.571c-5.344,3.085-12.176,1.254-15.261-4.089L177.5,319.263
		C174.415,313.919,176.246,307.087,181.589,304.001z"/>
</g>
<circle style="fill:#EF3C3C;" cx="422.001" cy="90" r="80"/>
<circle style="fill:#FE8F8D;" cx="422.001" cy="90" r="37.33"/>
<path d="M281.891,255.341c2.63,0,5.21-1.07,7.07-2.93c1.86-1.87,2.93-4.44,2.93-7.07s-1.07-5.21-2.93-7.07
	c-1.86-1.87-4.44-2.93-7.07-2.93c-2.64,0-5.21,1.06-7.07,2.93c-1.87,1.86-2.93,4.431-2.93,7.07c0,2.63,1.06,5.21,2.93,7.07
	C276.681,254.271,279.251,255.341,281.891,255.341z"/>
<path d="M469.335,90c0-26.1-21.234-47.334-47.333-47.334S374.668,63.901,374.668,90s21.234,47.333,47.333,47.333
	S469.335,116.1,469.335,90z M394.668,90c0-15.072,12.262-27.334,27.333-27.334S449.335,74.928,449.335,90
	c0,15.071-12.262,27.333-27.333,27.333S394.668,105.072,394.668,90z"/>
<path d="M429.071,97.071c1.86-1.859,2.93-4.439,2.93-7.069s-1.07-5.21-2.93-7.07s-4.44-2.93-7.07-2.93s-5.21,1.069-7.07,2.93
	c-1.86,1.86-2.93,4.43-2.93,7.07c0,2.63,1.07,5.21,2.93,7.069c1.86,1.86,4.44,2.931,7.07,2.931
	C424.631,100.001,427.211,98.931,429.071,97.071z"/>
<path d="M166.331,379.651c-2.63,0-5.21,1.07-7.07,2.931c-1.86,1.859-2.93,4.439-2.93,7.069c0,2.641,1.07,5.21,2.93,7.08
	c1.86,1.86,4.44,2.92,7.07,2.92c2.64,0,5.21-1.06,7.07-2.92c1.87-1.87,2.93-4.439,2.93-7.08c0-2.63-1.06-5.21-2.93-7.069
	C171.541,380.721,168.961,379.651,166.331,379.651z"/>
<path d="M497.055,225.298L451.8,251.052v-76.129c35.025-12.325,60.201-45.736,60.201-84.923c0-49.626-40.374-90-90-90
	s-90,40.374-90,90c0,36.977,22.417,68.811,54.373,82.641l-76.126,44.524c-4.767,2.788-6.372,8.913-3.583,13.681
	c2.788,4.767,8.915,6.374,13.681,3.583l77.067-45.075c0.279-0.16,0.58-0.199,0.89-0.117c0.311,0.083,0.55,0.267,0.711,0.546
	l12.828,22.219c0.323,0.56,0.131,1.278-0.478,1.63L200.589,336.911c-0.278,0.162-0.577,0.201-0.889,0.117
	c-0.311-0.084-0.551-0.268-0.712-0.547l-12.828-22.218c-0.324-0.56-0.131-1.278,0.478-1.63l61.18-35.783
	c4.767-2.788,6.372-8.913,3.583-13.681c-2.788-4.768-8.913-6.371-13.681-3.583l-61.131,35.755c-0.624,0.36-1.223,0.749-1.796,1.162
	c-2.972-1.593-6.363-2.501-9.964-2.501H21.173C9.499,294.001,0.001,303.5,0.001,315.173v25.656c0,11.674,9.498,21.172,21.172,21.172
	h45.87l-6.43,17.654H10.001c-5.523,0-10,4.478-10,10s4.477,10,10,10h43.327l-16.152,44.346h-4.349c-3.859,0-7.374,2.221-9.031,5.705
	l-22.826,48c-1.474,3.099-1.256,6.735,0.577,9.636c1.832,2.9,5.023,4.659,8.454,4.659h111.326c3.431,0,6.622-1.759,8.454-4.659
	c1.833-2.9,2.05-6.537,0.577-9.636l-22.826-48c-1.657-3.484-5.172-5.705-9.031-5.705h-0.04l16.152-44.346h16.388
	c5.523,0,10-4.478,10-10s-4.477-10-10-10h-9.104l6.43-17.654h36.502c8.482,0,15.795-5.026,19.171-12.245
	c2.746,3.183,6.373,5.478,10.523,6.59c1.82,0.487,3.667,0.729,5.505,0.729c3.676,0,7.312-0.969,10.61-2.873L391.8,248.244v36.954
	l-165.979,94.458h-22.82c-5.523,0-10,4.478-10,10s4.477,10,10,10h25.466c1.734,0,3.439-0.451,4.946-1.309l158.386-90.136v135.791
	h-2.636c-3.859,0-7.374,2.221-9.031,5.705l-22.826,48c-1.474,3.099-1.256,6.735,0.577,9.636c1.832,2.9,5.023,4.659,8.454,4.659
	h111.326c3.431,0,6.622-1.759,8.454-4.659c1.833-2.9,2.05-6.537,0.577-9.636l-22.826-48c-1.657-3.484-5.172-5.705-9.031-5.705
	h-3.038V274.065l55.147-31.384c4.8-2.731,6.477-8.838,3.745-13.638C507.96,224.244,501.855,222.569,497.055,225.298z
	 M105.499,492.001H25.83l13.315-28h5.032h40h8.006L105.499,492.001z M77.176,444.001H58.462l16.152-44.346h18.715L77.176,444.001z
	 M100.613,379.656H81.898l6.43-17.654h18.715L100.613,379.656z M166.001,340.83c0,0.646-0.526,1.172-1.172,1.172h-43.502h-40H21.173
	c-0.646,0-1.172-0.525-1.172-1.172v-25.656c0-0.646,0.526-1.172,1.172-1.172h143.656c0.646,0,1.172,0.525,1.172,1.172V340.83z
	 M352.001,90c0-38.598,31.402-70,70-70s70,31.402,70,70s-31.402,70-70,70S352.001,128.598,352.001,90z M422.001,180
	c3.311,0,6.579-0.185,9.799-0.535v30.293c-0.355-2.659-1.215-5.293-2.637-7.756l-12.807-22.183
	C418.223,179.934,420.105,180,422.001,180z M411.8,236.547l9.614-5.623c5.948-3.435,9.576-9.344,10.386-15.683v47.194l-20,11.382
	V236.547z M461.836,492.001h-79.669l13.315-28h6.318h40h6.72L461.836,492.001z M431.8,444.001h-20V296.829l20-11.382V444.001z"/>
<g>
</g>
<g>
</g>
<g>
</g>
<g>
</g>
<g>
</g>
<g>
</g>
<g>
</g>
<g>
</g>
<g>
</g>
<g>
</g>
<g>
</g>
<g>
</g>
<g>
</g>
<g>
</g>
<g>
</g>
</svg>
