<?xml version="1.0" encoding="iso-8859-1"?>
<!-- Generator: Adobe Illustrator 19.0.0, SVG Export Plug-In . SVG Version: 6.00 Build 0)  -->
<svg version="1.1" id="Capa_1" xmlns="http://www.w3.org/2000/svg" xmlns:xlink="http://www.w3.org/1999/xlink" x="0px" y="0px"
	 viewBox="0 0 512 512" style="enable-background:new 0 0 512 512;" xml:space="preserve">
<path style="fill:#FEA02C;" d="M94,101h324c46.392,0,84,37.608,84,84l0,0H10l0,0C10,138.608,47.608,101,94,101z"/>
<path style="fill:#EC5A32;" d="M10,185v226h96.185v-81.1c0-31.224,25.312-56.536,56.536-56.536h186.56
	c31.224,0,56.536,25.312,56.536,56.536V411H502V185H10z"/>
<path d="M418,91H94c-51.832,0-94,42.168-94,94v226c0,5.522,4.478,10,10,10h96.185c5.522,0,10-4.478,10-10v-81.1
	c0-25.66,20.876-46.536,46.536-46.536H349.28c25.66,0,46.536,20.876,46.536,46.536V411c0,5.522,4.478,10,10,10H502
	c5.522,0,10-4.478,10-10V185C512,133.168,469.832,91,418,91z M94,111h324c21.541,0,40.949,9.262,54.484,24h-46.27
	c-5.522,0-10,4.477-10,10s4.478,10,10,10h59.416c2.788,6.261,4.743,12.972,5.696,20H20.673C25.568,138.907,56.586,111,94,111z
	 M492,401h-76.185v-71.1c0-36.688-29.848-66.536-66.536-66.536H162.721c-36.688,0-66.536,29.848-66.536,66.536V401H20V243h82.104
	c5.522,0,10-4.477,10-10s-4.478-10-10-10H20v-28h472V401z"/>
<path d="M139.77,243c2.63,0,5.21-1.07,7.07-2.93s2.93-4.44,2.93-7.07s-1.069-5.21-2.93-7.07c-1.86-1.86-4.44-2.93-7.07-2.93
	s-5.21,1.07-7.069,2.93c-1.86,1.86-2.931,4.44-2.931,7.07s1.07,5.21,2.931,7.07C134.56,241.93,137.14,243,139.77,243z"/>
<path d="M388.55,135c-2.63,0-5.21,1.07-7.07,2.93c-1.859,1.86-2.93,4.44-2.93,7.07s1.07,5.21,2.93,7.07s4.44,2.93,7.07,2.93
	s5.21-1.07,7.07-2.93c1.859-1.86,2.93-4.44,2.93-7.07s-1.07-5.21-2.93-7.07C393.76,136.07,391.18,135,388.55,135z"/>
<g>
</g>
<g>
</g>
<g>
</g>
<g>
</g>
<g>
</g>
<g>
</g>
<g>
</g>
<g>
</g>
<g>
</g>
<g>
</g>
<g>
</g>
<g>
</g>
<g>
</g>
<g>
</g>
<g>
</g>
</svg>
