<?xml version="1.0" encoding="iso-8859-1"?>
<!-- Generator: Adobe Illustrator 19.0.0, SVG Export Plug-In . SVG Version: 6.00 Build 0)  -->
<svg version="1.1" id="Capa_1" xmlns="http://www.w3.org/2000/svg" xmlns:xlink="http://www.w3.org/1999/xlink" x="0px" y="0px"
	 viewBox="0 0 512 512" style="enable-background:new 0 0 512 512;" xml:space="preserve">
<g>
	<path style="fill:#D8FB93;" d="M209,502L209,502c25.957,0,47-21.043,47-47V303c0-25.957-21.043-47-47-47l0,0
		c-25.957,0-47,21.043-47,47v152C162,480.957,183.043,502,209,502z"/>
	<path style="fill:#D8FB93;" d="M57,502L57,502c25.957,0,47-21.043,47-47V303c0-25.957-21.043-47-47-47l0,0
		c-25.957,0-47,21.043-47,47v152C10,480.957,31.043,502,57,502z"/>
</g>
<g>
	<rect x="10" y="310" style="fill:#62CD4D;" width="93" height="138"/>
	<rect x="162.5" y="310" style="fill:#62CD4D;" width="93" height="138"/>
</g>
<path d="M438,0H121C80.196,0,47,33.196,47,74v172.896C20.325,251.639,0,274.983,0,303v152c0,31.43,25.57,57,57,57s57-25.57,57-57
	V303c0-28.017-20.325-51.361-47-56.104V74c0-29.776,24.224-54,54-54h317c29.776,0,54,24.224,54,54v368c0,27.57-22.43,50-50,50
	s-50-22.43-50-50v-84c0-5.523-4.477-10-10-10s-10,4.477-10,10v84c0,38.598,31.402,70,70,70s70-31.402,70-70V74
	C512,33.196,478.804,0,438,0z M94,438H20V320h74V438z M57,492c-19.391,0-35.334-14.997-36.868-34h73.736
	C92.334,477.003,76.391,492,57,492z M93.868,300H20.132c1.533-19.003,17.477-34,36.868-34S92.334,280.997,93.868,300z"/>
<path d="M372,256c0,5.523,4.477,10,10,10s10-4.477,10-10v-64c0-40.804-33.196-74-74-74h-47c-40.804,0-74,33.196-74,74v55.282
	c-25.685,5.527-45,28.405-45,55.718v152c0,31.43,25.57,57,57,57s57-25.57,57-57V303c0-28.714-21.346-52.524-49-56.427V192
	c0-29.776,24.224-54,54-54h47c29.776,0,54,24.224,54,54V256z M246,438h-74V320h74V438z M209,492c-19.391,0-35.334-14.997-36.868-34
	h73.736C244.334,477.003,228.391,492,209,492z M245.868,300h-73.736c1.533-19.003,17.477-34,36.868-34S244.334,280.997,245.868,300z
	"/>
<path d="M382,296c-2.63,0-5.21,1.07-7.07,2.93c-1.86,1.86-2.93,4.44-2.93,7.07s1.07,5.21,2.93,7.07c1.86,1.86,4.44,2.93,7.07,2.93
	s5.21-1.07,7.07-2.93S392,308.63,392,306s-1.07-5.21-2.93-7.07C387.21,297.07,384.63,296,382,296z"/>
<path d="M87,137.437v65.397c0,5.523,4.477,10,10,10s10-4.477,10-10v-65.397c0-5.523-4.477-10-10-10S87,131.914,87,137.437z"/>
<path d="M104.07,92.7c-1.86-1.86-4.44-2.93-7.07-2.93s-5.21,1.07-7.07,2.93S87,97.14,87,99.77s1.07,5.21,2.93,7.07
	s4.44,2.93,7.07,2.93s5.21-1.07,7.07-2.93s2.93-4.44,2.93-7.07S105.93,94.56,104.07,92.7z"/>
<g>
</g>
<g>
</g>
<g>
</g>
<g>
</g>
<g>
</g>
<g>
</g>
<g>
</g>
<g>
</g>
<g>
</g>
<g>
</g>
<g>
</g>
<g>
</g>
<g>
</g>
<g>
</g>
<g>
</g>
</svg>
