<?xml version="1.0" encoding="iso-8859-1"?>
<!-- Generator: Adobe Illustrator 19.0.0, SVG Export Plug-In . SVG Version: 6.00 Build 0)  -->
<svg version="1.1" id="Capa_1" xmlns="http://www.w3.org/2000/svg" xmlns:xlink="http://www.w3.org/1999/xlink" x="0px" y="0px"
	 viewBox="0 0 512 512" style="enable-background:new 0 0 512 512;" xml:space="preserve">
<g>
	<path style="fill:#EF3C3C;" d="M116.231,330.874v-68.032c0-10.65-7.519-19.818-17.962-21.904L10,223.313v147.089l88.269-17.625
		C108.712,350.693,116.231,341.524,116.231,330.874z"/>
	<path style="fill:#EF3C3C;" d="M395.769,181.126v68.032c0,10.65,7.519,19.818,17.962,21.904L502,288.686V141.597l-88.269,17.625
		C403.288,161.307,395.769,170.476,395.769,181.126z"/>
</g>
<g>
	<path style="fill:#D8D8E4;" d="M83.545,296.858L83.545,296.858c0-14.213-10.093-26.424-24.052-29.099l-16.806-3.221v64.641
		l16.806-3.221C73.452,323.282,83.545,311.071,83.545,296.858z"/>
	<path style="fill:#D8D8E4;" d="M428.455,215.142L428.455,215.142c0,14.213,10.093,26.424,24.052,29.099l16.806,3.221v-64.641
		l-16.806,3.221C438.548,188.718,428.455,200.929,428.455,215.142z"/>
</g>
<path d="M61.376,257.937l-16.807-3.222c-2.927-0.558-5.955,0.213-8.254,2.113c-2.298,1.899-3.629,4.727-3.629,7.708v64.642
	c0,2.981,1.331,5.809,3.629,7.708c1.808,1.494,4.064,2.292,6.371,2.292c0.626,0,1.257-0.059,1.882-0.179l16.808-3.221
	c18.64-3.573,32.169-19.941,32.169-38.921S80.016,261.511,61.376,257.937z M57.611,316.137l-4.925,0.943v-40.444l4.924,0.944
	c9.233,1.77,15.935,9.878,15.935,19.278S66.844,314.367,57.611,316.137z"/>
<path d="M264.563,307.287c-5.522,0-10,4.478-10,10c0,5.75-4.679,10.429-10.429,10.429h-23.735c-5.522,0-10,4.478-10,10
	s4.478,10,10,10h23.735c16.778,0,30.429-13.65,30.429-30.429C274.563,311.765,270.085,307.287,264.563,307.287z"/>
<path d="M176.05,327.72c-2.63,0-5.21,1.061-7.07,2.93c-1.859,1.86-2.93,4.431-2.93,7.07c0,2.63,1.07,5.21,2.93,7.07
	c1.86,1.859,4.44,2.92,7.07,2.92c2.64,0,5.21-1.061,7.07-2.92c1.859-1.86,2.93-4.44,2.93-7.07c0-2.64-1.07-5.21-2.93-7.07
	C181.26,328.78,178.689,327.72,176.05,327.72z"/>
<path d="M450.624,254.062l16.807,3.221c0.626,0.12,1.256,0.18,1.883,0.18c2.306,0,4.563-0.799,6.371-2.292
	c2.298-1.9,3.629-4.726,3.629-7.708v-64.641c0-2.982-1.331-5.808-3.629-7.708c-2.3-1.9-5.327-2.674-8.254-2.113l-16.806,3.221
	c-18.641,3.573-32.17,19.941-32.17,38.921C418.455,234.121,431.984,250.49,450.624,254.062z M454.39,195.864l4.924-0.944v40.444
	l-4.925-0.944c-9.232-1.77-15.934-9.877-15.934-19.278S445.156,197.633,454.39,195.864z"/>
<path d="M508.341,133.865c-2.316-1.9-5.363-2.658-8.299-2.074l-88.269,17.625c-9.077,1.812-16.649,7.375-21.24,14.868H136.66
	c-16.778,0-30.429,13.65-30.429,30.429s13.65,30.429,30.429,30.429h107.474c5.75,0,10.429,4.678,10.429,10.429
	S249.884,246,244.134,246H121.467c-4.591-7.493-12.164-13.056-21.24-14.868l-88.269-17.625c-2.936-0.586-5.982,0.174-8.299,2.074
	C1.343,217.48,0,220.318,0,223.313v147.089c0,2.995,1.343,5.833,3.659,7.732c1.803,1.479,4.049,2.268,6.341,2.268
	c0.651,0,1.308-0.063,1.958-0.193l88.27-17.624c9.076-1.813,16.648-7.376,21.239-14.869h13.858c5.522,0,10-4.478,10-10
	s-4.478-10-10-10h-9.094v-20.857h117.902c16.778,0,30.429-13.65,30.429-30.43c0-5.522-4.478-10-10-10s-10,4.478-10,10
	c0,5.751-4.679,10.43-10.429,10.43H126.231V266h117.902c16.778,0,30.429-13.65,30.429-30.429c0-16.778-13.65-30.429-30.429-30.429
	H136.66c-5.75,0-10.429-4.679-10.429-10.429s4.679-10.429,10.429-10.429h249.108v20.858h-77.845c-5.522,0-10,4.477-10,10
	s4.478,10,10,10h77.845V246h-42.913c-5.522,0-10,4.477-10,10c0,5.522,4.478,10,10,10h47.678c4.591,7.493,12.164,13.056,21.24,14.868
	l88.269,17.625c0.65,0.13,1.306,0.193,1.958,0.193c2.292,0,4.538-0.789,6.341-2.268c2.316-1.899,3.659-4.737,3.659-7.732V141.597
	C512,138.601,510.657,135.764,508.341,133.865z M96.311,342.972L20,358.208v-122.7l76.311,15.237
	c5.749,1.147,9.921,6.235,9.921,12.097v68.032C106.231,336.735,102.059,341.824,96.311,342.972z M492,276.492l-76.311-15.237
	c-5.749-1.147-9.921-6.235-9.921-12.097v-68.033c0-5.862,4.172-10.949,9.921-12.097L492,153.791V276.492z"/>
<path d="M308.1,246c-2.63,0-5.21,1.07-7.07,2.93c-1.859,1.86-2.93,4.44-2.93,7.07s1.07,5.21,2.93,7.069
	c1.86,1.86,4.44,2.931,7.07,2.931s5.21-1.07,7.07-2.931c1.859-1.859,2.93-4.439,2.93-7.069s-1.07-5.21-2.93-7.07
	C313.31,247.07,310.729,246,308.1,246z"/>
<g>
</g>
<g>
</g>
<g>
</g>
<g>
</g>
<g>
</g>
<g>
</g>
<g>
</g>
<g>
</g>
<g>
</g>
<g>
</g>
<g>
</g>
<g>
</g>
<g>
</g>
<g>
</g>
<g>
</g>
</svg>
