<?xml version="1.0" encoding="iso-8859-1"?>
<!-- Generator: Adobe Illustrator 19.0.0, SVG Export Plug-In . SVG Version: 6.00 Build 0)  -->
<svg version="1.1" id="Capa_1" xmlns="http://www.w3.org/2000/svg" xmlns:xlink="http://www.w3.org/1999/xlink" x="0px" y="0px"
	 viewBox="0 0 512 512" style="enable-background:new 0 0 512 512;" xml:space="preserve">
<path style="fill:#4DBAF6;" d="M50,462h412c22.091,0,40,17.909,40,40l0,0H10l0,0C10,479.909,27.908,462,50,462z"/>
<path style="fill:#EF3C3C;" d="M354.013,334h-196c-15.464,0-28,12.536-28,28l0,0c0,15.464,12.536,28,28,28h196
	c15.464,0,28-12.536,28-28l0,0C382.013,346.536,369.477,334,354.013,334z"/>
<g>
	<path style="fill:#4DBAF6;" d="M79.576,173.754H68.449c-14.6,0-26.437,11.836-26.437,26.437v56.841
		c0,14.6,11.836,26.437,26.437,26.437h11.127c14.6,0,26.437-11.836,26.437-26.437V200.19
		C106.013,185.59,94.177,173.754,79.576,173.754z"/>
	<path style="fill:#4DBAF6;" d="M443.576,173.754h-11.127c-14.6,0-26.437,11.836-26.437,26.437v56.841
		c0,14.6,11.836,26.437,26.437,26.437h11.127c14.6,0,26.437-11.836,26.437-26.437V200.19
		C470.013,185.59,458.177,173.754,443.576,173.754z"/>
</g>
<path d="M462,452H333.99v-52h20.022c20.953,0,38-17.047,38-38s-17.047-38-38-38h-20.008V194.713c0-5.523-4.478-10-10-10
	s-10,4.477-10,10V324H198.021v-33.667c0-5.522-4.478-10-10-10s-10,4.478-10,10V324h-20.008c-20.953,0-38,17.047-38,38
	s17.047,38,38,38h19.992v52H50c-27.57,0-50,22.43-50,50c0,5.522,4.478,10,10,10h492c5.522,0,10-4.478,10-10
	C512,474.43,489.57,452,462,452z M140.013,362c0-9.925,8.075-18,18-18h196c9.925,0,18,8.075,18,18s-8.075,18-18,18h-196
	C148.088,380,140.013,371.925,140.013,362z M198.005,400H313.99v52H198.005V400z M21.714,492c4.127-11.641,15.248-20,28.286-20h412
	c13.038,0,24.159,8.359,28.286,20H21.714z"/>
<path d="M188.022,240c-2.63,0-5.21,1.07-7.07,2.93c-1.859,1.86-2.93,4.44-2.93,7.07s1.07,5.21,2.93,7.069
	c1.86,1.86,4.44,2.931,7.07,2.931s5.21-1.07,7.07-2.931c1.859-1.859,2.93-4.439,2.93-7.069s-1.07-5.21-2.93-7.07
	C193.232,241.07,190.652,240,188.022,240z"/>
<path d="M324.003,143.85c-2.631,0-5.21,1.07-7.07,2.93s-2.93,4.44-2.93,7.08c0,2.63,1.069,5.2,2.93,7.07
	c1.86,1.86,4.439,2.92,7.07,2.92c2.63,0,5.21-1.06,7.069-2.92c1.87-1.87,2.931-4.45,2.931-7.07c0-2.64-1.061-5.21-2.931-7.08
	C329.213,144.92,326.633,143.85,324.003,143.85z"/>
<path d="M68.449,293.468h11.127c20.091,0,36.437-16.346,36.437-36.437V200.19c0-18.589-13.995-33.96-32-36.157v-33.7
	c0-20.034,16.299-36.333,36.333-36.333h57.675v118.333c0,5.523,4.478,10,10,10s10-4.477,10-10V94h115.984v18.467
	c0,5.523,4.478,10,10,10s10-4.477,10-10V94h57.675c20.034,0,36.333,16.299,36.333,36.333v33.7c-18.005,2.197-32,17.568-32,36.157
	v56.841c0,20.091,16.346,36.437,36.437,36.437h11.127c20.091,0,36.437-16.346,36.437-36.437V200.19c0-18.589-13.995-33.96-32-36.157
	v-33.7C448.013,99.271,422.742,74,391.68,74h-57.675V62.333C334.005,27.963,306.042,0,271.672,0h-31.318
	c-34.37,0-62.333,27.963-62.333,62.333V74h-57.675c-31.063,0-56.333,25.271-56.333,56.333v33.7c-18.005,2.197-32,17.568-32,36.157
	v56.841C32.013,277.122,48.358,293.468,68.449,293.468z M460.013,200.19v56.841c0,9.063-7.373,16.437-16.437,16.437h-11.127
	c-9.063,0-16.437-7.373-16.437-16.437V200.19c0-9.063,7.373-16.437,16.437-16.437h11.127
	C452.64,183.754,460.013,191.127,460.013,200.19z M198.021,62.333c0-23.343,18.99-42.333,42.333-42.333h31.318
	c23.343,0,42.333,18.991,42.333,42.333V74H198.021V62.333z M52.013,200.19c0-9.063,7.373-16.437,16.437-16.437h11.127
	c9.063,0,16.437,7.374,16.437,16.437v56.841c0,9.063-7.373,16.437-16.437,16.437H68.449c-9.063,0-16.437-7.373-16.437-16.437V200.19
	H52.013z"/>
<g>
</g>
<g>
</g>
<g>
</g>
<g>
</g>
<g>
</g>
<g>
</g>
<g>
</g>
<g>
</g>
<g>
</g>
<g>
</g>
<g>
</g>
<g>
</g>
<g>
</g>
<g>
</g>
<g>
</g>
</svg>
