<?xml version="1.0" encoding="iso-8859-1"?>
<!-- Generator: Adobe Illustrator 19.0.0, SVG Export Plug-In . SVG Version: 6.00 Build 0)  -->
<svg version="1.1" id="Capa_1" xmlns="http://www.w3.org/2000/svg" xmlns:xlink="http://www.w3.org/1999/xlink" x="0px" y="0px"
	 viewBox="0 0 512 512" style="enable-background:new 0 0 512 512;" xml:space="preserve">
<g>
	<path style="fill:#FFC66C;" d="M108.333,328H502v144H82c-39.765,0-72-32.236-72-72V256L108.333,328z"/>
	<path style="fill:#FFC66C;" d="M214.081,184H10V40h420c39.764,0,72,32.235,72,72v72v72L214.081,184z"/>
</g>
<path style="fill:#FEA02C;" d="M430,328H82c-39.764,0-72-32.235-72-72l0,0c0-39.764,32.235-72,72-72h348c39.764,0,72,32.235,72,72
	l0,0C502,295.765,469.765,328,430,328z"/>
<path d="M134.5,134c-2.63,0-5.21,1.07-7.07,2.93c-1.86,1.86-2.93,4.44-2.93,7.07s1.069,5.21,2.93,7.07s4.44,2.93,7.07,2.93
	s5.21-1.07,7.069-2.93c1.86-1.86,2.931-4.44,2.931-7.07s-1.07-5.21-2.931-7.07C139.71,135.07,137.13,134,134.5,134z"/>
<path d="M374.33,378c2.63,0,5.21-1.07,7.069-2.931c1.86-1.859,2.931-4.439,2.931-7.069c0-2.641-1.07-5.21-2.931-7.07
	c-1.859-1.86-4.43-2.93-7.069-2.93c-2.63,0-5.21,1.069-7.07,2.93s-2.93,4.44-2.93,7.07s1.069,5.21,2.93,7.069
	C369.12,376.93,371.7,378,374.33,378z"/>
<path d="M512,256V112c0-45.215-36.785-82-82-82H10C4.478,30,0,34.477,0,40v144c0,5.523,4.478,10,10,10h18.426
	C11.035,209.048,0,231.252,0,256v144c0,45.215,36.785,82,82,82h420c5.522,0,10-4.478,10-10V328c0-5.522-4.478-10-10-10h-18.426
	C500.965,302.952,512,280.748,512,256z M20,174v-20h70.164c5.522,0,10-4.477,10-10s-4.478-10-10-10H20V50h34v46
	c0,5.523,4.478,10,10,10s10-4.477,10-10V50h12v21c0,5.523,4.478,10,10,10s10-4.477,10-10V50h12v21c0,5.523,4.478,10,10,10
	s10-4.477,10-10V50h12v21c0,5.523,4.478,10,10,10s10-4.477,10-10V50h12v46c0,5.523,4.478,10,10,10s10-4.477,10-10V50h12v21
	c0,5.523,4.478,10,10,10s10-4.477,10-10V50h12v21c0,5.523,4.478,10,10,10s10-4.477,10-10V50h12v21c0,5.523,4.478,10,10,10
	s10-4.477,10-10V50h12v46c0,5.523,4.478,10,10,10s10-4.477,10-10V50h12v21c0,5.523,4.478,10,10,10s10-4.477,10-10V50h12v21
	c0,5.523,4.478,10,10,10s10-4.477,10-10V50h12v21c0,5.523,4.478,10,10,10s10-4.477,10-10V50h4c2.712,0,5.379,0.194,8,0.533V96
	c0,5.523,4.478,10,10,10s10-4.477,10-10V56.71c20.152,10.248,34,31.175,34,55.29v90.426C476.952,185.035,454.748,174,430,174
	H214.081H82H20z M492,338v20h-73.332c-5.522,0-10,4.478-10,10s4.478,10,10,10H492v84h-34v-46c0-5.522-4.478-10-10-10
	s-10,4.478-10,10v46h-12v-21c0-5.522-4.478-10-10-10s-10,4.478-10,10v21h-12v-21c0-5.522-4.478-10-10-10s-10,4.478-10,10v21h-12v-21
	c0-5.522-4.478-10-10-10s-10,4.478-10,10v21h-12v-46c0-5.522-4.478-10-10-10s-10,4.478-10,10v46h-12v-21c0-5.522-4.478-10-10-10
	s-10,4.478-10,10v21h-12v-21c0-5.522-4.478-10-10-10s-10,4.478-10,10v21h-12v-21c0-5.522-4.478-10-10-10s-10,4.478-10,10v21h-12v-46
	c0-5.522-4.478-10-10-10s-10,4.478-10,10v46h-12v-21c0-5.522-4.478-10-10-10s-10,4.478-10,10v21h-12v-21c0-5.522-4.478-10-10-10
	s-10,4.478-10,10v21h-12v-21c0-5.522-4.478-10-10-10s-10,4.478-10,10v21h-4c-2.712,0-5.379-0.194-8-0.533V416
	c0-5.522-4.478-10-10-10s-10,4.478-10,10v39.29C33.848,445.042,20,424.114,20,400v-90.426C35.048,326.965,57.252,338,82,338h26.332
	H430H492z M108.332,318H82c-34.187,0-62-27.813-62-62s27.813-62,62-62h132.081H430c34.187,0,62,27.813,62,62s-27.813,62-62,62
	H108.332z"/>
<g>
</g>
<g>
</g>
<g>
</g>
<g>
</g>
<g>
</g>
<g>
</g>
<g>
</g>
<g>
</g>
<g>
</g>
<g>
</g>
<g>
</g>
<g>
</g>
<g>
</g>
<g>
</g>
<g>
</g>
</svg>
