<?xml version="1.0" encoding="iso-8859-1"?>
<!-- Generator: Adobe Illustrator 19.0.0, SVG Export Plug-In . SVG Version: 6.00 Build 0)  -->
<svg version="1.1" id="Capa_1" xmlns="http://www.w3.org/2000/svg" xmlns:xlink="http://www.w3.org/1999/xlink" x="0px" y="0px"
	 viewBox="0 0 512.001 512.001" style="enable-background:new 0 0 512.001 512.001;" xml:space="preserve">
<g>
	<polygon style="fill:#D8D8E4;" points="107.878,421.907 35.246,421.907 10.001,474.993 133.123,474.993 	"/>
	<polygon style="fill:#D8D8E4;" points="476.756,421.907 404.124,421.907 378.879,474.993 502.001,474.993 	"/>
</g>
<path style="fill:#4DBAF6;" d="M448.001,176.993h-10.495c-15.464,0-28,12.536-28,28l0,0c0,15.464,12.536,28,28,28h10.495V176.993z"
	/>
<path style="fill:#D8D8E4;" d="M63.856,210.508c8.566-30.622,24.894-58.833,47.775-81.715l5.772-5.772L87.181,88.6l0,0
	c-49.418,49.418-77.18,116.442-77.18,186.329v10.063L63.856,210.508z"/>
<path style="fill:#EF3C3C;" d="M154.569,99.419L98,42.85c-7.81-7.81-20.474-7.81-28.284,0l0,0c-7.81,7.81-7.81,20.474,0,28.284
	l56.569,56.569c7.81,7.81,20.474,7.81,28.284,0l0,0C162.379,119.893,162.379,107.23,154.569,99.419z"/>
<path style="fill:#4DBAF6;" d="M38.001,364.993h436c15.464,0,28,12.536,28,28l0,0c0,15.464-12.536,28-28,28h-436
	c-15.464,0-28-12.536-28-28l0,0C10.001,377.529,22.537,364.993,38.001,364.993z"/>
<circle style="fill:#EF3C3C;" cx="102.001" cy="296.99" r="92"/>
<circle style="fill:#FF5D5D;" cx="102.001" cy="296.99" r="40.25"/>
<path d="M102.001,347.243c27.708,0,50.25-22.542,50.25-50.25s-22.542-50.25-50.25-50.25s-50.25,22.542-50.25,50.25
	S74.293,347.243,102.001,347.243z M102.001,266.743c16.68,0,30.25,13.57,30.25,30.25s-13.57,30.25-30.25,30.25
	s-30.25-13.57-30.25-30.25S85.321,266.743,102.001,266.743z"/>
<path d="M490.383,427.275c12.775-6.129,21.618-19.192,21.618-34.282c0-20.953-17.047-38-38-38H185.856
	c11.433-16.479,18.145-36.469,18.145-58c0-33.571-16.305-63.402-41.408-82h238.258c4.402,16.116,19.163,28,36.655,28h10.495
	c5.522,0,10-4.477,10-10v-56c0-5.523-4.478-10-10-10h-10.495c-17.492,0-32.253,11.884-36.655,28h-298.85
	c-8.043,0-15.87,0.94-23.381,2.708c8.854-23.127,22.519-44.273,40.083-61.836l0.807-0.807c5.811,5.655,13.362,8.49,20.916,8.49
	c7.683,0,15.365-2.924,21.214-8.772c5.666-5.666,8.786-13.2,8.786-21.213s-3.12-15.547-8.786-21.213l-56.569-56.571
	c-11.696-11.695-30.729-11.696-42.427,0c-11.696,11.697-11.696,30.729,0,42.427L73.18,88.742
	c-22.221,23.884-39.823,51.256-52.36,81.52C7.006,203.614,0.001,238.829,0.001,274.929c0,0,0,18.976,0,22.063
	c0,23.304,7.861,44.803,21.063,61.997c-12.473,6.24-21.063,19.134-21.063,34.004c0,15.091,8.843,28.153,21.618,34.282l-20.65,43.423
	c-1.473,3.099-1.255,6.735,0.577,9.636s5.023,4.659,8.454,4.659h257.673c5.522,0,10-4.478,10-10s-4.478-10-10-10H139.441l-16.169-34
	h265.457l-18.882,39.705c-1.473,3.099-1.255,6.735,0.577,9.636s5.023,4.659,8.454,4.659h123.123c3.431,0,6.622-1.759,8.454-4.659
	s2.05-6.537,0.577-9.636L490.383,427.275z M437.506,186.993h0.495v36h-0.495c-9.925,0-18-8.075-18-18
	S427.581,186.993,437.506,186.993z M76.787,49.922c1.949-1.95,4.51-2.924,7.07-2.924c2.562,0,5.122,0.975,7.071,2.924l56.568,56.568
	c3.899,3.899,3.899,10.243,0,14.142c-3.897,3.899-10.242,3.898-14.142,0L76.787,64.063C72.888,60.164,72.888,53.821,76.787,49.922z
	 M87.33,102.892l18.03,18.031l-0.8,0.8c-23.577,23.577-40.844,52.952-50.01,85.004c-11.875,6.268-22.372,14.808-30.906,25.042
	C31.842,183.701,53.719,139.198,87.33,102.892z M102.001,214.993c45.215,0,82,36.785,82,82s-36.785,82-82,82s-82-36.785-82-82
	S56.786,214.993,102.001,214.993z M36.447,375.071c17.741,14.919,40.614,23.922,65.554,23.922c25.002,0,47.927-9.047,65.686-24.033
	c0.215,0.014,0.429,0.033,0.647,0.033h305.667c9.925,0,18,8.075,18,18s-8.075,18-18,18h-436c-9.925,0-18-8.075-18-18
	C20.001,383.592,27.249,375.863,36.447,375.071z M25.83,464.993l15.733-33.086h59.997l15.733,33.086H25.83z M394.708,464.993
	l15.733-33.086h59.997l15.733,33.086H394.708z"/>
<path d="M308.471,464.993c-2.63,0-5.21,1.069-7.07,2.93c-1.859,1.86-2.93,4.44-2.93,7.07s1.07,5.21,2.93,7.069
	c1.86,1.86,4.44,2.931,7.07,2.931s5.21-1.07,7.07-2.931c1.859-1.859,2.93-4.439,2.93-7.069s-1.07-5.21-2.93-7.07
	C313.681,466.062,311.101,464.993,308.471,464.993z"/>
<path d="M261.261,237.922c-1.86,1.86-2.93,4.44-2.93,7.07s1.069,5.21,2.93,7.07s4.44,2.93,7.07,2.93s5.21-1.07,7.069-2.93
	c1.86-1.86,2.931-4.44,2.931-7.07s-1.07-5.21-2.931-7.07c-1.859-1.86-4.43-2.93-7.069-2.93
	C265.701,234.993,263.121,236.062,261.261,237.922z"/>
<path d="M312.669,234.993c-5.522,0-10,4.477-10,10s4.478,10,10,10h60.332c5.522,0,10-4.477,10-10s-4.478-10-10-10H312.669z"/>
<g>
</g>
<g>
</g>
<g>
</g>
<g>
</g>
<g>
</g>
<g>
</g>
<g>
</g>
<g>
</g>
<g>
</g>
<g>
</g>
<g>
</g>
<g>
</g>
<g>
</g>
<g>
</g>
<g>
</g>
</svg>
