<?xml version="1.0" encoding="iso-8859-1"?>
<!-- Generator: Adobe Illustrator 19.0.0, SVG Export Plug-In . SVG Version: 6.00 Build 0)  -->
<svg version="1.1" id="Capa_1" xmlns="http://www.w3.org/2000/svg" xmlns:xlink="http://www.w3.org/1999/xlink" x="0px" y="0px"
	 viewBox="0 0 511.999 511.999" style="enable-background:new 0 0 511.999 511.999;" xml:space="preserve">
<g>
	<rect x="461.999" y="37.029" style="fill:#62CD4D;" width="39.999" height="143.997"/>
	<rect x="10.01" y="330.972" style="fill:#62CD4D;" width="39.999" height="143.997"/>
</g>
<path d="M502,27.031h-47.999c-41.827,0-76.415,31.487-81.366,71.998H264.259c-5.523,0-10,4.477-10,10s4.477,10,10,10h108.375
	c4.951,40.511,39.54,71.998,81.366,71.998h47.999c5.523,0,10-4.477,10-10V37.031C512,31.508,507.523,27.031,502,27.031z
	 M392.003,109.029c0-33.515,26.736-60.886,59.999-61.948v123.895C418.739,169.915,392.003,142.545,392.003,109.029z M492,171.028
	h-11.013h-8.987V47.031h8.987H492V171.028z"/>
<path d="M374.516,246.001h-82.988c-0.013,0-0.025-0.002-0.039-0.002H83.484C48.479,245.999,20,217.52,20,182.514
	c0-35.005,28.479-63.485,63.485-63.485h91.523c5.523,0,10-4.477,10-10s-4.477-10-10-10H83.484C37.451,99.03,0,136.481,0,182.515
	c0,44.535,35.053,81.032,79.018,83.362c0.49,0.074,0.988,0.124,1.498,0.124h294c35.005,0,63.484,28.478,63.484,63.484
	s-28.479,63.484-63.484,63.484H139.377c-4.951-40.511-39.54-71.998-81.366-71.998H31.024H10.012c-5.523,0-10,4.478-10,10v143.997
	c0,5.522,4.477,10,10,10h47.999c41.827,0,76.415-31.487,81.366-71.998h235.14c46.034,0,83.484-37.451,83.484-83.484
	S420.55,246.001,374.516,246.001z M20.012,464.969V340.972h20v123.997H20.012z M60.011,464.918V341.023
	c33.262,1.062,59.999,28.432,59.999,61.948S93.273,463.856,60.011,464.918z"/>
<path d="M218.336,119.033c2.64,0,5.21-1.07,7.07-2.93c1.87-1.87,2.93-4.44,2.93-7.07c0-2.64-1.06-5.21-2.93-7.07
	c-1.86-1.87-4.43-2.93-7.07-2.93c-2.63,0-5.21,1.06-7.07,2.93c-1.86,1.86-2.93,4.43-2.93,7.07c0,2.63,1.07,5.21,2.93,7.07
	C213.126,117.963,215.706,119.033,218.336,119.033z"/>
<path d="M202.407,370.037c1.87-1.86,2.93-4.44,2.93-7.07s-1.06-5.2-2.93-7.07c-1.86-1.859-4.44-2.93-7.07-2.93s-5.21,1.07-7.07,2.93
	c-1.86,1.86-2.93,4.44-2.93,7.07s1.07,5.21,2.93,7.07c1.86,1.87,4.44,2.93,7.07,2.93
	C197.967,372.967,200.547,371.907,202.407,370.037z"/>
<path d="M316.673,372.971c5.523,0,10-4.478,10-10s-4.477-10-10-10h-76.998c-5.523,0-10,4.478-10,10s4.477,10,10,10H316.673z"/>
<path d="M374.516,352.972c-5.523,0-10,4.478-10,10s4.477,10,10,10c23.978,0,43.485-19.508,43.485-43.485
	c0-23.977-19.508-43.485-43.485-43.485c-5.523,0-10,4.478-10,10c0,5.522,4.477,10,10,10c12.95,0,23.485,10.536,23.485,23.485
	S387.467,352.972,374.516,352.972z"/>
<g>
</g>
<g>
</g>
<g>
</g>
<g>
</g>
<g>
</g>
<g>
</g>
<g>
</g>
<g>
</g>
<g>
</g>
<g>
</g>
<g>
</g>
<g>
</g>
<g>
</g>
<g>
</g>
<g>
</g>
</svg>
