<?xml version="1.0" encoding="iso-8859-1"?>
<!-- Generator: Adobe Illustrator 19.0.0, SVG Export Plug-In . SVG Version: 6.00 Build 0)  -->
<svg version="1.1" id="Capa_1" xmlns="http://www.w3.org/2000/svg" xmlns:xlink="http://www.w3.org/1999/xlink" x="0px" y="0px"
	 viewBox="0 0 512 512" style="enable-background:new 0 0 512 512;" xml:space="preserve">
<circle style="fill:#7D9BFF;" cx="256" cy="256" r="246"/>
<ellipse style="fill:#6A80FF;" cx="256" cy="256" rx="132.3" ry="246"/>
<g>
	<rect x="212" y="96" style="fill:#D8D8E4;" width="88" height="32"/>
	<rect x="212" y="168" style="fill:#D8D8E4;" width="88" height="32"/>
	<rect x="212" y="240" style="fill:#D8D8E4;" width="88" height="32"/>
	<rect x="212" y="312" style="fill:#D8D8E4;" width="88" height="32"/>
	<rect x="212" y="384" style="fill:#D8D8E4;" width="88" height="32"/>
</g>
<path d="M467.708,112.028c-3.11-4.565-9.332-5.743-13.895-2.634c-4.564,3.109-5.744,9.331-2.634,13.895
	c24.831,36.445,38.769,78.679,40.604,122.711H442c-5.523,0-10,4.477-10,10c0,5.522,4.477,10,10,10h49.773
	c-4.293,102.434-74.179,188.187-168.657,216.262c12.848-12.303,24.658-28.251,35.033-47.585C383.848,386.785,398,323.33,398,256
	s-14.152-130.785-39.851-178.676c-10.401-19.384-22.246-35.365-35.133-47.681c23.8,7.03,46.433,17.831,67.17,32.191
	c4.54,3.144,10.771,2.013,13.914-2.528c3.145-4.541,2.012-10.77-2.528-13.914C358.689,15.696,308.351,0,256,0
	C187.62,0,123.333,26.628,74.981,74.981C26.628,123.333,0,187.62,0,256s26.628,132.667,74.981,181.02
	C123.333,485.371,187.62,512,256,512s132.667-26.629,181.019-74.98C485.372,388.667,512,324.38,512,256
	C512,204.342,496.684,154.557,467.708,112.028z M20.227,266H70c5.523,0,10-4.478,10-10c0-5.523-4.477-10-10-10H20.227
	C24.521,143.539,94.444,57.766,188.96,29.715c-5.414,5.179-10.657,11.006-15.697,17.482c-3.392,4.358-2.608,10.642,1.751,14.033
	c4.358,3.392,10.642,2.608,14.033-1.751C209.146,33.652,232.297,20,256,20c31.4,0,61.419,23.716,84.526,66.78
	C364.691,131.815,378,191.912,378,256s-13.309,124.186-37.474,169.22C317.419,468.284,287.4,492,256,492
	s-61.419-23.716-84.526-66.78C147.309,380.186,134,320.088,134,256c0-44.279,6.496-87.494,18.786-124.975
	c1.721-5.248-1.139-10.897-6.387-12.618c-5.245-1.721-10.896,1.139-12.618,6.387C120.84,164.26,114,209.631,114,256
	c0,67.33,14.152,130.785,39.851,178.677c10.374,19.334,22.185,35.282,35.033,47.585C94.406,454.187,24.52,368.434,20.227,266z"/>
<path d="M423.893,90.146c1.957,1.984,4.538,2.978,7.12,2.978c2.536,0,5.074-0.959,7.022-2.88c3.932-3.878,3.975-10.21,0.097-14.142
	c-0.37-0.375-0.741-0.748-1.113-1.12c-3.905-3.904-10.237-3.904-14.143,0c-3.905,3.905-3.905,10.237,0,14.143L423.893,90.146z"/>
<path d="M153.969,99.415c1.416,0.694,2.915,1.022,4.393,1.022c3.697,0,7.251-2.059,8.987-5.603l0.388-0.79
	c2.437-4.956,0.396-10.95-4.561-13.387c-4.958-2.439-10.949-0.396-13.387,4.561l-0.4,0.816
	C146.959,90.995,149.01,96.985,153.969,99.415z"/>
<path d="M212,426h34v10.832c0,5.522,4.477,10,10,10c5.523,0,10-4.478,10-10V426h34c5.523,0,10-4.478,10-10v-32
	c0-5.522-4.477-10-10-10h-34v-20h34c5.523,0,10-4.478,10-10v-32c0-5.522-4.477-10-10-10h-34v-20h34c5.523,0,10-4.478,10-10v-32
	c0-5.523-4.477-10-10-10h-34v-20h34c5.523,0,10-4.477,10-10v-32c0-5.523-4.477-10-10-10h-34v-20h34c5.523,0,10-4.477,10-10V96
	c0-5.523-4.477-10-10-10h-34V75.168c0-5.523-4.477-10-10-10s-10,4.477-10,10V86h-34c-5.523,0-10,4.477-10,10v32
	c0,5.523,4.477,10,10,10h34v20h-34c-5.523,0-10,4.477-10,10v32c0,5.523,4.477,10,10,10h34v20h-34c-5.523,0-10,4.477-10,10v32
	c0,5.522,4.477,10,10,10h34v20h-34c-5.523,0-10,4.478-10,10v32c0,5.522,4.477,10,10,10h34v20h-34c-5.523,0-10,4.478-10,10v32
	C202,421.522,206.477,426,212,426z M290,106v12h-24v-12H290z M222,118v-12h24v12H222z M290,178v12h-24v-12H290z M222,190v-12h24v12
	H222z M290,250v12h-24v-12H290z M222,262v-12h24v12H222z M290,322v12h-24v-12H290z M222,334v-12h24v12H222z M290,394v12h-24v-12H290
	z M222,394h24v12h-24V394z"/>
<g>
</g>
<g>
</g>
<g>
</g>
<g>
</g>
<g>
</g>
<g>
</g>
<g>
</g>
<g>
</g>
<g>
</g>
<g>
</g>
<g>
</g>
<g>
</g>
<g>
</g>
<g>
</g>
<g>
</g>
</svg>
