<?xml version="1.0" encoding="iso-8859-1"?>
<!-- Generator: Adobe Illustrator 19.0.0, SVG Export Plug-In . SVG Version: 6.00 Build 0)  -->
<svg version="1.1" id="Capa_1" xmlns="http://www.w3.org/2000/svg" xmlns:xlink="http://www.w3.org/1999/xlink" x="0px" y="0px"
	 viewBox="0 0 511.999 511.999" style="enable-background:new 0 0 511.999 511.999;" xml:space="preserve">
<path style="fill:#D8D8E4;" d="M175.5,224h-23c-4.694,0-8.5,3.806-8.5,8.5v23.5h40v-23.5C184,227.806,180.195,224,175.5,224z"/>
<rect x="103.999" y="255.997" style="fill:#6A80FF;" width="303.997" height="159.998"/>
<g>
	<path style="fill:#D8D8E4;" d="M64.001,150.488v351.51h40v-362.33V99.369V30.002c0-11.046-8.954-20-20-20l0,0
		c-11.046,0-20,8.954-20,20v78.281V150.488z"/>
	<path style="fill:#D8D8E4;" d="M407.998,150.488v351.51h40v-362.33V99.369V30.002c0-11.046-8.954-20-20-20l0,0
		c-11.046,0-20,8.954-20,20v78.281V150.488z"/>
</g>
<g>
	<polygon style="fill:#EF3C3C;" points="255.999,121.768 370.498,121.768 491.503,165.233 501.997,134.001 379.498,90.437 
		255.999,90.437 132.5,90.437 10.002,134.001 20.495,165.233 141.5,121.768 	"/>
	<path style="fill:#EF3C3C;" d="M319.999,367.998H192c-15.464,0-28,12.536-28,28l0,0c0,15.464,12.536,28,28,28h127.999
		c15.464,0,28-12.536,28-28l0,0C347.998,380.534,335.462,367.998,319.999,367.998z"/>
</g>
<path style="fill:#D8D8E4;" d="M359.498,224h-23c-4.694,0-8.5,3.806-8.5,8.5v23.5h40v-23.5C367.998,227.806,364.193,224,359.498,224
	z"/>
<path d="M501.997,491.997h-44V163.823l30.125,10.821c1.095,0.394,2.239,0.589,3.38,0.589c1.495,0,2.986-0.335,4.358-1
	c2.419-1.171,4.265-3.268,5.122-5.815l10.494-31.233c1.737-5.17-0.989-10.779-6.128-12.607l-47.351-16.839V30.002
	c0-16.542-13.458-30-30-30c-13.771,0-25.398,9.331-28.908,22H256.26c-0.088-0.002-0.173-0.013-0.261-0.013s-0.173,0.011-0.261,0.013
	H112.91c-3.511-12.669-15.137-22-28.908-22c-16.542,0-30,13.458-30,30v77.738L6.652,124.579c-5.139,1.828-7.866,7.437-6.128,12.607
	l10.494,31.233c0.856,2.548,2.702,4.644,5.122,5.815c1.372,0.665,2.863,1,4.358,1c1.142,0,2.286-0.195,3.38-0.589l30.125-10.821
	v24.412c0,5.523,4.477,10,10,10s10-4.477,10-10v-31.596l20-7.184v342.542h-20V272.999c0-5.522-4.477-10-10-10s-10,4.478-10,10
	v218.998h-44c-5.523,0-10,4.478-10,10c0,5.522,4.477,10,10,10h491.995c5.523,0,10-4.478,10-10
	C511.998,496.475,507.52,491.997,501.997,491.997z M417.998,30.002c0-5.514,4.486-10,10-10s10,4.486,10,10v70.626l-20-7.113V30.002z
	 M114.001,42.002h40v38.436h-21.5c-1.142,0-2.275,0.195-3.351,0.578l-15.149,5.387V42.002z M174,42.002h71.999v38.436H174V42.002z
	 M265.999,42.002h71.999v38.436h-71.999V42.002z M357.998,42.002h40v44.402l-15.149-5.387c-1.076-0.383-2.209-0.578-3.351-0.578
	h-21.5V42.002z M74.001,30.002c0-5.514,4.486-10,10-10s10,4.486,10,10v63.513l-20,7.113V30.002z M22.61,140.131l111.615-39.693
	h243.548l111.615,39.693l-4.113,12.241l-111.397-40.014c-1.084-0.39-2.228-0.589-3.38-0.589H141.5c-1.152,0-2.296,0.199-3.38,0.589
	L26.723,152.37L22.61,140.131z M174,234v12h-20v-12H174z M144,265.999h40h143.999h40h30v20H114.001v-20H144z M357.998,234v12h-20
	v-12H357.998z M356.654,385.998h41.345v20h-41.345c0.871-3.188,1.345-6.539,1.345-10
	C357.999,392.537,357.524,389.187,356.654,385.998z M114.001,305.999h283.997v20H114.001L114.001,305.999L114.001,305.999z
	 M114.001,345.999h283.997v20h-53.891c-0.262,0-0.519,0.019-0.776,0.039c-6.445-5.031-14.542-8.039-23.332-8.039H192
	c-8.768,0-16.845,2.993-23.282,8h-54.717L114.001,345.999L114.001,345.999z M114.001,385.998h41.345
	c-0.871,3.188-1.345,6.539-1.345,10c0,3.461,0.474,6.812,1.345,10h-41.345V385.998z M174,395.998c0-9.925,8.075-18,18-18h127.999
	c9.925,0,18,8.075,18,18c0,9.925-8.075,18-18,18H192C182.075,413.998,174,405.923,174,395.998z M208,433.998h95.999v57.999H208
	L208,433.998L208,433.998z M323.998,433.786c7.219-0.759,13.837-3.553,19.282-7.788h54.717v65.999h-73.999V433.786z M397.998,246
	h-20v-13.5c0-10.201-8.299-18.5-18.5-18.5h-1.5v-11.5c0-5.523-4.477-10-10-10c-5.523,0-10,4.477-10,10V214h-1.5
	c-10.201,0-18.5,8.299-18.5,18.5V246H194v-13.5c0-10.201-8.299-18.5-18.5-18.5H174v-82.232h163.998v5.233c0,5.523,4.477,10,10,10
	c5.523,0,10-4.477,10-10v-5.233h10.758l29.242,10.504V246z M143.242,131.768H154V214h-1.5c-10.201,0-18.5,8.299-18.5,18.5V246h-20
	V142.272L143.242,131.768z M114.001,425.998H167c0.528,0,1.043-0.053,1.549-0.132c5.477,4.309,12.156,7.154,19.45,7.92v58.211H114
	v-65.999H114.001z M417.998,491.997V149.455l20,7.184v335.358H417.998z"/>
<path d="M347.998,160c-2.64,0-5.21,1.07-7.07,2.93c-1.86,1.86-2.93,4.44-2.93,7.07c0,2.63,1.07,5.21,2.93,7.07s4.44,2.93,7.07,2.93
	s5.21-1.07,7.07-2.93c1.86-1.86,2.93-4.44,2.93-7.07c0-2.63-1.07-5.21-2.93-7.07C353.208,161.07,350.628,160,347.998,160z"/>
<path d="M64.001,240.5c2.63,0,5.21-1.07,7.07-2.93c1.86-1.86,2.93-4.44,2.93-7.07s-1.07-5.21-2.93-7.07
	c-1.86-1.86-4.44-2.93-7.07-2.93c-2.63,0-5.21,1.07-7.07,2.93c-1.86,1.86-2.93,4.44-2.93,7.07s1.07,5.21,2.93,7.07
	C58.791,239.43,61.371,240.5,64.001,240.5z"/>
<g>
</g>
<g>
</g>
<g>
</g>
<g>
</g>
<g>
</g>
<g>
</g>
<g>
</g>
<g>
</g>
<g>
</g>
<g>
</g>
<g>
</g>
<g>
</g>
<g>
</g>
<g>
</g>
<g>
</g>
</svg>
