<?xml version="1.0" encoding="iso-8859-1"?>
<!-- Generator: Adobe Illustrator 19.0.0, SVG Export Plug-In . SVG Version: 6.00 Build 0)  -->
<svg version="1.1" id="Capa_1" xmlns="http://www.w3.org/2000/svg" xmlns:xlink="http://www.w3.org/1999/xlink" x="0px" y="0px"
	 viewBox="0 0 512 512" style="enable-background:new 0 0 512 512;" xml:space="preserve">
<g>
	<path style="fill:#D8D8E4;" d="M466,292H348v-72h118c19.882,0,36,16.118,36,36l0,0C502,275.882,485.882,292,466,292z"/>
	<path style="fill:#D8D8E4;" d="M46,220h118v72H46c-19.882,0-36-16.118-36-36l0,0C10,236.118,26.118,220,46,220z"/>
</g>
<path style="fill:#EF3C3C;" d="M219,64h-18c-20.435,0-37,16.565-37,37v310c0,20.435,16.565,37,37,37h18c20.435,0,37-16.565,37-37
	V101C256,80.565,239.435,64,219,64z"/>
<path style="fill:#FF5D5D;" d="M311,64h-18c-20.435,0-37,16.565-37,37v310c0,20.435,16.565,37,37,37h18c20.435,0,37-16.565,37-37
	V101C348,80.565,331.435,64,311,64z"/>
<path d="M225.071,110.471h-28.495c-5.523,0-10,4.477-10,10s4.477,10,10,10h28.495c5.523,0,10-4.477,10-10
	S230.594,110.471,225.071,110.471z"/>
<path d="M225.071,178.235h-28.495c-5.523,0-10,4.477-10,10s4.477,10,10,10h28.495c5.523,0,10-4.477,10-10
	S230.594,178.235,225.071,178.235z"/>
<path d="M225.071,246h-28.495c-5.523,0-10,4.477-10,10c0,5.522,4.477,10,10,10h28.495c5.523,0,10-4.478,10-10
	C235.071,250.477,230.594,246,225.071,246z"/>
<path d="M225.071,313.765h-28.495c-5.523,0-10,4.478-10,10s4.477,10,10,10h28.495c5.523,0,10-4.478,10-10
	S230.594,313.765,225.071,313.765z"/>
<path d="M225.071,381.529h-28.495c-5.523,0-10,4.478-10,10s4.477,10,10,10h28.495c5.523,0,10-4.478,10-10
	S230.594,381.529,225.071,381.529z"/>
<path d="M316.248,110.471h-28.495c-5.523,0-10,4.477-10,10s4.477,10,10,10h28.495c5.523,0,10-4.477,10-10
	S321.771,110.471,316.248,110.471z"/>
<path d="M316.248,178.235h-28.495c-5.523,0-10,4.477-10,10s4.477,10,10,10h28.495c5.523,0,10-4.477,10-10
	S321.771,178.235,316.248,178.235z"/>
<path d="M316.248,246h-28.495c-5.523,0-10,4.477-10,10c0,5.522,4.477,10,10,10h28.495c5.523,0,10-4.478,10-10
	C326.248,250.477,321.771,246,316.248,246z"/>
<path d="M316.248,313.765h-28.495c-5.523,0-10,4.478-10,10s4.477,10,10,10h28.495c5.523,0,10-4.478,10-10
	S321.771,313.765,316.248,313.765z"/>
<path d="M316.248,381.529h-28.495c-5.523,0-10,4.478-10,10s4.477,10,10,10h28.495c5.523,0,10-4.478,10-10
	S321.771,381.529,316.248,381.529z"/>
<path d="M256,246c-2.63,0-5.21,1.07-7.07,2.93c-1.86,1.86-2.93,4.44-2.93,7.07s1.07,5.21,2.93,7.069
	c1.86,1.86,4.44,2.931,7.07,2.931s5.21-1.07,7.07-2.931c1.86-1.859,2.93-4.439,2.93-7.069s-1.07-5.21-2.93-7.07
	C261.21,247.07,258.63,246,256,246z"/>
<path d="M466,210H358V101c0-25.916-21.084-47-47-47h-18c-15.01,0-28.389,7.081-37,18.069C247.389,61.081,234.01,54,219,54h-18
	c-25.916,0-47,21.084-47,47v109h-12.5c-5.523,0-10,4.477-10,10s4.477,10,10,10H154v52H46c-14.336,0-26-11.663-26-26
	c0-14.336,11.664-26,26-26h14.5c5.523,0,10-4.477,10-10s-4.477-10-10-10H46c-25.364,0-46,20.636-46,46s20.636,46,46,46h108v109
	c0,25.916,21.084,47,47,47h18c15.01,0,28.389-7.081,37-18.069C264.611,450.919,277.99,458,293,458h18c25.916,0,47-21.084,47-47V302
	h108c25.364,0,46-20.636,46-46S491.364,210,466,210z M338,411c0,14.888-12.112,27-27,27h-18c-14.888,0-27-12.112-27-27v-39v-71
	c0-5.522-4.477-10-10-10s-10,4.478-10,10v71v39c0,14.888-12.112,27-27,27h-18c-14.888,0-27-12.112-27-27V292v-72V101
	c0-14.888,12.112-27,27-27h18c14.888,0,27,12.112,27,27v71.5v40.166c0,5.523,4.477,10,10,10c5.523,0,10-4.477,10-10V172.5V101
	c0-14.888,12.112-27,27-27h18c14.888,0,27,12.112,27,27v119v72V411z M466,282H358v-52h108c14.336,0,26,11.664,26,26
	C492,270.337,480.336,282,466,282z"/>
<path d="M99.33,230c2.64,0,5.21-1.07,7.08-2.93c1.86-1.86,2.92-4.44,2.92-7.07s-1.06-5.21-2.92-7.07c-1.87-1.86-4.44-2.93-7.08-2.93
	c-2.63,0-5.2,1.07-7.07,2.93c-1.86,1.86-2.93,4.44-2.93,7.07s1.07,5.21,2.93,7.07C94.13,228.93,96.7,230,99.33,230z"/>
<g>
</g>
<g>
</g>
<g>
</g>
<g>
</g>
<g>
</g>
<g>
</g>
<g>
</g>
<g>
</g>
<g>
</g>
<g>
</g>
<g>
</g>
<g>
</g>
<g>
</g>
<g>
</g>
<g>
</g>
</svg>
