<?xml version="1.0" encoding="iso-8859-1"?>
<!-- Generator: Adobe Illustrator 19.0.0, SVG Export Plug-In . SVG Version: 6.00 Build 0)  -->
<svg version="1.1" id="Capa_1" xmlns="http://www.w3.org/2000/svg" xmlns:xlink="http://www.w3.org/1999/xlink" x="0px" y="0px"
	 viewBox="0 0 512 512" style="enable-background:new 0 0 512 512;" xml:space="preserve">
<g>
	<rect x="114" y="289" style="fill:#D8D8E4;" width="284" height="32"/>
	<path style="fill:#D8D8E4;" d="M466,98v12c0,5.523-4.477,10-10,10H56c-5.523,0-10-4.477-10-10V98c0-5.523,4.477-10,10-10h400
		C461.523,88,466,92.477,466,98z"/>
</g>
<path style="fill:#72D8FF;" d="M454,224L454,224c-8.837,0-16,7.163-16,16v130c0,8.837,7.163,16,16,16l0,0c8.837,0,16-7.163,16-16
	V240C470,231.163,462.837,224,454,224z"/>
<path style="fill:#4DBAF6;" d="M422,205h-8c-8.837,0-16,7.163-16,16v168c0,8.837,7.163,16,16,16h8c8.837,0,16-7.163,16-16V221
	C438,212.163,430.837,205,422,205z"/>
<path style="fill:#C9F3FF;" d="M486,245L486,245c-8.837,0-16,7.163-16,16v88c0,8.837,7.163,16,16,16l0,0c8.837,0,16-7.163,16-16v-88
	C502,252.163,494.837,245,486,245z"/>
<path style="fill:#72D8FF;" d="M58,386L58,386c8.837,0,16-7.163,16-16V240c0-8.837-7.163-16-16-16l0,0c-8.837,0-16,7.163-16,16v130
	C42,378.837,49.164,386,58,386z"/>
<path style="fill:#4DBAF6;" d="M90,405h8c8.837,0,16-7.163,16-16V221c0-8.837-7.163-16-16-16h-8c-8.837,0-16,7.163-16,16v168
	C74,397.837,81.164,405,90,405z"/>
<path style="fill:#C9F3FF;" d="M26,365L26,365c8.837,0,16-7.163,16-16v-88c0-8.837-7.163-16-16-16l0,0c-8.837,0-16,7.163-16,16v88
	C10,357.837,17.164,365,26,365z"/>
<rect x="10" y="462" style="fill:#41489D;" width="492" height="40"/>
<g>
	<path style="fill:#EF3C3C;" d="M418,44L418,44c-11.046,0-20,8.954-20,20v80c0,11.046,8.954,20,20,20l0,0c11.046,0,20-8.954,20-20
		V64C438,52.954,429.046,44,418,44z"/>
	<path style="fill:#EF3C3C;" d="M94,44L94,44c-11.046,0-20,8.954-20,20v80c0,11.046,8.954,20,20,20l0,0c11.046,0,20-8.954,20-20V64
		C114,52.954,105.046,44,94,44z"/>
</g>
<path d="M255.973,452c-2.63,0-5.2,1.069-7.07,2.93c-1.86,1.86-2.92,4.44-2.92,7.07s1.06,5.21,2.92,7.069
	c1.87,1.86,4.44,2.931,7.07,2.931c2.63,0,5.21-1.07,7.08-2.931c1.86-1.859,2.92-4.439,2.92-7.069s-1.06-5.21-2.92-7.07
	C261.183,453.069,258.613,452,255.973,452z"/>
<path d="M414,415h8c12.232,0,22.511-8.492,25.268-19.889c2.149,0.577,4.404,0.889,6.732,0.889c12.902,0,23.634-9.447,25.654-21.787
	c2.032,0.512,4.158,0.787,6.346,0.787c14.336,0,26-11.663,26-26v-88c0-14.336-11.664-26-26-26c-2.189,0-4.314,0.275-6.346,0.787
	C477.634,223.448,466.902,214,454,214c-2.328,0-4.584,0.312-6.732,0.889C444.511,203.492,434.231,195,422,195h-8
	c-14.336,0-26,11.664-26,26v58h-17.037v-29c0-5.523-4.477-10-10-10s-10,4.477-10,10v29H161.037V130h189.926v43.667
	c0,5.523,4.477,10,10,10s10-4.477,10-10V130H388v14c0,16.542,13.458,30,30,30s30-13.458,30-30v-14h10.66
	c9.561,0,17.34-7.779,17.34-17.34V95.34c0-9.561-7.779-17.34-17.34-17.34H448V64c0-16.542-13.458-30-30-30s-30,13.458-30,30v14
	h-17.037V10c0-5.523-4.477-10-10-10s-10,4.477-10,10v68H161.037V10c0-5.523-4.477-10-10-10s-10,4.477-10,10v68H124V64
	c0-16.542-13.458-30-30-30S64,47.458,64,64v14H53.34C43.779,78,36,85.779,36,95.34v17.32c0,9.561,7.779,17.34,17.34,17.34H64v14
	c0,16.542,13.458,30,30,30s30-13.458,30-30v-14h17.037v149H124v-58c0-14.336-11.664-26-26-26h-8
	c-12.231,0-22.511,8.492-25.268,19.889C62.584,214.312,60.328,214,58,214c-12.902,0-23.634,9.448-25.654,21.787
	C30.314,235.275,28.189,235,26,235c-14.336,0-26,11.664-26,26v88c0,14.337,11.664,26,26,26c2.189,0,4.314-0.275,6.346-0.787
	C34.366,386.553,45.098,396,58,396c2.328,0,4.584-0.312,6.732-0.889C67.489,406.508,77.768,415,90,415h8c14.336,0,26-11.663,26-26
	v-58h17.037v121H10c-5.523,0-10,4.478-10,10v40c0,5.522,4.477,10,10,10h492c5.523,0,10-4.478,10-10v-40c0-5.522-4.477-10-10-10
	H370.963V331H388v58C388,403.337,399.664,415,414,415z M486,255c3.309,0,6,2.691,6,6v88c0,3.309-2.691,6-6,6s-6-2.691-6-6v-88
	C480,257.691,482.691,255,486,255z M454,234c3.309,0,6,2.691,6,6v21v88v21c0,3.309-2.691,6-6,6s-6-2.691-6-6V240
	C448,236.691,450.691,234,454,234z M408,221c0-3.309,2.691-6,6-6h8c3.309,0,6,2.691,6,6v19v130v19c0,3.309-2.691,6-6,6h-8
	c-3.309,0-6-2.691-6-6V221z M350.963,311H161.037v-12h189.926V311z M456,98v12h-8V98H456z M408,64c0-5.514,4.486-10,10-10
	s10,4.486,10,10v80c0,5.514-4.486,10-10,10s-10-4.486-10-10V64z M388,110h-17.037V98H388V110z M350.963,110H161.037V98h189.926V110z
	 M56,110V98h8v12H56z M104,144c0,5.514-4.486,10-10,10s-10-4.486-10-10V64c0-5.514,4.486-10,10-10s10,4.486,10,10V144z M124,98
	h17.037v12H124V98z M26,355c-3.309,0-6-2.691-6-6v-88c0-3.309,2.691-6,6-6s6,2.691,6,6v88C32,352.309,29.309,355,26,355z M58,376
	c-3.309,0-6-2.691-6-6v-21v-88v-21c0-3.309,2.691-6,6-6s6,2.691,6,6v130C64,373.309,61.309,376,58,376z M104,389
	c0,3.309-2.691,6-6,6h-8c-3.309,0-6-2.691-6-6v-19V240v-19c0-3.309,2.691-6,6-6h8c3.309,0,6,2.691,6,6V389z M124,299h17.037v12H124
	V299z M295.513,452c-5.523,0-10,4.478-10,10s4.477,10,10,10H492v20H20v-20h192.013c5.523,0,10-4.478,10-10s-4.477-10-10-10h-50.976
	V331h189.926v121H295.513z M370.963,311v-12H388v12H370.963z"/>
<path d="M360.963,202.67c-2.63,0-5.21,1.06-7.07,2.92c-1.86,1.87-2.93,4.44-2.93,7.08c0,2.63,1.07,5.21,2.93,7.07
	s4.44,2.93,7.07,2.93s5.21-1.07,7.07-2.93c1.86-1.86,2.93-4.44,2.93-7.07c0-2.64-1.07-5.21-2.93-7.08
	C366.173,203.73,363.593,202.67,360.963,202.67z"/>
<g>
</g>
<g>
</g>
<g>
</g>
<g>
</g>
<g>
</g>
<g>
</g>
<g>
</g>
<g>
</g>
<g>
</g>
<g>
</g>
<g>
</g>
<g>
</g>
<g>
</g>
<g>
</g>
<g>
</g>
</svg>
