<?xml version="1.0" encoding="iso-8859-1"?>
<!-- Generator: Adobe Illustrator 19.0.0, SVG Export Plug-In . SVG Version: 6.00 Build 0)  -->
<svg version="1.1" id="Capa_1" xmlns="http://www.w3.org/2000/svg" xmlns:xlink="http://www.w3.org/1999/xlink" x="0px" y="0px"
	 viewBox="0 0 512 512" style="enable-background:new 0 0 512 512;" xml:space="preserve">
<g>
	<path style="fill:#FEA02C;" d="M91,10H47c-5.523,0-10,4.477-10,10v472c0,5.523,4.477,10,10,10h44c5.523,0,10-4.477,10-10V20
		C101,14.477,96.523,10,91,10z"/>
	<path style="fill:#FEA02C;" d="M465,10h-44c-5.523,0-10,4.477-10,10v472c0,5.523,4.477,10,10,10h44c5.523,0,10-4.477,10-10V20
		C475,14.477,470.523,10,465,10z"/>
</g>
<path d="M465,0h-44c-11.028,0-20,8.972-20,20v34H111V20c0-11.028-8.972-20-20-20H47C35.972,0,27,8.972,27,20v472
	c0,11.028,8.972,20,20,20h44c11.028,0,20-8.972,20-20v-34h290v34c0,11.028,8.972,20,20,20h44c11.028,0,20-8.972,20-20V20
	C485,8.972,476.028,0,465,0z M111,227.6h290v56.8H111V227.6z M401,207.6H111v-56.8h290V207.6z M111,304.4h290v56.8H111V304.4z
	 M401,74v56.8H111V74H401z M91,492H79v-81.851c0-5.523-4.478-10-10-10s-10,4.477-10,10V492H47V20h44V492z M111,438v-56.8h290V438
	H111z M465,492h-44V20h12v82.104c0,5.523,4.478,10,10,10s10-4.477,10-10V20h12V492z"/>
<path d="M69,362.48c-2.63,0-5.21,1.07-7.07,2.93S59,369.85,59,372.48c0,2.64,1.069,5.21,2.93,7.07c1.86,1.87,4.44,2.93,7.07,2.93
	s5.21-1.06,7.069-2.93c1.86-1.86,2.931-4.43,2.931-7.07c0-2.63-1.07-5.21-2.931-7.07C74.21,363.55,71.63,362.48,69,362.48z"/>
<path d="M443,129.77c-2.63,0-5.21,1.07-7.07,2.93c-1.86,1.86-2.93,4.44-2.93,7.07s1.069,5.21,2.93,7.07s4.44,2.93,7.07,2.93
	s5.21-1.07,7.069-2.93c1.86-1.86,2.931-4.44,2.931-7.07s-1.07-5.21-2.931-7.07C448.21,130.84,445.63,129.77,443,129.77z"/>
<g>
</g>
<g>
</g>
<g>
</g>
<g>
</g>
<g>
</g>
<g>
</g>
<g>
</g>
<g>
</g>
<g>
</g>
<g>
</g>
<g>
</g>
<g>
</g>
<g>
</g>
<g>
</g>
<g>
</g>
</svg>
