<?xml version="1.0" encoding="iso-8859-1"?>
<!-- Generator: Adobe Illustrator 19.0.0, SVG Export Plug-In . SVG Version: 6.00 Build 0)  -->
<svg version="1.1" id="Capa_1" xmlns="http://www.w3.org/2000/svg" xmlns:xlink="http://www.w3.org/1999/xlink" x="0px" y="0px"
	 viewBox="0 0 512.001 512.001" style="enable-background:new 0 0 512.001 512.001;" xml:space="preserve">
<rect x="191.495" y="347.061" style="fill:#2E9DE3;" width="128.996" height="63.998"/>
<g>
	<circle style="fill:#4DBAF6;" cx="101.997" cy="379.06" r="91.997"/>
	<circle style="fill:#4DBAF6;" cx="409.999" cy="379.06" r="91.997"/>
</g>
<rect x="191.495" y="100.937" style="fill:#EF3C3C;" width="128.996" height="63.998"/>
<g>
	<circle style="fill:#FF5D5D;" cx="101.997" cy="132.936" r="91.997"/>
	<circle style="fill:#FF5D5D;" cx="409.999" cy="132.936" r="91.997"/>
</g>
<path d="M101.997,234.938c41.278,0,76.907-24.647,92.944-59.998h122.118c16.037,35.351,51.666,59.998,92.944,59.998
	c56.241,0,101.997-45.756,101.997-101.997S466.245,30.943,410.004,30.943c-41.278,0-76.907,24.647-92.944,59.998H194.942
	c-16.037-35.351-51.666-59.998-92.944-59.998C45.756,30.943,0,76.699,0,132.94S45.756,234.938,101.997,234.938z M410.003,50.943
	c45.214,0,81.998,36.784,81.998,81.998s-36.784,81.998-81.998,81.998s-81.998-36.784-81.998-81.998S364.789,50.943,410.003,50.943z
	 M310.403,110.941c-1.564,7.088-2.397,14.448-2.397,21.999c0,7.552,0.832,14.912,2.397,21.999H201.597
	c1.564-7.088,2.397-14.448,2.397-21.999c0-7.552-0.832-14.912-2.397-21.999H310.403z M101.997,50.943
	c45.214,0,81.998,36.784,81.998,81.998s-36.784,81.998-81.998,81.998s-81.998-36.784-81.998-81.998S56.783,50.943,101.997,50.943z"
	/>
<path d="M451.962,131.098l0.015,0.395c0.171,5.413,4.612,9.684,9.989,9.684c0.107,0,0.214-0.001,0.322-0.005
	c5.52-0.175,9.854-4.791,9.679-10.311l-0.024-0.625c-0.238-5.518-4.894-9.8-10.421-9.56
	C456.005,120.915,451.724,125.581,451.962,131.098z"/>
<path d="M380.306,103.242c16.375-16.376,43.02-16.376,59.394,0c1.953,1.953,4.512,2.929,7.071,2.929s5.119-0.976,7.071-2.929
	c3.905-3.905,3.905-10.237,0-14.143c-24.173-24.172-63.506-24.172-87.68,0c-3.905,3.905-3.905,10.237,0,14.143
	C370.069,107.148,376.401,107.148,380.306,103.242z"/>
<path d="M410.003,277.063c-41.278,0-76.907,24.647-92.944,59.998H194.942c-16.037-35.351-51.666-59.998-92.944-59.998
	C45.756,277.063,0,322.819,0,379.061s45.756,101.997,101.997,101.997c41.278,0,76.907-24.647,92.944-59.998h122.118
	c16.037,35.351,51.666,59.998,92.944,59.998c56.241,0,101.997-45.756,101.997-101.997S466.244,277.063,410.003,277.063z
	 M101.997,461.058c-45.214,0-81.998-36.784-81.998-81.998s36.784-81.998,81.998-81.998s81.998,36.784,81.998,81.998
	S147.211,461.058,101.997,461.058z M201.597,401.06c1.564-7.088,2.397-14.448,2.397-21.999s-0.832-14.912-2.397-21.999h108.804
	c-1.564,7.088-2.397,14.448-2.397,21.999s0.832,14.912,2.397,21.999H201.597z M410.003,461.058
	c-45.214,0-81.998-36.784-81.998-81.998s36.784-81.998,81.998-81.998s81.998,36.784,81.998,81.998S455.217,461.058,410.003,461.058z
	"/>
<path d="M50.358,367.195c-5.489-0.167-10.126,4.17-10.321,9.679c-0.001,0.017-0.004,0.104-0.004,0.121
	c-0.167,5.51,4.159,10.081,9.669,10.262c0.111,0.003,0.221,0.005,0.331,0.005c5.363,0,9.801-4.285,9.992-9.683
	c0-0.018,0.004-0.109,0.004-0.127C60.193,371.942,55.867,367.375,50.358,367.195z"/>
<path d="M58.157,335.221c-3.905,3.905-3.905,10.237,0,14.143c3.905,3.905,10.237,3.905,14.143,0
	c16.375-16.376,43.02-16.376,59.394,0c1.953,1.953,4.512,2.929,7.071,2.929c2.559,0,5.119-0.976,7.071-2.929
	c3.905-3.905,3.905-10.237,0-14.143C121.664,311.049,82.331,311.049,58.157,335.221z"/>
<g>
</g>
<g>
</g>
<g>
</g>
<g>
</g>
<g>
</g>
<g>
</g>
<g>
</g>
<g>
</g>
<g>
</g>
<g>
</g>
<g>
</g>
<g>
</g>
<g>
</g>
<g>
</g>
<g>
</g>
</svg>
