<?xml version="1.0" encoding="iso-8859-1"?>
<!-- Generator: Adobe Illustrator 19.0.0, SVG Export Plug-In . SVG Version: 6.00 Build 0)  -->
<svg version="1.1" id="Capa_1" xmlns="http://www.w3.org/2000/svg" xmlns:xlink="http://www.w3.org/1999/xlink" x="0px" y="0px"
	 viewBox="0 0 511.999 511.999" style="enable-background:new 0 0 511.999 511.999;" xml:space="preserve">
<path style="fill:#2E9DE3;" d="M104,119.999H68c-5.523,0-10,4.477-10,10v252c0,5.523,4.477,10,10,10h36c5.523,0,10-4.477,10-10v-252
	C114,124.476,109.523,119.999,104,119.999z"/>
<path style="fill:#4DBAF6;" d="M48,175.999H20c-5.523,0-10,4.477-10,10v140c0,5.523,4.477,10,10,10h28c5.523,0,10-4.477,10-10v-140
	C58,180.477,53.523,175.999,48,175.999z"/>
<path style="fill:#2E9DE3;" d="M408,392h36c5.523,0,10-4.477,10-10v-252c0-5.523-4.477-10-10-10h-36c-5.523,0-10,4.477-10,10v252
	C398,387.523,402.477,392,408,392z"/>
<path style="fill:#4DBAF6;" d="M464,336h28c5.523,0,10-4.477,10-10v-140c0-5.523-4.477-10-10-10h-28c-5.523,0-10,4.477-10,10v140
	C454,331.523,458.477,336,464,336z"/>
<polygon style="fill:#D8D8E4;" points="114,276 204.864,276 226.283,254.58 255.987,284.284 285.53,254.74 307,276.21 395,276.21 
	395,236.21 323.568,236.21 285.53,198.171 255.986,227.715 226.283,198.012 188.296,235.999 114,235.999 "/>
<path d="M114,322.329c-2.63,0-5.21,1.07-7.07,2.93s-2.93,4.44-2.93,7.07c0,2.64,1.069,5.21,2.93,7.07c1.86,1.87,4.44,2.93,7.07,2.93
	s5.21-1.06,7.069-2.93c1.86-1.86,2.931-4.43,2.931-7.07c0-2.63-1.07-5.21-2.931-7.07C119.21,323.4,116.63,322.329,114,322.329z"/>
<path d="M398,192.499c2.63,0,5.21-1.07,7.069-2.93c1.86-1.86,2.931-4.44,2.931-7.07s-1.07-5.21-2.931-7.07
	c-1.859-1.86-4.439-2.93-7.069-2.93c-2.641,0-5.21,1.07-7.07,2.93c-1.86,1.86-2.93,4.44-2.93,7.07s1.069,5.21,2.93,7.07
	S395.359,192.499,398,192.499z"/>
<path d="M492,165.999h-28v-36c0-11.028-8.972-20-20-20h-36c-11.028,0-20,8.972-20,20v16c0,5.523,4.478,10,10,10s10-4.477,10-10v-16
	h36v56v140v56h-36V217.11c0-5.523-4.478-10-10-10s-10,4.477-10,10v9.099h-60.289L292.602,191.1c-3.906-3.905-10.236-3.905-14.143,0
	l-22.473,22.473l-22.632-22.632c-3.906-3.905-10.236-3.905-14.143,0l-35.058,35.058H124v-96c0-11.028-8.972-20-20-20H68
	c-11.028,0-20,8.972-20,20v36H20c-11.028,0-20,8.972-20,20v140c0,11.028,8.972,20,20,20h28v36c0,11.028,8.972,20,20,20h36
	c11.028,0,20-8.972,20-20v-12c0-5.523-4.478-10-10-10s-10,4.477-10,10v12H68v-56v-140v-56h36v163.667c0,5.523,4.478,10,10,10
	s10-4.477,10-10V286h80.864c2.652,0,5.195-1.054,7.071-2.929l14.348-14.348l22.633,22.632c1.876,1.875,4.419,2.929,7.071,2.929
	s5.196-1.054,7.071-2.929l22.472-22.473l14.398,14.399c1.876,1.875,4.419,2.929,7.071,2.929h81V382c0,11.028,8.972,20,20,20h36
	c11.028,0,20-8.972,20-20v-36h28c11.028,0,20-8.972,20-20v-140C512,174.971,503.028,165.999,492,165.999z M20,326v-140h28v140H20z
	 M311.143,266.21l-18.541-18.541c-1.876-1.875-4.419-2.929-7.071-2.929s-5.196,1.054-7.071,2.929l-22.472,22.473l-22.633-22.632
	c-3.906-3.905-10.236-3.904-14.143,0L200.722,266H124v-20h64.296c2.652,0,5.195-1.054,7.071-2.929l30.916-30.917l22.632,22.632
	c3.906,3.905,10.236,3.905,14.143,0l22.473-22.473l30.967,30.967c1.876,1.875,4.419,2.929,7.071,2.929H388v20h-76.857V266.21z
	 M492,326h-28v-140h28V326z"/>
<g>
</g>
<g>
</g>
<g>
</g>
<g>
</g>
<g>
</g>
<g>
</g>
<g>
</g>
<g>
</g>
<g>
</g>
<g>
</g>
<g>
</g>
<g>
</g>
<g>
</g>
<g>
</g>
<g>
</g>
</svg>
