<?xml version="1.0" encoding="iso-8859-1"?>
<!-- Generator: Adobe Illustrator 19.0.0, SVG Export Plug-In . SVG Version: 6.00 Build 0)  -->
<svg version="1.1" id="Capa_1" xmlns="http://www.w3.org/2000/svg" xmlns:xlink="http://www.w3.org/1999/xlink" x="0px" y="0px"
	 viewBox="0 0 512 512" style="enable-background:new 0 0 512 512;" xml:space="preserve">
<polygon style="fill:#FF5D5D;" points="98,423 502,423 502,177 191,177 "/>
<g>
	<circle style="fill:#EF3C3C;" cx="98" cy="335" r="88"/>
	<path style="fill:#EF3C3C;" d="M186,335V177c0-48.601-39.399-88-88-88s-88,39.399-88,88v158H186z"/>
</g>
<circle style="fill:#FF5D5D;" cx="98" cy="335" r="52"/>
<circle style="fill:#FFFFFF;" cx="98" cy="335" r="16.667"/>
<path d="M160,335c0-34.187-27.813-62-62-62s-62,27.813-62,62s27.813,62,62,62S160,369.187,160,335z M56,335
	c0-23.159,18.841-42,42-42s42,18.841,42,42s-18.841,42-42,42S56,358.159,56,335z"/>
<path d="M126,335c0-15.439-12.561-28-28-28s-28,12.561-28,28s12.561,28,28,28S126,350.439,126,335z M90,335c0-4.411,3.589-8,8-8
	s8,3.589,8,8s-3.589,8-8,8S90,339.411,90,335z"/>
<path d="M502,167H195.494C190.468,117.642,148.662,79,98,79c-54.037,0-98,43.962-98,98v158c0,54.038,43.963,98,98,98h404
	c5.522,0,10-4.477,10-10V177C512,171.477,507.522,167,502,167z M20,177c0-43.009,34.99-78,78-78s78,34.991,78,78v98.743
	C158.083,252.216,129.787,237,98,237c-13.468,0-26.309,2.732-38,7.669v-39.952c0-5.523-4.478-10-10-10s-10,4.477-10,10v51.341
	c-7.568,5.575-14.307,12.21-20,19.685V177z M20,335c0-43.009,34.99-78,78-78s78,34.991,78,78s-34.99,78-78,78S20,378.009,20,335z
	 M157.257,413C180.783,395.083,196,366.787,196,335V187h296v178h-86.5c-5.522,0-10,4.477-10,10s4.478,10,10,10H492v28H157.257z"/>
<path d="M367.83,365c-2.63,0-5.21,1.07-7.07,2.93c-1.86,1.86-2.93,4.43-2.93,7.07c0,2.63,1.069,5.21,2.93,7.07s4.44,2.93,7.07,2.93
	s5.21-1.07,7.069-2.93c1.87-1.86,2.931-4.44,2.931-7.07s-1.061-5.21-2.931-7.07C373.04,366.07,370.46,365,367.83,365z"/>
<path d="M50,177.05c2.63,0,5.21-1.07,7.069-2.93c1.86-1.86,2.931-4.44,2.931-7.07s-1.07-5.21-2.931-7.07
	c-1.859-1.86-4.439-2.93-7.069-2.93s-5.21,1.07-7.07,2.93c-1.86,1.86-2.93,4.44-2.93,7.07s1.069,5.21,2.93,7.07
	C44.79,175.98,47.37,177.05,50,177.05z"/>
<g>
</g>
<g>
</g>
<g>
</g>
<g>
</g>
<g>
</g>
<g>
</g>
<g>
</g>
<g>
</g>
<g>
</g>
<g>
</g>
<g>
</g>
<g>
</g>
<g>
</g>
<g>
</g>
<g>
</g>
</svg>
