<?xml version="1.0" encoding="iso-8859-1"?>
<!-- Generator: Adobe Illustrator 19.0.0, SVG Export Plug-In . SVG Version: 6.00 Build 0)  -->
<svg version="1.1" id="Capa_1" xmlns="http://www.w3.org/2000/svg" xmlns:xlink="http://www.w3.org/1999/xlink" x="0px" y="0px"
	 viewBox="0 0 512 512" style="enable-background:new 0 0 512 512;" xml:space="preserve">
<path style="fill:#62CD4D;" d="M60.262,200.902C29.07,234.566,10,279.621,10,329.133c0,53.336,22.127,101.502,57.699,135.826
	C74.369,471.395,83.273,475,92.543,475H304.92c9.269,0,18.174-3.605,24.844-10.041c35.572-34.324,57.699-82.49,57.699-135.826
	c0-49.509-19.068-94.561-50.255-128.224c-5.337-5.761-6.876-14.085-4.103-21.432l23.767-62.973
	C371.377,78.072,342.978,37,301.901,37H95.568c-41.078,0-69.477,41.075-54.97,79.507l23.767,62.961
	C67.138,186.815,65.599,195.141,60.262,200.902z M275.221,156.548c-23.38-10.378-49.261-16.147-76.49-16.147
	s-53.109,5.769-76.489,16.147c-5.393,2.394-11.696-0.133-13.944-5.589l-11.246-27.294c-7.579-18.394,5.945-38.592,25.839-38.592
	H274.57c19.893,0,33.416,20.196,25.839,38.59l-11.244,27.296C286.918,156.415,280.615,158.942,275.221,156.548z"/>
<path style="fill:#2E9DE3;" d="M310.759,314.796c-18.231,19.676-29.377,46.009-29.377,74.948c0,31.174,12.932,59.325,33.724,79.387
	c3.899,3.762,9.103,5.869,14.521,5.869h124.129c5.418,0,10.622-2.107,14.521-5.869C489.068,449.07,502,420.918,502,389.744
	c0-28.937-11.145-55.268-29.373-74.944c-3.119-3.367-4.019-8.232-2.398-12.527l13.891-36.806C492.598,243.006,476,219,451.991,219
	H331.395c-24.009,0-40.608,24.007-32.129,46.47l13.891,36.799C314.779,306.563,313.879,311.429,310.759,314.796z M436.398,288.873
	c-13.665-6.066-28.792-9.438-44.706-9.438s-31.041,3.372-44.706,9.437c-3.152,1.399-6.836-0.078-8.15-3.267l-6.573-15.953
	c-4.429-10.751,3.475-22.556,15.102-22.556h88.652c11.627,0,19.531,11.804,15.102,22.555l-6.572,15.954
	C443.234,288.795,439.55,290.272,436.398,288.873z"/>
<path d="M198.741,173.263c-0.022,0-0.047,0-0.07,0c-6.345,0.038-10.121,5.13-10.106,10.031s3.821,9.971,10.167,9.971
	c0.039,0,0.079,0,0.118,0c6.345-0.076,10.091-5.19,10.048-10.091C208.854,178.291,205.046,173.263,198.741,173.263z"/>
<path d="M161.903,187.598c-1.753-5.237-7.415-8.062-12.656-6.311c-32.681,10.934-61.23,32.824-80.392,61.639
	c-3.058,4.599-1.809,10.806,2.79,13.864c1.702,1.132,3.626,1.674,5.528,1.674c3.235,0,6.41-1.567,8.336-4.464
	c16.71-25.129,41.6-44.216,70.083-53.746C160.83,198.502,163.655,192.835,161.903,187.598z"/>
<path d="M287.093,165.98c5.175-2.074,9.195-6.057,11.318-11.212l11.244-27.296c4.832-11.729,3.503-25.024-3.555-35.565
	c-7.059-10.541-18.845-16.833-31.53-16.833H122.892c-12.686,0-24.474,6.293-31.531,16.834s-8.386,23.837-3.554,35.566l11.246,27.294
	c2.123,5.156,6.143,9.138,11.318,11.212c5.177,2.075,10.833,1.97,15.928-0.292c22.853-10.144,47.223-15.287,72.433-15.287
	c25.211,0,49.581,5.143,72.432,15.287h0.001c2.664,1.183,5.481,1.775,8.303,1.775C282.043,167.464,284.623,166.97,287.093,165.98z
	 M279.278,147.408c-25.423-11.285-52.522-17.007-80.547-17.007c-28.023,0-55.123,5.722-80.546,17.006
	c-0.058,0.025-0.188,0.083-0.374,0.007c-0.188-0.075-0.243-0.208-0.267-0.265l-11.246-27.294c-2.319-5.63-1.707-11.761,1.681-16.821
	s8.823-7.961,14.912-7.961H274.57c6.089,0,11.523,2.902,14.911,7.961c3.388,5.06,4.001,11.19,1.682,16.82l-11.244,27.297
	c-0.023,0.057-0.078,0.189-0.267,0.265S279.334,147.433,279.278,147.408z"/>
<path d="M479.963,308.004c-0.521-0.563-0.67-1.425-0.378-2.199l13.893-36.807c5.14-13.621,3.266-28.901-5.015-40.876
	C480.184,216.148,466.549,209,451.991,209h-15.658c-5.522,0-10,4.477-10,10s4.478,10,10,10h15.658
	c8.111,0,15.408,3.826,20.021,10.498s5.616,14.851,2.753,22.439l-13.892,36.806c-2.992,7.926-1.3,16.684,4.417,22.854
	c17.225,18.591,26.71,42.792,26.71,68.147c0,27.472-10.892,53.11-30.667,72.191c-2.049,1.977-4.739,3.065-7.577,3.065H329.627
	c-2.838,0-5.528-1.088-7.577-3.065c-19.775-19.081-30.667-44.719-30.667-72.191c0-25.357,9.486-49.561,26.711-68.151
	c5.718-6.171,7.411-14.929,4.419-22.856l-13.891-36.799c-2.864-7.589-1.862-15.768,2.751-22.439
	c4.612-6.672,11.91-10.499,20.021-10.499h32.257c5.522,0,10-4.477,10-10s-4.478-10-10-10h-6.628
	c-3.916-5.15-8.092-10.15-12.479-14.887c-2.708-2.923-3.525-7.282-2.083-11.105l23.767-62.973
	c7.972-21.12,5.065-44.813-7.772-63.381C345.617,38.085,324.476,27,301.901,27H95.567c-22.574,0-43.716,11.085-56.555,29.654
	c-12.838,18.568-15.743,42.263-7.771,63.384l23.768,62.961c1.443,3.823,0.625,8.183-2.083,11.106
	C18.796,230.941,0,278.895,0,329.133c0,54.426,21.577,105.219,60.755,143.021C69.339,480.438,80.628,485,92.543,485H304.92
	c4.628,0,9.179-0.704,13.573-2.073c3.511,1.356,7.272,2.073,11.134,2.073h124.129c8.046,0,15.668-3.08,21.464-8.672
	c23.718-22.885,36.78-53.634,36.78-86.583C512,359.333,500.622,330.304,479.963,308.004z M74.643,457.762
	C39.406,423.763,20,378.082,20,329.133c0-45.182,16.903-88.308,47.598-121.435c7.938-8.568,10.284-20.738,6.123-31.762
	l-23.768-62.961c-5.737-15.2-3.729-31.583,5.511-44.946C64.703,54.665,79.32,47,95.567,47h206.334
	c16.246,0,30.863,7.664,40.104,21.027c9.239,13.363,11.248,29.745,5.512,44.945l-23.767,62.973
	c-4.161,11.023-1.815,23.192,6.122,31.76c0.397,0.429,0.781,0.873,1.175,1.306c-14.427,0.113-27.912,7.235-36.125,19.114
	c-8.279,11.975-10.152,27.256-5.011,40.877l13.891,36.798c0.292,0.773,0.144,1.637-0.378,2.2
	c-20.662,22.3-32.041,51.331-32.041,81.744c0,27.781,9.287,53.998,26.416,75.256H92.543C85.837,465,79.479,462.43,74.643,457.762z"
	/>
<path d="M453.794,289.415l6.571-15.953c3.354-8.14,2.431-17.367-2.467-24.682s-13.078-11.682-21.881-11.682h-88.652
	c-8.805,0-16.984,4.368-21.883,11.684c-4.897,7.315-5.819,16.542-2.466,24.682l6.573,15.953c1.672,4.059,4.837,7.194,8.911,8.827
	c4.074,1.632,8.526,1.551,12.542-0.229c12.821-5.692,26.498-8.578,40.648-8.578s27.827,2.886,40.648,8.578l0,0
	c2.098,0.932,4.316,1.398,6.538,1.398c2.028,0,4.059-0.389,6.004-1.168C448.957,296.61,452.122,293.474,453.794,289.415z
	 M441.873,265.844l-5.081,12.335c-14.322-5.804-29.476-8.743-45.101-8.743s-30.778,2.94-45.101,8.743l-5.082-12.334
	c-1.163-2.822,0.027-5.091,0.593-5.936s2.211-2.81,5.264-2.81h88.652c3.052,0,4.696,1.965,5.262,2.81
	C441.846,260.752,443.035,263.021,441.873,265.844z"/>
<path d="M185.764,298.014v-25.986c0-5.523-4.478-10-10-10s-10,4.477-10,10v25.96h-18.555v-25.96c0-5.523-4.478-10-10-10
	s-10,4.477-10,10v35.96c0,5.523,4.478,10,10,10h28.555v26.04c0,5.523,4.478,10,10,10s10-4.477,10-10v-26.066
	c5.282-0.269,9.486-4.625,9.486-9.974S191.046,298.283,185.764,298.014z"/>
<path d="M245.083,262.028h-8.213c-13.879,0-25.171,11.292-25.171,25.171v41.658c0,13.879,11.292,25.171,25.171,25.171h8.213
	c13.88,0,25.172-11.292,25.172-25.171v-41.658C270.255,273.32,258.963,262.028,245.083,262.028z M250.255,328.857
	c0,2.852-2.32,5.171-5.172,5.171h-8.213c-2.852,0-5.171-2.32-5.171-5.171v-41.658c0-2.851,2.319-5.171,5.171-5.171h8.213
	c2.852,0,5.172,2.32,5.172,5.171V328.857z"/>
<path d="M370.071,431c5.522,0,10-4.477,10-10v-64c0-4.044-2.437-7.691-6.173-9.239c-3.737-1.549-8.039-0.692-10.898,2.167
	l-21.81,21.81c-3.905,3.905-3.905,10.237,0,14.143c3.906,3.904,10.236,3.904,14.143,0l4.738-4.739V421
	C360.071,426.523,364.549,431,370.071,431z"/>
<path d="M419.95,347h-3.93c-13.879,0-25.171,11.292-25.171,25.171v33.657c0,13.879,11.292,25.171,25.171,25.171h3.93
	c13.879,0,25.171-11.292,25.171-25.171v-33.657C445.121,358.292,433.829,347,419.95,347z M425.121,405.829
	c0,2.852-2.319,5.171-5.171,5.171h-3.93c-2.852,0-5.171-2.32-5.171-5.171v-33.657c0-2.852,2.319-5.171,5.171-5.171h3.93
	c2.852,0,5.171,2.32,5.171,5.171V405.829z"/>
<path d="M403.119,229.044c0.886,0,1.787-0.119,2.683-0.367l0.149-0.042c5.321-1.478,8.437-6.99,6.958-12.312
	c-1.478-5.321-6.987-8.435-12.312-6.959l-0.149,0.042c-5.321,1.478-8.437,6.99-6.958,12.312
	C394.72,226.144,398.739,229.044,403.119,229.044z"/>
<g>
</g>
<g>
</g>
<g>
</g>
<g>
</g>
<g>
</g>
<g>
</g>
<g>
</g>
<g>
</g>
<g>
</g>
<g>
</g>
<g>
</g>
<g>
</g>
<g>
</g>
<g>
</g>
<g>
</g>
</svg>
