<?xml version="1.0" encoding="iso-8859-1"?>
<!-- Generator: Adobe Illustrator 19.0.0, SVG Export Plug-In . SVG Version: 6.00 Build 0)  -->
<svg version="1.1" id="Capa_1" xmlns="http://www.w3.org/2000/svg" xmlns:xlink="http://www.w3.org/1999/xlink" x="0px" y="0px"
	 viewBox="0 0 512.001 512.001" style="enable-background:new 0 0 512.001 512.001;" xml:space="preserve">
<polygon style="fill:#D8D8E4;" points="448.001,51.501 448.001,256.128 414.528,343.695 335.546,318.852 400.001,236.989 
	400.001,126.751 384.001,110.751 "/>
<g>
	<path style="fill:#EF3C3C;" d="M452.143,15.863L452.143,15.863c-7.811-7.811-20.474-7.811-28.284,0l-58.081,58.081
		c-7.81,7.81-7.81,20.474,0,28.284l0,0c7.81,7.81,20.474,7.81,28.284,0l58.081-58.081C459.954,36.337,459.954,23.673,452.143,15.863
		z"/>
	<path style="fill:#EF3C3C;" d="M120.001,176.001h-80c-11.046,0-20,8.954-20,20l0,0c0,11.046,8.954,20,20,20h80
		c11.046,0,20-8.954,20-20l0,0C140.001,184.956,131.047,176.001,120.001,176.001z"/>
</g>
<path style="fill:#4DBAF6;" d="M403.15,339.133l0.003-0.018l-262.359-72.311l0,0c-34.584-11.16-74.043-3.009-101.504,24.452
	c-39.052,39.052-39.052,102.369,0,141.421c19.526,19.526,45.118,29.289,70.711,29.289l0,0h274.401
	c0.455,0.01,0.906,0.034,1.364,0.034c34.609,0,62.665-28.056,62.665-62.665C448.43,370.762,429.298,346.672,403.15,339.133z"/>
<circle style="fill:#FFFFFF;" cx="109.91" cy="361.971" r="64"/>
<circle style="fill:#FEA02C;" cx="109.91" cy="361.971" r="18"/>
<g>
	<polygon style="fill:#B3B6C3;" points="62.11,462.001 39.565,502.001 131.334,502.001 131.334,462.001 	"/>
	<polyline style="fill:#B3B6C3;" points="395.88,462.001 418.426,502.001 326.656,502.001 326.656,462.001 	"/>
</g>
<path d="M259.211,309.441c2.63,0,5.21-1.07,7.07-2.93c1.859-1.86,2.93-4.44,2.93-7.07s-1.07-5.21-2.93-7.07
	c-1.86-1.86-4.431-2.93-7.07-2.93c-2.63,0-5.21,1.07-7.07,2.93c-1.859,1.86-2.93,4.44-2.93,7.07s1.07,5.21,2.93,7.07
	C254.001,308.371,256.581,309.441,259.211,309.441z"/>
<path d="M162.473,443.612c1.953,1.953,4.512,2.929,7.071,2.929s5.118-0.977,7.071-2.929l21.516-21.515
	c3.905-3.905,3.905-10.237,0-14.142s-10.235-3.905-14.143,0l-3.686,3.686l-8.764-8.764c7.811-11.727,12.375-25.793,12.375-40.91
	c0-40.804-33.196-74-74-74s-74,33.196-74,74s33.196,74,74,74c18.479,0,35.384-6.824,48.365-18.064l7.881,7.881l-3.687,3.686
	C158.567,433.375,158.567,439.707,162.473,443.612z M109.913,415.967c-29.775,0-54-24.224-54-54s24.225-54,54-54s54,24.224,54,54
	c0,9.576-2.517,18.571-6.907,26.378l-19.866-19.866c0.5-2.091,0.773-4.27,0.773-6.512c0-15.439-12.561-28-28-28s-28,12.561-28,28
	s12.561,28,28,28c5.789,0,11.173-1.766,15.643-4.787l18.549,18.549C134.786,411.372,122.877,415.967,109.913,415.967z
	 M109.913,369.967c-4.411,0-8-3.589-8-8s3.589-8,8-8s8,3.589,8,8S114.324,369.967,109.913,369.967z"/>
<path d="M502.001,0.001c-5.522,0-10,4.477-10,10v40.342l-34,34V52.432l1.214-1.214c11.695-11.697,11.695-30.729,0-42.426l0,0
	c-11.697-11.697-30.73-11.697-42.428,0l-58.081,58.081c-11.696,11.697-11.696,30.729,0,42.427
	c5.118,5.117,11.639,7.996,18.336,8.635L390,130.893v12.608h-35.954c-5.522,0-10,4.477-10,10s4.478,10,10,10H390v70.023
	l-59.256,75.261l-27.696-7.634c-5.327-1.468-10.83,1.659-12.298,6.983s1.659,10.83,6.983,12.298l102.184,28.164
	c0.152,0.052,0.307,0.101,0.462,0.146c3.292,0.949,6.433,2.215,9.405,3.746c0.154,0.083,0.311,0.162,0.471,0.238
	c16.993,8.972,28.175,26.888,28.175,46.61c0,29.04-23.625,52.666-52.665,52.666c-0.171,0-0.339-0.008-0.508-0.014l-0.642-0.019
	c-0.072-0.001-0.144-0.002-0.215-0.002H110c-24.04,0-46.641-9.361-63.639-26.36C29.362,408.608,20,386.007,20,361.967
	s9.362-46.641,26.361-63.64c24.01-24.01,59.016-32.445,91.362-22.006c0.137,0.044,0.274,0.085,0.413,0.124l75.637,20.847
	l0.022-0.079c0.682,0.147,1.38,0.229,2.082,0.229c2.63,0,5.21-1.07,7.07-2.93c1.859-1.86,2.93-4.44,2.93-7.07s-1.07-5.21-2.93-7.07
	c-1.448-1.447-3.326-2.407-5.331-2.766l-73.963-20.386c-12.405-3.976-25.127-5.678-37.652-5.239v-25.98h14c16.542,0,30-13.458,30-30
	s-13.458-30-30-30h-80c-16.542,0-30,13.458-30,30s13.458,30,30,30h14v41.254c-7.817,4.642-15.146,10.294-21.782,16.93
	C11.442,304.961,0,332.585,0,361.967s11.442,57.006,32.219,77.782c6.548,6.548,13.777,12.167,21.526,16.794
	c-0.118,0.181-0.239,0.358-0.347,0.548l-19.677,34.91h-23.72c-5.522,0-10,4.477-10,10s4.478,10,10,10h150.987
	c5.522,0,10-4.477,10-10s-4.478-10-10-10h-19.654v-20.035h175.322v20.035h-19.654c-5.522,0-10,4.477-10,10s4.478,10,10,10h150.987
	c5.522,0,10-4.477,10-10s-4.478-10-10-10h-23.72l-13.727-24.354c27.905-10.153,47.889-36.94,47.889-68.311
	c0-24.273-12.284-46.556-31.579-59.875l30.49-79.762c0.436-1.14,0.659-2.35,0.659-3.571v-143.5l51.071-51.071
	c1.875-1.875,2.929-4.419,2.929-7.071V10.001C512.001,4.479,507.523,0.001,502.001,0.001z M30.001,196.001c0-5.514,4.486-10,10-10
	h80c5.514,0,10,4.486,10,10s-4.486,10-10,10h-24h-32h-24C34.487,206.001,30.001,201.516,30.001,196.001z M74.001,226.001h12v28.553
	c-4.059,0.907-8.066,2.038-12,3.403V226.001z M121.334,492.001H56.68l14.143-25.09c0.33-0.585,0.592-1.19,0.793-1.805
	c12.119,4.503,25.07,6.86,38.384,6.86h11.334V492.001z M401.311,492.001h-64.654v-20.035h47.607l0.312,0.01
	c0.396,0.013,0.791,0.025,1.19,0.025c1.41,0,2.808-0.05,4.198-0.13L401.311,492.001z M372.849,81.015l58.081-58.081
	c1.949-1.95,4.511-2.925,7.071-2.925s5.122,0.975,7.071,2.924c3.898,3.899,3.898,10.244,0,14.142L386.99,95.157
	c-3.898,3.901-10.243,3.899-14.142,0C368.949,91.258,368.949,84.915,372.849,81.015z M408.882,330.458
	c-0.775-0.26-1.552-0.516-2.34-0.751c-0.239-0.086-0.483-0.164-0.732-0.232l-54.149-14.924l56.197-71.375
	c1.389-1.763,2.144-3.942,2.144-6.186v-73.489h3.526c5.522,0,10-4.477,10-10s-4.478-10-10-10h-3.526v-16.75
	c0-2.652-1.054-5.196-2.929-7.071l-8.277-8.277c0.806-0.654,1.587-1.354,2.337-2.104l36.868-36.868v31.911l-10.58,10.58
	c-3.905,3.905-3.905,10.237,0,14.143c1.953,1.953,4.512,2.929,7.071,2.929c1.191,0,2.379-0.221,3.509-0.643v122.932L408.882,330.458
	z"/>
<path d="M385.679,413.392h-43.644c-5.522,0-10,4.477-10,10s4.478,10,10,10h43.644c18.352,0,33.281-14.93,33.281-33.282
	c0-14.744-9.891-27.893-24.053-31.976c-5.311-1.53-10.85,1.532-12.379,6.839c-1.53,5.307,1.531,10.849,6.838,12.378
	c5.648,1.629,9.594,6.875,9.594,12.759C398.96,407.434,393.002,413.392,385.679,413.392z"/>
<path d="M310.57,430.461c1.86-1.86,2.931-4.44,2.931-7.07s-1.07-5.21-2.931-7.07c-1.859-1.86-4.439-2.93-7.069-2.93
	s-5.21,1.07-7.07,2.93s-2.93,4.44-2.93,7.07c0,2.64,1.069,5.21,2.93,7.07c1.86,1.86,4.44,2.93,7.07,2.93
	S308.711,432.321,310.57,430.461z"/>
<g>
</g>
<g>
</g>
<g>
</g>
<g>
</g>
<g>
</g>
<g>
</g>
<g>
</g>
<g>
</g>
<g>
</g>
<g>
</g>
<g>
</g>
<g>
</g>
<g>
</g>
<g>
</g>
<g>
</g>
</svg>
