<?xml version="1.0" encoding="iso-8859-1"?>
<!-- Generator: Adobe Illustrator 19.0.0, SVG Export Plug-In . SVG Version: 6.00 Build 0)  -->
<svg version="1.1" id="Capa_1" xmlns="http://www.w3.org/2000/svg" xmlns:xlink="http://www.w3.org/1999/xlink" x="0px" y="0px"
	 viewBox="0 0 511.999 511.999" style="enable-background:new 0 0 511.999 511.999;" xml:space="preserve">
<g>
	<polygon style="fill:#B3B6C3;" points="136.642,450.189 71.823,450.189 49.294,490.161 159.172,490.161 	"/>
	<polygon style="fill:#B3B6C3;" points="441.324,450.189 376.505,450.189 353.976,490.161 463.854,490.161 	"/>
</g>
<path style="fill:#EF3C3C;" d="M455.544,28.166L455.544,28.166c-8.455-8.455-22.164-8.455-30.619,0L368.6,84.491
	c-8.455,8.455-8.455,22.164,0,30.619l0,0c8.455,8.455,22.164,8.455,30.619,0l56.325-56.325
	C463.999,50.33,463.999,36.621,455.544,28.166z"/>
<path style="fill:#4DBAF6;" d="M454.04,354.262H57.962c-26.491,0-47.965,21.475-47.965,47.965l0,0
	c0,26.491,21.475,47.965,47.965,47.965h396.08c26.491,0,47.965-21.475,47.965-47.965l0,0
	C502.006,375.736,480.531,354.262,454.04,354.262z"/>
<g>
	<circle style="fill:#FFFFFF;" cx="64.143" cy="402.23" r="15.988"/>
	<circle style="fill:#FFFFFF;" cx="256.005" cy="402.23" r="15.988"/>
	<circle style="fill:#FFFFFF;" cx="160.074" cy="402.23" r="15.988"/>
	<circle style="fill:#FFFFFF;" cx="351.936" cy="402.23" r="15.988"/>
	<circle style="fill:#FFFFFF;" cx="447.867" cy="402.23" r="15.988"/>
</g>
<path d="M183.447,324.283h91.474c5.519,0,9.993-4.474,9.993-9.993c0-5.519-4.474-9.993-9.993-9.993h-91.474
	c-5.519,0-9.993,4.474-9.993,9.993C173.455,319.809,177.928,324.283,183.447,324.283z"/>
<path d="M305.495,321.358c1.859,1.859,4.437,2.928,7.065,2.928c2.628,0,5.206-1.069,7.065-2.928s2.928-4.437,2.928-7.065
	c0-2.638-1.069-5.206-2.928-7.065c-1.859-1.859-4.437-2.928-7.065-2.928c-2.628,0-5.206,1.069-7.065,2.928
	c-1.859,1.859-2.928,4.437-2.928,7.065S303.637,319.5,305.495,321.358z"/>
<path d="M90.123,402.227c0-14.328-11.657-25.984-25.983-25.984s-25.983,11.657-25.983,25.984s11.657,25.983,25.983,25.983
	S90.123,416.555,90.123,402.227z M58.142,402.227c0-3.308,2.691-5.999,5.998-5.999c3.307,0,5.998,2.691,5.998,5.999
	s-2.691,5.998-5.998,5.998C60.833,408.225,58.142,405.535,58.142,402.227z"/>
<path d="M256.001,428.21c14.328,0,25.983-11.657,25.983-25.983s-11.657-25.984-25.983-25.984c-14.327,0-25.983,11.657-25.983,25.984
	S241.673,428.21,256.001,428.21z M256.001,396.228c3.308,0,5.998,2.691,5.998,5.999s-2.691,5.998-5.998,5.998
	c-3.307,0-5.998-2.691-5.998-5.998C250.003,398.919,252.693,396.228,256.001,396.228z"/>
<path d="M160.07,428.21c14.328,0,25.983-11.657,25.983-25.983s-11.657-25.984-25.983-25.984c-14.327,0-25.983,11.657-25.983,25.984
	S145.743,428.21,160.07,428.21z M160.07,396.228c3.308,0,5.998,2.691,5.998,5.999s-2.691,5.998-5.998,5.998
	c-3.307,0-5.998-2.691-5.998-5.998C154.073,398.919,156.763,396.228,160.07,396.228z"/>
<path d="M351.932,428.21c14.328,0,25.983-11.657,25.983-25.983s-11.657-25.984-25.983-25.984c-14.327,0-25.983,11.657-25.983,25.984
	S337.604,428.21,351.932,428.21z M351.932,396.228c3.308,0,5.998,2.691,5.998,5.999s-2.691,5.998-5.998,5.998
	s-5.998-2.691-5.998-5.998C345.934,398.919,348.624,396.228,351.932,396.228z"/>
<path d="M447.863,428.21c14.328,0,25.983-11.657,25.983-25.983s-11.657-25.984-25.983-25.984c-14.327,0-25.983,11.657-25.983,25.984
	S433.535,428.21,447.863,428.21z M447.863,396.228c3.308,0,5.998,2.691,5.998,5.999s-2.691,5.998-5.998,5.998
	s-5.998-2.691-5.998-5.998C441.865,398.919,444.555,396.228,447.863,396.228z"/>
<path d="M294.973,180.23c2.628,0,5.206-1.069,7.065-2.928s2.928-4.437,2.928-7.065c0-2.638-1.069-5.206-2.928-7.075
	c-1.859-1.859-4.437-2.918-7.065-2.918s-5.206,1.059-7.065,2.918c-1.859,1.869-2.928,4.437-2.928,7.075
	c0,2.628,1.069,5.196,2.928,7.065C289.767,179.16,292.345,180.23,294.973,180.23z"/>
<path d="M9.999,343.451c2.185,0,4.386-0.713,6.227-2.183c13.923-11.112,30.721-16.986,48.578-16.986h23.792
	c5.519,0,9.993-4.474,9.993-9.993c0-5.519-4.474-9.993-9.993-9.993H64.805c-22.114,0-43.794,7.583-61.045,21.351
	c-4.314,3.443-5.019,9.73-1.577,14.044C4.156,342.164,7.063,343.451,9.999,343.451z"/>
<path d="M501.824,480.168h-32.132l-11.362-20.158c29.96-2.204,53.668-27.269,53.668-57.783c0-4.013-0.411-7.931-1.191-11.717
	l-40.811-250.363h30.979c5.519,0,9.993-4.474,9.993-9.993c0-5.519-4.474-9.993-9.993-9.993h-34.236l-8.191-50.249l4.061-4.061
	c12.338-12.338,12.338-32.414,0-44.752c-12.339-12.338-32.414-12.338-44.752,0l-56.325,56.325
	c-12.338,12.338-12.338,32.414,0,44.752c6.17,6.169,14.273,9.253,22.376,9.253c8.103,0,16.206-3.084,22.376-9.253l2.691-2.691
	l1.37,8.405l-32.348,32.348h-44.053c-5.519,0-9.993,4.474-9.993,9.993s4.474,9.993,9.993,9.993h48.192
	c2.65,0,5.192-1.053,7.066-2.927l25.104-25.104l31.308,192.075H57.961c-31.958,0-57.958,26-57.958,57.958
	c0,30.888,24.287,56.203,54.768,57.866l-11.315,20.075H9.993c-5.519,0-9.993,4.474-9.993,9.993c0,5.519,4.474,9.993,9.993,9.993
	h39.302h109.878h194.805h109.878h37.971c5.519,0,9.993-4.474,9.993-9.993C511.819,484.641,507.343,480.168,501.824,480.168z
	 M484.428,352.9c-5.567-3.443-11.756-5.968-18.357-7.368l-33.479-205.385h17.156L484.428,352.9z M375.666,108.044
	c-4.546-4.546-4.546-11.941,0-16.487l56.325-56.325c2.272-2.273,5.258-3.41,8.244-3.41c2.986,0,5.971,1.136,8.244,3.41
	c4.546,4.546,4.546,11.941,0,16.487l-7.677,7.677c-0.001,0.001-0.002,0.002-0.004,0.003l-32.163,32.163
	c-0.001,0.001-0.002,0.003-0.004,0.004l-16.478,16.478C387.607,112.591,380.211,112.591,375.666,108.044z M441.138,87.324
	l5.353,32.837h-17.156l-2.948-18.087L441.138,87.324z M19.988,402.226c0-20.938,17.035-37.973,37.973-37.973H454.04
	c20.938,0,37.973,17.035,37.973,37.973s-17.035,37.973-37.973,37.973H57.961C37.023,440.2,19.988,423.165,19.988,402.226z
	 M165.01,480.168l-11.263-19.983h205.654l-11.263,19.983H165.01z M66.397,480.168l11.263-19.983h53.146l11.263,19.983H66.397z
	 M371.079,480.168l11.263-19.983h53.146l11.263,19.983H371.079z"/>
<g>
</g>
<g>
</g>
<g>
</g>
<g>
</g>
<g>
</g>
<g>
</g>
<g>
</g>
<g>
</g>
<g>
</g>
<g>
</g>
<g>
</g>
<g>
</g>
<g>
</g>
<g>
</g>
<g>
</g>
</svg>
