<?xml version="1.0" encoding="iso-8859-1"?>
<!-- Generator: Adobe Illustrator 19.0.0, SVG Export Plug-In . SVG Version: 6.00 Build 0)  -->
<svg version="1.1" id="Capa_1" xmlns="http://www.w3.org/2000/svg" xmlns:xlink="http://www.w3.org/1999/xlink" x="0px" y="0px"
	 viewBox="0 0 512 512" style="enable-background:new 0 0 512 512;" xml:space="preserve">
<g>
	<path style="fill:#62CD4D;" d="M64,57v418H24V57c0-11.046,8.954-20,20-20l0,0C55.046,37,64,45.954,64,57z"/>
	<path style="fill:#62CD4D;" d="M488,57v418h-40V57c0-11.046,8.954-20,20-20l0,0C479.046,37,488,45.954,488,57z"/>
</g>
<path d="M271.65,86.99c2.64,0,5.21-1.07,7.07-2.93c1.87-1.86,2.93-4.44,2.93-7.07c0-2.64-1.06-5.21-2.93-7.07
	c-1.86-1.87-4.44-2.93-7.07-2.93s-5.21,1.06-7.07,2.93c-1.86,1.86-2.93,4.43-2.93,7.07c0,2.63,1.07,5.21,2.93,7.07
	C266.44,85.92,269.02,86.99,271.65,86.99z"/>
<path d="M502,465h-4V86.987h4c5.523,0,10-4.477,10-10s-4.477-10-10-10h-4V57c0-16.542-13.458-30-30-30s-30,13.458-30,30v9.987
	H315.653c-5.523,0-10,4.477-10,10s4.477,10,10,10H438V465H74V86.987h148.986c5.523,0,10-4.477,10-10s-4.477-10-10-10H74V57
	c0-16.542-13.458-30-30-30S14,40.458,14,57v9.987h-3c-5.523,0-10,4.477-10,10s4.477,10,10,10h3V465h-4c-5.523,0-10,4.477-10,10
	s4.477,10,10,10h492c5.523,0,10-4.477,10-10S507.523,465,502,465z M34,465V57c0-5.514,4.486-10,10-10s10,4.486,10,10v9.987
	c-5.523,0-10,4.477-10,10s4.477,10,10,10V465H34z M458,465V86.987h0.333c5.523,0,10-4.477,10-10s-4.477-10-10-10H458V57
	c0-5.514,4.486-10,10-10s10,4.486,10,10v408H458z"/>
<g>
</g>
<g>
</g>
<g>
</g>
<g>
</g>
<g>
</g>
<g>
</g>
<g>
</g>
<g>
</g>
<g>
</g>
<g>
</g>
<g>
</g>
<g>
</g>
<g>
</g>
<g>
</g>
<g>
</g>
</svg>
