<?xml version="1.0" encoding="iso-8859-1"?>
<!-- Generator: Adobe Illustrator 19.0.0, SVG Export Plug-In . SVG Version: 6.00 Build 0)  -->
<svg version="1.1" id="Capa_1" xmlns="http://www.w3.org/2000/svg" xmlns:xlink="http://www.w3.org/1999/xlink" x="0px" y="0px"
	 viewBox="0 0 512.003 512.003" style="enable-background:new 0 0 512.003 512.003;" xml:space="preserve">
<circle style="fill:#2E9DE3;" cx="256.001" cy="46" r="36"/>
<path style="fill:#FF5D5D;" d="M361.826,279.488h0.009l-50.619-64.851c-21.653-27.741-33.413-61.918-33.413-97.103V117.5h-43.612
	l0,0c0,35.198-11.769,69.386-33.436,97.132l-50.092,64.146h0.079c-19.784,23.935-31.554,54.732-31.201,88.285
	c0.773,73.629,60.715,133.823,134.373,134.921c76.321,1.138,138.547-60.361,138.547-136.386
	C392.461,332.942,380.974,302.971,361.826,279.488z"/>
<path style="fill:#EF3C3C;" d="M299.121,279.488h0.004l-20.626-64.851c-8.823-27.741-13.615-61.918-13.615-97.103V117.5h-17.772l0,0
	c0,35.198-4.795,69.386-13.624,97.132l-20.412,64.146h0.032c-8.061,23.935-12.858,54.732-12.714,88.285
	c0.315,73.629,24.74,133.823,54.755,134.921c31.099,1.138,56.455-60.361,56.455-136.386
	C311.604,332.942,306.923,302.971,299.121,279.488z"/>
<rect x="230.931" y="117.5" style="fill:#41489D;" width="49.73" height="31.867"/>
<path d="M369.829,273.479c-0.037-0.048-0.073-0.096-0.11-0.144L319.1,208.484c-20.182-25.856-31.296-58.156-31.296-90.984
	c0-5.523-4.477-10-10-10h-11.807V90.892c20.57-4.58,36-22.963,36-44.892c0-9.643-2.988-18.598-8.08-26h51.58c5.523,0,10-4.477,10-10
	s-4.477-10-10-10h-179c-5.523,0-10,4.477-10,10s4.477,10,10,10h51.58c-5.091,7.402-8.08,16.357-8.08,26
	c0,21.93,15.43,40.312,36,44.892V107.5h-11.806c-5.523,0-10,4.477-10,10c0,32.806-11.122,65.116-31.317,90.977l-50.092,64.146
	c-0.181,0.231-0.35,0.469-0.507,0.712c-13.711,16.872-23.619,36.867-28.682,57.902c-1.292,5.37,2.013,10.77,7.382,12.063
	c5.369,1.292,10.77-2.013,12.063-7.382c4.448-18.48,13.236-36.036,25.414-50.768c0.298-0.361,0.568-0.739,0.808-1.131l49.378-63.231
	c14.21-18.197,24.458-39.207,30.201-61.419h34.312c5.738,22.213,15.981,43.225,30.185,61.422l50.378,64.544
	c0.116,0.161,0.237,0.319,0.364,0.474c18.304,22.448,28.384,50.786,28.384,79.791c0,34.108-13.386,66.08-37.691,90.026
	c-14.284,14.073-31.293,24.333-49.823,30.303c16.495-25.643,26.658-68.045,26.658-114.234c0-31.328-4.476-60.808-12.945-85.28
	c-0.015-0.047-0.03-0.094-0.046-0.141l-1.84-5.525c-1.745-5.24-7.408-8.074-12.647-6.329c-5.24,1.745-8.073,7.407-6.329,12.647
	l1.753,5.266c0.039,0.129,0.081,0.257,0.125,0.385c7.692,22.117,11.928,50.165,11.928,78.978c0,49.664-12.611,95.21-31.381,113.336
	c-4.639,4.479-9.281,6.822-13.794,6.964c-0.318,0.001-0.636-0.001-0.955-0.003c-21.079-0.773-44.77-49.791-45.08-118.942
	c-0.133-29.625,4.181-58.38,12.145-80.971c0.106-0.301,0.197-0.605,0.273-0.912l14.091-42.305c1.746-5.24-1.087-10.902-6.327-12.647
	c-5.24-1.747-10.902,1.087-12.647,6.327l-14.34,43.052c-0.066,0.199-0.126,0.399-0.179,0.601
	c-8.537,24.576-13.156,55.413-13.015,86.945c0.212,47.297,10.509,87.881,26.707,112.75c-38.508-12.413-69.514-42.891-81.985-83.208
	c-1.632-5.276-7.231-8.234-12.508-6.598c-5.276,1.632-8.23,7.232-6.598,12.508c8.936,28.89,27.207,54.979,51.448,73.461
	c25.071,19.114,54.915,29.465,86.307,29.933c0.732,0.011,1.46,0.016,2.19,0.016c0.009,0,0.018,0,0.026,0c0.003,0,0.005,0,0.008,0
	c0.01,0,0.02,0,0.029,0c38.732,0,75.16-14.911,102.787-42.129c28.151-27.735,43.655-64.767,43.655-104.273
	C402.461,332.134,390.875,299.436,369.829,273.479z M229.997,46c0-14.336,11.664-26,26-26s26,11.664,26,26
	c0,10.794-6.613,20.071-16,23.997v-2.011c0-5.523-4.477-10-10-10c-5.523,0-10,4.477-10,10v2.011
	C236.611,66.071,229.997,56.794,229.997,46z M242.737,139.367c0.523-3.937,0.911-7.895,1.151-11.867h24.217
	c0.24,3.972,0.627,7.93,1.149,11.867H242.737z"/>
<path d="M119.722,377.746c5.522-0.095,9.922-4.648,9.827-10.17l-0.008-0.62c-0.059-5.486-4.524-9.893-9.997-9.893
	c-0.037,0-0.073,0-0.109,0c-5.522,0.059-9.952,4.584-9.893,10.106l0.01,0.749c0.094,5.464,4.552,9.829,9.995,9.829
	C119.605,377.747,119.663,377.747,119.722,377.746z"/>
<path d="M284.872,256.628c1.046,0,2.11-0.166,3.158-0.514c5.241-1.743,8.076-7.404,6.333-12.645l-0.308-0.925
	c-1.743-5.24-7.405-8.076-12.645-6.333c-5.241,1.743-8.076,7.404-6.333,12.645l0.308,0.925
	C276.779,253.975,280.682,256.628,284.872,256.628z"/>
<g>
</g>
<g>
</g>
<g>
</g>
<g>
</g>
<g>
</g>
<g>
</g>
<g>
</g>
<g>
</g>
<g>
</g>
<g>
</g>
<g>
</g>
<g>
</g>
<g>
</g>
<g>
</g>
<g>
</g>
</svg>
