<?xml version="1.0" encoding="iso-8859-1"?>
<!-- Generator: Adobe Illustrator 19.0.0, SVG Export Plug-In . SVG Version: 6.00 Build 0)  -->
<svg version="1.1" id="Capa_1" xmlns="http://www.w3.org/2000/svg" xmlns:xlink="http://www.w3.org/1999/xlink" x="0px" y="0px"
	 viewBox="0 0 512 512" style="enable-background:new 0 0 512 512;" xml:space="preserve">
<circle style="fill:#FFB954;" cx="256" cy="256" r="246"/>
<path style="fill:#FEA02C;" d="M492.217,324.86C426.424,374.299,344.635,403.6,256,403.6S85.576,374.299,19.783,324.86l0,0
	C49.568,427.204,144.043,502,256,502S462.432,427.204,492.217,324.86L492.217,324.86z"/>
<path style="fill:#FFC66C;" d="M256,10c-71.277,0-135.462,30.326-180.389,78.764C105.991,158.243,175.319,206.8,256,206.8
	s150.009-48.557,180.389-118.036C391.462,40.326,327.277,10,256,10z"/>
<path style="fill:#FEDA9B;" d="M159.561,29.631L159.561,29.631C168.66,74.57,208.378,108.4,256,108.4s87.34-33.83,96.439-78.768l0,0
	C322.824,16.999,290.231,10,256,10S189.176,16.999,159.561,29.631z"/>
<path d="M389.417,283.404c1.527,0,3.077-0.351,4.53-1.091l0.638-0.324c4.919-2.511,6.871-8.535,4.36-13.454
	c-2.511-4.919-8.534-6.872-13.454-4.36l-0.621,0.316c-4.921,2.506-6.879,8.528-4.373,13.449
	C382.265,281.409,385.775,283.404,389.417,283.404z"/>
<path d="M255.366,118.398L256,118.4c5.523,0,10-4.477,10-10s-4.477-10-10-10l-0.534-0.001c-0.018,0-0.034,0-0.051,0
	c-5.5,0-9.971,4.444-9.999,9.95C245.389,113.871,249.843,118.371,255.366,118.398z"/>
<path d="M443.666,81.903c-0.011-0.012-0.022-0.024-0.033-0.035c-2.162-2.326-4.356-4.629-6.614-6.887C388.667,26.628,324.38,0,256,0
	S123.333,26.628,74.981,74.981c-2.258,2.258-4.452,4.561-6.615,6.887c-0.011,0.011-0.021,0.023-0.032,0.034
	C24.204,129.386,0,190.829,0,256c0,68.38,26.628,132.667,74.981,181.019C123.333,485.372,187.62,512,256,512
	s132.667-26.628,181.019-74.981C485.372,388.667,512,324.38,512,256C512,190.829,487.796,129.387,443.666,81.903z M20,256
	c0-16.071,1.621-31.77,4.697-46.948c25.839,29.953,57.515,54.948,92.626,72.889C160.511,304.01,207.169,315.2,256,315.2
	c29.122,0,57.933-4.098,85.633-12.181c5.302-1.547,8.345-7.099,6.798-12.401c-1.546-5.301-7.094-8.344-12.401-6.798
	c-25.879,7.551-52.805,11.38-80.03,11.38c-88.873,0-170.627-40.058-225.116-110.089c9.11-28.866,23.63-55.349,42.365-78.262
	C108.915,174.124,179.038,216.8,256,216.8s147.085-42.676,182.751-109.951c18.734,22.912,33.254,49.394,42.364,78.259
	c-17.919,23.01-39.139,43.068-63.146,59.664c-4.543,3.141-5.68,9.369-2.539,13.912c1.941,2.808,5.061,4.314,8.234,4.314
	c1.961,0,3.942-0.576,5.678-1.775c21.528-14.882,40.954-32.372,57.968-52.135C490.381,224.255,492,239.941,492,256
	c0,21.766-2.976,42.847-8.518,62.873C417.24,367.762,338.665,393.6,256,393.6S94.76,367.762,28.518,318.873
	C22.976,298.847,20,277.766,20,256z M152.969,43.709c8.909,27.045,28.501,50.091,54.155,63.071c1.447,0.732,2.988,1.079,4.507,1.079
	c3.651,0,7.169-2.007,8.931-5.487c2.494-4.928,0.52-10.944-4.408-13.438c-21.5-10.878-37.775-30.416-44.745-53.245
	C197.682,25.566,226.201,20,256,20c29.807,0,58.333,5.569,84.613,15.697c-7.796,25.867-26.949,46.727-52.508,56.695
	c-5.146,2.007-7.69,7.805-5.683,12.95c1.541,3.952,5.318,6.369,9.319,6.369c1.208,0,2.438-0.221,3.631-0.687
	c30.601-11.934,53.703-36.612,63.677-67.307c24.445,11.914,46.532,27.932,65.374,47.147C393.393,155.439,328.01,196.8,256,196.8
	S118.607,155.439,87.577,90.864C106.424,71.645,128.517,55.624,152.969,43.709z M256,492c-96.352,0-179.388-58.048-216.012-141.003
	C104.5,392.045,178.548,413.6,256,413.6s151.5-21.555,216.012-62.603C435.389,433.952,352.352,492,256,492z"/>
<g>
</g>
<g>
</g>
<g>
</g>
<g>
</g>
<g>
</g>
<g>
</g>
<g>
</g>
<g>
</g>
<g>
</g>
<g>
</g>
<g>
</g>
<g>
</g>
<g>
</g>
<g>
</g>
<g>
</g>
</svg>
