<?xml version="1.0" encoding="iso-8859-1"?>
<!-- Generator: Adobe Illustrator 19.0.0, SVG Export Plug-In . SVG Version: 6.00 Build 0)  -->
<svg version="1.1" id="Capa_1" xmlns="http://www.w3.org/2000/svg" xmlns:xlink="http://www.w3.org/1999/xlink" x="0px" y="0px"
	 viewBox="0 0 512.001 512.001" style="enable-background:new 0 0 512.001 512.001;" xml:space="preserve">
<path style="fill:#D8D8E4;" d="M149.494,286.5h-43.493c-28.719,0-52,23.281-52,52v80h60V368c0-11.874,9.626-21.5,21.5-21.5h13.993
	h214.014h13.993c11.874,0,21.5,9.626,21.5,21.5v50.5h60v-80c0-28.719-23.281-52-52-52h-43.493H149.494z"/>
<g>
	<path style="fill:#FF5D5D;" d="M398.039,418.5h59.49c8.575,0,16.384,4.934,20.066,12.677l24.406,51.323H353.566l24.406-51.323
		C381.655,423.434,389.464,418.5,398.039,418.5z"/>
	<path style="fill:#FF5D5D;" d="M54.474,418.5h59.49c8.575,0,16.384,4.934,20.066,12.677l24.406,51.323H10.001l24.406-51.323
		C38.09,423.434,45.899,418.5,54.474,418.5z"/>
</g>
<path style="fill:#EF3C3C;" d="M175.574,275.5h161.854c14.404,0,26.08,11.676,26.08,26.08v29.84c0,14.404-11.676,26.08-26.08,26.08
	H175.574c-14.404,0-26.08-11.676-26.08-26.08v-29.84C149.494,287.176,161.17,275.5,175.574,275.5z"/>
<path style="fill:#D8D8E4;" d="M149.494,40.5h-43.493c-28.719,0-52,23.281-52,52v80h60V122c0-11.874,9.626-21.5,21.5-21.5h13.993
	h214.014h13.993c11.874,0,21.5,9.626,21.5,21.5v50.5h60v-80c0-28.719-23.281-52-52-52h-43.493H149.494z"/>
<g>
	<path style="fill:#FF5D5D;" d="M398.039,172.5h59.49c8.575,0,16.384,4.934,20.066,12.677l24.406,51.323H353.566l24.406-51.323
		C381.655,177.434,389.464,172.5,398.039,172.5z"/>
	<path style="fill:#FF5D5D;" d="M54.474,172.5h59.49c8.575,0,16.384,4.934,20.066,12.677l24.406,51.323H10.001l24.406-51.323
		C38.09,177.434,45.899,172.5,54.474,172.5z"/>
</g>
<path style="fill:#EF3C3C;" d="M175.574,29.5h161.854c14.404,0,26.08,11.676,26.08,26.08v29.84c0,14.404-11.676,26.08-26.08,26.08
	H175.574c-14.404,0-26.08-11.676-26.08-26.08V55.58C149.494,41.176,161.17,29.5,175.574,29.5z"/>
<path d="M486.626,426.882c-3.757-7.901-10.579-13.807-18.625-16.596V338.5c0-34.187-27.813-62-62-62h-43.493
	c-0.057,0-0.113,0.008-0.17,0.009c-6.563-6.781-15.749-11.009-25.909-11.009H174.574c-10.16,0-19.346,4.228-25.909,11.009
	c-0.057-0.001-0.113-0.009-0.17-0.009h-43.494c-34.187,0-62,27.813-62,62v72.144c-7.609,2.921-14.024,8.667-17.625,16.239
	L0.97,478.206c-1.474,3.098-1.256,6.735,0.577,9.636c1.833,2.9,5.023,4.659,8.454,4.659h148.435c3.431,0,6.622-1.759,8.454-4.659
	c1.833-2.9,2.05-6.538,0.577-9.636l-24.406-51.323c-3.98-8.368-11.391-14.517-20.06-17.073V368c0-6.341,5.159-11.5,11.5-11.5h13.993
	c0.057,0,0.113-0.008,0.17-0.009c6.563,6.781,15.749,11.009,25.909,11.009h161.854c10.16,0,19.346-4.228,25.909-11.009
	c0.057,0.001,0.113,0.009,0.17,0.009h13.995c6.341,0,11.5,5.159,11.5,11.5v42.142c-8.234,2.724-15.235,8.698-19.06,16.741
	l-24.406,51.323c-1.474,3.098-1.256,6.735,0.577,9.636c1.832,2.9,5.023,4.659,8.454,4.659h148.435c3.431,0,6.622-1.759,8.454-4.659
	c1.833-2.9,2.05-6.538,0.577-9.636L486.626,426.882z M142.608,472.5H25.83l17.608-37.028c2.014-4.235,6.346-6.972,11.036-6.972
	h58.527h0.962c4.689,0,9.021,2.737,11.036,6.972L142.608,472.5z M134.501,336.5c-17.369,0-31.5,14.131-31.5,31.5v40.5h-40v-70
	c0-23.159,18.841-42,42-42h33.858c-0.235,1.661-0.365,3.355-0.365,5.08v29.84c0,1.725,0.129,3.419,0.365,5.08L134.501,336.5
	L134.501,336.5z M336.428,347.5H174.574c-8.866,0-16.08-7.213-16.08-16.08v-29.84c0-8.867,7.213-16.08,16.08-16.08h161.854
	c8.866,0,16.08,7.213,16.08,16.08v29.84C352.508,340.287,345.295,347.5,336.428,347.5z M376.501,336.5h-4.358
	c0.235-1.661,0.365-3.355,0.365-5.08v-29.84c0-1.725-0.129-3.419-0.365-5.08h33.858c23.159,0,42,18.841,42,42v70h-40V368
	C408.001,350.631,393.87,336.5,376.501,336.5z M369.395,472.5l17.608-37.028c2.014-4.235,6.346-6.972,11.036-6.972h59.49
	c4.69,0,9.021,2.737,11.036,6.972l17.608,37.028H369.395z"/>
<path d="M282.938,306.5h-91.54c-5.523,0-10,4.477-10,10s4.477,10,10,10h91.54c5.523,0,10-4.477,10-10S288.461,306.5,282.938,306.5z"
	/>
<path d="M320.601,306.5c-2.63,0-5.21,1.07-7.07,2.93c-1.86,1.86-2.93,4.44-2.93,7.07s1.07,5.21,2.93,7.07s4.44,2.93,7.07,2.93
	c2.64,0,5.21-1.07,7.07-2.93c1.87-1.86,2.93-4.44,2.93-7.07s-1.06-5.21-2.93-7.07C325.811,307.57,323.241,306.5,320.601,306.5z"/>
<path d="M10.001,246.5h148.435c3.431,0,6.622-1.759,8.454-4.659c1.833-2.9,2.05-6.538,0.577-9.636l-24.406-51.323
	c-3.825-8.042-10.826-14.017-19.06-16.741V122c0-6.341,5.159-11.5,11.5-11.5h13.993c0.057,0,0.113-0.008,0.17-0.009
	c6.563,6.781,15.749,11.009,25.909,11.009h161.854c10.16,0,19.346-4.228,25.909-11.009c0.057,0.001,0.113,0.009,0.17,0.009h13.995
	c6.341,0,11.5,5.159,11.5,11.5v41.809c-8.669,2.557-16.08,8.705-20.06,17.074l-24.406,51.323c-1.474,3.098-1.256,6.735,0.577,9.636
	c1.832,2.9,5.023,4.659,8.454,4.659h148.435c3.431,0,6.622-1.759,8.454-4.659c1.833-2.9,2.05-6.538,0.577-9.636l-24.406-51.323
	c-3.601-7.572-10.015-13.318-17.625-16.239V92.5c0-34.187-27.813-62-62-62h-43.493c-0.057,0-0.113,0.008-0.17,0.009
	c-6.563-6.781-15.749-11.009-25.909-11.009H175.574c-10.16,0-19.346,4.228-25.909,11.009c-0.057-0.001-0.113-0.009-0.17-0.009
	h-43.494c-34.187,0-62,27.813-62,62v71.786c-8.045,2.789-14.867,8.696-18.625,16.597L0.97,232.206
	c-1.474,3.098-1.256,6.735,0.577,9.636C3.38,244.741,6.57,246.5,10.001,246.5z M486.173,226.5H369.395l17.608-37.028
	c2.014-4.235,6.346-6.972,11.036-6.972h0.962h58.527c4.69,0,9.021,2.737,11.036,6.972L486.173,226.5z M407.001,50.5
	c23.159,0,42,18.841,42,42v70h-40V122c0-17.369-14.131-31.5-31.5-31.5h-4.358c0.235-1.661,0.365-3.355,0.365-5.08V55.58
	c0-1.725-0.129-3.419-0.365-5.08H407.001z M175.574,39.5h161.854c8.866,0,16.08,7.213,16.08,16.08v29.84
	c0,8.867-7.213,16.08-16.08,16.08H175.574c-8.866,0-16.08-7.213-16.08-16.08V55.58C159.494,46.713,166.708,39.5,175.574,39.5z
	 M64.001,92.5c0-23.159,18.841-42,42-42h33.858c-0.235,1.661-0.365,3.355-0.365,5.08v29.84c0,1.725,0.129,3.419,0.365,5.08h-4.358
	c-17.369,0-31.5,14.131-31.5,31.5v40.5h-40V92.5z M43.438,189.472c2.014-4.235,6.346-6.972,11.036-6.972h59.49
	c4.689,0,9.021,2.737,11.036,6.972l17.608,37.028H25.83L43.438,189.472z"/>
<path d="M229.065,80.5h91.54c5.523,0,10-4.477,10-10s-4.477-10-10-10h-91.54c-5.523,0-10,4.477-10,10S223.542,80.5,229.065,80.5z"/>
<path d="M191.401,80.5c2.63,0,5.21-1.07,7.07-2.93s2.93-4.44,2.93-7.07s-1.07-5.21-2.93-7.07c-1.86-1.86-4.44-2.93-7.07-2.93
	c-2.64,0-5.21,1.07-7.07,2.93c-1.87,1.86-2.93,4.44-2.93,7.07s1.06,5.21,2.93,7.07C186.191,79.43,188.761,80.5,191.401,80.5z"/>
<g>
</g>
<g>
</g>
<g>
</g>
<g>
</g>
<g>
</g>
<g>
</g>
<g>
</g>
<g>
</g>
<g>
</g>
<g>
</g>
<g>
</g>
<g>
</g>
<g>
</g>
<g>
</g>
<g>
</g>
</svg>
