<?xml version="1.0" encoding="iso-8859-1"?>
<!-- Generator: Adobe Illustrator 19.0.0, SVG Export Plug-In . SVG Version: 6.00 Build 0)  -->
<svg version="1.1" id="Capa_1" xmlns="http://www.w3.org/2000/svg" xmlns:xlink="http://www.w3.org/1999/xlink" x="0px" y="0px"
	 viewBox="0 0 512 512" style="enable-background:new 0 0 512 512;" xml:space="preserve">
<path style="fill:#41489D;" d="M481.869,98.047H30.004c-11.043,0-19.994-8.951-19.994-19.994V30.068
	c0-11.043,8.951-19.994,19.994-19.994h451.865c11.043,0,19.994,8.951,19.994,19.994v47.986
	C501.863,89.095,492.911,98.047,481.869,98.047z"/>
<g>
	<circle style="fill:#EF3C3C;" cx="390.033" cy="389.963" r="111.967"/>
	<circle style="fill:#EF3C3C;" cx="121.964" cy="389.963" r="111.967"/>
</g>
<g>
	<rect x="101.97" y="98.05" style="fill:#2E9DE3;" width="39.988" height="219.934"/>
	<rect x="370.039" y="98.05" style="fill:#2E9DE3;" width="39.988" height="219.934"/>
</g>
<g>
	<circle style="fill:#FFFFFF;" cx="121.964" cy="389.963" r="71.978"/>
	<circle style="fill:#FFFFFF;" cx="390.033" cy="389.963" r="71.978"/>
</g>
<path d="M420.027,271.713V108.044h61.841c16.537,0,29.991-13.454,29.991-29.991V30.068c0-16.537-13.454-29.991-29.991-29.991H30.003
	c-16.537,0-29.991,13.454-29.991,29.991v47.986c0,16.537,13.454,29.991,29.991,29.991h61.969v163.669
	C38.203,285.256,0,333.708,0,389.96c0,67.251,54.713,121.964,121.964,121.964s121.964-54.713,121.964-121.964
	c0-56.252-38.203-104.704-91.973-118.247V108.044h208.091v59.315c0,5.521,4.477,9.997,9.997,9.997s9.997-4.476,9.997-9.997v-59.315
	h19.994v200.572c-3.28-0.401-6.611-0.632-9.997-0.632s-6.717,0.231-9.997,0.632v-59.447c0-5.521-4.477-9.997-9.997-9.997
	s-9.997,4.476-9.997,9.997v22.544c-53.77,13.543-91.973,61.994-91.973,118.247c0,67.251,54.713,121.964,121.964,121.964
	S512,457.211,512,389.96C512,333.708,473.797,285.256,420.027,271.713z M20.007,78.053v-9.997h81.516
	c5.52,0,9.997-4.476,9.997-9.997s-4.477-9.997-9.997-9.997H20.007V30.068c0-5.512,4.485-9.997,9.997-9.997h451.865
	c5.512,0,9.997,4.485,9.997,9.997v47.986c0,5.512-4.485,9.997-9.997,9.997H30.004C24.492,88.05,20.007,83.566,20.007,78.053z
	 M183.945,389.96c0,34.177-27.805,61.981-61.981,61.981s-61.981-27.805-61.981-61.981s27.805-61.981,61.981-61.981
	S183.945,355.783,183.945,389.96z M223.933,389.96c0,56.226-45.743,101.97-101.97,101.97s-101.97-45.743-101.97-101.97
	c0-45.301,29.635-84.532,71.978-97.475v21.207c-30.405,11.998-51.984,41.652-51.984,76.268c0,45.201,36.774,81.975,81.975,81.975
	s81.975-36.774,81.975-81.975c0-34.618-21.58-64.27-51.984-76.268v-21.207C194.298,305.428,223.933,344.657,223.933,389.96z
	 M131.961,308.615c-3.28-0.401-6.611-0.632-9.997-0.632s-6.717,0.231-9.997,0.632V108.044h19.994V308.615z M452.018,389.96
	c0,34.177-27.805,61.981-61.981,61.981s-61.981-27.805-61.981-61.981s27.805-61.981,61.981-61.981S452.018,355.783,452.018,389.96z
	 M390.036,491.929c-56.226,0-101.97-45.743-101.97-101.97c0-45.302,29.635-84.532,71.978-97.475v21.207
	c-30.405,11.998-51.984,41.652-51.984,76.268c0,45.201,36.774,81.975,81.975,81.975s81.975-36.774,81.975-81.975
	c0-34.618-21.58-64.27-51.984-76.268v-21.207c42.343,12.944,71.978,52.173,71.978,97.475
	C492.006,446.186,446.263,491.929,390.036,491.929z"/>
<path d="M370.041,218.011c2.629,0,5.208-1.07,7.068-2.929c1.858-1.859,2.929-4.439,2.929-7.068c0-2.629-1.07-5.208-2.929-7.068
	c-1.859-1.859-4.439-2.929-7.068-2.929s-5.208,1.07-7.068,2.929c-1.858,1.859-2.929,4.439-2.929,7.068
	c0,2.629,1.07,5.208,2.929,7.068C364.833,216.941,367.412,218.011,370.041,218.011z"/>
<path d="M139.181,68.056c2.629,0,5.198-1.07,7.067-2.929c1.859-1.859,2.93-4.439,2.93-7.068s-1.07-5.208-2.93-7.068
	c-1.858-1.859-4.438-2.929-7.067-2.929c-2.64,0-5.208,1.07-7.078,2.929c-1.859,1.859-2.919,4.439-2.919,7.068
	s1.06,5.208,2.919,7.068C133.973,66.985,136.552,68.056,139.181,68.056z"/>
<path d="M111.967,353.971c0,5.521,4.477,9.997,9.997,9.997c14.333,0,25.992,11.66,25.992,25.992c0,5.521,4.477,9.997,9.997,9.997
	s9.997-4.476,9.997-9.997c0-25.356-20.63-45.986-45.986-45.986C116.443,343.974,111.967,348.449,111.967,353.971z"/>
<path d="M390.036,435.946c5.52,0,9.997-4.476,9.997-9.997s-4.477-9.997-9.997-9.997c-14.333,0-25.992-11.661-25.992-25.992
	c0-5.521-4.477-9.997-9.997-9.997c-5.52,0-9.997,4.476-9.997,9.997C344.05,415.316,364.68,435.946,390.036,435.946z"/>
<g>
</g>
<g>
</g>
<g>
</g>
<g>
</g>
<g>
</g>
<g>
</g>
<g>
</g>
<g>
</g>
<g>
</g>
<g>
</g>
<g>
</g>
<g>
</g>
<g>
</g>
<g>
</g>
<g>
</g>
</svg>
