<?xml version="1.0" encoding="iso-8859-1"?>
<!-- Generator: Adobe Illustrator 19.0.0, SVG Export Plug-In . SVG Version: 6.00 Build 0)  -->
<svg version="1.1" id="Capa_1" xmlns="http://www.w3.org/2000/svg" xmlns:xlink="http://www.w3.org/1999/xlink" x="0px" y="0px"
	 viewBox="0 0 512 512" style="enable-background:new 0 0 512 512;" xml:space="preserve">
<path style="fill:#6A80FF;" d="M406.932,170.032l26.697-70.723C449.926,56.139,418.025,10,371.883,10H140.111
	C93.97,10,62.07,56.136,78.363,99.305l26.697,70.737c3.115,8.253,1.386,17.604-4.609,24.074C65.419,231.93,44,282.536,44,338.149
	c0,59.912,24.854,114.016,64.813,152.572c7.493,7.23,17.495,11.279,27.907,11.279h238.56c10.412,0,20.414-4.049,27.907-11.279
	C443.146,452.165,468,398.061,468,338.149c0-55.617-21.422-106.226-56.458-144.04C405.546,187.638,403.817,178.286,406.932,170.032z
	 M154.417,138.009l-12.63-30.661C133.275,86.686,148.466,64,170.812,64H341.19c22.347,0,37.537,22.688,29.024,43.349l-12.632,30.66
	c-2.525,6.128-9.605,8.967-15.663,6.278c-26.263-11.658-55.334-18.138-85.919-18.138c-30.586,0-59.657,6.48-85.92,18.138
	C164.022,146.976,156.942,144.137,154.417,138.009z"/>
<circle style="fill:#7D9BFF;" cx="256" cy="338.15" r="92"/>
<path d="M164,348.625c-5.509,0-9.982-4.457-10-9.969v-0.507c0-5.523,4.477-10,10-10s10,4.477,10,10l0.001,0.445
	c0.017,5.523-4.446,10.014-9.969,10.031C164.021,348.625,164.011,348.625,164,348.625z"/>
<path d="M256,440.149c-19.597,0-38.635-5.575-55.055-16.121c-15.978-10.262-28.756-24.718-36.955-41.805
	c-2.389-4.979-0.289-10.953,4.69-13.342c4.979-2.387,10.952-0.29,13.342,4.69c13.576,28.295,42.614,46.578,73.978,46.578
	c45.215,0,82-36.785,82-82s-36.785-82-82-82c-32.987,0-62.631,19.623-75.521,49.991c-2.158,5.083-8.028,7.457-13.112,5.298
	c-5.083-2.158-7.456-8.028-5.298-13.112C178.1,260.555,214.97,236.149,256,236.149c56.243,0,102,45.757,102,102
	S312.243,440.149,256,440.149z"/>
<path d="M257.003,184.301c-0.021,0-0.04,0-0.06,0L256,184.298c-5.523,0-10-4.477-10-10s4.477-10,10-10l1.061,0.003
	c5.522,0.032,9.974,4.536,9.941,10.059C266.97,179.862,262.498,184.301,257.003,184.301z"/>
<path d="M391.611,256.148c-3.2,0-6.344-1.533-8.279-4.379c-20.098-29.564-49.963-51.34-84.095-61.314
	c-5.301-1.549-8.343-7.103-6.793-12.404c1.549-5.301,7.103-8.341,12.404-6.793c38.577,11.274,72.323,35.874,95.024,69.268
	c3.105,4.567,1.919,10.787-2.648,13.892C395.503,255.587,393.546,256.148,391.611,256.148z"/>
<path d="M375.28,512H136.72c-13.062,0-25.438-5.001-34.851-14.083c-21.233-20.487-37.928-44.542-49.621-71.493
	C40.14,398.514,34,368.814,34,338.149c0-56.116,20.994-109.682,59.116-150.829c3.356-3.623,4.373-9.02,2.588-13.747l-26.698-70.737
	c-8.811-23.345-5.599-49.535,8.592-70.059C91.79,12.253,115.159,0,140.111,0h231.771c24.953,0,48.323,12.253,62.514,32.778
	s17.402,46.716,8.589,70.062l-26.697,70.724l0,0c-1.785,4.728-0.769,10.125,2.589,13.749C457.003,228.461,478,282.029,478,338.149
	c0,30.665-6.14,60.365-18.248,88.274c-11.693,26.952-28.388,51.006-49.621,71.493C400.719,506.999,388.342,512,375.28,512z
	 M140.111,20c-18.66,0-35.449,8.803-46.062,24.151C83.437,59.5,81.129,78.315,87.718,95.773l26.698,70.737
	c4.507,11.942,1.967,25.124-6.629,34.402C73.102,238.351,54,287.089,54,338.149c0,55.32,21.932,106.949,61.756,145.375
	c5.664,5.466,13.11,8.476,20.964,8.476h238.56c7.854,0,15.299-3.01,20.964-8.476C436.068,445.098,458,393.47,458,338.149
	c0-51.064-19.104-99.805-53.794-137.244c-8.597-9.279-11.137-22.462-6.629-34.405l26.697-70.724
	c6.59-17.458,4.283-36.275-6.33-51.624C407.333,28.803,390.543,20,371.882,20H140.111z M165.31,155.314
	c-2.738,0-5.479-0.524-8.105-1.577c-5.502-2.205-9.776-6.439-12.035-11.921l0,0l-12.63-30.661
	c-5.271-12.794-3.821-27.297,3.878-38.795C144.117,60.864,156.974,54,170.812,54H341.19c13.837,0,26.695,6.865,34.394,18.363
	c7.699,11.499,9.148,26.002,3.876,38.796l-12.632,30.659c-2.259,5.482-6.534,9.715-12.036,11.919
	c-5.501,2.205-11.514,2.094-16.931-0.312c-25.827-11.464-53.369-17.277-81.862-17.277s-56.036,5.813-81.863,17.278
	C171.305,154.684,168.31,155.314,165.31,155.314z M170.812,74c-7.258,0-13.736,3.459-17.774,9.49s-4.769,13.338-2.004,20.049
	l12.63,30.661l0,0c0.236,0.574,0.664,0.846,0.981,0.973c0.316,0.127,0.812,0.226,1.377-0.025
	c28.399-12.606,58.671-18.998,89.978-18.998s61.579,6.392,89.977,18.997c0.566,0.251,1.062,0.153,1.378,0.026
	c0.317-0.127,0.746-0.399,0.982-0.974l12.631-30.659c2.765-6.711,2.035-14.019-2.003-20.05S348.448,74,341.19,74H170.812z"/>
<g>
</g>
<g>
</g>
<g>
</g>
<g>
</g>
<g>
</g>
<g>
</g>
<g>
</g>
<g>
</g>
<g>
</g>
<g>
</g>
<g>
</g>
<g>
</g>
<g>
</g>
<g>
</g>
<g>
</g>
</svg>
