<?xml version="1.0" encoding="iso-8859-1"?>
<!-- Generator: Adobe Illustrator 19.0.0, SVG Export Plug-In . SVG Version: 6.00 Build 0)  -->
<svg version="1.1" id="Layer_1" xmlns="http://www.w3.org/2000/svg" xmlns:xlink="http://www.w3.org/1999/xlink" x="0px" y="0px"
	 viewBox="0 0 512 512" style="enable-background:new 0 0 512 512;" xml:space="preserve">
<path style="fill:#C79175;" d="M386.582,214.907l32.971-32.958L512,216.177L405.944,437.538
	c-11.828,24.708-36.779,40.424-64.174,40.424H50.173C22.467,477.962,0,455.495,0,427.79V66.078h96.646v-32.04h193.291v32.04h96.646
	V214.907z M313.092,414.166v-3.551c0-45.865-37.17-83.036-83.022-83.036h-53.575c-45.852,0-83.036,37.17-83.036,83.036v3.551
	H313.092z"/>
<path style="fill:#BC846C;" d="M497.715,210.884l-91.771,191.549c-11.828,24.708-36.779,40.424-64.174,40.424H50.173
	C22.467,442.858,0,420.391,0,392.685v35.105c0,27.706,22.467,50.173,50.173,50.173H341.77c27.395,0,52.346-15.716,64.174-40.424
	L512,216.177L497.715,210.884z"/>
<g>
	<path style="fill:#AF7B64;" d="M65.837,190.194H38.834c-3.729,0-6.751-3.023-6.751-6.751c0-3.728,3.022-6.751,6.751-6.751h27.004
		c3.729,0,6.751,3.023,6.751,6.751C72.588,187.171,69.566,190.194,65.837,190.194z"/>
	<path style="fill:#AF7B64;" d="M65.837,221.248H38.834c-3.729,0-6.751-3.023-6.751-6.751c0-3.728,3.022-6.751,6.751-6.751h27.004
		c3.729,0,6.751,3.023,6.751,6.751C72.588,218.225,69.566,221.248,65.837,221.248z"/>
	<path style="fill:#AF7B64;" d="M161.249,190.194h-27.004c-3.729,0-6.751-3.023-6.751-6.751c0-3.728,3.022-6.751,6.751-6.751h27.004
		c3.729,0,6.751,3.023,6.751,6.751C168,187.171,164.978,190.194,161.249,190.194z"/>
	<path style="fill:#AF7B64;" d="M161.249,221.248h-27.004c-3.729,0-6.751-3.023-6.751-6.751c0-3.728,3.022-6.751,6.751-6.751h27.004
		c3.729,0,6.751,3.023,6.751,6.751C168,218.225,164.978,221.248,161.249,221.248z"/>
	<path style="fill:#AF7B64;" d="M352.072,190.194h-27.004c-3.729,0-6.751-3.023-6.751-6.751c0-3.728,3.022-6.751,6.751-6.751h27.004
		c3.729,0,6.751,3.023,6.751,6.751C358.823,187.171,355.801,190.194,352.072,190.194z"/>
	<path style="fill:#AF7B64;" d="M352.072,221.248h-27.004c-3.729,0-6.751-3.023-6.751-6.751c0-3.728,3.022-6.751,6.751-6.751h27.004
		c3.729,0,6.751,3.023,6.751,6.751C358.823,218.225,355.801,221.248,352.072,221.248z"/>
	<path style="fill:#AF7B64;" d="M256.66,190.194h-27.003c-3.729,0-6.751-3.023-6.751-6.751c0-3.728,3.022-6.751,6.751-6.751h27.003
		c3.729,0,6.751,3.023,6.751,6.751C263.411,187.171,260.389,190.194,256.66,190.194z"/>
	<path style="fill:#AF7B64;" d="M256.66,221.248h-27.003c-3.729,0-6.751-3.023-6.751-6.751c0-3.728,3.022-6.751,6.751-6.751h27.003
		c3.729,0,6.751,3.023,6.751,6.751C263.411,218.225,260.389,221.248,256.66,221.248z"/>
	<polygon style="fill:#AF7B64;" points="96.646,66.078 96.646,151.044 77.784,66.078 	"/>
	<polygon style="fill:#AF7B64;" points="197.81,34.038 197.81,119.004 178.948,34.038 	"/>
	<polygon style="fill:#AF7B64;" points="289.937,66.078 289.937,151.044 308.799,66.078 	"/>
	<polygon style="fill:#AF7B64;" points="386.582,214.907 386.582,249.782 419.553,181.95 	"/>
</g>
<g>
</g>
<g>
</g>
<g>
</g>
<g>
</g>
<g>
</g>
<g>
</g>
<g>
</g>
<g>
</g>
<g>
</g>
<g>
</g>
<g>
</g>
<g>
</g>
<g>
</g>
<g>
</g>
<g>
</g>
</svg>
