<?xml version="1.0" encoding="iso-8859-1"?>
<!-- Generator: Adobe Illustrator 19.0.0, SVG Export Plug-In . SVG Version: 6.00 Build 0)  -->
<svg version="1.1" id="Layer_1" xmlns="http://www.w3.org/2000/svg" xmlns:xlink="http://www.w3.org/1999/xlink" x="0px" y="0px"
	 viewBox="0 0 512 512" style="enable-background:new 0 0 512 512;" xml:space="preserve">
<path style="fill:#FD6568;" d="M51.515,174.572v263.566h408.958V174.572H51.515z"/>
<path style="fill:#F2D766;" d="M365.345,115.275v75.198c0,4.402-3.632,7.95-8.059,7.818c-4.282-0.132-7.578-3.861-7.578-8.143
	v-51.575c0-9.201-7.457-16.659-16.659-16.659H178.926c-9.189,0-16.646,7.457-16.646,16.659v51.9c0,4.402-3.632,7.95-8.059,7.818
	c-4.282-0.132-7.578-3.861-7.578-8.143v-74.873c0-22.865,18.535-41.412,41.412-41.412h135.878
	C346.798,73.863,365.345,92.398,365.345,115.275z"/>
<g>
	<path style="fill:#FEE572;" d="M365.345,143.347v47.125c0,4.402-3.632,7.95-8.059,7.818c-4.282-0.132-7.578-3.861-7.578-8.143
		v-51.575c0-9.201-7.457-16.659-16.659-16.659H178.926c-9.189,0-16.646,7.457-16.646,16.659v51.9c0,4.402-3.632,7.95-8.059,7.818
		c-4.282-0.132-7.578-3.861-7.578-8.143v-46.8c0-22.877,18.535-41.424,41.412-41.424h135.878
		C346.798,101.924,365.345,120.471,365.345,143.347z"/>
	<path style="fill:#FEE572;" d="M512,220.338v204.389c0,7.409-6.014,13.411-13.423,13.411h-49.23V174.572h16.887
		C491.505,174.572,512,195.067,512,220.338z"/>
	<path style="fill:#FEE572;" d="M62.641,174.572v263.566h-49.23C6.002,438.137,0,432.135,0,424.726V220.338
		c0-25.27,20.483-45.766,45.754-45.766H62.641z"/>
</g>
<g>
	<path style="fill:#E0555C;" d="M398.999,345.487v33.101c0,10.356-8.395,18.751-18.739,18.751h-66.213
		c-10.344,0-18.739-8.395-18.739-18.751v-33.101H398.999z"/>
	<path style="fill:#E0555C;" d="M216.693,345.487v33.101c0,10.356-8.395,18.751-18.751,18.751h-66.201
		c-10.356,0-18.751-8.395-18.751-18.751v-33.101H216.693z"/>
</g>
<path style="fill:#FEE572;" d="M398.999,328.648v33.101c0,10.356-8.395,18.751-18.739,18.751h-66.213
	c-10.344,0-18.739-8.395-18.739-18.751v-33.101H398.999z"/>
<path style="fill:#666666;" d="M398.758,328.648c-1.431,8.937-9.165,15.768-18.499,15.768h-66.213
	c-9.334,0-17.067-6.832-18.499-15.768H398.758z"/>
<path style="fill:#FEE572;" d="M216.693,328.648v33.101c0,10.356-8.395,18.751-18.751,18.751h-66.201
	c-10.356,0-18.751-8.395-18.751-18.751v-33.101H216.693z"/>
<path style="fill:#CCCCCC;" d="M401.816,257.757H110.17c-2.989,0-5.413-2.424-5.413-5.413l0,0c0-2.989,2.424-5.413,5.413-5.413
	h291.646c2.989,0,5.413,2.424,5.413,5.413l0,0C407.228,255.334,404.805,257.757,401.816,257.757z"/>
<g>
	<path style="fill:#666666;" d="M130.693,267.833c-3.653,0-6.615-2.961-6.615-6.615v-16.691c0-3.654,2.962-6.615,6.615-6.615
		s6.615,2.961,6.615,6.615v16.691C137.308,264.872,134.347,267.833,130.693,267.833z"/>
	<path style="fill:#666666;" d="M162.018,267.833c-3.653,0-6.615-2.961-6.615-6.615v-16.691c0-3.654,2.962-6.615,6.615-6.615
		c3.653,0,6.615,2.961,6.615,6.615v16.691C168.634,264.872,165.671,267.833,162.018,267.833z"/>
	<path style="fill:#666666;" d="M193.342,267.833c-3.653,0-6.615-2.961-6.615-6.615v-16.691c0-3.654,2.962-6.615,6.615-6.615
		c3.653,0,6.615,2.961,6.615,6.615v16.691C199.958,264.872,196.995,267.833,193.342,267.833z"/>
	<path style="fill:#666666;" d="M224.668,267.833c-3.653,0-6.615-2.961-6.615-6.615v-16.691c0-3.654,2.962-6.615,6.615-6.615
		c3.653,0,6.615,2.961,6.615,6.615v16.691C231.283,264.872,228.32,267.833,224.668,267.833z"/>
	<path style="fill:#666666;" d="M255.993,267.833c-3.653,0-6.615-2.961-6.615-6.615v-16.691c0-3.654,2.962-6.615,6.615-6.615
		s6.615,2.961,6.615,6.615v16.691C262.608,264.872,259.646,267.833,255.993,267.833z"/>
	<path style="fill:#666666;" d="M287.317,267.833c-3.653,0-6.615-2.961-6.615-6.615v-16.691c0-3.654,2.962-6.615,6.615-6.615
		c3.653,0,6.615,2.961,6.615,6.615v16.691C293.932,264.872,290.97,267.833,287.317,267.833z"/>
	<path style="fill:#666666;" d="M318.642,267.833c-3.653,0-6.615-2.961-6.615-6.615v-16.691c0-3.654,2.962-6.615,6.615-6.615
		s6.615,2.961,6.615,6.615v16.691C325.257,264.872,322.295,267.833,318.642,267.833z"/>
	<path style="fill:#666666;" d="M349.967,267.833c-3.653,0-6.615-2.961-6.615-6.615v-16.691c0-3.654,2.962-6.615,6.615-6.615
		s6.615,2.961,6.615,6.615v16.691C356.583,264.872,353.62,267.833,349.967,267.833z"/>
	<path style="fill:#666666;" d="M381.291,286.909c-3.653,0-6.615-2.961-6.615-6.615v-35.767c0-3.654,2.962-6.615,6.615-6.615
		s6.615,2.961,6.615,6.615v35.767C387.907,283.947,384.944,286.909,381.291,286.909z"/>
</g>
<rect x="51.515" y="408.176" style="fill:#E0555C;" width="408.958" height="29.961"/>
<g>
	<path style="fill:#F2D766;" d="M0,408.176h62.641v29.961h-49.23C6.002,438.137,0,432.135,0,424.726V408.176z"/>
	<path style="fill:#F2D766;" d="M512,408.176v16.55c0,7.409-6.014,13.411-13.423,13.411h-49.23v-29.961H512z"/>
</g>
<path style="fill:#666666;" d="M216.447,328.648c-1.431,8.937-9.165,15.768-18.499,15.768h-66.213
	c-9.334,0-17.067-6.832-18.499-15.768H216.447z"/>
<g>
</g>
<g>
</g>
<g>
</g>
<g>
</g>
<g>
</g>
<g>
</g>
<g>
</g>
<g>
</g>
<g>
</g>
<g>
</g>
<g>
</g>
<g>
</g>
<g>
</g>
<g>
</g>
<g>
</g>
</svg>
