<?xml version="1.0" encoding="iso-8859-1"?>
<!-- Generator: Adobe Illustrator 19.0.0, SVG Export Plug-In . SVG Version: 6.00 Build 0)  -->
<svg version="1.1" id="Layer_1" xmlns="http://www.w3.org/2000/svg" xmlns:xlink="http://www.w3.org/1999/xlink" x="0px" y="0px"
	 viewBox="0 0 512 512" style="enable-background:new 0 0 512 512;" xml:space="preserve">
<g>
	<polygon style="fill:#FEE572;" points="168.785,0 168.785,41.527 168.785,90.332 168.785,188.997 343.215,188.997 343.215,90.332 
		343.215,0 	"/>
	<rect x="168.79" y="358.298" style="fill:#FEE572;" width="174.431" height="153.702"/>
</g>
<path style="fill:#F2D766;" d="M168.785,358.298v36.931h174.431v-36.931H168.785z"/>
<path style="fill:#FD6568;" d="M380.135,157.242v197.516c0,14.02-11.363,25.383-25.383,25.383h-11.537H168.785h-11.537
	c-14.02,0-25.383-11.363-25.383-25.383V157.242c0-14.009,11.363-25.371,25.383-25.371h11.537h174.431h11.537
	C368.773,131.871,380.135,143.233,380.135,157.242z M343.215,343.21V168.79H168.785V343.21H343.215z"/>
<path style="fill:#9ED6E5;" d="M354.816,163.248v185.505c0,3.345-2.712,6.057-6.057,6.057H163.241c-3.345,0-6.057-2.712-6.057-6.057
	V163.248c0-3.345,2.712-6.057,6.057-6.057h185.517C352.104,157.191,354.816,159.902,354.816,163.248z"/>
<path style="fill:#C0E8F6;" d="M173.433,320.299V191.701c0-10.086,8.175-18.261,18.261-18.261h128.612
	c10.086,0,18.261,8.175,18.261,18.261v128.598c0,10.086-8.175,18.261-18.261,18.261H191.694
	C181.609,338.56,173.433,330.385,173.433,320.299z"/>
<path style="fill:#FEC274;" d="M288.857,198.007c-1.44,0.875-2.84,1.791-4.25,2.696c-1.386,0.93-2.801,1.83-4.162,2.784
	c-1.364,0.951-2.758,1.873-4.096,2.849c-2.715,1.915-5.375,3.886-8.022,5.868l-3.926,3.019c-1.309,1.006-2.613,2.017-3.888,3.057
	c-2.574,2.057-5.137,4.124-7.642,6.25c-1.256,1.06-2.534,2.097-3.772,3.174l-3.715,3.23c-2.497,2.133-4.904,4.357-7.34,6.552
	c-2.451,2.178-4.809,4.452-7.199,6.691l-10.03,9.393l12.904,6.222l3.977,1.919l4.001,1.866c2.679,1.221,5.353,2.45,8.049,3.629
	l4.045,1.77l0.161,0.069c-0.931,1.075-1.859,2.153-2.796,3.222c-1,1.13-1.953,2.306-2.927,3.463l-2.907,3.482l-2.854,3.535
	c-0.944,1.186-1.908,2.353-2.835,3.555c-1.85,2.411-3.731,4.788-5.528,7.252c-0.902,1.228-1.829,2.43-2.707,3.683l-2.66,3.73
	l-2.602,3.787l-2.539,3.85c-1.663,2.596-3.303,5.216-4.825,7.955c2.738-1.522,5.357-3.162,7.955-4.825l3.85-2.539l3.787-2.602
	l3.73-2.66c1.252-0.877,2.455-1.805,3.683-2.707c2.463-1.797,4.841-3.678,7.252-5.528c1.202-0.927,2.369-1.891,3.555-2.834
	l3.535-2.854l3.482-2.907c1.157-0.973,2.333-1.927,3.463-2.927c2.27-1.989,4.579-3.94,6.819-5.961l3.355-3.034
	c1.113-1.017,2.248-2.011,3.345-3.046l9.772-9.22l-12.594-6.111l-7.947-3.856l-3.996-1.877l-4.012-1.842
	c-1.271-0.584-2.548-1.155-3.825-1.722c1.262-1.397,2.517-2.801,3.743-4.234l3.23-3.715c1.077-1.238,2.115-2.515,3.174-3.772
	c2.125-2.505,4.193-5.067,6.249-7.642c1.04-1.276,2.051-2.579,3.057-3.888l3.019-3.926c1.982-2.647,3.953-5.308,5.868-8.022
	c0.976-1.339,1.899-2.732,2.849-4.096c0.954-1.361,1.855-2.776,2.784-4.162c0.905-1.41,1.821-2.81,2.696-4.25
	c0.886-1.429,1.748-2.882,2.577-4.37C291.739,196.258,290.286,197.12,288.857,198.007z"/>
<g>
	<rect x="168.79" y="84.529" style="fill:#F2D766;" width="174.431" height="11.606"/>
	<rect x="168.79" y="35.723" style="fill:#F2D766;" width="174.431" height="11.606"/>
	<rect x="168.79" y="464.658" style="fill:#F2D766;" width="174.431" height="11.606"/>
	<rect x="168.79" y="415.853" style="fill:#F2D766;" width="174.431" height="11.606"/>
</g>
<g>
</g>
<g>
</g>
<g>
</g>
<g>
</g>
<g>
</g>
<g>
</g>
<g>
</g>
<g>
</g>
<g>
</g>
<g>
</g>
<g>
</g>
<g>
</g>
<g>
</g>
<g>
</g>
<g>
</g>
</svg>
