<?xml version="1.0" encoding="iso-8859-1"?>
<!-- Generator: Adobe Illustrator 19.0.0, SVG Export Plug-In . SVG Version: 6.00 Build 0)  -->
<svg version="1.1" id="Layer_1" xmlns="http://www.w3.org/2000/svg" xmlns:xlink="http://www.w3.org/1999/xlink" x="0px" y="0px"
	 viewBox="0 0 512 512" style="enable-background:new 0 0 512 512;" xml:space="preserve">
<path style="fill:#FD6568;" d="M379.656,228.925l10.367,17.559l-10.367,14.641c-8.676-3.001-18.223-2.118-26.208,2.412
	l-31.328,17.793c-4.077,2.31-8.619,3.477-13.195,3.477c-3.318,0-6.66-0.612-9.82-1.869c-13.84-5.47-28.473-8.2-43.106-8.2
	c-14.633,0-29.266,2.73-43.106,8.2c-7.52,2.979-15.981,2.378-23.014-1.608l-31.328-17.793c-7.985-4.53-17.533-5.414-26.208-2.412
	l-10.367-17.661l10.367-14.539c8.676-3.001,18.223-2.118,26.208,2.412l31.328,17.793c7.033,3.987,15.494,4.587,23.014,1.608
	c13.84-5.47,28.473-8.2,43.106-8.2c14.633,0,29.266,2.73,43.106,8.2c3.16,1.257,6.501,1.869,9.82,1.869
	c4.576,0,9.117-1.167,13.195-3.477l31.328-17.793C361.433,226.807,370.981,225.924,379.656,228.925z"/>
<g>
	<path style="fill:#7D7878;" d="M440.918,243.219v32.2h-13.331c-4.361,0-8.687-0.725-12.798-2.152l-35.133-12.141v-32.2
		l35.133,12.141c4.111,1.427,8.438,2.152,12.798,2.152H440.918z"/>
	<path style="fill:#7D7878;" d="M132.343,228.925v32.2L97.21,273.266c-4.111,1.427-8.438,2.152-12.798,2.152H71.082v-32.2h13.331
		c4.36,0,8.687-0.725,12.798-2.152L132.343,228.925z"/>
	<rect y="238.162" style="fill:#7D7878;" width="42.506" height="35.677"/>
	<rect x="475.157" y="238.162" style="fill:#7D7878;" width="36.843" height="35.677"/>
</g>
<path style="fill:#E0555C;" d="M385.818,252.415l-6.161,8.71c-8.676-3.001-18.223-2.118-26.208,2.412l-31.328,17.793
	c-4.077,2.31-8.619,3.477-13.195,3.477c-3.318,0-6.66-0.612-9.82-1.869c-13.84-5.47-28.473-8.2-43.106-8.2
	c-14.633,0-29.266,2.73-43.106,8.2c-7.52,2.979-15.981,2.378-23.014-1.608l-31.328-17.793c-7.985-4.53-17.533-5.414-26.208-2.412
	l-5.289-9.015l5.289-1.823c8.676-3.001,18.223-2.118,26.208,2.412l31.328,17.793c7.033,3.987,15.494,4.587,23.014,1.608
	c13.84-5.47,28.473-8.2,43.106-8.2c14.633,0,29.266,2.73,43.106,8.2c3.16,1.257,6.501,1.869,9.82,1.869
	c4.576,0,9.117-1.167,13.195-3.477l31.328-17.793c7.985-4.53,17.533-5.414,26.208-2.412L385.818,252.415z"/>
<g>
	<path style="fill:#666666;" d="M440.918,264.579v10.839h-13.331c-4.361,0-8.687-0.725-12.798-2.152l-35.133-12.141v-10.839
		l6.161,2.129l28.972,10.012c4.111,1.427,8.438,2.152,12.798,2.152H440.918L440.918,264.579z"/>
	<path style="fill:#666666;" d="M127.054,252.11l5.289-1.823v10.839L97.21,273.266c-4.111,1.427-8.438,2.152-12.798,2.152H71.082
		v-10.839h13.331c4.36,0,8.687-0.725,12.798-2.152L127.054,252.11z"/>
	<rect y="262.999" style="fill:#666666;" width="42.506" height="10.839"/>
	<rect x="475.157" y="262.999" style="fill:#666666;" width="36.843" height="10.839"/>
</g>
<g>
	<polygon style="fill:#B3B3B3;" points="72.78,243.219 72.78,275.418 72.78,346.885 23.513,346.885 23.513,273.833 23.513,238.156 
		23.513,165.115 72.78,165.115 	"/>
	<polygon style="fill:#B3B3B3;" points="488.476,273.833 488.476,346.885 439.22,346.885 439.22,275.418 439.22,243.219 
		439.22,165.115 488.476,165.115 488.476,238.156 	"/>
</g>
<g>
	<polygon style="fill:#CCCCCC;" points="72.78,247.359 72.78,269.127 72.78,317.438 23.513,317.438 23.513,268.055 23.513,243.938 
		23.513,194.563 72.78,194.563 	"/>
	<polygon style="fill:#CCCCCC;" points="488.476,268.055 488.476,317.438 439.22,317.438 439.22,269.127 439.22,247.359 
		439.22,194.563 488.476,194.563 488.476,243.938 	"/>
</g>
<g>
	<polygon style="fill:#E6E6E6;" points="72.78,238.692 72.78,244.253 72.78,256.595 23.513,256.595 23.513,243.979 23.513,237.817 
		23.513,225.203 72.78,225.203 	"/>
	<polygon style="fill:#E6E6E6;" points="488.476,243.979 488.476,256.595 439.22,256.595 439.22,244.253 439.22,238.692 
		439.22,225.203 488.476,225.203 488.476,237.817 	"/>
</g>
<g>
</g>
<g>
</g>
<g>
</g>
<g>
</g>
<g>
</g>
<g>
</g>
<g>
</g>
<g>
</g>
<g>
</g>
<g>
</g>
<g>
</g>
<g>
</g>
<g>
</g>
<g>
</g>
<g>
</g>
</svg>
