<?xml version="1.0" encoding="iso-8859-1"?>
<!-- Generator: Adobe Illustrator 19.0.0, SVG Export Plug-In . SVG Version: 6.00 Build 0)  -->
<svg version="1.1" id="Layer_1" xmlns="http://www.w3.org/2000/svg" xmlns:xlink="http://www.w3.org/1999/xlink" x="0px" y="0px"
	 viewBox="0 0 512 512" style="enable-background:new 0 0 512 512;" xml:space="preserve">
<path style="fill:#7D7878;" d="M415.882,220.573c-9.368,0-18.424,1.348-26.99,3.865c-3.954,1.147-7.808,2.562-11.54,4.211
	c-33.873,14.87-57.588,48.744-57.588,88.042c0,52.999,43.119,96.118,96.118,96.118S512,369.689,512,316.69
	S468.881,220.573,415.882,220.573z M415.882,393.872c-42.562,0-77.182-34.62-77.182-77.182c0-30.677,17.989-57.232,43.976-69.674
	c3.676-1.749,7.508-3.23,11.473-4.389c6.895-2.027,14.191-3.119,21.732-3.119c42.562,0,77.182,34.631,77.182,77.182
	C493.064,359.252,458.444,393.872,415.882,393.872z"/>
<path style="fill:#666666;" d="M394.15,242.628c-3.965,1.158-7.797,2.64-11.473,4.389l-5.324-18.368
	c3.732-1.649,7.586-3.063,11.54-4.211L394.15,242.628z"/>
<path style="fill:#7D7878;" d="M142.834,232.714c-3.843-2.15-7.842-4.032-11.974-5.636c-10.782-4.199-22.501-6.505-34.742-6.505
	C43.119,220.573,0,263.691,0,316.69s43.119,96.118,96.118,96.118c47.574,0,87.195-34.753,94.792-80.2
	c0.735-4.366,1.17-8.822,1.292-13.367c0.022-0.847,0.033-1.693,0.033-2.551C192.235,280.634,172.286,249.155,142.834,232.714z
	 M173.255,319.241c-0.145,4.567-0.691,9.034-1.604,13.367c-7.363,34.954-38.44,61.264-75.533,61.264
	c-42.562,0-77.181-34.62-77.181-77.182c0-42.551,34.62-77.182,77.182-77.182c9.78,0,19.148,1.827,27.769,5.168
	c3.854,1.493,7.552,3.286,11.083,5.347c22.913,13.4,38.329,38.273,38.329,66.666C173.299,317.548,173.288,318.395,173.255,319.241z"
	/>
<g>
	<path style="fill:#666666;" d="M130.86,227.078l-6.973,17.599c3.854,1.493,7.552,3.286,11.083,5.347l7.864-17.31L130.86,227.078z"
		/>
	<path style="fill:#666666;" d="M192.202,319.241c-0.123,4.545-0.557,9-1.292,13.367h-19.259c0.913-4.333,1.459-8.8,1.604-13.367
		H192.202z"/>
</g>
<path style="fill:#FEE572;" d="M417.587,322.583c-0.568,0.156-1.147,0.234-1.704,0.234c-2.662,0-5.113-1.738-5.881-4.422
	l-33.55-115.989l-91.829,99.682l-9.011-8.31l96.864-105.14l-6.138-21.22h-198.93l92.976,114.564c2.139,2.629,1.738,6.483-0.891,8.61
	c-1.136,0.924-2.506,1.37-3.854,1.37c-1.782,0-3.553-0.769-4.767-2.261l-94.358-116.257l-51.551,137.12h119.821
	c3.375,0,6.126,2.74,6.126,6.126s-2.751,6.126-6.126,6.126H96.118c-2.016,0-3.899-0.98-5.035-2.64
	c-1.147-1.649-1.404-3.754-0.702-5.636l58.034-154.363v-25.976c0-3.386,2.74-6.126,6.126-6.126s6.126,2.74,6.126,6.126v20.963
	h202.127l-10.047-34.709c-1.526-5.302-6.461-9.011-11.974-9.011h-31.969c-3.386,0-6.126-2.74-6.126-6.126
	c0-3.386,2.74-6.126,6.126-6.126h31.969c10.938,0,20.707,7.341,23.748,17.856l12.264,42.395c0.011,0.022,0.011,0.056,0.022,0.078
	l44.957,155.466C422.71,318.239,420.839,321.636,417.587,322.583z"/>
<path style="fill:#7D7878;" d="M255.631,354.785c-21.005,0-38.093-17.088-38.093-38.093s17.088-38.093,38.093-38.093
	s38.093,17.088,38.093,38.093S276.636,354.785,255.631,354.785z M255.631,293.08c-13.02,0-23.612,10.592-23.612,23.612
	c0,13.019,10.592,23.612,23.612,23.612c13.02,0,23.612-10.592,23.612-23.612C279.244,303.672,268.652,293.08,255.631,293.08z"/>
<g>
	<path style="fill:#FD6568;" d="M255.631,379.553h-18.565c-3.999,0-7.24-3.241-7.24-7.24c0-3.999,3.241-7.24,7.24-7.24h11.325
		v-48.38c0-3.999,3.241-7.24,7.24-7.24c3.999,0,7.24,3.241,7.24,7.24v55.62C262.872,376.311,259.629,379.553,255.631,379.553z"/>
	<path style="fill:#FD6568;" d="M336.328,99.192v12.253h-27.524c-3.386,0-6.126-2.74-6.126-6.126s2.74-6.126,6.126-6.126H336.328z"
		/>
</g>
<rect x="148.415" y="134.335" style="fill:#E5CA5A;" width="12.253" height="19.304"/>
<path style="fill:#FD6568;" d="M173.578,141.443H123.03c-3.999,0-7.24-3.241-7.24-7.24s3.241-7.24,7.24-7.24h50.547
	c3.999,0,7.24,3.241,7.24,7.24S177.577,141.443,173.578,141.443z"/>
<g>
</g>
<g>
</g>
<g>
</g>
<g>
</g>
<g>
</g>
<g>
</g>
<g>
</g>
<g>
</g>
<g>
</g>
<g>
</g>
<g>
</g>
<g>
</g>
<g>
</g>
<g>
</g>
<g>
</g>
</svg>
