<?xml version="1.0" encoding="iso-8859-1"?>
<!-- Generator: Adobe Illustrator 19.0.0, SVG Export Plug-In . SVG Version: 6.00 Build 0)  -->
<svg version="1.1" id="Layer_1" xmlns="http://www.w3.org/2000/svg" xmlns:xlink="http://www.w3.org/1999/xlink" x="0px" y="0px"
	 viewBox="0 0 512 512" style="enable-background:new 0 0 512 512;" xml:space="preserve">
<g>
	<rect x="67.136" y="431.454" style="fill:#EAAC60;" width="377.727" height="34.24"/>
	<rect x="67.136" y="303.067" style="fill:#EAAC60;" width="377.727" height="34.24"/>
	<rect x="67.136" y="174.693" style="fill:#EAAC60;" width="377.727" height="34.24"/>
	<rect x="67.136" y="46.307" style="fill:#EAAC60;" width="377.727" height="34.24"/>
</g>
<g>
	<rect x="100.254" y="431.454" style="fill:#FEC274;" width="311.504" height="34.24"/>
	<rect x="100.254" y="303.067" style="fill:#FEC274;" width="311.504" height="34.24"/>
	<rect x="100.254" y="174.693" style="fill:#FEC274;" width="311.504" height="34.24"/>
	<rect x="100.254" y="46.307" style="fill:#FEC274;" width="311.504" height="34.24"/>
</g>
<g>
	<polygon style="fill:#FEE572;" points="490.128,0 490.128,512 432.245,512 432.245,465.693 432.245,431.454 432.245,337.307 
		432.245,303.067 432.245,208.933 432.245,174.693 432.245,80.546 432.245,46.307 432.245,0 	"/>
	<polygon style="fill:#FEE572;" points="79.756,465.693 79.756,512 21.872,512 21.872,0 79.756,0 79.756,46.307 79.756,80.546 
		79.756,174.693 79.756,208.933 79.756,303.067 79.756,337.307 79.756,431.454 	"/>
</g>
<g>
</g>
<g>
</g>
<g>
</g>
<g>
</g>
<g>
</g>
<g>
</g>
<g>
</g>
<g>
</g>
<g>
</g>
<g>
</g>
<g>
</g>
<g>
</g>
<g>
</g>
<g>
</g>
<g>
</g>
</svg>
