<?xml version="1.0" encoding="iso-8859-1"?>
<!-- Generator: Adobe Illustrator 19.0.0, SVG Export Plug-In . SVG Version: 6.00 Build 0)  -->
<svg version="1.1" id="Layer_1" xmlns="http://www.w3.org/2000/svg" xmlns:xlink="http://www.w3.org/1999/xlink" x="0px" y="0px"
	 viewBox="0 0 512 512" style="enable-background:new 0 0 512 512;" xml:space="preserve">
<path style="fill:#666363;" d="M414.548,98.431v163.143c-13.667-23.563-102.554,42.106-124.914,26.703
	c-14.746-10.157,39.07-104.102,21.633-109.62c24.096,7.453,48.49-10.889,48.49-36.138v-41.917
	c0.012-25.299-20.512-45.824-45.811-45.824H198.488c-25.473,0-46.06,20.785-45.812,46.258l0.384,41.583
	c0.236,25.051,24.468,43.158,48.391,35.816c-17.164,5.345,2.332,64.642-12.265,74.501c-22.955,15.514-77.795-15.395-91.735,8.651
	V98.431C97.452,44.075,141.515,0,195.883,0h120.233C370.485,0,414.548,44.075,414.548,98.431z"/>
<path style="fill:#7D7878;" d="M414.548,261.575c15.638,26.973,24.592,58.312,24.592,91.747c0,44.336-15.762,85.001-41.992,116.687
	c-5.692,6.87-12.86,12.352-20.984,16.048C339.543,502.711,298.854,512,256.006,512c-42.86,0-83.55-9.289-120.171-25.944
	c-8.111-3.696-15.291-9.177-20.971-16.048c-26.229-31.686-42.004-72.351-42.004-116.687c0-33.422,8.954-64.761,24.592-91.722v-0.012
	c13.939-24.047,33.199-44.621,56.154-60.135c14.597-9.859,30.682-17.672,47.845-23.017c0.05-0.012,0.087-0.025,0.136-0.037
	c0.211-0.062,0.422-0.136,0.632-0.186c1.811-0.57,3.634-1.091,5.457-1.587c3.398-0.93,6.833-1.761,10.306-2.493
	c1.104-0.236,2.232-0.459,3.348-0.67c0.012-0.012,0.025-0.012,0.037-0.012c1.873-0.36,3.758-0.694,5.655-0.992
	c9.438-1.501,19.123-2.282,28.983-2.282c5.32,0,10.591,0.223,15.8,0.682c0.682,0.05,1.364,0.112,2.034,0.174
	c3.522,0.347,7.019,0.781,10.479,1.315c2.257,0.36,4.514,0.756,6.746,1.178c0.322,0.062,0.657,0.136,0.98,0.198
	c0.856,0.174,1.711,0.347,2.555,0.533c2.207,0.471,4.403,0.98,6.573,1.538c1.054,0.26,2.096,0.533,3.138,0.819
	c2.27,0.62,4.527,1.277,6.759,1.984c0.062,0.025,0.136,0.037,0.198,0.062c17.437,5.519,33.745,13.567,48.49,23.724
	C382.118,217.784,400.882,238.011,414.548,261.575z"/>
<path style="fill:#808080;" d="M392.554,255.938c11.486,17.454,18.063,37.734,18.063,59.369c0,28.69-11.578,55.004-30.844,75.507
	c-4.181,4.446-9.446,7.993-15.413,10.384c-26.899,10.777-56.787,16.788-88.258,16.788c-31.481,0-61.368-6.011-88.268-16.788
	c-5.958-2.391-11.232-5.939-15.404-10.384c-19.266-20.504-30.853-46.819-30.853-75.507c0-21.627,6.577-41.906,18.063-59.353v-0.007
	c10.239-15.56,24.385-28.875,41.246-38.914c10.721-6.379,22.536-11.436,35.144-14.894c0.036-0.007,0.063-0.016,0.1-0.024
	c0.155-0.04,0.31-0.088,0.465-0.12c1.329-0.37,2.669-0.706,4.008-1.027c2.496-0.601,5.019-1.14,7.57-1.613
	c0.811-0.153,1.64-0.296,2.459-0.433c0.009-0.007,0.019-0.007,0.027-0.007c1.375-0.233,2.761-0.449,4.153-0.642
	c6.932-0.971,14.046-1.477,21.289-1.477c3.908,0,7.78,0.144,11.605,0.442c0.501,0.032,1.002,0.072,1.494,0.113
	c2.587,0.224,5.155,0.506,7.698,0.851c1.658,0.233,3.316,0.49,4.956,0.763c0.237,0.04,0.482,0.088,0.719,0.129
	c0.629,0.113,1.258,0.224,1.876,0.345c1.621,0.305,3.234,0.634,4.828,0.995c0.774,0.169,1.539,0.345,2.304,0.53
	c1.667,0.402,3.325,0.827,4.964,1.284c0.046,0.016,0.1,0.024,0.146,0.04c12.807,3.572,24.786,8.779,35.617,15.352
	C368.733,227.602,382.515,240.691,392.554,255.938z"/>
<g>
	<path style="fill:#666363;" d="M323.713,313.944H188.285c-4.452,0-8.061-3.609-8.061-8.061c0-4.452,3.609-8.061,8.061-8.061
		h135.428c4.452,0,8.061,3.609,8.061,8.061C331.774,310.335,328.165,313.944,323.713,313.944z"/>
	<path style="fill:#666363;" d="M316.338,384.339H195.659c-4.452,0-8.061-3.609-8.061-8.061c0-4.452,3.609-8.061,8.061-8.061
		h120.679c4.452,0,8.061,3.609,8.061,8.061C324.399,380.73,320.79,384.339,316.338,384.339z"/>
	<path style="fill:#666363;" d="M331.758,349.141H180.239c-4.452,0-8.061-3.609-8.061-8.061c0-4.452,3.609-8.061,8.061-8.061
		h151.519c4.452,0,8.061,3.609,8.061,8.061C339.819,345.532,336.21,349.141,331.758,349.141z"/>
</g>
<g>
</g>
<g>
</g>
<g>
</g>
<g>
</g>
<g>
</g>
<g>
</g>
<g>
</g>
<g>
</g>
<g>
</g>
<g>
</g>
<g>
</g>
<g>
</g>
<g>
</g>
<g>
</g>
<g>
</g>
</svg>
