<?xml version="1.0" encoding="iso-8859-1"?>
<!-- Generator: Adobe Illustrator 19.0.0, SVG Export Plug-In . SVG Version: 6.00 Build 0)  -->
<svg version="1.1" id="Layer_1" xmlns="http://www.w3.org/2000/svg" xmlns:xlink="http://www.w3.org/1999/xlink" x="0px" y="0px"
	 viewBox="0 0 512 512" style="enable-background:new 0 0 512 512;" xml:space="preserve">
<path style="fill:#FEE572;" d="M491.621,306.177H10.814v-125.54c5.035,16.029,18.708,27.528,34.918,30.063
	c2.211,0.348,4.47,0.529,6.765,0.529h108.802c22.938,0,44.614-10.526,58.781-28.561l28.093-35.747l40.589,40.589
	c0.06,0.06,0.12,0.12,0.18,0.18c7.558,7.51,16.437,13.385,26.098,17.375c2.355,0.973,4.746,1.838,7.185,2.571
	c7.642,2.367,15.668,3.593,23.815,3.593c5.707,0,11.367,0.312,16.966,0.913c50.971,5.503,96.558,35.554,121.539,81.13
	L491.621,306.177z"/>
<path style="fill:#EAD475;" d="M484.544,293.273c-24.981-45.575-70.568-75.627-121.539-81.13
	c-5.599-0.601-11.259-0.913-16.966-0.913c-8.147,0-16.173-1.226-23.815-3.593c-2.439-0.733-4.83-1.598-7.185-2.571
	c-9.661-3.989-18.54-9.865-26.098-17.375c-0.06-0.06-0.12-0.12-0.18-0.18l-40.589-40.589l-16.392,20.857l19.732,19.732
	c0.06,0.06,0.12,0.12,0.18,0.18c7.558,7.51,16.437,13.385,26.098,17.375c2.355,0.973,4.746,1.838,7.185,2.571
	c7.642,2.367,15.668,3.593,23.815,3.593c5.707,0,11.367,0.312,16.966,0.913c50.97,5.503,96.558,35.554,121.539,81.13l7.077,12.905
	h37.249L484.544,293.273z"/>
<g>
	<path style="fill:#FD6568;" d="M273.894,210.891c-1.938,0-3.88-0.717-5.393-2.162c-3.119-2.979-3.233-7.922-0.255-11.042
		l14.866-15.57c2.977-3.12,7.922-3.235,11.042-0.255c3.119,2.979,3.233,7.922,0.255,11.042l-14.866,15.57
		C278.009,210.081,275.953,210.891,273.894,210.891z"/>
	<path style="fill:#FD6568;" d="M309.998,235.31c-1.396,0-2.808-0.375-4.084-1.16c-3.674-2.26-4.821-7.07-2.559-10.744
		l12.219-19.862c2.26-3.674,7.069-4.821,10.744-2.559c3.674,2.26,4.821,7.07,2.559,10.744l-12.219,19.862
		C315.183,233.99,312.622,235.31,309.998,235.31z"/>
	<path style="fill:#FD6568;" d="M354.745,239.698c-1.005,0-2.026-0.195-3.01-0.607c-3.98-1.664-5.856-6.239-4.192-10.218
		l8.257-19.743c1.663-3.98,6.24-5.856,10.218-4.192c3.98,1.664,5.856,6.239,4.192,10.218l-8.257,19.743
		C360.702,237.895,357.8,239.698,354.745,239.698z"/>
	<polygon style="fill:#FD6568;" points="161.298,211.23 190.941,260.061 151.398,306.177 104.44,306.177 143.984,260.061 
		114.341,211.23 	"/>
</g>
<path style="fill:#C0E8F6;" d="M512,323.035v28.808c0,7.31-5.926,13.235-13.235,13.235H13.235C5.926,365.078,0,359.152,0,351.843
	v-47.468h493.34C503.646,304.375,512,312.73,512,323.035z"/>
<path style="fill:#EAD475;" d="M45.732,210.701v95.477H10.814v-125.54C15.849,196.667,29.523,208.166,45.732,210.701z"/>
<path style="fill:#9CCBD8;" d="M493.34,304.375h-8.976v38.588c0,5.564-4.511,10.075-10.075,10.075H38.192
	c-5.564,0-10.075-4.511-10.075-10.075v-38.588H0v38.45v9.018c0,7.31,5.926,13.235,13.235,13.235h14.881h456.247h14.401
	c7.31,0,13.235-5.926,13.235-13.235v-9.018v-19.79C512,312.73,503.646,304.375,493.34,304.375z"/>
<g>
</g>
<g>
</g>
<g>
</g>
<g>
</g>
<g>
</g>
<g>
</g>
<g>
</g>
<g>
</g>
<g>
</g>
<g>
</g>
<g>
</g>
<g>
</g>
<g>
</g>
<g>
</g>
<g>
</g>
</svg>
