<?xml version="1.0" encoding="iso-8859-1"?>
<!-- Generator: Adobe Illustrator 19.0.0, SVG Export Plug-In . SVG Version: 6.00 Build 0)  -->
<svg version="1.1" id="Layer_1" xmlns="http://www.w3.org/2000/svg" xmlns:xlink="http://www.w3.org/1999/xlink" x="0px" y="0px"
	 viewBox="0 0 512 512" style="enable-background:new 0 0 512 512;" xml:space="preserve">
<g>
	<path style="fill:#FD6568;" d="M512,25.284L383.264,291.653l-10.146,21.006c-9.656-22.339-53.9-26.594-73.796-40.153l18.762-43.368
		L406.28,25.284L512,25.284L512,25.284z"/>
	<path style="fill:#FD6568;" d="M242.312,236.42c-21.357,2.279-54.099,54.391-70.979,65.894l-21.684-40.305L22.292,25.284h117.982
		l92.628,191.673L242.312,236.42z"/>
</g>
<path style="fill:#E0555C;" d="M336.973,240.009c-5.985-4.08-12.297-7.715-18.89-10.871l-18.762,43.368
	c19.896,13.56,64.14,17.815,73.796,40.153l10.146-21.006C372.252,270.904,356.296,253.183,336.973,240.009z M175.027,240.009
	c-9.293,6.324-17.815,13.723-25.378,22l21.684,40.305c16.88-11.502,49.622-63.614,70.979-65.894l-9.41-19.463
	C211.697,220.37,192.058,228.401,175.027,240.009z"/>
<g>
	<path style="fill:#C0E8F6;" d="M184.297,257.742c-19.896,13.548-35.758,32.579-45.414,54.917l-10.146-21.006L0,25.284h71.961
		l103.592,214.374L184.297,257.742z"/>
	<path style="fill:#C0E8F6;" d="M440.039,25.284L336.447,239.658l-8.744,18.084c-16.88-11.491-36.658-19.042-58.015-21.322
		l9.41-19.463l92.628-191.673H440.039z"/>
</g>
<path style="fill:#9ED6E5;" d="M279.098,216.957l-9.41,19.463c21.357,2.279,41.135,9.831,58.015,21.322l8.744-18.084
	C319.544,228.249,300.081,220.335,279.098,216.957z M175.027,240.009c-19.323,13.162-35.279,30.895-46.29,51.644l10.146,21.006
	c9.656-22.339,25.518-41.369,45.414-54.917l-8.744-18.084C175.378,239.775,175.202,239.892,175.027,240.009z"/>
<path style="fill:#FEE572;" d="M269.688,232.329c21.357,2.279,41.135,9.831,58.015,21.322c19.896,13.56,35.758,32.579,45.414,54.917
	c6.71,15.512,10.427,32.614,10.427,50.592c0,70.441-57.103,127.556-127.544,127.556c-70.453,0-127.556-57.115-127.556-127.556
	c0-17.978,3.717-35.08,10.439-50.592c9.656-22.339,25.518-41.369,45.414-54.917c16.88-11.502,36.658-19.042,58.015-21.322
	c4.5-0.479,9.059-0.725,13.688-0.725C260.629,231.604,265.188,231.849,269.688,232.329z"/>
<path style="fill:#E5CB5E;" d="M256.001,262.764c53.227,0,96.383,43.156,96.383,96.396s-43.156,96.396-96.383,96.396
	c-53.24,0-96.396-43.156-96.396-96.396S202.76,262.764,256.001,262.764z"/>
<path style="fill:#FEE572;" d="M256,273.23c47.448,0,85.918,38.47,85.918,85.93s-38.47,85.93-85.918,85.93
	c-47.459,0-85.93-38.47-85.93-85.93S208.541,273.23,256,273.23z"/>
<path style="fill:#E5CB5E;" d="M232.613,419.317V298.994c0-3.572,2.895-6.468,6.468-6.468h33.821c3.572,0,6.468,2.896,6.468,6.468
	v120.324c0,3.572-2.895,6.468-6.468,6.468h-33.821C235.509,425.786,232.613,422.89,232.613,419.317z"/>
<rect x="241.961" y="301.881" style="fill:#FEE572;" width="28.055" height="114.557"/>
<g>
</g>
<g>
</g>
<g>
</g>
<g>
</g>
<g>
</g>
<g>
</g>
<g>
</g>
<g>
</g>
<g>
</g>
<g>
</g>
<g>
</g>
<g>
</g>
<g>
</g>
<g>
</g>
<g>
</g>
</svg>
