<?xml version="1.0" encoding="iso-8859-1"?>
<!-- Generator: Adobe Illustrator 19.0.0, SVG Export Plug-In . SVG Version: 6.00 Build 0)  -->
<svg version="1.1" id="Layer_1" xmlns="http://www.w3.org/2000/svg" xmlns:xlink="http://www.w3.org/1999/xlink" x="0px" y="0px"
	 viewBox="0 0 512 512" style="enable-background:new 0 0 512 512;" xml:space="preserve">
<path style="fill:#C79175;" d="M433.269,18.185h-27.981h-17.087H78.731c-12.572,0-22.775,10.203-22.775,22.775v448.265
	c0,12.584,10.203,22.775,22.775,22.775h354.538c12.584,0,22.775-10.191,22.775-22.775V40.96
	C456.044,28.388,445.853,18.185,433.269,18.185z"/>
<polygon style="fill:#B57F68;" points="418.279,79.724 418.279,444.848 93.733,444.848 93.733,79.724 123.811,79.724 
	388.201,79.724 "/>
<polygon style="fill:#F2F2F2;" points="418.279,58.75 418.279,423.874 93.733,423.874 93.733,58.75 123.811,58.75 388.201,58.75 "/>
<g>
	<rect x="135.365" y="143.064" style="fill:#808080;" width="129.579" height="16.039"/>
	<rect x="135.365" y="353.465" style="fill:#808080;" width="129.579" height="16.039"/>
	<rect x="135.365" y="213.189" style="fill:#808080;" width="129.579" height="16.039"/>
	<rect x="135.365" y="283.327" style="fill:#808080;" width="129.579" height="16.039"/>
</g>
<g>
	<path style="fill:#FD6568;" d="M326.721,154.742c0.514,1.23,1.022,2.467,1.598,3.637c0.553,1.192,1.137,2.353,1.756,3.479
		c2.455,4.524,5.317,8.641,8.458,12.478l5.409,6.607l7.955-6.607c6.037-5.014,11.426-10.676,16.005-17.145
		c2.277-3.247,4.369-6.682,6.161-10.414c0.897-1.865,1.737-3.788,2.471-5.816c0.722-2.042,1.404-4.122,1.83-6.459
		c-2.337,0.426-4.417,1.108-6.457,1.83c-2.028,0.734-3.95,1.575-5.816,2.471c-3.732,1.793-7.167,3.884-10.414,6.161
		c-4.298,3.042-8.233,6.45-11.864,10.159c-1.427-0.908-2.881-1.79-4.395-2.612c-1.126-0.618-2.287-1.203-3.478-1.756
		c-1.17-0.576-2.406-1.083-3.637-1.598c-1.253-0.491-2.529-0.96-3.857-1.378c-1.335-0.411-2.694-0.796-4.17-1.065
		c0.27,1.476,0.655,2.835,1.065,4.169C325.762,152.212,326.229,153.489,326.721,154.742z"/>
	<path style="fill:#FD6568;" d="M366.092,279.072c-3.732,1.793-7.167,3.884-10.414,6.161c-4.298,3.042-8.233,6.45-11.864,10.159
		c-1.427-0.908-2.881-1.79-4.395-2.612c-1.126-0.618-2.287-1.203-3.478-1.756c-1.17-0.576-2.406-1.083-3.637-1.598
		c-1.253-0.491-2.529-0.96-3.857-1.378c-1.335-0.411-2.694-0.796-4.17-1.065c0.27,1.476,0.655,2.835,1.065,4.17
		c0.418,1.326,0.886,2.603,1.378,3.857c0.514,1.231,1.022,2.467,1.598,3.637c0.553,1.192,1.137,2.352,1.756,3.478
		c2.455,4.524,5.317,8.641,8.458,12.478l5.409,6.607l7.955-6.607c6.037-5.013,11.426-10.676,16.005-17.144
		c2.277-3.248,4.369-6.682,6.161-10.414c0.897-1.867,1.737-3.788,2.471-5.816c0.722-2.041,1.404-4.122,1.83-6.457
		c-2.337,0.426-4.417,1.108-6.457,1.83C369.88,277.335,367.959,278.176,366.092,279.072z"/>
</g>
<path style="fill:#CCCCCC;" d="M388.201,73.555v11.271c0,8.458-6.857,15.316-15.316,15.316H139.127
	c-8.458,0-15.316-6.857-15.316-15.316V73.555V32.99V14.805h264.389V32.99V73.555z"/>
<path style="fill:#FEE572;" d="M388.201,58.75v10.97c0,8.625-6.992,15.617-15.617,15.617H139.428
	c-8.625,0-15.617-6.992-15.617-15.617V58.75V18.185v-2.569C123.811,6.992,130.803,0,139.428,0h233.156
	c8.625,0,15.617,6.992,15.617,15.617v2.569V58.75z"/>
<g>
</g>
<g>
</g>
<g>
</g>
<g>
</g>
<g>
</g>
<g>
</g>
<g>
</g>
<g>
</g>
<g>
</g>
<g>
</g>
<g>
</g>
<g>
</g>
<g>
</g>
<g>
</g>
<g>
</g>
</svg>
