<?xml version="1.0" encoding="iso-8859-1"?>
<!-- Generator: Adobe Illustrator 19.0.0, SVG Export Plug-In . SVG Version: 6.00 Build 0)  -->
<svg version="1.1" id="Layer_1" xmlns="http://www.w3.org/2000/svg" xmlns:xlink="http://www.w3.org/1999/xlink" x="0px" y="0px"
	 viewBox="0 0 512 512" style="enable-background:new 0 0 512 512;" xml:space="preserve">
<g>
	<path style="fill:#E0555C;" d="M62.705,341.133v120.203c0,12.553-10.18,22.744-22.744,22.744
		c-12.553,0-22.732-10.192-22.732-22.744V341.133H62.705z"/>
	<path style="fill:#E0555C;" d="M494.788,341.133v120.203c0,12.553-10.192,22.744-22.744,22.744
		c-12.565,0-22.744-10.192-22.744-22.744V341.133H494.788z"/>
</g>
<g>
	<path style="fill:#FD6568;" d="M481.283,366.43v86.1c0,8.992-4.141,16.291-9.24,16.291c-5.104,0-9.24-7.3-9.24-16.291v-86.1
		H481.283z"/>
	<path style="fill:#FD6568;" d="M49.206,366.43v86.1c0,8.992-4.14,16.291-9.24,16.291c-5.104,0-9.24-7.3-9.24-16.291v-86.1H49.206z"
		/>
</g>
<path style="fill:#FEC274;" d="M256.001,27.92c-123.682,0-224.307,100.623-224.307,224.307v85.653c0,4.325,3.506,7.83,7.83,7.83
	s7.83-3.506,7.83-7.83v-85.653c0-82.607,48.257-154.155,118.061-187.936c-25.053,23.921-40.697,57.617-40.697,94.91
	c0,72.388,58.892,131.281,131.281,131.281s131.28-58.892,131.28-131.281c0-37.273-15.615-70.965-40.645-94.884
	c69.776,33.791,118.01,105.323,118.01,187.911v85.653c0,4.325,3.506,7.83,7.83,7.83s7.83-3.506,7.83-7.83v-85.653
	C480.307,128.543,379.683,27.92,256.001,27.92z M371.62,159.2c0,63.753-51.868,115.62-115.62,115.62s-115.62-51.868-115.62-115.62
	s51.867-115.62,115.62-115.62S371.62,95.447,371.62,159.2z"/>
<g>
	<path style="fill:#E0555C;" d="M72.094,348.957H7.83c-4.325,0-7.83-3.506-7.83-7.83s3.506-7.83,7.83-7.83h64.264
		c4.325,0,7.83,3.506,7.83,7.83S76.419,348.957,72.094,348.957z"/>
	<path style="fill:#E0555C;" d="M504.17,348.957h-64.262c-4.325,0-7.83-3.506-7.83-7.83s3.506-7.83,7.83-7.83h64.262
		c4.325,0,7.83,3.506,7.83,7.83S508.494,348.957,504.17,348.957z"/>
</g>
<g>
</g>
<g>
</g>
<g>
</g>
<g>
</g>
<g>
</g>
<g>
</g>
<g>
</g>
<g>
</g>
<g>
</g>
<g>
</g>
<g>
</g>
<g>
</g>
<g>
</g>
<g>
</g>
<g>
</g>
</svg>
