<?xml version="1.0" encoding="iso-8859-1"?>
<!-- Generator: Adobe Illustrator 19.0.0, SVG Export Plug-In . SVG Version: 6.00 Build 0)  -->
<svg version="1.1" id="Layer_1" xmlns="http://www.w3.org/2000/svg" xmlns:xlink="http://www.w3.org/1999/xlink" x="0px" y="0px"
	 viewBox="0 0 512 512" style="enable-background:new 0 0 512 512;" xml:space="preserve">
<g>
	<path style="fill:#CCCCCC;" d="M11.793,259.361c0,13.55,5.271,26.286,14.847,35.85c9.587,9.587,22.312,14.859,35.861,14.859H90.98
		v11.793H62.501c-16.698,0-32.394-6.498-44.199-18.302C6.498,291.767,0,276.071,0,259.361c0-34.458,28.031-62.489,62.501-62.489
		H90.98v11.793H62.501C34.541,208.664,11.793,231.412,11.793,259.361z"/>
	<path style="fill:#CCCCCC;" d="M372.623,356.65v5.896H360.83v-5.896c0-19.187-15.602-34.788-34.788-34.788h-50.52v-11.793h50.52
		c11.875,0,22.724,4.458,30.956,11.793C366.573,330.411,372.623,342.841,372.623,356.65z"/>
	<path style="fill:#CCCCCC;" d="M495.786,362.546h-11.793v-5.896c0-19.182-15.606-34.788-34.788-34.788H320.148v-11.793h129.056
		c25.684,0,46.581,20.897,46.581,46.581v5.896H495.786z"/>
	<path style="fill:#CCCCCC;" d="M410.065,140.397c0.165,18.184-6.781,35.307-19.588,48.232
		c-12.795,12.925-29.859,20.036-48.043,20.036h-66.911v-11.793h66.911c15.012,0,29.104-5.873,39.67-16.545
		c10.566-10.661,16.309-24.812,16.168-39.824c-0.295-30.496-25.342-55.307-55.838-55.307h-87.065
		c-12.394,0-22.477,10.094-22.477,22.489v46.711H221.1v-46.711c0-18.904,15.378-34.281,34.269-34.281h87.065
		C379.368,73.403,409.711,103.451,410.065,140.397z"/>
</g>
<g>
	<rect x="221.1" y="131.889" style="fill:#B3B3B3;" width="11.793" height="22.5"/>
	<path style="fill:#B3B3B3;" d="M73.81,321.862h17.17v-11.793H73.81V321.862z M73.81,208.664h17.17v-11.793H73.81V208.664z"/>
	<path style="fill:#B3B3B3;" d="M275.523,321.862h22.406v-11.793h-22.406V321.862z M275.523,196.872v11.793h22.406v-11.793H275.523z
		"/>
</g>
<g>
	<path style="fill:#FD6568;" d="M489.889,356.65c12.217,0,22.111,9.906,22.111,22.111c0,12.217-9.894,22.111-22.111,22.111
		c-12.205,0-22.099-9.894-22.099-22.111C467.789,366.556,477.684,356.65,489.889,356.65z"/>
	<path style="fill:#FD6568;" d="M366.739,356.65c12.205,0,22.099,9.906,22.099,22.111c0,12.217-9.894,22.111-22.099,22.111
		c-12.217,0-22.111-9.894-22.111-22.111C344.627,366.556,354.521,356.65,366.739,356.65z"/>
</g>
<path style="fill:#F2D766;" d="M281.419,315.965v100.013c0,12.488-10.118,22.618-22.606,22.618H107.69
	c-12.488,0-22.606-10.13-22.606-22.618V315.965V202.768v-31.651c0-12.488,10.118-22.606,22.606-22.606h119.306h31.816
	c12.488,0,22.606,10.118,22.606,22.606v31.651V315.965L281.419,315.965z"/>
<path style="fill:#FEE572;" d="M107.69,423.266c-4.012,0-7.276-3.269-7.276-7.288V171.117c0-4.012,3.264-7.276,7.276-7.276h151.122
	c4.012,0,7.276,3.264,7.276,7.276v244.862c0,4.019-3.264,7.288-7.276,7.288H107.69z"/>
<rect x="110.119" y="177.691" style="fill:#9CCBD8;" width="146.264" height="102.584"/>
<rect x="123.091" y="190.675" style="fill:#C0E8F6;" width="120.32" height="76.628"/>
<path style="fill:#E0AA68;" d="M183.245,307.699c26.38,0,47.76,21.38,47.76,47.76c0,26.38-21.38,47.76-47.76,47.76
	c-26.368,0-47.748-21.38-47.748-47.76C135.497,329.079,156.877,307.699,183.245,307.699z"/>
<circle style="fill:#FD6568;" cx="183.245" cy="355.465" r="17.096"/>
<polygon style="fill:#FFFFFF;" points="243.411,190.669 243.411,267.297 176.748,267.297 215.604,190.669 "/>
<g>
</g>
<g>
</g>
<g>
</g>
<g>
</g>
<g>
</g>
<g>
</g>
<g>
</g>
<g>
</g>
<g>
</g>
<g>
</g>
<g>
</g>
<g>
</g>
<g>
</g>
<g>
</g>
<g>
</g>
</svg>
