<?xml version="1.0" encoding="iso-8859-1"?>
<!-- Generator: Adobe Illustrator 19.0.0, SVG Export Plug-In . SVG Version: 6.00 Build 0)  -->
<svg version="1.1" id="Layer_1" xmlns="http://www.w3.org/2000/svg" xmlns:xlink="http://www.w3.org/1999/xlink" x="0px" y="0px"
	 viewBox="0 0 512 512" style="enable-background:new 0 0 512 512;" xml:space="preserve">
<path style="fill:#EAD26C;" d="M407.923,480.776v11.378c0,10.959-8.887,19.845-19.845,19.845H123.922
	c-10.959,0-19.845-8.887-19.845-19.845v-11.378H407.923z"/>
<path style="fill:#E0555C;" d="M453.004,17.633v113.033H58.996V17.633C58.996,7.895,66.891,0,76.629,0h358.742
	C445.109,0,453.004,7.895,453.004,17.633z"/>
<path style="fill:#FD6568;" d="M404.529,17.633v113.033H107.471V17.633C107.471,7.895,113.424,0,120.766,0h270.469
	C398.576,0,404.529,7.895,404.529,17.633z"/>
<path style="fill:#EAD26C;" d="M432.523,130.667v332.616c0,10.361-8.403,18.765-18.765,18.765h-5.835H104.077h-5.835
	c-10.374,0-18.777-8.403-18.777-18.765V130.667H432.523z"/>
<path style="fill:#FEE572;" d="M394.574,141.282v310.664c0,9.677-6.597,17.526-14.731,17.526h-4.581H136.735h-4.581
	c-8.144,0-14.741-7.849-14.741-17.526V141.282H394.574z"/>
<g>
	<path style="fill:#E0555C;" d="M169.664,0v30.283c0,3.852-3.127,6.992-6.992,6.992c-3.852,0-6.992-3.14-6.992-6.992V0H169.664z"/>
	<path style="fill:#E0555C;" d="M169.664,63.452v67.215H155.68V63.452c0-3.865,3.14-6.992,6.992-6.992
		C166.537,56.459,169.664,59.587,169.664,63.452z"/>
	<rect x="217.905" style="fill:#E0555C;" width="13.985" height="130.667"/>
	<rect x="280.098" style="fill:#E0555C;" width="13.985" height="130.667"/>
	<rect x="342.304" style="fill:#E0555C;" width="13.985" height="130.667"/>
</g>
<g>
	<rect x="158.102" y="196.826" style="fill:#FD6568;" width="195.784" height="16.527"/>
	<rect x="158.102" y="247.463" style="fill:#FD6568;" width="195.784" height="16.527"/>
	<rect x="158.102" y="298.087" style="fill:#FD6568;" width="195.784" height="16.527"/>
</g>
<g>
</g>
<g>
</g>
<g>
</g>
<g>
</g>
<g>
</g>
<g>
</g>
<g>
</g>
<g>
</g>
<g>
</g>
<g>
</g>
<g>
</g>
<g>
</g>
<g>
</g>
<g>
</g>
<g>
</g>
</svg>
