<?xml version="1.0" encoding="iso-8859-1"?>
<!-- Generator: Adobe Illustrator 19.0.0, SVG Export Plug-In . SVG Version: 6.00 Build 0)  -->
<svg version="1.1" id="Layer_1" xmlns="http://www.w3.org/2000/svg" xmlns:xlink="http://www.w3.org/1999/xlink" x="0px" y="0px"
	 viewBox="0 0 512 512" style="enable-background:new 0 0 512 512;" xml:space="preserve">
<path style="fill:#E0555C;" d="M469.815,10.58c24.57,0,43.937,20.909,42.059,45.412l-31.048,406.453
	c-1.676,21.995-20.01,38.974-42.072,38.974H73.246c-22.049,0-40.382-16.979-42.059-38.974L0.126,55.992
	C-1.752,31.489,17.628,10.58,42.198,10.58H469.815z"/>
<path style="fill:#FD6568;" d="M73.246,479.961c-10.768,0-19.844-8.41-20.662-19.146L21.521,54.357
	c-0.447-5.825,1.493-11.389,5.46-15.673c3.97-4.285,9.373-6.645,15.217-6.645h427.617c5.838,0,11.238,2.358,15.203,6.639
	c3.967,4.282,5.906,9.85,5.46,15.674L459.429,460.81c-0.818,10.74-9.9,19.15-20.677,19.15H73.246z"/>
<path style="fill:#ACD9E5;" d="M359.705,93.357L256.006,197.056l-13.666-13.666l-90.046-90.032
	C209.562,36.089,302.424,36.089,359.705,93.357z"/>
<path style="fill:#C0E8F6;" d="M173.731,93.93c23.285-18.646,51.994-28.771,82.263-28.771s58.983,10.124,82.272,28.772l-82.26,82.26
	L173.731,93.93z"/>
<g>
	<path style="fill:#FEE572;" d="M213.183,236.861v149.097c0,29.439-23.859,53.298-53.298,53.298H139.03
		c-29.439,0-53.298-23.859-53.298-53.298V236.861c0-21.043,17.046-38.089,38.089-38.089h51.286
		C196.137,198.772,213.183,215.819,213.183,236.861z"/>
	<path style="fill:#FEE572;" d="M426.281,236.861v149.097c0,29.439-23.873,53.298-53.311,53.298h-20.842
		c-29.439,0-53.311-23.859-53.311-53.298V236.861c0-21.043,17.046-38.089,38.089-38.089h51.286
		C409.221,198.772,426.281,215.819,426.281,236.861z"/>
</g>
<g>
	<path style="fill:#F2D766;" d="M174.574,260.407h-50.239c-4.815,0-8.718-3.903-8.718-8.718c0-4.815,3.903-8.718,8.718-8.718h50.239
		c4.815,0,8.718,3.903,8.718,8.718C183.291,256.504,179.387,260.407,174.574,260.407z"/>
	<path style="fill:#F2D766;" d="M174.574,353.402h-50.239c-4.815,0-8.718-3.903-8.718-8.718c0-4.815,3.903-8.718,8.718-8.718h50.239
		c4.815,0,8.718,3.903,8.718,8.718C183.291,349.499,179.387,353.402,174.574,353.402z"/>
	<path style="fill:#F2D766;" d="M174.574,306.905h-50.239c-4.815,0-8.718-3.903-8.718-8.718c0-4.815,3.903-8.718,8.718-8.718h50.239
		c4.815,0,8.718,3.903,8.718,8.718C183.291,303.002,179.387,306.905,174.574,306.905z"/>
	<path style="fill:#F2D766;" d="M387.66,260.407h-50.239c-4.815,0-8.718-3.903-8.718-8.718c0-4.815,3.903-8.718,8.718-8.718h50.239
		c4.815,0,8.718,3.903,8.718,8.718C396.378,256.504,392.475,260.407,387.66,260.407z"/>
	<path style="fill:#F2D766;" d="M387.66,353.402h-50.239c-4.815,0-8.718-3.903-8.718-8.718c0-4.815,3.903-8.718,8.718-8.718h50.239
		c4.815,0,8.718,3.903,8.718,8.718C396.378,349.499,392.475,353.402,387.66,353.402z"/>
	<path style="fill:#F2D766;" d="M387.66,306.905h-50.239c-4.815,0-8.718-3.903-8.718-8.718c0-4.815,3.903-8.718,8.718-8.718h50.239
		c4.815,0,8.718,3.903,8.718,8.718C396.378,303.002,392.475,306.905,387.66,306.905z"/>
</g>
<polygon style="fill:#7D7878;" points="269.646,183.416 256.006,197.056 242.34,183.389 255.993,78.939 "/>
<g>
</g>
<g>
</g>
<g>
</g>
<g>
</g>
<g>
</g>
<g>
</g>
<g>
</g>
<g>
</g>
<g>
</g>
<g>
</g>
<g>
</g>
<g>
</g>
<g>
</g>
<g>
</g>
<g>
</g>
</svg>
