<?xml version="1.0" encoding="iso-8859-1"?>
<!-- Generator: Adobe Illustrator 19.0.0, SVG Export Plug-In . SVG Version: 6.00 Build 0)  -->
<svg version="1.1" id="Layer_1" xmlns="http://www.w3.org/2000/svg" xmlns:xlink="http://www.w3.org/1999/xlink" x="0px" y="0px"
	 viewBox="0 0 512 512" style="enable-background:new 0 0 512 512;" xml:space="preserve">
<g>
	<path style="fill:#EFBF8B;" d="M331.771,384.924v98.304c0,7.947-3.222,15.136-8.421,20.348c-5.33,5.306-12.708,8.551-20.857,8.421
		c-15.788-0.272-28.247-13.609-28.247-29.408v-97.664l33.083-20.427l24.43,20.427H331.771z"/>
	<path style="fill:#EFBF8B;" d="M237.968,384.924v98.304c0,16.238-13.443,29.337-29.811,28.745
		c-15.586-0.545-27.715-13.834-27.715-29.432v-97.617l26.609-25.953l30.904,25.953H237.968z"/>
</g>
<g>
	<path style="fill:#E5AE7B;" d="M197.024,482.541v-97.617l18.937-18.472l-8.91-7.483l-26.608,25.955v97.617
		c0,15.598,12.128,28.887,27.715,29.432c3.271,0.118,6.423-0.319,9.377-1.209C205.57,507.095,197.024,495.634,197.024,482.541z"/>
	<path style="fill:#E5AE7B;" d="M290.827,482.541v-97.617l18.937-18.472l-8.91-7.483l-26.608,25.955v97.617
		c0,15.598,12.128,28.887,27.715,29.432c3.271,0.118,6.423-0.319,9.376-1.209C299.373,507.095,290.827,495.634,290.827,482.541z"/>
</g>
<path style="fill:#FD6568;" d="M331.771,311.492v73.432h-57.525v-24.339c0-5.01-2.037-9.534-5.318-12.815
	c-3.565-3.553-8.599-5.65-14.106-5.271c-9.582,0.651-16.854,8.966-16.854,18.571v23.853h-57.525v-73.432l16.581-4.228l51.082-13.04
	l83.653,17.268H331.771z"/>
<polygon style="fill:#E0555C;" points="197.024,307.264 197.024,384.924 180.442,384.924 180.442,311.492 "/>
<path style="fill:#E5AE7B;" d="M285.047,150.263l27.809,48.421c0,16.712-41.347,30.249-58.058,30.249
	c-8.35,0-15.918-3.387-21.39-8.859c-5.472-5.472-20.04-13.028-20.04-21.39l11.181-48.421h0.012h2.7l15.829-15.817
	c8.551,3.257-1.137-4.456,8.551-4.456c9.7,0,6.336,7.725,14.9,4.467L285.047,150.263z"/>
<path style="fill:#EFBF8B;" d="M152.799,150.263l10.035,27.102l-10.035,30.423H71.088c-15.883,0-28.757-12.874-28.757-28.757v-0.012
	c0-15.883,12.874-28.757,28.757-28.757h40.98C112.068,150.263,152.799,150.263,152.799,150.263z"/>
<path style="fill:#E5AE7B;" d="M63.453,179.031v-0.012c0-15.883,12.874-28.757,28.757-28.757H71.088
	c-15.883,0-28.757,12.874-28.757,28.757v0.012c0,15.883,12.874,28.757,28.757,28.757H92.21
	C76.327,207.788,63.453,194.914,63.453,179.031z"/>
<g>
	<rect x="399.942" y="207.859" style="fill:#515260;" width="74.213" height="46.676"/>
	<polygon style="fill:#515260;" points="474.157,103.598 474.157,150.263 440.912,150.263 399.944,150.263 399.944,103.598 	"/>
</g>
<path style="fill:#EFBF8B;" d="M469.68,179.019v0.012c0,15.883-12.874,28.757-28.757,28.757h-81.722l-22.657-25.686l22.657-31.84
	h40.743h40.968C456.806,150.263,469.68,163.137,469.68,179.019z"/>
<path style="fill:#FEE572;" d="M359.201,150.263v57.525H347.18c-8.516,0-15.409,6.905-15.409,15.421v88.284H180.442v-88.284
	c0-8.516-6.905-15.421-15.421-15.421h-12.223v-57.525h71.75v20.833c0,8.362,3.387,15.918,8.859,21.39
	c5.472,5.472,13.04,8.859,21.39,8.859c16.712,0,30.249-13.537,30.249-30.249v-20.833
	C285.047,150.263,359.201,150.263,359.201,150.263z"/>
<path style="fill:#E5AE7B;" d="M332.446,77.648c0,33.186-20.81,61.505-50.099,72.614c-4.453,1.694-9.108,2.985-13.917,3.837
	c-4.43,0.782-8.978,1.196-13.632,1.196c-9.688,0-18.974-1.777-27.525-5.034h-0.012c-29.29-11.109-50.111-39.428-50.111-72.614
	c0-2.274,0.095-4.524,0.296-6.739c0.722,0.107,1.469,0.154,2.215,0.154l72.247-19.092l14.142,3.458l63.897,15.634
	c0.746,0,1.48-0.047,2.203-0.154C332.351,73.124,332.446,75.374,332.446,77.648z"/>
<path style="fill:#666666;" d="M321.514,37.9l-55.394,11.192l-14.213,2.878L188.082,37.9C201.631,15.207,226.432,0,254.798,0
	c4.643,0,9.203,0.403,13.62,1.208C290.981,5.188,310.18,18.926,321.514,37.9z"/>
<path style="fill:#EFBF8B;" d="M332.446,77.648c0,33.186-20.81,61.505-50.099,72.614c-4.453,1.694-9.108,2.985-13.917,3.837
	c-4.809-0.841-9.463-2.144-13.916-3.837h-0.012c-29.29-11.109-50.111-39.428-50.111-72.614c0-2.274,0.095-4.524,0.296-6.739
	c0.722,0.107,1.469,0.154,2.215,0.154l59.148-15.634l63.897,15.634c0.746,0,1.48-0.047,2.203-0.154
	C332.351,73.124,332.446,75.374,332.446,77.648z"/>
<path style="fill:#7D7878;" d="M321.514,37.9l-55.394,11.192L215.322,37.9c11.335-18.974,30.533-32.713,53.096-36.692
	C290.981,5.188,310.18,18.926,321.514,37.9z"/>
<g>
	<rect x="37.843" y="207.859" style="fill:#515260;" width="74.225" height="46.676"/>
	<polygon style="fill:#515260;" points="112.068,103.598 112.068,150.263 71.088,150.263 37.843,150.263 37.843,103.598 	"/>
</g>
<g>
	<rect x="57.977" y="207.859" style="fill:#666666;" width="33.956" height="46.676"/>
	<polygon style="fill:#666666;" points="91.934,103.598 91.934,150.263 73.186,150.263 57.977,150.263 57.977,103.598 	"/>
	<rect x="420.076" y="207.859" style="fill:#666666;" width="33.956" height="46.676"/>
	<polygon style="fill:#666666;" points="454.029,103.598 454.029,150.263 435.281,150.263 420.073,150.263 420.073,103.598 	"/>
</g>
<path style="fill:#E0555C;" d="M346.528,54.482c0,8.421-6.265,15.361-14.378,16.427c-0.722,0.107-1.457,0.154-2.203,0.154H179.661
	c-0.746,0-1.492-0.047-2.215-0.154c-3.683-0.486-7-2.191-9.511-4.702c-2.996-2.996-4.856-7.142-4.856-11.725
	c0-9.155,7.426-16.581,16.581-16.581h150.286c4.584,0,8.729,1.859,11.725,4.856C344.669,45.765,346.528,49.91,346.528,54.482z"/>
<path style="fill:#FD6568;" d="M346.528,54.482c0,8.421-6.265,15.361-14.378,16.427c-0.722,0.107-1.457,0.154-2.203,0.154H208.725
	c-0.746,0-1.492-0.047-2.215-0.154c-3.683-0.486-7-2.191-9.511-4.702c-2.996-2.996-4.856-7.142-4.856-11.725
	c0-9.155,7.426-16.581,16.581-16.581h121.221c4.584,0,8.729,1.859,11.725,4.856C344.669,45.765,346.528,49.91,346.528,54.482z"/>
<path style="fill:#EAD26C;" d="M197.024,229.853v81.639h-16.581v-88.284c0-8.516-6.905-15.421-15.421-15.421v-1.161h8.776
	C186.625,206.627,197.024,217.026,197.024,229.853z"/>
<path style="fill:#E0555C;" d="M261.183,342.464c16.372,0,29.644,13.272,29.644,29.644v12.816l-0.036,0.012h-16.558v-24.339
	c0-5.01-2.037-9.534-5.318-12.815c-3.281-3.281-7.817-5.318-12.827-5.318L261.183,342.464L261.183,342.464z"/>
<g>
</g>
<g>
</g>
<g>
</g>
<g>
</g>
<g>
</g>
<g>
</g>
<g>
</g>
<g>
</g>
<g>
</g>
<g>
</g>
<g>
</g>
<g>
</g>
<g>
</g>
<g>
</g>
<g>
</g>
</svg>
