<?xml version="1.0" encoding="iso-8859-1"?>
<!-- Generator: Adobe Illustrator 19.0.0, SVG Export Plug-In . SVG Version: 6.00 Build 0)  -->
<svg version="1.1" id="Layer_1" xmlns="http://www.w3.org/2000/svg" xmlns:xlink="http://www.w3.org/1999/xlink" x="0px" y="0px"
	 viewBox="0 0 512 512" style="enable-background:new 0 0 512 512;" xml:space="preserve">
<g>
	<path style="fill:#9CCBD8;" d="M350.814,12.812v34.595h-73.148V12.812C277.666,5.729,283.408,0,290.478,0h47.524
		C345.072,0,350.814,5.729,350.814,12.812z"/>
	<rect x="165.215" y="153.341" style="fill:#9CCBD8;" width="178.848" height="84.971"/>
</g>
<path style="fill:#B5DFEA;" d="M383.326,232.322v255.941c0,13.112-10.638,23.736-23.749,23.736H152.41
	c-13.112,0-23.736-10.625-23.736-23.736V232.322c0-13.098,10.625-23.736,23.736-23.736h207.167
	C372.689,208.586,383.326,219.224,383.326,232.322z"/>
<path style="fill:#C0E8F6;" d="M357.559,232.322v255.941c0,13.112-8.485,23.736-18.943,23.736H173.374
	c-10.458,0-18.933-10.625-18.933-23.736V232.322c0-13.098,8.475-23.736,18.933-23.736h165.243
	C349.073,208.586,357.559,219.224,357.559,232.322z"/>
<g>
	<path style="fill:#9CCBD8;" d="M383.326,261.071v16.926H220.103c-4.674,0-8.463-3.789-8.463-8.463c0-4.674,3.789-8.463,8.463-8.463
		H383.326z"/>
	<path style="fill:#9CCBD8;" d="M189.961,269.535c0,4.674-3.789,8.463-8.463,8.463h-52.824v-16.926h52.824
		C186.172,261.071,189.961,264.86,189.961,269.535z"/>
	<path style="fill:#9CCBD8;" d="M383.326,300.731v16.926H220.103c-4.674,0-8.463-3.789-8.463-8.463s3.789-8.463,8.463-8.463H383.326
		z"/>
	<path style="fill:#9CCBD8;" d="M128.674,317.658h52.824c4.674,0,8.463-3.789,8.463-8.463s-3.789-8.463-8.463-8.463h-52.824
		C128.674,300.731,128.674,317.658,128.674,317.658z"/>
	<path style="fill:#9CCBD8;" d="M383.326,340.379v16.926H220.103c-4.674,0-8.463-3.789-8.463-8.463s3.789-8.463,8.463-8.463H383.326
		z"/>
	<path style="fill:#9CCBD8;" d="M189.961,348.842c0,4.674-3.789,8.463-8.463,8.463h-52.824v-16.926h52.824
		C186.172,340.379,189.961,344.167,189.961,348.842z"/>
	<path style="fill:#9CCBD8;" d="M383.326,380.026v16.926H220.103c-4.674,0-8.463-3.789-8.463-8.463s3.789-8.463,8.463-8.463H383.326
		z"/>
	<path style="fill:#9CCBD8;" d="M189.961,388.489c0,4.674-3.789,8.463-8.463,8.463h-52.824v-16.926h52.824
		C186.172,380.026,189.961,383.814,189.961,388.489z"/>
	<path style="fill:#9CCBD8;" d="M383.326,419.673v16.926H220.103c-4.674,0-8.463-3.789-8.463-8.463s3.789-8.463,8.463-8.463H383.326
		z"/>
	<path style="fill:#9CCBD8;" d="M189.961,428.136c0,4.674-3.789,8.463-8.463,8.463h-52.824v-16.926h52.824
		C186.172,419.673,189.961,423.461,189.961,428.136z"/>
	<path style="fill:#9CCBD8;" d="M383.326,459.333v16.926H220.103c-4.674,0-8.463-3.789-8.463-8.463s3.789-8.463,8.463-8.463H383.326
		z"/>
	<path style="fill:#9CCBD8;" d="M189.961,467.796c0,4.674-3.789,8.463-8.463,8.463h-52.824v-16.926h52.824
		C186.172,459.333,189.961,463.121,189.961,467.796z"/>
</g>
<path style="fill:#B5DFEA;" d="M383.326,65.935v93.395c0,13.112-10.638,23.736-23.749,23.736H344.07H165.222H152.41
	c-13.112,0-23.736-10.625-23.736-23.736V65.935c0-13.112,10.625-23.736,23.736-23.736h125.256h73.148h8.763
	C372.689,42.199,383.326,52.824,383.326,65.935z"/>
<path style="fill:#C0E8F6;" d="M354.955,65.935v93.395c0,13.112-8.268,23.736-18.458,23.736h-12.052H185.449h-9.957
	c-10.19,0-18.447-10.625-18.447-23.736V65.935c0-13.112,8.258-23.736,18.447-23.736h97.345h56.85h6.81
	C346.687,42.199,354.955,52.824,354.955,65.935z"/>
<g>
</g>
<g>
</g>
<g>
</g>
<g>
</g>
<g>
</g>
<g>
</g>
<g>
</g>
<g>
</g>
<g>
</g>
<g>
</g>
<g>
</g>
<g>
</g>
<g>
</g>
<g>
</g>
<g>
</g>
</svg>
