<?xml version="1.0" encoding="iso-8859-1"?>
<!-- Generator: Adobe Illustrator 19.0.0, SVG Export Plug-In . SVG Version: 6.00 Build 0)  -->
<svg version="1.1" id="Layer_1" xmlns="http://www.w3.org/2000/svg" xmlns:xlink="http://www.w3.org/1999/xlink" x="0px" y="0px"
	 viewBox="0 0 512 512" style="enable-background:new 0 0 512 512;" xml:space="preserve">
<path style="fill:#808080;" d="M256.007,44.474c116.817,0,211.526,94.709,211.526,211.526c0,116.83-94.71,211.526-211.526,211.526
	C139.176,467.526,44.48,372.83,44.48,256C44.48,139.183,139.176,44.474,256.007,44.474z M292.574,256
	c0-20.202-16.379-36.567-36.567-36.567c-20.202,0-36.581,16.365-36.581,36.567s16.379,36.581,36.581,36.581
	C276.194,292.581,292.574,276.202,292.574,256z"/>
<g>
	<path style="fill:#B3B3B3;" d="M256.007,0.007C397.386,0.007,512,114.62,512,256S397.386,511.993,256.007,511.993
		C114.614,511.993,0,397.38,0,256S114.614,0.007,256.007,0.007z M454.123,256c0-109.411-88.706-198.117-198.117-198.117
		C146.583,57.883,57.89,146.589,57.89,256c0,109.424,88.692,198.117,198.117,198.117C365.417,454.117,454.123,365.424,454.123,256z"
		/>
	<path style="fill:#B3B3B3;" d="M303.878,216.831c-2.231,0-4.461-0.85-6.164-2.553c-3.403-3.405-3.403-8.923,0.001-12.326
		l70.178-70.178c3.403-3.405,8.923-3.405,12.326,0c3.403,3.405,3.403,8.923-0.001,12.326l-70.178,70.178
		C308.34,215.98,306.108,216.831,303.878,216.831z"/>
	<path style="fill:#B3B3B3;" d="M137.94,382.77c-2.231,0-4.461-0.85-6.164-2.553c-3.403-3.405-3.403-8.923,0.001-12.326
		l70.178-70.178c3.402-3.405,8.922-3.403,12.326,0c3.403,3.405,3.403,8.923-0.001,12.326l-70.178,70.178
		C142.401,381.918,140.17,382.77,137.94,382.77z"/>
	<path style="fill:#B3B3B3;" d="M374.056,382.77c-2.23,0-4.461-0.852-6.163-2.553l-70.178-70.178
		c-3.405-3.405-3.405-8.923-0.001-12.326c3.405-3.403,8.924-3.403,12.326,0l70.178,70.178c3.405,3.405,3.405,8.923,0.001,12.326
		C378.517,381.918,376.286,382.77,374.056,382.77z"/>
	<path style="fill:#B3B3B3;" d="M208.118,216.831c-2.23,0-4.461-0.852-6.163-2.553l-70.178-70.176
		c-3.405-3.405-3.405-8.923-0.001-12.326c3.405-3.403,8.924-3.403,12.326,0l70.178,70.178c3.405,3.405,3.405,8.923,0.001,12.326
		C212.579,215.98,210.348,216.831,208.118,216.831z"/>
</g>
<path style="fill:#666666;" d="M256.007,464.174c-114.788,0-208.174-93.387-208.174-208.174S141.22,47.826,256.007,47.826
	S464.181,141.212,464.181,256S370.795,464.174,256.007,464.174z M256.007,65.259C150.831,65.259,65.266,150.826,65.266,256
	c0,105.176,85.567,190.741,190.741,190.741S446.748,361.175,446.748,256C446.748,150.826,361.183,65.259,256.007,65.259z
	 M256.007,299.21c-23.827,0-43.21-19.384-43.21-43.21c0-23.818,19.384-43.197,43.21-43.197c23.82,0,43.197,19.379,43.197,43.197
	C299.204,279.827,279.827,299.21,256.007,299.21z M256.007,230.236c-14.214,0-25.778,11.558-25.778,25.764
	c0,14.214,11.563,25.778,25.778,25.778c14.206,0,25.764-11.565,25.764-25.778C281.771,241.794,270.213,230.236,256.007,230.236z"/>
<g>
</g>
<g>
</g>
<g>
</g>
<g>
</g>
<g>
</g>
<g>
</g>
<g>
</g>
<g>
</g>
<g>
</g>
<g>
</g>
<g>
</g>
<g>
</g>
<g>
</g>
<g>
</g>
<g>
</g>
</svg>
