<?xml version="1.0" encoding="iso-8859-1"?>
<!-- Generator: Adobe Illustrator 19.0.0, SVG Export Plug-In . SVG Version: 6.00 Build 0)  -->
<svg version="1.1" id="Layer_1" xmlns="http://www.w3.org/2000/svg" xmlns:xlink="http://www.w3.org/1999/xlink" x="0px" y="0px"
	 viewBox="0 0 511.999 511.999" style="enable-background:new 0 0 511.999 511.999;" xml:space="preserve">
<g>
	<path style="fill:#FD6568;" d="M352.336,81.067l-27.318,27.318L84.77,348.633c-1.455,1.444-3.369,2.177-5.271,2.177
		c-1.902,0-3.816-0.733-5.271-2.177c-2.911-2.911-2.911-7.632,0-10.542L341.794,70.525c2.911-2.911,7.632-2.911,10.542,0
		C355.234,73.435,355.234,78.157,352.336,81.067z"/>
	<path style="fill:#FD6568;" d="M382.037,110.769L114.471,378.335c-1.455,1.455-3.357,2.189-5.26,2.189
		c-1.914,0-3.816-0.733-5.271-2.189c-2.911-2.911-2.911-7.62,0-10.531l240.248-240.248l27.318-27.318
		c2.911-2.911,7.62-2.911,10.531,0C384.949,103.148,384.949,107.858,382.037,110.769z"/>
	<path style="fill:#FD6568;" d="M411.75,140.482L384.443,167.8L144.184,408.048c-1.455,1.455-3.357,2.177-5.271,2.177
		c-1.902,0-3.804-0.722-5.26-2.177c-2.911-2.911-2.911-7.62,0-10.531l240.248-240.248l27.318-27.318
		c2.911-2.911,7.62-2.911,10.531,0C414.662,132.861,414.662,137.571,411.75,140.482z"/>
	<path style="fill:#FD6568;" d="M441.463,170.195l-27.307,27.307L173.897,437.761c-1.455,1.455-3.369,2.177-5.271,2.177
		s-3.816-0.722-5.271-2.177c-2.899-2.911-2.899-7.632,0-10.542l240.259-240.248l27.307-27.318c2.911-2.899,7.632-2.899,10.542,0
		C444.375,162.563,444.375,167.284,441.463,170.195z"/>
</g>
<path style="fill:#E0555C;" d="M441.463,159.652c-2.911-2.899-7.632-2.899-10.542,0l-27.307,27.318l5.271,5.271l5.271,5.26
	l27.307-27.307C444.375,167.284,444.375,162.563,441.463,159.652z M411.75,129.951c-2.911-2.911-7.62-2.911-10.531,0l-27.318,27.318
	l5.271,5.26l5.271,5.271l27.307-27.318C414.662,137.571,414.662,132.861,411.75,129.951z M382.037,100.238
	c-2.911-2.911-7.62-2.911-10.531,0l-27.318,27.318l5.271,5.271l5.26,5.26l27.318-27.318
	C384.949,107.858,384.949,103.148,382.037,100.238z M352.336,70.525c-2.911-2.911-7.632-2.911-10.542,0l-27.307,27.307l5.271,5.283
	l5.26,5.271l27.318-27.318C355.234,78.157,355.234,73.435,352.336,70.525z"/>
<path style="fill:#EAAC60;" d="M193.555,427.224c2.181,2.181,2.181,5.716,0,7.896l-62.628,62.628
	c-18.999,18.999-49.789,18.999-68.788,0l-47.898-47.887c-18.987-18.999-18.987-49.789,0-68.788l62.63-62.63
	c2.179-2.18,5.715-2.181,7.895-0.001l9.836,9.828l29.702,29.713l29.713,29.713l29.713,29.702L193.555,427.224z M109.98,463.601
	l21.394-21.394l-61.58-61.58L48.4,402.02c-7.425,7.425-7.425,19.469,0,26.894l34.686,34.686
	C90.511,471.026,102.553,471.026,109.98,463.601z"/>
<path style="fill:#FEC274;" d="M96.532,501.684c-10.236,0-19.861-3.988-27.102-11.229l-47.898-47.888
	c-14.933-14.942-14.933-39.259,0.002-54.205l59.285-59.285l6.493,6.488l29.697,29.708l29.715,29.714l36.194,36.183l-59.284,59.284
	C116.392,497.697,106.768,501.684,96.532,501.684z M41.107,394.729c-5.539,5.538-8.59,12.904-8.59,20.74s3.05,15.2,8.59,20.74
	l34.686,34.686c5.538,5.539,12.904,8.59,20.74,8.59s15.2-3.05,20.74-8.59l28.687-28.686l-76.165-76.165L41.107,394.729z"/>
<path style="fill:#EAAC60;" d="M497.75,62.137c18.999,18.999,18.999,49.801,0,68.788l-62.628,62.628
	c-2.181,2.181-5.716,2.181-7.896,0l-9.825-9.825l-29.713-29.713l-29.713-29.702L328.274,94.6l-9.825-9.825
	c-2.181-2.181-2.181-5.716,0-7.896l62.628-62.628c18.987-18.999,49.789-18.999,68.777,0L497.75,62.137z M463.591,109.978
	c7.425-7.425,7.425-19.469,0-26.894l-34.675-34.686c-7.437-7.425-19.48-7.425-26.906,0l-21.394,21.394l61.58,61.58L463.591,109.978z
	"/>
<path style="fill:#FEC274;" d="M394.979,146.722l-29.714-29.703l-36.182-36.193l59.284-59.284
	c7.237-7.241,16.86-11.227,27.096-11.227c10.236,0,19.858,3.987,27.094,11.226l47.902,47.889c7.24,7.24,11.227,16.866,11.227,27.105
	s-3.987,19.861-11.226,27.096l-59.286,59.286L394.979,146.722z M415.459,32.516c-7.836,0-15.203,3.05-20.741,8.59l-28.686,28.686
	l76.165,76.165l28.686-28.687c11.435-11.435,11.435-30.043,0-41.478L436.21,41.106C430.658,35.565,423.292,32.516,415.459,32.516z"
	/>
<g>
</g>
<g>
</g>
<g>
</g>
<g>
</g>
<g>
</g>
<g>
</g>
<g>
</g>
<g>
</g>
<g>
</g>
<g>
</g>
<g>
</g>
<g>
</g>
<g>
</g>
<g>
</g>
<g>
</g>
</svg>
