<?xml version="1.0" encoding="iso-8859-1"?>
<!-- Generator: Adobe Illustrator 19.0.0, SVG Export Plug-In . SVG Version: 6.00 Build 0)  -->
<svg version="1.1" id="Layer_1" xmlns="http://www.w3.org/2000/svg" xmlns:xlink="http://www.w3.org/1999/xlink" x="0px" y="0px"
	 viewBox="0 0 512 512" style="enable-background:new 0 0 512 512;" xml:space="preserve">
<g>
	<path style="fill:#C0E8F6;" d="M371.904,236.868c-1.165,0.799-2.506,1.192-3.833,1.192c-2.154,0-4.267-1.016-5.581-2.926
		l-89.37-129.531l-7.504-10.877c-2.127-3.075-1.354-7.301,1.72-9.414c3.088-2.127,7.301-1.354,9.427,1.722l4.565,6.623
		l92.309,133.784C375.765,230.515,374.993,234.741,371.904,236.868z"/>
	<path style="fill:#C0E8F6;" d="M246.37,94.727l-7.504,10.877l-89.37,129.531c-1.314,1.91-3.427,2.926-5.581,2.926
		c-1.327,0-2.668-0.379-3.847-1.192c-3.075-2.127-3.847-6.353-1.72-9.427l92.309-133.797l4.565-6.61
		c2.113-3.076,6.339-3.847,9.414-1.722C247.724,87.426,248.496,91.652,246.37,94.727z"/>
</g>
<g>
	<path style="fill:#9ED6E5;" d="M246.37,94.727l-7.504,10.877c-3.738-3.115-6.61-7.247-8.208-11.96l4.565-6.61
		c2.113-3.076,6.339-3.847,9.414-1.722C247.724,87.426,248.496,91.652,246.37,94.727z"/>
	<path style="fill:#9ED6E5;" d="M281.329,93.657c-1.585,4.714-4.456,8.831-8.208,11.947l-7.504-10.877
		c-2.127-3.075-1.355-7.301,1.72-9.414c3.088-2.127,7.301-1.354,9.427,1.722L281.329,93.657z"/>
</g>
<path style="fill:#E0555C;" d="M157.812,211.173h196.375h132.917c13.748,0,24.896,11.134,24.896,24.882v202.159
	c0,13.748-11.148,24.896-24.896,24.896H24.882C11.134,463.109,0,451.962,0,438.214V236.055c0-13.748,11.134-24.882,24.882-24.882
	H157.812z"/>
<path style="fill:#EDB066;" d="M24.882,448.21c-5.503,0-9.983-4.485-9.983-9.996V236.055c0-5.503,4.479-9.983,9.983-9.983h462.222
	c5.511,0,9.996,4.478,9.996,9.983v202.159c0,5.511-4.485,9.996-9.996,9.996H24.882z"/>
<path style="fill:#FEC274;" d="M24.882,440.083c-1.024,0-1.856-0.838-1.856-1.869V236.055c0-1.023,0.832-1.856,1.856-1.856h462.222
	c1.031,0,1.869,0.832,1.869,1.856v202.159c0,1.031-0.838,1.869-1.869,1.869H24.882z"/>
<g>
	<path style="fill:#EDB066;" d="M277.115,291.527h5.976c4.863,0,8.804-3.942,8.804-8.804s-3.942-8.804-8.804-8.804h-11.65
		c-0.014,0-0.028,0-0.042,0h-19.337c-4.863,0-8.804,3.942-8.804,8.804s3.942,8.804,8.804,8.804h5.858l-24.194,55.767l-24.194-55.767
		h5.858c4.863,0,8.804-3.942,8.804-8.804s-3.942-8.804-8.804-8.804h-19.337c-0.014,0-0.028,0-0.042,0h-11.651
		c-4.863,0-8.804,3.942-8.804,8.804s3.942,8.804,8.804,8.804h5.977l34.584,79.716v24.911h-6.71c-4.863,0-8.804,3.942-8.804,8.804
		s3.942,8.804,8.804,8.804h31.029c4.863,0,8.804-3.942,8.804-8.804s-3.942-8.804-8.804-8.804h-6.71v-24.912L277.115,291.527z"/>
	<path style="fill:#EDB066;" d="M452.25,396.155h-5.566l-30.75-115.693c-1.025-3.858-4.517-6.544-8.509-6.544
		c-3.99,0-7.484,2.685-8.509,6.542l-23.98,90.222l-23.979-90.22c-1.025-3.858-4.517-6.544-8.509-6.544s-7.484,2.685-8.509,6.544
		l-30.75,115.693h-5.566c-4.863,0-8.804,3.942-8.804,8.804s3.942,8.804,8.804,8.804h26.801c4.863,0,8.804-3.942,8.804-8.804
		s-3.942-8.804-8.804-8.804h-3.015L342.449,317l23.979,90.22c1.025,3.858,4.517,6.544,8.509,6.544s7.484-2.685,8.509-6.542
		L407.426,317l21.038,79.155h-3.017c-4.863,0-8.804,3.942-8.804,8.804s3.942,8.804,8.804,8.804h14.446
		c0.005,0,0.011,0.001,0.016,0.001c0.007,0,0.014-0.001,0.02-0.001h12.32c4.863,0,8.804-3.942,8.804-8.804
		S457.113,396.155,452.25,396.155z"/>
	<path style="fill:#EDB066;" d="M155.858,351.33h-35.839c-4.863,0-8.804,3.942-8.804,8.804s3.942,8.804,8.804,8.804h25.945
		c-3.938,15.621-18.106,27.217-34.932,27.217c-16.032,0-29.074-13.042-29.074-29.076v-44.972c0-16.032,13.042-29.074,29.074-29.074
		c12.77,0,24.703,6.862,31.145,17.911c2.45,4.2,7.838,5.617,12.041,3.171c4.2-2.45,5.62-7.841,3.171-12.041
		c-9.584-16.437-27.347-26.648-46.358-26.648c-25.741,0-46.683,20.942-46.683,46.683v44.972c0,25.741,20.942,46.684,46.683,46.684
		c29.571,0,53.63-24.059,53.63-53.63C164.662,355.271,160.719,351.33,155.858,351.33z"/>
</g>
<g>
	<path style="fill:#FD6568;" d="M270.405,284.817h5.976c4.863,0,8.804-3.942,8.804-8.804s-3.942-8.804-8.804-8.804H264.73
		c-0.014,0-0.028,0-0.042,0h-19.337c-4.863,0-8.804,3.942-8.804,8.804s3.942,8.804,8.804,8.804h5.858l-24.194,55.767l-24.194-55.767
		h5.858c4.863,0,8.804-3.942,8.804-8.804s-3.942-8.804-8.804-8.804h-19.334c-0.014,0-0.028,0-0.042,0h-11.651
		c-4.863,0-8.804,3.942-8.804,8.804s3.942,8.804,8.804,8.804h5.977l34.584,79.716v24.911h-6.71c-4.863,0-8.804,3.942-8.804,8.804
		s3.942,8.804,8.804,8.804h31.029c4.863,0,8.804-3.942,8.804-8.804s-3.942-8.804-8.804-8.804h-6.71v-24.912L270.405,284.817z"/>
	<path style="fill:#FD6568;" d="M445.54,389.444h-5.566l-30.75-115.693c-1.025-3.858-4.517-6.544-8.509-6.544
		c-3.99,0-7.484,2.685-8.509,6.542l-23.98,90.222l-23.979-90.22c-1.025-3.858-4.517-6.544-8.509-6.544
		c-3.992,0-7.484,2.685-8.509,6.544l-30.75,115.693h-5.566c-4.863,0-8.804,3.942-8.804,8.804s3.942,8.804,8.804,8.804h26.801
		c4.863,0,8.804-3.942,8.804-8.804s-3.942-8.804-8.804-8.804h-3.015l21.038-79.155l23.979,90.22
		c1.025,3.858,4.517,6.544,8.509,6.544s7.484-2.685,8.509-6.542l23.98-90.222l21.038,79.155h-3.016
		c-4.863,0-8.804,3.942-8.804,8.804s3.942,8.804,8.804,8.804h14.446c0.005,0,0.011,0.001,0.016,0.001
		c0.007,0,0.014-0.001,0.02-0.001h12.321c4.863,0,8.804-3.942,8.804-8.804S450.402,389.444,445.54,389.444z"/>
	<path style="fill:#FD6568;" d="M149.146,344.619h-35.839c-4.863,0-8.804,3.942-8.804,8.804s3.942,8.804,8.804,8.804h25.945
		c-3.938,15.621-18.106,27.217-34.932,27.217c-16.032,0-29.074-13.042-29.074-29.076v-44.972c0-16.032,13.042-29.074,29.074-29.074
		c12.77,0,24.703,6.862,31.145,17.91c2.45,4.2,7.838,5.617,12.041,3.171c4.2-2.45,5.62-7.841,3.171-12.041
		c-9.584-16.437-27.347-26.648-46.358-26.648c-25.741,0-46.683,20.942-46.683,46.683v44.972c0,25.741,20.942,46.684,46.683,46.684
		c29.571,0,53.63-24.059,53.63-53.63C157.951,348.561,154.009,344.619,149.146,344.619z"/>
	<path style="fill:#FD6568;" d="M256,48.891c14.764,0,26.751,11.974,26.751,26.751c0,9.129-4.578,17.189-11.567,22.011
		c-4.307,2.993-9.549,4.741-15.184,4.741c-5.648,0-10.877-1.747-15.197-4.741c-6.976-4.822-11.554-12.881-11.554-22.011
		C229.249,60.864,241.222,48.891,256,48.891z"/>
</g>
<g>
</g>
<g>
</g>
<g>
</g>
<g>
</g>
<g>
</g>
<g>
</g>
<g>
</g>
<g>
</g>
<g>
</g>
<g>
</g>
<g>
</g>
<g>
</g>
<g>
</g>
<g>
</g>
<g>
</g>
</svg>
