<?xml version="1.0" encoding="iso-8859-1"?>
<!-- Generator: Adobe Illustrator 19.0.0, SVG Export Plug-In . SVG Version: 6.00 Build 0)  -->
<svg version="1.1" id="Layer_1" xmlns="http://www.w3.org/2000/svg" xmlns:xlink="http://www.w3.org/1999/xlink" x="0px" y="0px"
	 viewBox="0 0 512 512" style="enable-background:new 0 0 512 512;" xml:space="preserve">
<g>
	<path style="fill:#666363;" d="M369.18,191.357c-2.822,5.732-6.124,11.729-9.882,17.954
		c-15.437,25.546-38.503,54.661-66.921,83.079c-35.314,35.327-71.729,62.366-101.021,76.803
		c-4.821-10.325-96.377,47.512-104.905,38.984s66.681-82.712,56.356-87.533c14.424-29.279,41.476-65.707,76.803-101.034
		c28.178-28.178,57.052-51.092,82.434-66.516c6.44-3.922,12.666-7.351,18.587-10.274c4.821,10.325,64.593-33.087,73.121-24.559
		C402.28,126.788,358.855,186.548,369.18,191.357z"/>
	<path style="fill:#666363;" d="M191.356,369.193c17.322,37.162,10.654,82.737-20.017,113.408
		c-39.199,39.199-102.742,39.199-141.94,0s-39.199-102.754,0-141.94c30.671-30.671,76.246-37.339,113.408-20.017
		c10.325,4.821,20.004,11.489,28.532,20.017C179.867,349.188,186.536,358.868,191.356,369.193z"/>
	<path style="fill:#666363;" d="M482.601,171.353c-15.943,15.943-35.922,25.407-56.647,28.368
		c-19.144,2.746-38.933-0.038-56.774-8.364c-10.325-4.808-20.004-11.476-28.532-20.004c-8.528-8.528-15.196-18.208-20.017-28.532
		c-17.322-37.162-10.654-82.75,20.017-113.421c23.256-23.256,55.078-32.708,85.306-28.38c20.725,2.973,40.704,12.438,56.647,28.38
		C521.8,68.599,521.8,132.154,482.601,171.353z"/>
</g>
<g>
	<path style="fill:#7D7878;" d="M482.601,171.353c-15.943,15.943-35.922,25.407-56.647,28.368
		c-9.642-1.379-19.119-4.163-28.115-8.364c-10.325-4.808-20.004-11.476-28.532-20.004c-8.528-8.528-15.196-18.208-20.017-28.532
		c-17.322-37.162-10.654-82.75,20.017-113.421c15.943-15.943,35.922-25.407,56.647-28.38c20.725,2.973,40.704,12.438,56.647,28.38
		C521.8,68.599,521.8,132.154,482.601,171.353z"/>
	<path style="fill:#7D7878;" d="M171.339,482.613c-15.943,15.943-35.922,25.407-56.647,28.368
		c-9.642-1.379-19.119-4.163-28.115-8.364c-10.325-4.808-20.004-11.476-28.532-20.004s-15.196-18.208-20.017-28.532
		c-17.322-37.162-10.654-82.75,20.017-113.421c15.943-15.943,35.922-25.407,56.647-28.38c20.725,2.973,40.704,12.438,56.647,28.38
		C210.538,379.859,210.538,443.415,171.339,482.613z"/>
</g>
<g>
	<circle style="fill:#999999;" cx="432.185" cy="51.68" r="23.092"/>
	<circle style="fill:#999999;" cx="111.763" cy="357.571" r="23.092"/>
</g>
<g>
</g>
<g>
</g>
<g>
</g>
<g>
</g>
<g>
</g>
<g>
</g>
<g>
</g>
<g>
</g>
<g>
</g>
<g>
</g>
<g>
</g>
<g>
</g>
<g>
</g>
<g>
</g>
<g>
</g>
</svg>
