<?xml version="1.0" encoding="iso-8859-1"?>
<!-- Generator: Adobe Illustrator 19.0.0, SVG Export Plug-In . SVG Version: 6.00 Build 0)  -->
<svg version="1.1" id="Layer_1" xmlns="http://www.w3.org/2000/svg" xmlns:xlink="http://www.w3.org/1999/xlink" x="0px" y="0px"
	 viewBox="0 0 512 512" style="enable-background:new 0 0 512 512;" xml:space="preserve">
<g>
	<path style="fill:#E0555C;" d="M151.162,487.147c-0.877,1.118-1.842,2.21-2.871,3.24c-14.381,14.394-37.718,14.394-52.112,0
		c-14.394-14.394-14.394-37.731,0-52.112c1.029-1.029,2.122-1.995,3.24-2.871c6.314,10.29,13.924,20.009,22.829,28.914
		S140.872,480.833,151.162,487.147z"/>
	<path style="fill:#E0555C;" d="M365.58,0l71.854,71.866L326.668,232.305c5.082,3.964,9.985,8.27,14.648,12.933
		c61.03,61.03,61.03,159.969,0,220.986c-52.112,52.125-131.867,59.734-192.059,22.829c-10.29-6.314-20.009-13.924-28.914-22.829
		c-8.906-8.905-16.515-18.624-22.829-28.914c-36.905-60.192-29.295-139.947,22.829-192.072l65.565-65.565l2.693,2.693
		c20.838,20.838,54.623,20.838,75.462,0l0,0l-40.424-40.424L365.58,0z"/>
</g>
<path style="fill:#FD6568;" d="M230.831,494.214c-25.597,0-50.591-7.028-72.279-20.325c-9.259-5.681-17.885-12.492-25.633-20.243
	c-7.751-7.751-14.563-16.377-20.248-25.64c-15.968-26.044-22.879-57.22-19.455-87.781c3.523-31.468,17.252-59.965,39.701-82.415
	l53.301-53.3c11.385,9.01,25.374,13.898,40.112,13.898c17.305,0,33.577-6.739,45.813-18.976l17.072-17.07l-40.424-40.424
	L365.58,25.151l48.797,48.805l-111.876,162.05l13.23,10.321c4.599,3.586,8.975,7.451,13.009,11.484
	c26.159,26.158,40.565,60.933,40.565,97.922c0,36.986-14.405,71.759-40.563,97.911C302.587,479.807,267.817,494.213,230.831,494.214
	L230.831,494.214z"/>
<circle style="fill:#E0555C;" cx="230.831" cy="355.737" r="55.173"/>
<circle style="fill:#FD6568;" cx="230.831" cy="355.737" r="35.969"/>
<g>
</g>
<g>
</g>
<g>
</g>
<g>
</g>
<g>
</g>
<g>
</g>
<g>
</g>
<g>
</g>
<g>
</g>
<g>
</g>
<g>
</g>
<g>
</g>
<g>
</g>
<g>
</g>
<g>
</g>
</svg>
