<?xml version="1.0" encoding="iso-8859-1"?>
<!-- Generator: Adobe Illustrator 19.0.0, SVG Export Plug-In . SVG Version: 6.00 Build 0)  -->
<svg version="1.1" id="Layer_1" xmlns="http://www.w3.org/2000/svg" xmlns:xlink="http://www.w3.org/1999/xlink" x="0px" y="0px"
	 viewBox="0 0 512.001 512.001" style="enable-background:new 0 0 512.001 512.001;" xml:space="preserve">
<path style="fill:#FEE572;" d="M438.713,195.462v316.54H73.289v-316.54c34.619-17.921,58.284-54.056,58.284-95.718V0h46.197v79.657
	c0,21.602,8.763,41.166,22.914,55.317s33.715,22.914,55.317,22.914c43.204,0,78.231-35.027,78.231-78.231V0h46.184v99.743
	c0,33.231,15.068,62.946,38.72,82.701C425.148,187.463,431.707,191.832,438.713,195.462z"/>
<path style="fill:#FD6568;" d="M309.124,222.263c-2.308,1.432-4.552,2.926-6.813,4.404c-2.223,1.517-4.491,2.988-6.675,4.542
	c-2.189,1.549-4.425,3.054-6.575,4.644l-6.488,4.731l-6.399,4.82c-4.241,3.238-8.438,6.519-12.576,9.86
	c-8.294,6.663-16.403,13.513-24.359,20.513c-3.98,3.5-7.925,7.032-11.828,10.609c-3.91,3.569-7.778,7.18-11.616,10.821
	l-15.521,14.729l19.982,9.509l6.44,3.065l6.464,3.011c4.325,1.97,8.646,3.954,13.001,5.862c2.173,0.962,4.345,1.93,6.532,2.861
	l1.011,0.434c-1.717,1.95-3.449,3.885-5.147,5.855c-3.189,3.691-6.335,7.426-9.456,11.186c-3.115,3.765-6.197,7.564-9.236,11.406
	c-3.039,3.843-6.045,7.716-8.982,11.659c-1.467,1.973-2.974,3.906-4.404,5.916l-4.331,5.99l-4.243,6.078l-4.146,6.176
	c-1.35,2.09-2.719,4.161-4.03,6.291c-1.334,2.107-2.615,4.266-3.867,6.454c2.188-1.252,4.347-2.533,6.454-3.867
	c2.131-1.309,4.201-2.68,6.291-4.03l6.175-4.146l6.078-4.243l5.99-4.331c2.011-1.43,3.943-2.937,5.916-4.404
	c3.943-2.937,7.818-5.943,11.659-8.982c3.841-3.039,7.641-6.12,11.406-9.236c3.76-3.121,7.494-6.267,11.186-9.456
	c3.696-3.184,7.357-6.404,10.986-9.656c3.634-3.248,7.226-6.535,10.798-9.843l15.219-14.086l-19.592-9.676
	c-4.266-2.107-8.548-4.174-12.844-6.211l-6.459-3.022c-2.151-1.013-4.318-1.991-6.482-2.973c-2.312-1.061-4.634-2.098-6.96-3.129
	c2.24-2.485,4.491-4.959,6.702-7.473c7-7.958,13.85-16.065,20.513-24.359c3.341-4.138,6.623-8.334,9.861-12.577l4.818-6.399
	l4.731-6.488c1.59-2.15,3.094-4.385,4.644-6.575c1.554-2.184,3.025-4.453,4.542-6.675c1.479-2.261,2.973-4.505,4.404-6.813
	c1.449-2.29,2.861-4.617,4.22-6.999C313.742,219.402,311.414,220.815,309.124,222.263z"/>
<g>
	<rect x="131.573" style="fill:#F2D766;" width="46.197" height="30.696"/>
	<rect x="334.231" style="fill:#F2D766;" width="46.184" height="30.696"/>
	<path style="fill:#F2D766;" d="M419.136,182.445v271.886c0,14.897-12.077,26.974-26.974,26.974H119.84
		c-14.897,0-26.974-12.077-26.974-26.974V182.445c-6.012,5.018-12.571,9.387-19.577,13.017v285.843v30.696h19.577h326.271h19.577
		v-30.696V195.462C431.707,191.832,425.148,187.463,419.136,182.445z"/>
</g>
<g>
</g>
<g>
</g>
<g>
</g>
<g>
</g>
<g>
</g>
<g>
</g>
<g>
</g>
<g>
</g>
<g>
</g>
<g>
</g>
<g>
</g>
<g>
</g>
<g>
</g>
<g>
</g>
<g>
</g>
</svg>
