<?xml version="1.0" encoding="iso-8859-1"?>
<!-- Generator: Adobe Illustrator 19.0.0, SVG Export Plug-In . SVG Version: 6.00 Build 0)  -->
<svg version="1.1" id="Layer_1" xmlns="http://www.w3.org/2000/svg" xmlns:xlink="http://www.w3.org/1999/xlink" x="0px" y="0px"
	 viewBox="0 0 512 512" style="enable-background:new 0 0 512 512;" xml:space="preserve">
<rect x="143.367" y="83.594" style="fill:#E0555C;" width="225.278" height="87.509"/>
<path style="fill:#EF626A;" d="M432.634,170.756v311.772c0,16.273-13.2,29.472-29.472,29.472H108.838
	c-16.286,0-29.472-13.2-29.472-29.472V170.756c0-16.273,13.186-29.472,29.472-29.472h34.523h225.278h34.523
	C419.434,141.283,432.634,154.483,432.634,170.756z"/>
<path style="fill:#FD6568;" d="M402.961,170.756v311.772c0,16.273-10.982,29.472-24.521,29.472H133.56
	c-13.55,0-24.521-13.2-24.521-29.472V170.756c0-16.273,10.971-29.472,24.521-29.472h28.723h187.433h28.723
	C391.979,141.283,402.961,154.483,402.961,170.756z"/>
<path style="fill:#9CCBD8;" d="M256,235.125c71.196,0,128.925,40.975,128.925,91.517S327.196,418.158,256,418.158
	c-71.209,0-128.925-40.975-128.925-91.517S184.791,235.125,256,235.125z"/>
<path style="fill:#C0E8F6;" d="M256,406.134c-31.967,0-61.872-8.732-84.206-24.587c-21.084-14.967-32.695-34.466-32.695-54.906
	s11.611-39.94,32.695-54.906c22.334-15.854,52.239-24.587,84.206-24.587c31.963,0,61.865,8.732,84.201,24.587
	c21.086,14.969,32.7,34.468,32.7,54.906c0,20.438-11.613,39.939-32.7,54.906C317.865,397.404,287.961,406.134,256,406.134z"/>
<path style="fill:#EAD475;" d="M412.126,12.979v87.441c0,7.169-5.812,12.979-12.979,12.979H112.84
	c-7.169,0-12.979-5.812-12.979-12.979V12.979C99.86,5.812,105.672,0,112.84,0h286.307C406.315,0,412.126,5.812,412.126,12.979z"/>
<path style="fill:#FEE572;" d="M390.937,13.311v86.779c0,7.351-5.96,13.311-13.311,13.311H134.36
	c-7.351,0-13.311-5.96-13.311-13.311V13.311C121.049,5.96,127.009,0,134.36,0h243.266C384.977,0,390.937,5.96,390.937,13.311z"/>
<g>
	<rect x="130.408" style="fill:#EAAC60;" width="13.36" height="113.401"/>
	<rect x="177.97" style="fill:#EAAC60;" width="13.36" height="113.401"/>
	<rect x="320.643" style="fill:#EAAC60;" width="13.36" height="68.137"/>
	<rect x="320.643" y="88.177" style="fill:#EAAC60;" width="13.36" height="25.224"/>
	<rect x="273.094" style="fill:#EAAC60;" width="13.36" height="113.401"/>
	<rect x="225.532" style="fill:#EAAC60;" width="13.36" height="113.401"/>
	<rect x="368.218" style="fill:#EAAC60;" width="13.36" height="89.513"/>
	<path style="fill:#EAAC60;" d="M259.715,314.76c0.389-0.46,0.792-0.907,1.18-1.368c5.177-6.166,10.198-12.488,15.027-19.001
		c2.424-3.248,4.787-6.556,7.104-9.911c2.303-3.368,4.588-6.755,6.783-10.231c1.128-1.707,2.168-3.503,3.256-5.252
		c1.092-1.743,2.098-3.574,3.152-5.356c1.014-1.822,2.044-3.627,3.009-5.498c0.983-1.853,1.928-3.743,2.819-5.689
		c-1.945,0.89-3.836,1.836-5.689,2.819c-1.87,0.965-3.675,1.996-5.498,3.009c-1.782,1.053-3.611,2.059-5.356,3.152
		c-1.749,1.087-3.543,2.128-5.252,3.256c-3.476,2.195-6.863,4.48-10.231,6.783c-3.355,2.317-6.663,4.68-9.911,7.104
		c-6.514,4.828-12.835,9.85-19.001,15.027c-6.167,5.176-12.179,10.506-18.055,15.973l-16.012,14.903l20.621,10.142
		c6.826,3.357,13.726,6.549,20.692,9.594c-4.723,5.776-9.307,11.691-13.724,17.772c-2.194,3.023-4.354,6.082-6.444,9.209
		c-1.042,1.566-2.128,3.09-3.132,4.695l-3.057,4.77l-2.965,4.862l-2.864,4.962c-1.861,3.356-3.686,6.748-5.321,10.331
		c3.583-1.635,6.975-3.46,10.331-5.321l4.962-2.864l4.862-2.965l4.77-3.057c1.605-1.005,3.129-2.09,4.695-3.132
		c3.129-2.09,6.186-4.25,9.209-6.444c12.088-8.782,23.527-18.214,34.501-28.11l15.764-14.217l-20.283-10.337
		C273.08,321.02,266.43,317.819,259.715,314.76z"/>
</g>
<g>
</g>
<g>
</g>
<g>
</g>
<g>
</g>
<g>
</g>
<g>
</g>
<g>
</g>
<g>
</g>
<g>
</g>
<g>
</g>
<g>
</g>
<g>
</g>
<g>
</g>
<g>
</g>
<g>
</g>
</svg>
