<?xml version="1.0" encoding="iso-8859-1"?>
<!-- Generator: Adobe Illustrator 19.0.0, SVG Export Plug-In . SVG Version: 6.00 Build 0)  -->
<svg version="1.1" id="Layer_1" xmlns="http://www.w3.org/2000/svg" xmlns:xlink="http://www.w3.org/1999/xlink" x="0px" y="0px"
	 viewBox="0 0 512 512" style="enable-background:new 0 0 512 512;" xml:space="preserve">
<path style="fill:#9ED6E5;" d="M420.883,310.708c0,91.063-73.813,164.889-164.877,164.889S91.117,401.771,91.117,310.708
	s73.826-164.877,164.889-164.877S420.883,219.644,420.883,310.708z"/>
<path style="fill:#C0E8F6;" d="M395.16,310.708c0,76.856-62.298,139.164-139.154,139.164s-139.164-62.308-139.164-139.164
	s62.308-139.154,139.164-139.154S395.16,233.852,395.16,310.708z"/>
<path style="fill:#FD6568;" d="M294.031,89.286h-76.061c-11.922,0-23.133-4.645-31.569-13.079
	c-8.436-8.436-13.08-19.647-13.08-31.57C173.32,20.024,193.35,0,217.97,0h76.061c11.931,0,23.142,4.641,31.569,13.068
	c8.435,8.435,13.08,19.646,13.08,31.569C338.681,69.256,318.651,89.286,294.031,89.286z M217.97,17.139
	c-15.169,0-27.51,12.336-27.51,27.497c0,7.345,2.862,14.253,8.061,19.45c5.198,5.198,12.106,8.06,19.449,8.06h76.061
	c15.169,0,27.51-12.341,27.51-27.51c0-7.345-2.863-14.252-8.061-19.449c-5.189-5.19-12.096-8.047-19.448-8.047H217.97z"/>
<path style="fill:#7D7878;" d="M280.343,316.901c0,13.448-10.9,24.337-24.337,24.337c-13.448,0-24.337-10.889-24.337-24.337
	c0-13.437,24.337-96.95,24.337-96.95S280.343,303.464,280.343,316.901z"/>
<path style="fill:#EAAC60;" d="M284.971,89.845v40.422l-0.069,0.625c-9.438-1.829-19.081-2.758-28.896-2.758
	c-9.815,0-19.458,0.93-28.896,2.758l-0.069-0.625V89.845V53.418h57.93L284.971,89.845L284.971,89.845z"/>
<path style="fill:#FEC274;" d="M272.002,89.845v40.422l-0.038,0.625c-5.213-1.829-10.538-2.758-15.959-2.758
	c-5.42,0-10.746,0.93-15.959,2.758l-0.038-0.625V89.845V53.418h31.993V89.845z"/>
<g>
	<path style="fill:#7D7878;" d="M255.999,183.959c-4.102,0-7.427-3.325-7.427-7.427v-21.568c0-4.102,3.325-7.427,7.427-7.427
		s7.427,3.325,7.427,7.427v21.568C263.426,180.634,260.1,183.959,255.999,183.959z"/>
	<path style="fill:#7D7878;" d="M255.999,473.879c-4.102,0-7.427-3.325-7.427-7.427v-21.568c0-4.102,3.325-7.427,7.427-7.427
		s7.427,3.325,7.427,7.427v21.568C263.426,470.554,260.1,473.879,255.999,473.879z"/>
	<path style="fill:#7D7878;" d="M411.743,318.135h-21.568c-4.102,0-7.427-3.325-7.427-7.427s3.325-7.427,7.427-7.427h21.568
		c4.102,0,7.427,3.325,7.427,7.427S415.845,318.135,411.743,318.135z"/>
	<path style="fill:#7D7878;" d="M121.822,318.135h-21.568c-4.102,0-7.427-3.325-7.427-7.427s3.325-7.427,7.427-7.427h21.568
		c4.102,0,7.427,3.325,7.427,7.427S125.924,318.135,121.822,318.135z"/>
</g>
<path style="fill:#F2D766;" d="M284.902,111.496c-9.438-1.371-19.081-2.068-28.896-2.068c-9.815,0-19.458,0.697-28.896,2.068
	C129.623,125.504,54.714,209.36,54.714,310.708C54.714,421.883,144.831,512,256.006,512c111.163,0,201.28-90.117,201.28-201.292
	C457.286,209.36,382.377,125.504,284.902,111.496z M256.006,466.456c-86.015,0-155.748-69.733-155.748-155.748
	s69.733-155.736,155.748-155.736s155.736,69.721,155.736,155.736C411.742,396.723,342.021,466.456,256.006,466.456z"/>
<path style="fill:#FEE572;" d="M256.006,123.562c-103.36,0-187.158,83.787-187.158,187.146s83.798,187.158,187.158,187.158
	s187.146-83.798,187.146-187.158C443.152,207.349,359.365,123.562,256.006,123.562z M256.006,466.456
	c-86.015,0-155.748-69.733-155.748-155.748s69.733-155.736,155.748-155.736s155.736,69.721,155.736,155.736
	C411.742,396.723,342.021,466.456,256.006,466.456z"/>
<g>
</g>
<g>
</g>
<g>
</g>
<g>
</g>
<g>
</g>
<g>
</g>
<g>
</g>
<g>
</g>
<g>
</g>
<g>
</g>
<g>
</g>
<g>
</g>
<g>
</g>
<g>
</g>
<g>
</g>
</svg>
