<?xml version="1.0" encoding="iso-8859-1"?>
<!-- Generator: Adobe Illustrator 19.0.0, SVG Export Plug-In . SVG Version: 6.00 Build 0)  -->
<svg version="1.1" id="Layer_1" xmlns="http://www.w3.org/2000/svg" xmlns:xlink="http://www.w3.org/1999/xlink" x="0px" y="0px"
	 viewBox="0 0 512 512" style="enable-background:new 0 0 512 512;" xml:space="preserve">
<rect y="236.051" style="fill:#666363;" width="59.935" height="39.898"/>
<polygon style="fill:#808080;" points="25.579,275.943 25.579,236.046 25.579,181.94 87.542,181.94 87.542,330.049 25.579,330.049 
	"/>
<polygon style="fill:#999999;" points="25.579,270.569 25.579,241.42 25.579,201.889 87.542,201.889 87.542,310.1 25.579,310.1 "/>
<rect x="25.579" y="225.257" style="fill:#B3B3B3;" width="84.783" height="35.465"/>
<g>
	<rect x="464.355" y="236.051" style="fill:#666363;" width="47.645" height="39.898"/>
	<rect x="142.945" y="236.051" style="fill:#666363;" width="226.099" height="39.898"/>
</g>
<polygon style="fill:#808080;" points="486.41,275.943 486.41,330.049 418.916,330.049 418.916,181.94 486.41,181.94 
	486.41,236.046 "/>
<g>
	<polygon style="fill:#999999;" points="486.41,270.569 486.41,310.1 418.916,310.1 418.916,201.889 486.41,201.889 486.41,241.42 	
		"/>
	<polygon style="fill:#999999;" points="160.589,275.943 160.589,354.908 75.806,354.908 75.806,330.049 75.806,181.94 
		75.806,157.092 160.589,157.092 160.589,236.046 	"/>
</g>
<rect x="401.627" y="225.257" style="fill:#B3B3B3;" width="84.783" height="35.465"/>
<polygon style="fill:#999999;" points="436.183,330.049 436.183,354.908 351.4,354.908 351.4,275.943 351.4,236.046 351.4,157.092 
	436.183,157.092 436.183,181.94 "/>
<g>
	<polygon style="fill:#B3B3B3;" points="160.589,269.686 160.589,323.876 75.806,323.876 75.806,306.817 75.806,205.176 
		75.806,188.124 160.589,188.124 160.589,242.306 	"/>
	<polygon style="fill:#B3B3B3;" points="436.183,306.817 436.183,323.876 351.4,323.876 351.4,269.686 351.4,242.306 351.4,188.124 
		436.183,188.124 436.183,205.176 	"/>
</g>
<g>
	<rect x="75.806" y="217.499" style="fill:#CCCCCC;" width="84.783" height="35.465"/>
	<rect x="351.4" y="217.499" style="fill:#CCCCCC;" width="84.783" height="35.465"/>
</g>
<g>
</g>
<g>
</g>
<g>
</g>
<g>
</g>
<g>
</g>
<g>
</g>
<g>
</g>
<g>
</g>
<g>
</g>
<g>
</g>
<g>
</g>
<g>
</g>
<g>
</g>
<g>
</g>
<g>
</g>
</svg>
