<?xml version="1.0" encoding="iso-8859-1"?>
<!-- Generator: Adobe Illustrator 19.0.0, SVG Export Plug-In . SVG Version: 6.00 Build 0)  -->
<svg version="1.1" id="Layer_1" xmlns="http://www.w3.org/2000/svg" xmlns:xlink="http://www.w3.org/1999/xlink" x="0px" y="0px"
	 viewBox="0 0 512 512" style="enable-background:new 0 0 512 512;" xml:space="preserve">
<g>
	<path style="fill:#FEC274;" d="M122.32,27.477v300.015c0,4.866-3.945,8.811-8.811,8.811s-8.811-3.945-8.811-8.811V27.477
		c0-2.21,0.813-4.243,2.169-5.788c1.613-1.857,3.985-3.023,6.642-3.023s5.029,1.166,6.642,3.023
		C121.507,23.235,122.32,25.268,122.32,27.477z"/>
	<path style="fill:#FEC274;" d="M407.289,27.477v300.015c0,4.866-3.945,8.811-8.811,8.811c-4.866,0-8.811-3.945-8.811-8.811V27.477
		c0-2.21,0.813-4.243,2.169-5.788c1.613-1.857,3.985-3.023,6.642-3.023c2.657,0,5.029,1.166,6.642,3.023
		C406.475,23.235,407.289,25.268,407.289,27.477z"/>
</g>
<g>
	<path style="fill:#EAAC60;" d="M120.151,21.689c1.356,1.545,2.169,3.579,2.169,5.788v36.6h-17.622v-36.6
		c0-2.21,0.813-4.243,2.169-5.788H120.151z"/>
	<path style="fill:#EAAC60;" d="M407.289,27.477v36.6h-17.622v-36.6c0-2.21,0.813-4.243,2.169-5.788h13.285
		C406.475,23.235,407.289,25.268,407.289,27.477z"/>
</g>
<path style="fill:#E0555C;" d="M398.491,312.582c55.063,0,99.702,44.639,99.702,99.716c0,55.063-44.639,99.702-99.702,99.702
	c-55.077,0-99.716-44.639-99.716-99.702C298.775,357.221,343.414,312.582,398.491,312.582z M461.607,412.298
	c0-34.865-28.264-63.129-63.115-63.129c-34.865,0-63.129,28.264-63.129,63.129c0,34.852,28.264,63.115,63.129,63.115
	C433.343,475.413,461.607,447.149,461.607,412.298z"/>
<path style="fill:#FD6568;" d="M398.491,499.8c-48.257,0-87.517-39.253-87.517-87.502c0-48.256,39.26-87.516,87.517-87.516
	c48.249,0,87.502,39.259,87.502,87.516C485.993,460.547,446.74,499.8,398.491,499.8z M398.491,336.968
	c-41.537,0-75.329,33.793-75.329,75.329c0,41.529,33.793,75.316,75.329,75.316c41.529,0,75.316-33.786,75.316-75.316
	C473.807,370.761,440.02,336.968,398.491,336.968z"/>
<path style="fill:#E0555C;" d="M113.522,312.582c55.063,0,99.702,44.639,99.702,99.716c0,55.063-44.639,99.702-99.702,99.702
	c-55.077,0-99.716-44.639-99.716-99.702C13.807,357.221,58.446,312.582,113.522,312.582z M176.638,412.298
	c0-34.865-28.264-63.129-63.115-63.129c-34.865,0-63.129,28.264-63.129,63.129c0,34.852,28.264,63.115,63.129,63.115
	C148.374,475.413,176.638,447.149,176.638,412.298z"/>
<path style="fill:#FD6568;" d="M113.522,499.8c-48.257,0-87.516-39.253-87.516-87.502c0-48.256,39.259-87.516,87.516-87.516
	c48.25,0,87.504,39.259,87.504,87.516C201.025,460.547,161.771,499.8,113.522,499.8z M113.522,336.968
	c-41.536,0-75.328,33.793-75.328,75.329c0,41.529,33.793,75.316,75.328,75.316c41.529,0,75.317-33.786,75.317-75.316
	C188.838,370.761,155.05,336.968,113.522,336.968z"/>
<polygon style="fill:#C79175;" points="498.193,0 498.193,42.389 398.491,42.389 113.522,42.389 13.807,42.389 13.807,0 "/>
<g>
</g>
<g>
</g>
<g>
</g>
<g>
</g>
<g>
</g>
<g>
</g>
<g>
</g>
<g>
</g>
<g>
</g>
<g>
</g>
<g>
</g>
<g>
</g>
<g>
</g>
<g>
</g>
<g>
</g>
</svg>
