<?xml version="1.0" encoding="iso-8859-1"?>
<!-- Generator: Adobe Illustrator 19.0.0, SVG Export Plug-In . SVG Version: 6.00 Build 0)  -->
<svg version="1.1" id="Layer_1" xmlns="http://www.w3.org/2000/svg" xmlns:xlink="http://www.w3.org/1999/xlink" x="0px" y="0px"
	 viewBox="0 0 512 512" style="enable-background:new 0 0 512 512;" xml:space="preserve">
<path style="fill:#FEE572;" d="M512,282.803V449.47c0,15.755-12.772,28.526-28.526,28.526h-54.64V254.275h54.64
	C499.228,254.277,512,267.049,512,282.803z"/>
<path style="fill:#E0AA68;" d="M348.96,144.147v151.497L36.265,254.277C143.503,231.494,348.96,204.971,348.96,144.147z"/>
<path style="fill:#FEC274;" d="M174.516,254.277c96.342-0.014,174.444-49.306,174.444-110.13v-0.014
	c-0.014-60.824-78.131-110.13-174.473-110.13c-52.451,0-99.502,14.621-131.486,37.744c-26.771,19.36-42.986,44.695-42.986,72.4
	L0,367.853c0,27.719,16.215,53.04,43.001,72.4c2.6,1.881,5.314,3.72,8.115,5.486c3.361,2.126,6.865,4.165,10.484,6.09
	c14.793,7.942,31.712,14.348,50.153,18.829l18.671,3.806c14.075,2.312,28.839,3.533,44.063,3.533h264.897V254.276L174.516,254.277
	L174.516,254.277z"/>
<g>
	<path style="fill:#808080;" d="M384.09,430.458v47.539h-18.671v-47.539c0-5.156,4.179-9.335,9.335-9.335
		C379.91,421.123,384.09,425.302,384.09,430.458z"/>
	<path style="fill:#808080;" d="M61.672,398.143v52.551c0,0.388-0.029,0.761-0.072,1.135c-3.619-1.925-7.124-3.964-10.484-6.09
		c-2.801-1.767-5.515-3.605-8.115-5.486v-42.11c0-5.156,4.179-9.335,9.335-9.335S61.672,392.987,61.672,398.143z"/>
	<path style="fill:#808080;" d="M130.424,423.995v50.469l-18.671-3.806v-46.663c0-5.156,4.179-9.335,9.335-9.335
		S130.424,418.839,130.424,423.995z"/>
	<path style="fill:#808080;" d="M214.989,430.458v47.539h-18.671v-47.539c0-5.156,4.179-9.335,9.335-9.335
		C210.809,421.123,214.989,425.302,214.989,430.458z"/>
	<path style="fill:#808080;" d="M299.539,430.458v47.539h-18.671v-47.539c0-5.156,4.179-9.335,9.335-9.335
		S299.539,425.302,299.539,430.458z"/>
</g>
<g>
	<path style="fill:#E0AA68;" d="M254.226,124.772c15.985,8.833,21.256,17.048,22.075,19.375c-0.819,2.327-6.09,10.528-22.075,19.36
		c-21.213,11.72-49.535,18.168-79.739,18.168s-58.512-6.449-79.725-18.168c-16-8.833-21.256-17.034-22.089-19.36
		c0.833-2.327,6.09-10.542,22.075-19.375c21.213-11.72,49.535-18.168,79.739-18.168S233.013,113.052,254.226,124.772z"/>
	<path style="fill:#E0AA68;" d="M33.345,79.389c0.08-0.07,0.162-0.141,0.243-0.21C33.507,79.248,33.425,79.318,33.345,79.389z"/>
	<path style="fill:#E0AA68;" d="M31.153,81.332c0.052-0.047,0.102-0.093,0.154-0.141C31.257,81.239,31.205,81.285,31.153,81.332z"/>
	<path style="fill:#E0AA68;" d="M38.041,75.498c0.069-0.055,0.139-0.109,0.208-0.164C38.181,75.389,38.11,75.443,38.041,75.498z"/>
	<path style="fill:#E0AA68;" d="M12.892,102.544c0.001-0.003,0.004-0.006,0.006-0.009C12.896,102.538,12.894,102.541,12.892,102.544
		z"/>
	<path style="fill:#E0AA68;" d="M35.644,77.44c0.09-0.075,0.181-0.149,0.27-0.223C35.824,77.292,35.733,77.365,35.644,77.44z"/>
	<path style="fill:#E0AA68;" d="M1.659,128.977c0.022-0.101,0.045-0.202,0.068-0.303C1.703,128.775,1.68,128.877,1.659,128.977z"/>
	<path style="fill:#E0AA68;" d="M0.014,144.579L0,367.853c0,27.719,16.215,53.04,43.001,72.4V216.534
		C16.37,197.28,0.185,172.123,0.014,144.579z"/>
	<path style="fill:#E0AA68;" d="M0.424,136.563c0.007-0.063,0.011-0.126,0.019-0.19C0.437,136.437,0.431,136.5,0.424,136.563z"/>
	<path style="fill:#E0AA68;" d="M2.266,126.414c0.016-0.063,0.033-0.126,0.05-0.191C2.299,126.286,2.282,126.349,2.266,126.414z"/>
	<path style="fill:#E0AA68;" d="M1.148,131.542c0.022-0.116,0.042-0.231,0.063-0.348C1.189,131.311,1.169,131.428,1.148,131.542z"/>
	<path style="fill:#E0AA68;" d="M0.737,134.087c0.016-0.106,0.029-0.214,0.045-0.322C0.766,133.873,0.751,133.981,0.737,134.087z"/>
</g>
<g>
</g>
<g>
</g>
<g>
</g>
<g>
</g>
<g>
</g>
<g>
</g>
<g>
</g>
<g>
</g>
<g>
</g>
<g>
</g>
<g>
</g>
<g>
</g>
<g>
</g>
<g>
</g>
<g>
</g>
</svg>
