<?xml version="1.0" encoding="iso-8859-1"?>
<!-- Generator: Adobe Illustrator 19.0.0, SVG Export Plug-In . SVG Version: 6.00 Build 0)  -->
<svg version="1.1" id="Layer_1" xmlns="http://www.w3.org/2000/svg" xmlns:xlink="http://www.w3.org/1999/xlink" x="0px" y="0px"
	 viewBox="0 0 512 512" style="enable-background:new 0 0 512 512;" xml:space="preserve">
<rect x="247.994" style="fill:#C79175;" width="15.986" height="92.916"/>
<path style="fill:#F2D766;" d="M360.214,141.103l-98.655,34.358l-109.788-34.358C163.4,94.37,205.643,59.73,256.001,59.73
	C306.342,59.73,348.601,94.37,360.214,141.103z"/>
<path style="fill:#FEE572;" d="M327.013,141.103l-67.228,34.358l-74.815-34.358c7.924-46.734,36.712-81.373,71.026-81.373
	C290.303,59.73,319.1,94.37,327.013,141.103z"/>
<g>
	<path style="fill:#C0E8F6;" d="M160.394,512c-0.134,0-0.271-0.002-0.407-0.01c-4.408-0.22-7.804-3.973-7.584-8.383l1.907-38.073
		c0.22-4.408,3.968-7.823,8.383-7.584c4.408,0.22,7.804,3.973,7.584,8.383l-1.907,38.073C168.156,508.68,164.624,512,160.394,512z
		 M164.76,424.801c-0.134,0-0.271-0.002-0.407-0.01c-4.408-0.22-7.804-3.973-7.584-8.383l1.907-38.073
		c0.22-4.408,3.952-7.818,8.383-7.584c4.408,0.22,7.804,3.973,7.584,8.383l-1.907,38.073
		C172.522,421.48,168.991,424.801,164.76,424.801z M169.127,337.601c-0.134,0-0.271-0.002-0.407-0.01
		c-4.408-0.22-7.804-3.973-7.584-8.383l1.907-38.073c0.22-4.408,3.951-7.826,8.383-7.584c4.408,0.22,7.804,3.973,7.584,8.383
		l-1.907,38.073C176.89,334.281,173.358,337.601,169.127,337.601z M173.494,250.402c-0.135,0-0.271-0.002-0.407-0.01
		c-4.408-0.221-7.804-3.973-7.584-8.383l0.488-9.743c0.22-4.408,3.967-7.825,8.383-7.584c4.408,0.221,7.804,3.973,7.584,8.383
		l-0.488,9.743C181.257,247.082,177.725,250.402,173.494,250.402z"/>
	<path style="fill:#C0E8F6;" d="M224.126,512c-0.046,0-0.091,0-0.135-0.001c-4.413-0.074-7.933-3.711-7.859-8.125l0.157-9.451
		c0.074-4.413,3.699-7.922,8.125-7.859c4.413,0.074,7.933,3.711,7.859,8.125l-0.157,9.452C232.042,508.509,228.479,512,224.126,512z
		 M225.106,453.368c-0.046,0-0.091,0-0.136-0.001c-4.413-0.074-7.933-3.711-7.859-8.125l0.637-38.116
		c0.074-4.413,3.721-7.884,8.125-7.859c4.413,0.074,7.933,3.711,7.859,8.125l-0.637,38.116
		C233.021,449.877,229.457,453.368,225.106,453.368z M226.562,366.071c-0.046,0-0.09,0-0.135-0.001
		c-4.413-0.074-7.933-3.711-7.859-8.125l0.637-38.116c0.074-4.413,3.657-7.944,8.125-7.859c4.413,0.074,7.933,3.711,7.859,8.125
		l-0.637,38.116C234.478,362.58,230.915,366.071,226.562,366.071z M228.019,278.775c-0.046,0-0.09,0-0.135-0.001
		c-4.413-0.074-7.933-3.711-7.859-8.125l0.637-38.116c0.074-4.413,3.666-7.954,8.125-7.859c4.413,0.074,7.933,3.711,7.859,8.125
		l-0.637,38.116C235.936,275.282,232.372,278.775,228.019,278.775z"/>
	<path style="fill:#C0E8F6;" d="M287.859,512c-4.353,0-7.917-3.491-7.989-7.86l-0.637-38.116c-0.074-4.413,3.444-8.051,7.859-8.125
		c0.046,0,0.091-0.001,0.135-0.001c4.353,0,7.917,3.491,7.989,7.86l0.637,38.116c0.074,4.413-3.444,8.051-7.859,8.125
		C287.948,512,287.903,512,287.859,512z M286.4,424.703c-4.353,0-7.917-3.491-7.989-7.86l-0.636-38.116
		c-0.074-4.413,3.446-8.052,7.859-8.125c0.046,0,0.091-0.001,0.135-0.001c4.353,0,7.917,3.491,7.989,7.86l0.636,38.116
		c0.074,4.413-3.446,8.052-7.859,8.125C286.491,424.703,286.444,424.703,286.4,424.703z M284.944,337.407
		c-4.353,0-7.917-3.491-7.989-7.86l-0.637-38.116c-0.074-4.413,3.444-8.051,7.859-8.125c0.046,0,0.091-0.001,0.135-0.001
		c4.353,0,7.917,3.491,7.989,7.86l0.637,38.116c0.074,4.413-3.444,8.051-7.859,8.125
		C285.034,337.407,284.988,337.407,284.944,337.407z M283.486,250.11c-4.353,0-7.917-3.491-7.989-7.86l-0.157-9.451
		c-0.074-4.413,3.446-8.052,7.859-8.125c0.046,0,0.091-0.001,0.135-0.001c4.353,0,7.917,3.491,7.989,7.86l0.157,9.452
		c0.074,4.413-3.446,8.052-7.859,8.125C283.575,250.11,283.53,250.11,283.486,250.11z"/>
	<path style="fill:#C0E8F6;" d="M351.593,512c-4.231,0-7.763-3.32-7.977-7.593l-0.487-9.743c-0.22-4.408,3.175-8.162,7.584-8.382
		c4.439-0.241,8.163,3.174,8.383,7.584l0.487,9.743c0.22,4.408-3.175,8.162-7.584,8.382C351.863,511.998,351.727,512,351.593,512z
		 M348.644,453.132c-4.23,0-7.762-3.32-7.976-7.593l-1.907-38.073c-0.221-4.408,3.175-8.163,7.584-8.383
		c4.363-0.229,8.162,3.174,8.383,7.584l1.907,38.073c0.221,4.408-3.175,8.163-7.584,8.383
		C348.914,453.128,348.779,453.132,348.644,453.132z M344.277,365.932c-4.231,0-7.763-3.32-7.977-7.593l-1.906-38.074
		c-0.22-4.408,3.175-8.162,7.584-8.382c4.412-0.23,8.163,3.175,8.383,7.584l1.906,38.073c0.22,4.408-3.175,8.163-7.584,8.383
		C344.548,365.929,344.411,365.932,344.277,365.932z M339.911,278.733c-4.231,0-7.763-3.32-7.977-7.593l-1.907-38.073
		c-0.221-4.408,3.175-8.163,7.584-8.383c4.364-0.234,8.162,3.173,8.383,7.584l1.907,38.073c0.221,4.409-3.175,8.163-7.584,8.383
		C340.181,278.729,340.045,278.733,339.911,278.733z"/>
</g>
<path style="fill:#E0555C;" d="M377.077,148.141v38.575c0,3.887-3.151,7.038-7.038,7.038H141.96c-3.887,0-7.038-3.15-7.038-7.038
	v-38.575c0-3.887,3.15-7.038,7.038-7.038h9.811h208.443h9.825C373.927,141.103,377.077,144.254,377.077,148.141z"/>
<path style="fill:#FD6568;" d="M345.769,148.141v38.575c0,3.887-2.336,7.038-5.218,7.038H171.45c-2.881,0-5.218-3.15-5.218-7.038
	v-38.575c0-3.887,2.336-7.038,5.218-7.038h7.274h154.543h7.285C343.432,141.103,345.769,144.254,345.769,148.141z"/>
<g>
</g>
<g>
</g>
<g>
</g>
<g>
</g>
<g>
</g>
<g>
</g>
<g>
</g>
<g>
</g>
<g>
</g>
<g>
</g>
<g>
</g>
<g>
</g>
<g>
</g>
<g>
</g>
<g>
</g>
</svg>
