<?xml version="1.0" encoding="iso-8859-1"?>
<!-- Generator: Adobe Illustrator 19.0.0, SVG Export Plug-In . SVG Version: 6.00 Build 0)  -->
<svg version="1.1" id="Layer_1" xmlns="http://www.w3.org/2000/svg" xmlns:xlink="http://www.w3.org/1999/xlink" x="0px" y="0px"
	 viewBox="0 0 511.999 511.999" style="enable-background:new 0 0 511.999 511.999;" xml:space="preserve">
<path style="fill:#C0E8F6;" d="M256.012,6.901c137.573,0,249.091,111.519,249.091,249.091S393.585,505.098,256.012,505.098
	S6.907,393.565,6.907,255.992S118.439,6.901,256.012,6.901z"/>
<path style="fill:#ACD9E5;" d="M505.104,255.992c0,78.245-36.069,148.075-92.503,193.742
	c-42.774,34.623-97.261,55.363-156.588,55.363c-137.573,0-249.105-111.533-249.105-249.105
	c0-109.043,70.066-201.713,167.619-235.459c25.539-8.833,52.956-13.632,81.486-13.632C393.585,6.901,505.104,118.42,505.104,255.992
	z"/>
<path style="fill:#C0E8F6;" d="M505.104,255.992c0,78.245-36.069,148.075-92.503,193.742c-25.525,8.833-52.943,13.632-81.473,13.632
	c-137.573,0-249.105-111.533-249.105-249.105c0-78.245,36.083-148.061,92.503-193.729c25.539-8.833,52.956-13.632,81.486-13.632
	C393.585,6.901,505.104,118.42,505.104,255.992z"/>
<g>
	<path style="fill:#9CCBD8;" d="M256.007,321.88c-37.012,0-74.085-3.348-110.183-9.951c-3.778-0.691-6.282-4.315-5.591-8.093
		c0.691-3.778,4.321-6.279,8.093-5.591c35.275,6.453,71.503,9.725,107.68,9.725c85.852,0,168.669-17.897,246.154-53.193
		c3.496-1.593,7.621-0.05,9.213,3.447c1.591,3.497,0.05,7.62-3.447,9.213C428.621,303.563,343.863,321.88,256.007,321.88z"/>
	<path style="fill:#9CCBD8;" d="M116.761,305.681c-0.531,0-1.071-0.061-1.611-0.189c-9.26-2.196-18.583-4.64-27.708-7.267
		c-3.692-1.063-5.823-4.916-4.76-8.608c1.063-3.692,4.919-5.82,8.608-4.76c8.915,2.566,18.022,4.955,27.069,7.1
		c3.738,0.886,6.05,4.635,5.163,8.373C122.764,303.527,119.91,305.681,116.761,305.681z"/>
	<path style="fill:#9CCBD8;" d="M60.321,289.33c-0.751,0-1.513-0.122-2.263-0.38c-18.246-6.276-36.41-13.519-53.984-21.529
		c-3.496-1.593-5.038-5.717-3.446-9.214c1.594-3.496,5.72-5.038,9.214-3.444c17.169,7.825,34.915,14.902,52.741,21.034
		c3.632,1.249,5.564,5.207,4.315,8.839C65.906,287.517,63.207,289.33,60.321,289.33z"/>
	<path style="fill:#9CCBD8;" d="M421.19,399.125c-3.028,0-5.814-1.993-6.685-5.051c-1.053-3.695,1.089-7.542,4.782-8.595
		c18.108-5.161,36.175-11.262,53.699-18.133c3.575-1.405,7.612,0.36,9.014,3.937c1.402,3.576-0.36,7.612-3.937,9.014
		c-17.937,7.034-36.43,13.279-54.964,18.56C422.463,399.037,421.821,399.125,421.19,399.125z"/>
	<path style="fill:#9CCBD8;" d="M256.007,422.09c-76.628,0-151.344-14.062-222.071-41.793c-3.576-1.402-5.339-5.438-3.937-9.014
		c1.402-3.576,5.436-5.339,9.014-3.937c69.104,27.096,142.11,40.834,216.993,40.834c40.97,0,81.901-4.191,121.657-12.458
		c3.759-0.783,7.443,1.633,8.227,5.393c0.782,3.761-1.633,7.443-5.393,8.227C339.811,417.801,297.925,422.09,256.007,422.09z"/>
	<path style="fill:#9CCBD8;" d="M434.037,194.889c-2.968,0-5.719-1.915-6.642-4.901c-1.135-3.67,0.918-7.564,4.588-8.699
		c18.36-5.681,36.661-12.345,54.395-19.805c3.539-1.487,7.619,0.174,9.108,3.714s-0.174,7.619-3.714,9.108
		c-18.15,7.635-36.883,14.457-55.676,20.271C435.41,194.787,434.718,194.889,434.037,194.889z"/>
	<path style="fill:#9CCBD8;" d="M256.007,221.67c-81.747,0-161.074-15.937-235.778-47.366c-3.54-1.49-5.204-5.567-3.714-9.108
		c1.491-3.54,5.57-5.201,9.108-3.714C98.61,192.19,176.121,207.76,256.007,207.76c47.711,0,95.185-5.667,141.102-16.843
		c3.738-0.903,7.495,1.383,8.403,5.113c0.908,3.732-1.381,7.495-5.113,8.403C353.406,215.871,304.825,221.67,256.007,221.67z"/>
	<path style="fill:#9CCBD8;" d="M256.007,121.46c-63.009,0-125.088-9.587-184.514-28.495c-3.66-1.164-5.684-5.076-4.519-8.737
		c1.164-3.661,5.076-5.687,8.737-4.519c58.06,18.474,118.72,27.841,180.297,27.841c61.553,0,122.209-9.363,180.284-27.828
		c0.682-0.217,1.392-0.327,2.107-0.327c3.841,0,6.962,3.115,6.962,6.955c0,3.208-2.167,5.908-5.118,6.712
		C380.883,111.905,318.899,121.46,256.007,121.46z"/>
</g>
<g>
</g>
<g>
</g>
<g>
</g>
<g>
</g>
<g>
</g>
<g>
</g>
<g>
</g>
<g>
</g>
<g>
</g>
<g>
</g>
<g>
</g>
<g>
</g>
<g>
</g>
<g>
</g>
<g>
</g>
</svg>
