<?xml version="1.0" encoding="iso-8859-1"?>
<!-- Generator: Adobe Illustrator 19.0.0, SVG Export Plug-In . SVG Version: 6.00 Build 0)  -->
<svg version="1.1" id="Layer_1" xmlns="http://www.w3.org/2000/svg" xmlns:xlink="http://www.w3.org/1999/xlink" x="0px" y="0px"
	 viewBox="0 0 512 512" style="enable-background:new 0 0 512 512;" xml:space="preserve">
<path style="fill:#EAD26C;" d="M409.848,376.927v30.217L25.241,443.79c-4.543-1.226-8.702-3.365-12.272-6.214
	c-1.034-0.805-2.007-1.683-2.933-2.608C3.834,428.778,0,420.208,0,410.749c0-18.918,15.337-34.255,34.255-34.255h347.948
	C384.042,376.494,408.093,376.638,409.848,376.927z"/>
<path style="fill:#FEE572;" d="M409.848,388.669v18.474L25.241,443.79c-4.543-1.226-8.702-3.365-12.272-6.214
	c-2.151-4.483-3.353-9.507-3.353-14.808c0-18.918,15.337-34.255,34.255-34.255h347.948
	C392.936,388.513,402.299,388.561,409.848,388.669z"/>
<g>
	<path style="fill:#7D7878;" d="M512,420.223v51.813h-42.105l-9.807-64.892h38.833C506.144,407.143,512,412.999,512,420.223z"/>
	<path style="fill:#7D7878;" d="M406.638,407.143v64.892H25.241v-51.813c0-7.224,5.856-13.079,13.079-13.079H406.638z"/>
</g>
<polygon style="fill:#FEE572;" points="468.378,61.635 381.202,160.158 330.12,160.158 328.317,158.355 446.707,39.964 "/>
<polygon style="fill:#7D7878;" points="403.438,150.542 403.438,188.391 290.655,188.391 290.655,150.542 332.426,150.542 "/>
<path style="fill:#E0555C;" d="M306.481,150.542v37.849H195.603c-5.228,0-9.952-2.115-13.378-5.541
	c-3.438-3.426-5.553-8.161-5.553-13.39c0-10.445,8.486-18.918,18.93-18.918C195.603,150.542,306.481,150.542,306.481,150.542z"/>
<polygon style="fill:#999999;" points="403.438,159.533 403.438,179.401 290.655,179.401 290.655,159.533 332.426,159.533 "/>
<path style="fill:#FD6568;" d="M306.481,159.533v19.868H205.87c-4.744,0-9.03-1.111-12.138-2.909
	c-3.119-1.798-5.039-4.284-5.039-7.029c0-5.483,7.7-9.93,17.178-9.93H306.481z"/>
<rect x="367.576" y="407.143" style="fill:#666666;" width="39.063" height="64.892"/>
<path style="fill:#E0555C;" d="M476.435,407.143l6.719,64.892h-95.542v-64.892v-30.217V188.391v-37.849v-34.592
	c0-5.131,4.16-9.291,9.291-9.291h23.245h16.767c4.761,0,8.751,3.599,9.242,8.333L476.435,407.143z"/>
<polygon style="fill:#FD6568;" points="397.227,462.42 397.227,135.329 432.187,135.329 459.03,411.123 464.018,462.42 "/>
<g>
</g>
<g>
</g>
<g>
</g>
<g>
</g>
<g>
</g>
<g>
</g>
<g>
</g>
<g>
</g>
<g>
</g>
<g>
</g>
<g>
</g>
<g>
</g>
<g>
</g>
<g>
</g>
<g>
</g>
</svg>
