<?xml version="1.0" encoding="iso-8859-1"?>
<!-- Generator: Adobe Illustrator 19.0.0, SVG Export Plug-In . SVG Version: 6.00 Build 0)  -->
<svg version="1.1" id="Layer_1" xmlns="http://www.w3.org/2000/svg" xmlns:xlink="http://www.w3.org/1999/xlink" x="0px" y="0px"
	 viewBox="0 0 512 512" style="enable-background:new 0 0 512 512;" xml:space="preserve">
<g>
	<polygon style="fill:#7D7878;" points="109.334,267.537 105.022,276.861 93.011,302.894 23.409,453.797 0,453.797 69.615,302.894 
		90.037,258.638 105.022,265.55 	"/>
	<polygon style="fill:#7D7878;" points="210.044,453.797 186.648,453.797 117.033,302.894 105.022,276.861 100.723,267.537 
		105.022,265.55 120.02,258.638 140.429,302.894 	"/>
	<polygon style="fill:#7D7878;" points="411.277,267.537 406.978,276.836 406.978,276.848 394.967,302.894 325.352,453.797 
		301.943,453.797 371.571,302.894 391.993,258.638 406.99,265.55 	"/>
	<polygon style="fill:#7D7878;" points="512,453.797 488.603,453.797 418.989,302.894 406.978,276.848 406.978,276.836 
		402.691,267.537 406.99,265.55 421.976,258.638 442.385,302.894 	"/>
</g>
<g>
	<polygon style="fill:#666666;" points="140.429,302.894 117.033,302.894 105.022,276.861 93.011,302.894 69.615,302.894 
		90.037,258.638 105.022,265.55 120.02,258.638 	"/>
	<polygon style="fill:#666666;" points="442.385,302.894 418.989,302.894 406.978,276.848 394.967,302.894 371.571,302.894 
		391.993,258.638 406.99,265.55 421.976,258.638 	"/>
</g>
<g>
	<path style="fill:#7D7878;" d="M400.436,140.718c-6.558,0-11.873-5.315-11.873-11.873V94.801c0-7.086-5.765-12.852-12.852-12.852
		h-59.279c-7.086,0-12.852,5.765-12.852,12.852v34.044c0,6.558-5.315,11.873-11.873,11.873s-11.873-5.315-11.873-11.873V94.801
		c0-20.181,16.419-36.598,36.598-36.598h59.279c20.18,0,36.598,16.418,36.598,36.598v34.044
		C412.31,135.403,406.994,140.718,400.436,140.718z"/>
	<path style="fill:#7D7878;" d="M241.091,140.718c-6.558,0-11.873-5.315-11.873-11.873V94.801c0-7.086-5.765-12.852-12.852-12.852
		h-59.278c-7.086,0-12.852,5.765-12.852,12.852v34.044c0,6.558-5.315,11.873-11.873,11.873c-6.558,0-11.873-5.315-11.873-11.873
		V94.801c0-20.181,16.418-36.598,36.598-36.598h59.278c20.181,0,36.598,16.418,36.598,36.598v34.044
		C252.964,135.403,247.649,140.718,241.091,140.718z"/>
</g>
<path style="fill:#EAAC60;" d="M471.481,147.042v101.423c0,16.51-13.386,29.896-29.896,29.896H139.805
	c15.485,0-32.945-12.561-32.945-28.046l0.262-1.85l14.735-103.272c0-15.498,33.433-28.046,17.947-28.046h301.781
	C458.095,117.147,471.481,130.532,471.481,147.042z"/>
<path style="fill:#D39653;" d="M471.481,248.465c0,16.51-13.386,29.896-29.896,29.896H139.805c15.485,0-32.945-12.561-32.945-28.046
	l0.262-1.85H471.481z"/>
<path style="fill:#FEC274;" d="M167.85,145.192v105.122c0,15.485-12.561,28.046-28.046,28.046h-7.636h-15.673H96.898H72.089
	c-16.51,0-29.896-13.386-29.896-29.896V147.042c0-16.51,13.386-29.896,29.896-29.896h56.329h3.949h7.436
	C155.29,117.147,167.85,129.695,167.85,145.192z"/>
<g>
	<rect x="65.929" y="163.176" style="fill:#EAAC60;" width="78.114" height="16.248"/>
	<rect x="65.929" y="216.706" style="fill:#EAAC60;" width="78.114" height="16.248"/>
</g>
<g>
</g>
<g>
</g>
<g>
</g>
<g>
</g>
<g>
</g>
<g>
</g>
<g>
</g>
<g>
</g>
<g>
</g>
<g>
</g>
<g>
</g>
<g>
</g>
<g>
</g>
<g>
</g>
<g>
</g>
</svg>
