<?xml version="1.0" encoding="iso-8859-1"?>
<!-- Generator: Adobe Illustrator 19.0.0, SVG Export Plug-In . SVG Version: 6.00 Build 0)  -->
<svg version="1.1" id="Layer_1" xmlns="http://www.w3.org/2000/svg" xmlns:xlink="http://www.w3.org/1999/xlink" x="0px" y="0px"
	 viewBox="0 0 512 512" style="enable-background:new 0 0 512 512;" xml:space="preserve">
<g>
	<polygon style="fill:#CCCCCC;" points="395.108,270.903 286.699,270.903 281.5,270.903 281.5,241.086 286.699,241.086 
		395.108,241.086 	"/>
	<polygon style="fill:#CCCCCC;" points="226.012,241.086 226.012,270.903 221.224,270.903 121.38,270.903 121.38,241.086 
		221.224,241.086 	"/>
</g>
<g>
	<polygon style="fill:#FD6568;" points="138.671,270.903 138.671,278.124 30.612,278.124 30.612,233.876 138.671,233.876 
		138.671,241.086 	"/>
	<polygon style="fill:#FD6568;" points="481.707,233.876 481.707,278.124 373.329,278.124 373.329,270.903 373.329,241.086 
		373.329,233.876 	"/>
</g>
<path style="fill:#666666;" d="M256.006,479.298c-26.117,0-47.285-21.168-47.285-47.273V270.903v-29.817V79.987
	c0-26.117,21.168-47.285,47.285-47.285c13.047,0,24.868,5.286,33.428,13.846c8.548,8.559,13.846,20.381,13.846,33.439v161.099
	v29.817v161.121C303.279,458.13,282.111,479.298,256.006,479.298z"/>
<path style="fill:#808080;" d="M256.003,439.776c-14.086,0-25.503-17.421-25.503-38.906V268.265v-24.54V111.139
	c0-21.494,11.417-38.915,25.503-38.915c7.036,0,13.413,4.351,18.03,11.395c4.61,7.044,7.467,16.773,7.467,27.521v132.586v24.54
	V400.87C281.5,422.355,270.083,439.776,256.003,439.776z"/>
<g>
	<path style="fill:#FEE572;" d="M38.86,233.876v44.248H24.677c-6.805,0-12.98-2.474-17.445-6.479S0,262.107,0,256
		c0-12.215,11.056-22.124,24.677-22.124H38.86z"/>
	<path style="fill:#FEE572;" d="M504.779,240.355C509.233,244.359,512,249.893,512,256c0,12.215-11.045,22.124-24.677,22.124H473.14
		v-44.248h14.183C494.139,233.876,500.303,236.351,504.779,240.355z"/>
</g>
<g>
	<path style="fill:#E0555C;" d="M138.672,290.793c-4.038,0-7.311-3.273-7.311-7.311V228.51c0-4.038,3.273-7.311,7.311-7.311
		c4.038,0,7.311,3.273,7.311,7.311v54.972C145.983,287.52,142.71,290.793,138.672,290.793z"/>
	<path style="fill:#E0555C;" d="M373.324,290.793c-4.038,0-7.311-3.273-7.311-7.311V228.51c0-4.038,3.273-7.311,7.311-7.311
		s7.311,3.273,7.311,7.311v54.972C380.635,287.52,377.361,290.793,373.324,290.793z"/>
</g>
<g>
</g>
<g>
</g>
<g>
</g>
<g>
</g>
<g>
</g>
<g>
</g>
<g>
</g>
<g>
</g>
<g>
</g>
<g>
</g>
<g>
</g>
<g>
</g>
<g>
</g>
<g>
</g>
<g>
</g>
</svg>
