<?xml version="1.0" encoding="iso-8859-1"?>
<!-- Generator: Adobe Illustrator 19.0.0, SVG Export Plug-In . SVG Version: 6.00 Build 0)  -->
<svg version="1.1" id="Layer_1" xmlns="http://www.w3.org/2000/svg" xmlns:xlink="http://www.w3.org/1999/xlink" x="0px" y="0px"
	 viewBox="0 0 512 512" style="enable-background:new 0 0 512 512;" xml:space="preserve">
<g>
	<path style="fill:#EF626A;" d="M498.416,474.796l-67.259,27.854l-16.892,7.002c-15.652,6.491-33.591-0.945-40.069-16.598
		l-83.474-201.523l25.695-22.629l20.086-17.671l66.71-6.286l14.464,34.933l3.182,7.679l3.182,7.666l10.465,25.261l3.182,7.679
		l3.182,7.666l10.452,25.248l3.182,7.679l3.182,7.679l10.452,25.248l3.182,7.679l3.182,7.666L498.416,474.796z"/>
	<path style="fill:#EF626A;" d="M221.278,291.532l-0.549,1.329l-82.924,200.194c-6.478,15.652-24.417,23.088-40.069,16.598
		l-60.373-25.005l-23.778-9.851l23.919-57.766l3.182-7.666l3.182-7.679l10.465-25.248l3.182-7.679l3.182-7.666l10.452-25.261
		l3.182-7.666l3.182-7.679l10.465-25.248l3.169-7.666l3.182-7.679l14.477-34.946l59.785,5.009L221.278,291.532z"/>
</g>
<path style="fill:#FEE572;" d="M347.593,219.801l-7.257-17.032l-21.427-50.317c24.852-24.75,33.745-62.954,19.498-97.375
	c-18.859-45.5-71.029-67.119-116.541-48.26c-45.5,18.846-67.106,71.016-48.26,116.529c4.434,10.72,10.733,20.086,18.348,27.931
	l-27.535,68.524l-0.831,2.006l4.996,28.148l29.771-13.748v-0.013l26.321-63.477c9.941,3.731,20.559,5.711,31.343,5.711
	c10.439,0,21.019-1.853,31.317-5.724l18.399,44.401l7.909,19.089v0.013l21.9,14.4l0.958,0.626l0.498-1.239l11.423-28.199
	L347.593,219.801z M275.428,136.122c-25.9,10.72-55.607-1.572-66.327-27.484c-10.733-25.899,1.572-55.607,27.471-66.34
	c25.912-10.72,55.607,1.572,66.339,27.484C313.644,95.682,301.34,125.389,275.428,136.122z"/>
<g>
	<polygon style="fill:#EAD475;" points="348.424,221.794 337.001,249.993 335.545,250.607 313.644,236.207 313.644,236.194 
		305.735,217.105 332.606,205.976 340.336,202.769 347.593,219.801 	"/>
	<polygon style="fill:#EAD475;" points="163.575,221.794 174.998,249.993 176.455,250.607 198.355,236.207 198.355,236.194 
		206.264,217.105 179.394,205.976 171.663,202.769 164.406,219.801 	"/>
</g>
<path style="fill:#E0555C;" d="M447.205,203.803c1.099,2.645,1.61,5.392,1.61,8.088c0,8.305-4.919,16.202-13.071,19.575
	l-32.531,13.48l-112.491,46.586l-4.472-10.797c-6.478-15.639,0.946-33.579,16.598-40.057l10.797-4.472l34.78-14.413l71.105-29.452
	C430.339,187.87,442.72,192.994,447.205,203.803z"/>
<path style="fill:#FD6568;" d="M474.497,417.03l-3.182-7.666l-3.182-7.679l-10.452-25.248l-3.182-7.679l-3.182-7.679l-10.452-25.248
	l-3.182-7.666l-3.182-7.679l-10.465-25.261l-3.182-7.666l-3.182-7.679l-11.381-27.485l-0.528,0.218l-82.029,33.971l80.879,195.266
	c4.766,11.512,15.064,19.051,26.538,20.801l67.259-27.854L474.497,417.03z"/>
<path style="fill:#E0555C;" d="M209.152,240.679c15.652,6.478,23.076,24.417,16.598,40.057l-4.472,10.797l-112.478-46.586
	l-32.531-13.48c-8.152-3.373-13.084-11.257-13.084-19.575c0-2.696,0.524-5.443,1.623-8.088c4.472-10.81,16.853-15.933,27.663-11.461
	l71.118,29.464l34.767,14.4L209.152,240.679z"/>
<path style="fill:#FD6568;" d="M128.064,265.68l-13.299,32.1l-3.182,7.679l-3.169,7.666L97.95,338.374l-3.182,7.679l-3.182,7.666
	L81.135,378.98l-3.182,7.666l-3.182,7.679l-10.465,25.248l-3.182,7.679l-3.182,7.666L37.36,484.648l60.373,25.005
	c15.652,6.491,33.591-0.945,40.069-16.598l78.966-190.637L128.064,265.68z"/>
<g>
	<path style="fill:#E0555C;" d="M424.04,295.225l-59.938,24.826c-1.035,0.434-2.108,0.639-3.169,0.639
		c-3.258,0-6.35-1.929-7.679-5.136c-1.75-4.229,0.256-9.097,4.498-10.848l59.925-24.826l3.182,7.679L424.04,295.225z"/>
	<path style="fill:#E0555C;" d="M440.867,335.831l-60.258,24.954c-1.035,0.434-2.121,0.626-3.169,0.626
		c-3.258,0-6.363-1.929-7.679-5.124c-1.763-4.242,0.256-9.097,4.498-10.848l60.245-24.954l3.182,7.679L440.867,335.831z"/>
	<path style="fill:#E0555C;" d="M457.682,376.437l-60.564,25.082c-1.048,0.422-2.121,0.626-3.182,0.626
		c-3.258,0-6.35-1.929-7.666-5.124c-1.763-4.242,0.256-9.097,4.485-10.848l60.564-25.095l3.182,7.679L457.682,376.437z"/>
	<path style="fill:#E0555C;" d="M474.497,417.03l-60.871,25.222c-1.048,0.422-2.121,0.626-3.182,0.626
		c-3.258,0-6.35-1.929-7.679-5.124c-1.75-4.242,0.268-9.097,4.498-10.848l60.871-25.222l3.182,7.679L474.497,417.03z"/>
	<path style="fill:#E0555C;" d="M109.221,437.755c-1.316,3.194-4.408,5.124-7.666,5.124c-1.061,0-2.147-0.204-3.182-0.626
		L37.502,417.03l3.182-7.666l3.182-7.679l60.871,25.222C108.965,428.658,110.984,433.513,109.221,437.755z"/>
	<path style="fill:#E0555C;" d="M125.729,397.021c-1.329,3.194-4.421,5.124-7.679,5.124c-1.048,0-2.134-0.204-3.169-0.626
		L54.33,376.437l3.182-7.679l3.182-7.666l60.539,25.082C125.474,387.924,127.492,392.779,125.729,397.021z"/>
	<path style="fill:#E0555C;" d="M142.237,356.287c-1.329,3.194-4.421,5.124-7.679,5.124c-1.061,0-2.134-0.192-3.169-0.626
		l-60.245-24.954l3.182-7.666l3.182-7.679l60.232,24.954C141.982,347.19,143.988,352.045,142.237,356.287z"/>
	<path style="fill:#E0555C;" d="M158.746,315.553c-1.329,3.207-4.421,5.136-7.679,5.136c-1.061,0-2.134-0.204-3.182-0.639
		l-59.913-24.813l3.169-7.666l3.182-7.679l59.925,24.813C158.49,306.456,160.496,311.324,158.746,315.553z"/>
</g>
<g>
</g>
<g>
</g>
<g>
</g>
<g>
</g>
<g>
</g>
<g>
</g>
<g>
</g>
<g>
</g>
<g>
</g>
<g>
</g>
<g>
</g>
<g>
</g>
<g>
</g>
<g>
</g>
<g>
</g>
</svg>
