<?xml version="1.0" encoding="iso-8859-1"?>
<!-- Generator: Adobe Illustrator 19.0.0, SVG Export Plug-In . SVG Version: 6.00 Build 0)  -->
<svg version="1.1" id="Layer_1" xmlns="http://www.w3.org/2000/svg" xmlns:xlink="http://www.w3.org/1999/xlink" x="0px" y="0px"
	 viewBox="0 0 512 512" style="enable-background:new 0 0 512 512;" xml:space="preserve">
<rect y="242.625" style="fill:#666666;" width="512" height="26.75"/>
<g>
	<rect x="446.188" y="198.649" style="fill:#B3B3B3;" width="55.506" height="114.701"/>
	<rect x="10.305" y="198.649" style="fill:#B3B3B3;" width="51.167" height="114.701"/>
</g>
<g>
	<polygon style="fill:#999999;" points="464.814,313.35 464.814,329.763 414.373,329.763 414.373,182.237 464.814,182.237 
		464.814,198.649 	"/>
	<polygon style="fill:#999999;" points="97.627,182.237 97.627,329.763 47.186,329.763 47.186,313.35 47.186,198.649 
		47.186,182.237 	"/>
</g>
<g>
	<polygon style="fill:#808080;" points="427.932,182.237 427.932,329.763 391.051,329.763 391.051,269.375 391.051,242.625 
		391.051,182.237 	"/>
	<polygon style="fill:#808080;" points="120.949,269.375 120.949,329.763 84.068,329.763 84.068,182.237 120.949,182.237 
		120.949,242.625 	"/>
</g>
<g>
	<rect x="446.188" y="220.572" style="fill:#CCCCCC;" width="55.506" height="70.845"/>
	<rect x="10.305" y="220.572" style="fill:#CCCCCC;" width="51.167" height="70.845"/>
</g>
<g>
	<polygon style="fill:#B3B3B3;" points="464.814,291.422 464.814,301.559 414.373,301.559 414.373,210.441 464.814,210.441 
		464.814,220.578 	"/>
	<polygon style="fill:#B3B3B3;" points="97.627,210.441 97.627,301.559 47.186,301.559 47.186,291.422 47.186,220.578 
		47.186,210.441 	"/>
</g>
<g>
	<polygon style="fill:#999999;" points="427.932,210.441 427.932,301.559 391.051,301.559 391.051,264.261 391.051,247.739 
		391.051,210.441 	"/>
	<polygon style="fill:#999999;" points="120.949,264.261 120.949,301.559 84.068,301.559 84.068,210.441 120.949,210.441 
		120.949,247.739 	"/>
</g>
<g>
	<rect x="446.188" y="229.022" style="fill:#E6E6E6;" width="55.506" height="30.362"/>
	<rect x="10.305" y="229.022" style="fill:#E6E6E6;" width="51.167" height="30.362"/>
</g>
<g>
	<polygon style="fill:#CCCCCC;" points="464.814,259.38 464.814,263.724 414.373,263.724 414.373,224.674 464.814,224.674 
		464.814,229.018 	"/>
	<polygon style="fill:#CCCCCC;" points="97.627,224.674 97.627,263.724 47.186,263.724 47.186,259.38 47.186,229.018 
		47.186,224.674 	"/>
</g>
<g>
	<polygon style="fill:#B3B3B3;" points="427.932,224.674 427.932,263.724 391.051,263.724 391.051,247.739 391.051,240.658 
		391.051,224.674 	"/>
	<polygon style="fill:#B3B3B3;" points="120.949,247.739 120.949,263.724 84.068,263.724 84.068,224.674 120.949,224.674 
		120.949,240.658 	"/>
</g>
<g>
</g>
<g>
</g>
<g>
</g>
<g>
</g>
<g>
</g>
<g>
</g>
<g>
</g>
<g>
</g>
<g>
</g>
<g>
</g>
<g>
</g>
<g>
</g>
<g>
</g>
<g>
</g>
<g>
</g>
</svg>
