<?xml version="1.0" encoding="iso-8859-1"?>
<!-- Generator: Adobe Illustrator 19.0.0, SVG Export Plug-In . SVG Version: 6.00 Build 0)  -->
<svg version="1.1" id="Layer_1" xmlns="http://www.w3.org/2000/svg" xmlns:xlink="http://www.w3.org/1999/xlink" x="0px" y="0px"
	 viewBox="0 0 512 512" style="enable-background:new 0 0 512 512;" xml:space="preserve">
<path style="fill:#7D7878;" d="M321.044,175.184c-2.616,0-5.157-1.368-6.54-3.804l-58.51-102.992l-58.51,102.992
	c-2.05,3.61-6.636,4.872-10.246,2.822c-3.608-2.05-4.872-6.638-2.821-10.247l65.045-114.492c1.335-2.35,3.83-3.803,6.534-3.803
	c2.703,0,5.198,1.452,6.534,3.803l65.045,114.492c2.05,3.61,0.787,8.196-2.821,10.247
	C323.577,174.868,322.302,175.184,321.044,175.184z"/>
<path style="fill:#E0555C;" d="M351.708,189.302v292.973c0,16.418-13.307,29.725-29.725,29.725H190.017
	c-16.418,0-29.725-13.307-29.725-29.725V189.302c0-16.418,13.307-29.725,29.725-29.725h131.965
	C338.4,159.577,351.708,172.884,351.708,189.302z"/>
<path style="fill:#FD6568;" d="M303.149,189.302v292.973c0,16.418-13.307,29.725-29.725,29.725h-83.406
	c-16.418,0-29.725-13.307-29.725-29.725V189.302c0-16.418,13.307-29.725,29.725-29.725h83.406
	C289.841,159.577,303.149,172.884,303.149,189.302z"/>
<path style="fill:#7D7878;" d="M255.992,188.557c-4.151,0-7.515-3.364-7.515-7.515V7.515c0-4.151,3.364-7.515,7.515-7.515
	s7.515,3.364,7.515,7.515v173.527C263.507,185.193,260.143,188.557,255.992,188.557z"/>
<path style="fill:#F98086;" d="M213.222,382.625L213.222,382.625c-11.493,0-20.811-9.318-20.811-20.811V221.917
	c0-11.493,9.318-20.811,20.811-20.811l0,0c11.493,0,20.811,9.318,20.811,20.811v139.896
	C234.033,373.308,224.715,382.625,213.222,382.625z"/>
<g>
</g>
<g>
</g>
<g>
</g>
<g>
</g>
<g>
</g>
<g>
</g>
<g>
</g>
<g>
</g>
<g>
</g>
<g>
</g>
<g>
</g>
<g>
</g>
<g>
</g>
<g>
</g>
<g>
</g>
</svg>
