<?xml version="1.0" encoding="iso-8859-1"?>
<!-- Generator: Adobe Illustrator 19.0.0, SVG Export Plug-In . SVG Version: 6.00 Build 0)  -->
<svg version="1.1" id="Layer_1" xmlns="http://www.w3.org/2000/svg" xmlns:xlink="http://www.w3.org/1999/xlink" x="0px" y="0px"
	 viewBox="0 0 512 512" style="enable-background:new 0 0 512 512;" xml:space="preserve">
<path style="fill:#9CCBD8;" d="M177.354,264.905h-35.65c-19.887,0-36.067-16.18-36.067-36.066V126.203
	c0-19.887,16.18-36.066,36.067-36.066h35.65v15.67h-35.65c-11.247,0-20.397,9.15-20.397,20.396V228.84
	c0,11.247,9.15,20.396,20.397,20.396h35.65V264.905z"/>
<path style="fill:#E0555C;" d="M377.434,22.986V36.51L270.341,76.554L169.522,36.51V22.986C169.522,10.294,179.815,0,192.52,0
	h161.916C367.14,0,377.434,10.294,377.434,22.986z"/>
<path style="fill:#FD6568;" d="M342.48,22.986V36.51l-71.082,40.043l-66.92-40.043V22.986C204.477,10.294,211.309,0,219.742,0
	h107.472C335.646,0,342.48,10.294,342.48,22.986z"/>
<rect x="223.714" y="300.737" style="fill:#9CCBD8;" width="104.3" height="93.463"/>
<path style="fill:#F2D766;" d="M373.167,388.752v97.043H178.574v-97.043c0-13.813,11.198-25.011,24.999-25.011h20.142h104.3h20.142
	C361.969,363.741,373.167,374.939,373.167,388.752z"/>
<path style="fill:#FEE572;" d="M349.891,388.752v97.043H201.849v-97.043c0-13.813,8.519-25.011,19.019-25.011h15.324h79.349h15.324
	C341.372,363.741,349.891,374.939,349.891,388.752z"/>
<path style="fill:#C0E8F6;" d="M406.362,36.51l-28.929,72.309v173.005c0,27.277-22.106,49.371-49.371,49.371h-0.048h-104.3h-4.821
	c-27.265,0-49.371-22.094-49.371-49.371v-24.746V97.972V36.51h207.912H406.362z"/>
<g>
	<path style="fill:#9CCBD8;" d="M204.477,281.825v-24.746V97.972V36.51h-34.955v61.461v159.107v24.746
		c0,27.277,22.106,49.371,49.371,49.371h4.821h30.134C226.583,331.196,204.477,309.102,204.477,281.825z"/>
	<path style="fill:#9CCBD8;" d="M342.478,281.825v-24.746V97.972V36.51h63.884l-28.929,72.309v148.259v24.746
		c0,27.277-22.106,49.371-49.371,49.371h-4.821h-30.134C320.372,331.196,342.478,309.102,342.478,281.825z"/>
</g>
<g>
	<rect x="194.231" y="104.601" style="fill:#808080;" width="53.636" height="12.054"/>
	<rect x="194.231" y="144.98" style="fill:#808080;" width="33.749" height="12.054"/>
	<rect x="194.231" y="185.36" style="fill:#808080;" width="53.636" height="12.054"/>
	<rect x="194.231" y="225.727" style="fill:#808080;" width="33.749" height="12.054"/>
</g>
<polygon style="fill:#E0555C;" points="393.381,480.371 393.381,512 158.36,512 158.36,480.371 178.574,480.371 373.167,480.371 "/>
<g>
	<polygon style="fill:#FD6568;" points="373.167,480.371 373.167,512 178.574,512 178.574,480.371 195.311,480.371 356.43,480.371 	
		"/>
	<circle style="fill:#FD6568;" cx="275.87" cy="424.768" r="31.58"/>
</g>
<g>
</g>
<g>
</g>
<g>
</g>
<g>
</g>
<g>
</g>
<g>
</g>
<g>
</g>
<g>
</g>
<g>
</g>
<g>
</g>
<g>
</g>
<g>
</g>
<g>
</g>
<g>
</g>
<g>
</g>
</svg>
