<?xml version="1.0" encoding="UTF-8" standalone="no"?>
<svg xmlns:dc="http://purl.org/dc/elements/1.1/" xmlns:cc="http://creativecommons.org/ns#" xmlns:rdf="http://www.w3.org/1999/02/22-rdf-syntax-ns#" xmlns:svg="http://www.w3.org/2000/svg" xmlns="http://www.w3.org/2000/svg" xmlns:sodipodi="http://sodipodi.sourceforge.net/DTD/sodipodi-0.dtd" xmlns:inkscape="http://www.inkscape.org/namespaces/inkscape" width="64" height="64" viewBox="0 0 64.000001 64.000001" id="svg7251" version="1.1" inkscape:version="0.91 r13725" sodipodi:docname="1.svg">
  <defs id="defs7253"/>
  <sodipodi:namedview id="base" pagecolor="#ffffff" bordercolor="#666666" borderopacity="1.0" inkscape:pageopacity="0.0" inkscape:pageshadow="2" inkscape:zoom="5.6" inkscape:cx="42.49179" inkscape:cy="40.817867" inkscape:document-units="px" inkscape:current-layer="layer1" showgrid="true" units="px" inkscape:snap-bbox="true" inkscape:bbox-paths="true" inkscape:bbox-nodes="true" inkscape:snap-bbox-edge-midpoints="true" inkscape:snap-bbox-midpoints="true" inkscape:window-width="1366" inkscape:window-height="705" inkscape:window-x="-8" inkscape:window-y="-8" inkscape:window-maximized="1">
    <inkscape:grid type="xygrid" id="grid7259"/>
  </sodipodi:namedview>
  
  <g inkscape:label="Layer 1" inkscape:groupmode="layer" id="layer1" transform="translate(0,-988.36216)">
    <g id="g7380">
      <path inkscape:connector-curvature="0" id="path7488" d="m 33.44155,1025.8263 a 2.4964163,2.50025 0 0 0 -2.457167,2.5352 l 0,13.5 a 2.4964163,2.50025 0 0 0 2.496167,2.5 l 7.987734,0 a 2.4964163,2.50025 0 1 0 0,-5 l -5.491567,0 0,-11 a 2.4964163,2.50025 0 0 0 -2.535167,-2.5352 z" style="color:#000000;font-style:normal;font-variant:normal;font-weight:normal;font-stretch:normal;font-size:medium;line-height:normal;font-family:sans-serif;text-indent:0;text-align:start;text-decoration:none;text-decoration-line:none;text-decoration-style:solid;text-decoration-color:#000000;letter-spacing:normal;word-spacing:normal;text-transform:none;direction:ltr;block-progression:tb;writing-mode:lr-tb;baseline-shift:baseline;text-anchor:start;white-space:normal;clip-rule:nonzero;display:inline;overflow:visible;visibility:visible;opacity:1;isolation:auto;mix-blend-mode:normal;color-interpolation:sRGB;color-interpolation-filters:linearRGB;solid-color:#000000;solid-opacity:1;fill:#ffd6b6;fill-opacity:1;fill-rule:evenodd;stroke:none;stroke-width:5;stroke-linecap:round;stroke-linejoin:round;stroke-miterlimit:4;stroke-dasharray:none;stroke-dashoffset:0;stroke-opacity:1;color-rendering:auto;image-rendering:auto;shape-rendering:auto;text-rendering:auto;enable-background:accumulate"/>
      <path inkscape:connector-curvature="0" id="path7495" d="m 22.497417,1028.3654 a 2.4964163,2.50025 0 0 0 -2.496167,2.5 l 0,10 a 2.4964163,2.50025 0 1 0 4.992333,0 l 0,-7.5 5.462322,0 a 2.4964163,2.50025 0 1 0 0,-5 l -7.958488,0 z" style="color:#000000;font-style:normal;font-variant:normal;font-weight:normal;font-stretch:normal;font-size:medium;line-height:normal;font-family:sans-serif;text-indent:0;text-align:start;text-decoration:none;text-decoration-line:none;text-decoration-style:solid;text-decoration-color:#000000;letter-spacing:normal;word-spacing:normal;text-transform:none;direction:ltr;block-progression:tb;writing-mode:lr-tb;baseline-shift:baseline;text-anchor:start;white-space:normal;clip-rule:nonzero;display:inline;overflow:visible;visibility:visible;opacity:1;isolation:auto;mix-blend-mode:normal;color-interpolation:sRGB;color-interpolation-filters:linearRGB;solid-color:#000000;solid-opacity:1;fill:#ffd6b6;fill-opacity:1;fill-rule:evenodd;stroke:none;stroke-width:5;stroke-linecap:round;stroke-linejoin:round;stroke-miterlimit:4;stroke-dasharray:none;stroke-dashoffset:0;stroke-opacity:1;color-rendering:auto;image-rendering:auto;shape-rendering:auto;text-rendering:auto;enable-background:accumulate"/>
      <path inkscape:connector-curvature="0" id="path7499" d="m 33.44155,1006.8263 a 2.4964163,2.50025 0 0 0 -2.457167,2.5352 l -0.002,6 a 2.4964163,2.50025 0 1 0 4.992333,0 l 0.002,-6 a 2.4964163,2.50025 0 0 0 -2.535167,-2.5352 z" style="color:#000000;font-style:normal;font-variant:normal;font-weight:normal;font-stretch:normal;font-size:medium;line-height:normal;font-family:sans-serif;text-indent:0;text-align:start;text-decoration:none;text-decoration-line:none;text-decoration-style:solid;text-decoration-color:#000000;letter-spacing:normal;word-spacing:normal;text-transform:none;direction:ltr;block-progression:tb;writing-mode:lr-tb;baseline-shift:baseline;text-anchor:start;white-space:normal;clip-rule:nonzero;display:inline;overflow:visible;visibility:visible;opacity:1;isolation:auto;mix-blend-mode:normal;color-interpolation:sRGB;color-interpolation-filters:linearRGB;solid-color:#000000;solid-opacity:1;fill:#ffd6b6;fill-opacity:1;fill-rule:evenodd;stroke:none;stroke-width:5;stroke-linecap:round;stroke-linejoin:round;stroke-miterlimit:4;stroke-dasharray:none;stroke-dashoffset:0;stroke-opacity:1;color-rendering:auto;image-rendering:auto;shape-rendering:auto;text-rendering:auto;enable-background:accumulate"/>
      <path inkscape:connector-curvature="0" id="rect7502" d="m 31.981602,1025.3622 3.993867,0 c 1.106301,0 1.996933,0.892 1.996933,2 l 0,4.0025 c 0,1.108 -0.890632,2 -1.996933,2 l -3.993867,0 c -1.106301,0 -1.996933,-0.892 -1.996933,-2 l 0,-4.0025 c 0,-1.108 0.890632,-2 1.996933,-2 z" style="fill:#354d62;fill-opacity:1;stroke:none;stroke-width:0.5;stroke-linecap:round;stroke-linejoin:round;stroke-miterlimit:4;stroke-dasharray:none;stroke-opacity:1"/>
      <path inkscape:connector-curvature="0" id="rect7504" d="m 33.978535,1011.3622 c 2.212603,0 3.993867,1.784 3.993867,4 l 0,8 c 0,2.216 -1.781264,4 -3.993867,4 -2.212602,0 -3.993866,-1.784 -3.993866,-4 l 0,-8 c 0,-2.216 1.781264,-4 3.993866,-4 z" style="fill:#5acfd6;fill-opacity:1;stroke:none;stroke-width:0.5;stroke-linecap:round;stroke-linejoin:round;stroke-miterlimit:4;stroke-dasharray:none;stroke-opacity:1"/>
      <path sodipodi:nodetypes="sssssssss" inkscape:connector-curvature="0" id="path7509" d="m 39.969495,1043.3625 0,-3.0003 c 0,-0.5539 0.445217,-0.9997 0.998167,-0.9997 l 1.997633,0 c 0.552951,0 0.998067,0.4458 0.998067,0.9997 l 0,3.0003 c 0,0.5538 -0.445116,0.9997 -0.998067,0.9997 l -1.997633,0 c -0.55295,0 -0.998167,-0.4459 -0.998167,-0.9997 z" style="fill:#d0e3eb;fill-opacity:1;stroke:none;stroke-width:4;stroke-opacity:1"/>
      <path sodipodi:nodetypes="ccccc" inkscape:connector-curvature="0" id="path7511" d="m 38.971029,1044.3622 0,-4.9997 0.998466,0 0,4.9997 z" style="fill:#d0e3eb;fill-opacity:1;stroke:none;stroke-width:4;stroke-opacity:1"/>
      <path sodipodi:nodetypes="ccccc" inkscape:connector-curvature="0" id="path7513" d="m 39.969495,1044.3622 0,-4.9997 0.998467,0 0,4.9997 z" style="fill:#354d62;fill-opacity:1;stroke:none;stroke-width:4;stroke-opacity:1"/>
      <path inkscape:connector-curvature="0" id="rect7515" d="m 29.984669,1018.3622 7.987733,0 0,10.0025 -7.987733,0 z" style="fill:#5acfd6;fill-opacity:1;stroke:none;stroke-width:0.5;stroke-linecap:round;stroke-linejoin:round;stroke-miterlimit:4;stroke-dasharray:none;stroke-opacity:1"/>
      <path inkscape:connector-curvature="0" id="rect7517" d="m 33.978535,1012.862 c 1.382877,0 2.496167,1.115 2.496167,2.5 l 0,3.0901 c 0,1.385 -1.11329,2.5 -2.496167,2.5 -1.382876,0 -2.496166,-1.115 -2.496166,-2.5 l 0,-3.0901 c 0,-1.385 1.11329,-2.5 2.496166,-2.5 z" style="fill:#ffd6b6;fill-opacity:1;stroke:none;stroke-width:0.5;stroke-linecap:round;stroke-linejoin:round;stroke-miterlimit:4;stroke-dasharray:none;stroke-opacity:1"/>
      <path inkscape:connector-curvature="0" id="path7519" d="m 26.442538,1012.3341 a 2.4964163,2.50025 0 0 0 -1.870178,4.1289 l 7.4885,9 a 2.4964163,2.50025 0 0 0 4.41509,-1.6015 l 0,-7.9981 a 2.4964163,2.50025 0 1 0 -4.992333,0 l 0,1.0938 -3.075347,-3.6953 a 2.4964163,2.50025 0 0 0 -1.965732,-0.9278 z" style="color:#000000;font-style:normal;font-variant:normal;font-weight:normal;font-stretch:normal;font-size:medium;line-height:normal;font-family:sans-serif;text-indent:0;text-align:start;text-decoration:none;text-decoration-line:none;text-decoration-style:solid;text-decoration-color:#000000;letter-spacing:normal;word-spacing:normal;text-transform:none;direction:ltr;block-progression:tb;writing-mode:lr-tb;baseline-shift:baseline;text-anchor:start;white-space:normal;clip-rule:nonzero;display:inline;overflow:visible;visibility:visible;opacity:1;isolation:auto;mix-blend-mode:normal;color-interpolation:sRGB;color-interpolation-filters:linearRGB;solid-color:#000000;solid-opacity:1;fill:#ffd6b6;fill-opacity:1;fill-rule:evenodd;stroke:none;stroke-width:5;stroke-linecap:round;stroke-linejoin:round;stroke-miterlimit:4;stroke-dasharray:none;stroke-dashoffset:0;stroke-opacity:1;color-rendering:auto;image-rendering:auto;shape-rendering:auto;text-rendering:auto;enable-background:accumulate"/>
      <path style="color:#000000;font-style:normal;font-variant:normal;font-weight:normal;font-stretch:normal;font-size:medium;line-height:normal;font-family:sans-serif;text-indent:0;text-align:start;text-decoration:none;text-decoration-line:none;text-decoration-style:solid;text-decoration-color:#000000;letter-spacing:normal;word-spacing:normal;text-transform:none;direction:ltr;writing-mode:lr-tb;baseline-shift:baseline;text-anchor:start;white-space:normal;clip-rule:nonzero;display:inline;overflow:visible;visibility:visible;opacity:1;isolation:auto;mix-blend-mode:normal;color-interpolation:sRGB;color-interpolation-filters:linearRGB;solid-color:#000000;solid-opacity:1;fill:#ffcaa0;fill-opacity:1;fill-rule:evenodd;stroke:none;stroke-width:5;stroke-linecap:round;stroke-linejoin:round;stroke-miterlimit:4;stroke-dasharray:none;stroke-dashoffset:0;stroke-opacity:1;color-rendering:auto;image-rendering:auto;shape-rendering:auto;text-rendering:auto;enable-background:accumulate" d="m 31.113785,1008.0729 a 2.4964163,2.50025 0 0 0 -0.13066,0.8262 l 0,1.9023 c 0.590384,0.3462 1.267534,0.5606 1.996934,0.5606 l 0.998466,0 c 0.7294,0 1.40655,-0.2144 1.996934,-0.5606 l 0,-1.9023 a 2.4964163,2.50025 0 0 0 -0.13066,-0.8262 c -0.28002,0.7605 -0.995341,1.2891 -1.866274,1.2891 l -0.998466,0 c -0.870933,0 -1.586254,-0.5286 -1.866274,-1.2891 z" id="path7521" inkscape:connector-curvature="0"/>
      <path sodipodi:nodetypes="cssssc" d="m 37.96731,999.4726 0,6.1348 c 0,2.626 -2.125436,4.7546 -4.74729,4.7546 l -0.379797,0 c -2.621873,0 -4.747309,-2.1286 -4.747309,-4.7546 l 0,-6.1348" class="st3" id="path7523" inkscape:connector-curvature="0" style="fill:#ffd6b6;fill-opacity:1"/>
      <path d="m 30.833545,997.296 -1.281312,0 c -0.70342,0 -1.273884,-0.525 -1.280684,-1.2279 -0.72245,0.09 -1.281961,0.7486 -1.281961,1.4967 l 0,2.6163 c 0,0.81 0.655613,1.3812 1.464361,1.3812 l 2.562645,0 1.64743,0 4.759561,0 c 0.303274,0 0.549137,-0.1658 0.549137,-0.4684 l 0,-2.9875 c 0,-0.4036 -0.327817,-0.8104 -0.732176,-0.8104 l -3.844336,0 z" class="st6" id="path7525" inkscape:connector-curvature="0" style="fill:#2c3e50;fill-opacity:1" sodipodi:nodetypes="cscsssccsssscc"/>
      <path style="fill:#2c3e50;fill-opacity:1;stroke:none;stroke-width:5;stroke-linecap:round;stroke-linejoin:round;stroke-miterlimit:4;stroke-dasharray:none;stroke-opacity:1" d="m 35.439033,999.4719 c -0.468701,0.5698 -0.761501,1.291 -0.761501,2.0904 l 0,3.2999 c 0,1.5814 1.102117,2.8921 2.580517,3.2181 0.442281,-0.7223 0.71002,-1.5631 0.71002,-2.4727 l 0,-6.1357 z" id="path7527" inkscape:connector-curvature="0"/>
      <path inkscape:connector-curvature="0" id="circle7529" d="m 35.775815,1003.7624 a 1.0982771,1.0999637 0 0 1 -1.098273,1.0999 1.0982771,1.0999637 0 0 1 -1.098283,-1.0999 1.0982771,1.0999637 0 0 1 1.098283,-1.1 1.0982771,1.0999637 0 0 1 1.098273,1.1 z" style="fill:#ffd6b6;fill-opacity:1;stroke:none;stroke-width:5;stroke-linecap:round;stroke-linejoin:round;stroke-miterlimit:4;stroke-dasharray:none;stroke-opacity:1"/>
      <path style="fill:none;fill-rule:evenodd;stroke:#2c3e50;stroke-width:1.09996367px;stroke-linecap:butt;stroke-linejoin:miter;stroke-opacity:1" d="m 28.087862,1004.3122 1.098283,0" id="path7531" inkscape:connector-curvature="0"/>
      <path inkscape:connector-curvature="0" id="rect7533" d="m 28.087862,1001.5624 9.8845,0 0,1.1 -9.8845,0 z" style="fill:#e8f1f5;fill-opacity:1;stroke:none;stroke-width:5;stroke-linecap:round;stroke-linejoin:round;stroke-miterlimit:4;stroke-dasharray:none;stroke-opacity:1"/>
      <path inkscape:connector-curvature="0" id="rect7535" d="m 30.983445,1030.3622 4.992004,0 0,7 -4.992004,0 z" style="fill:#354d62;fill-opacity:1;stroke:none;stroke-width:5;stroke-linecap:round;stroke-linejoin:round;stroke-miterlimit:4;stroke-dasharray:none;stroke-opacity:1"/>
      <path inkscape:connector-curvature="0" id="rect7537" d="m 33.978535,1028.3646 0,5 -6.989266,0 0,-5 z" style="fill:#354d62;fill-opacity:1;stroke:none;stroke-width:5;stroke-linecap:round;stroke-linejoin:round;stroke-miterlimit:4;stroke-dasharray:none;stroke-opacity:1"/>
      <path inkscape:connector-curvature="0" id="rect7539" d="m 20.998469,1040.3622 2.995729,0 c 0.553151,0 0.998467,0.446 0.998467,1 l 0,2 c 0,0.554 -0.445316,1 -0.998467,1 l -2.995729,0 c -0.553151,0 -0.998467,-0.446 -0.998467,-1 l 0,-2 c 0,-0.554 0.445316,-1 0.998467,-1 z" style="fill:#d0e3eb;fill-opacity:1;stroke:none;stroke-width:4;stroke-opacity:1"/>
      <path inkscape:connector-curvature="0" id="rect7541" d="m 20.000002,1039.3622 4.992663,0 0,1 -4.992663,0 z" style="fill:#d0e3eb;fill-opacity:1;stroke:none;stroke-width:4;stroke-opacity:1"/>
      <path inkscape:connector-curvature="0" id="rect7543" d="m 20.000002,1040.3622 4.992663,0 0,1 -4.992663,0 z" style="fill:#354d62;fill-opacity:1;stroke:none;stroke-width:4;stroke-opacity:1"/>
    </g>
  </g>

	<metadata>
		<rdf:RDF xmlns:rdf="http://www.w3.org/1999/02/22-rdf-syntax-ns#" xmlns:rdfs="http://www.w3.org/2000/01/rdf-schema#" xmlns:dc="http://purl.org/dc/elements/1.1/">
			<rdf:Description about="https://iconscout.com/legal#licenses" dc:title="1" dc:description="1" dc:publisher="Iconscout" dc:date="2017-03-06" dc:format="image/svg+xml" dc:language="en">
				<dc:creator>
					<rdf:Bag>
						<rdf:li>Jemis Mali</rdf:li>
					</rdf:Bag>
				</dc:creator>
			</rdf:Description>
		</rdf:RDF>
    </metadata></svg>
