<?xml version="1.0" encoding="UTF-8" standalone="no"?>
<svg xmlns:dc="http://purl.org/dc/elements/1.1/" xmlns:cc="http://creativecommons.org/ns#" xmlns:rdf="http://www.w3.org/1999/02/22-rdf-syntax-ns#" xmlns:svg="http://www.w3.org/2000/svg" xmlns="http://www.w3.org/2000/svg" xmlns:sodipodi="http://sodipodi.sourceforge.net/DTD/sodipodi-0.dtd" xmlns:inkscape="http://www.inkscape.org/namespaces/inkscape" width="64" height="64" viewBox="0 0 64.000001 64.000001" id="svg7251" version="1.1" inkscape:version="0.91 r13725" sodipodi:docname="10.svg">
  <defs id="defs7253"/>
  <sodipodi:namedview id="base" pagecolor="#ffffff" bordercolor="#666666" borderopacity="1.0" inkscape:pageopacity="0.0" inkscape:pageshadow="2" inkscape:zoom="7.9195959" inkscape:cx="29.174233" inkscape:cy="31.659848" inkscape:document-units="px" inkscape:current-layer="layer1" showgrid="true" units="px" inkscape:snap-bbox="true" inkscape:bbox-paths="true" inkscape:bbox-nodes="true" inkscape:snap-bbox-edge-midpoints="true" inkscape:snap-bbox-midpoints="true" inkscape:window-width="1366" inkscape:window-height="705" inkscape:window-x="-8" inkscape:window-y="-8" inkscape:window-maximized="1">
    <inkscape:grid type="xygrid" id="grid7259"/>
  </sodipodi:namedview>
  
  <g inkscape:label="Layer 1" inkscape:groupmode="layer" id="layer1" transform="translate(0,-988.36216)">
    <g transform="matrix(0.99830734,0,0,0.99830734,312.13419,-1306.018)" id="g8379">
      <path inkscape:connector-curvature="0" id="path6597" d="m -280.62891,2334.3242 0,20 5,0 0,-20 -5,0 z" style="color:#000000;font-style:normal;font-variant:normal;font-weight:normal;font-stretch:normal;font-size:medium;line-height:normal;font-family:sans-serif;text-indent:0;text-align:start;text-decoration:none;text-decoration-line:none;text-decoration-style:solid;text-decoration-color:#000000;letter-spacing:normal;word-spacing:normal;text-transform:none;direction:ltr;block-progression:tb;writing-mode:lr-tb;baseline-shift:baseline;text-anchor:start;white-space:normal;clip-rule:nonzero;display:inline;overflow:visible;visibility:visible;opacity:1;isolation:auto;mix-blend-mode:normal;color-interpolation:sRGB;color-interpolation-filters:linearRGB;solid-color:#000000;solid-opacity:1;fill:#ffd6b6;fill-opacity:1;fill-rule:evenodd;stroke:none;stroke-width:5;stroke-linecap:butt;stroke-linejoin:miter;stroke-miterlimit:4;stroke-dasharray:none;stroke-dashoffset:0;stroke-opacity:1;color-rendering:auto;image-rendering:auto;shape-rendering:auto;text-rendering:auto;enable-background:accumulate"/>
      <path style="fill:#ffd6b6;fill-opacity:1;fill-rule:evenodd;stroke:#ffd6b6;stroke-width:5.00847769;stroke-linecap:round;stroke-linejoin:round;stroke-miterlimit:4;stroke-dasharray:none;stroke-opacity:1" d="m -282.12951,2327.86 0,-18" id="path6638" inkscape:connector-curvature="0" sodipodi:nodetypes="cc"/>
      <path inkscape:connector-curvature="0" id="rect6640" d="m -287.62952,2317.3245 11,0 c 0.554,0 1,0.446 1,1 l 0,5 c 0,0.554 -0.446,1 -1,1 l -11,0 c -0.554,0 -1,-0.446 -1,-1 l 0,-5 c 0,-0.554 0.446,-1 1,-1 z" style="fill:#ffd6b6;fill-opacity:1;stroke:none;stroke-width:4;stroke-linecap:round;stroke-linejoin:round;stroke-opacity:1"/>
      <path inkscape:connector-curvature="0" id="path6642" d="m -288.62891,2334.3242 0,20 5,0 0,-20 -5,0 z" style="color:#000000;font-style:normal;font-variant:normal;font-weight:normal;font-stretch:normal;font-size:medium;line-height:normal;font-family:sans-serif;text-indent:0;text-align:start;text-decoration:none;text-decoration-line:none;text-decoration-style:solid;text-decoration-color:#000000;letter-spacing:normal;word-spacing:normal;text-transform:none;direction:ltr;block-progression:tb;writing-mode:lr-tb;baseline-shift:baseline;text-anchor:start;white-space:normal;clip-rule:nonzero;display:inline;overflow:visible;visibility:visible;opacity:1;isolation:auto;mix-blend-mode:normal;color-interpolation:sRGB;color-interpolation-filters:linearRGB;solid-color:#000000;solid-opacity:1;fill:#ffd6b6;fill-opacity:1;fill-rule:evenodd;stroke:none;stroke-width:5;stroke-linecap:butt;stroke-linejoin:miter;stroke-miterlimit:4;stroke-dasharray:none;stroke-dashoffset:0;stroke-opacity:1;color-rendering:auto;image-rendering:auto;shape-rendering:auto;text-rendering:auto;enable-background:accumulate"/>
      <path inkscape:connector-curvature="0" id="rect6644" d="m -288.62952,2334.3245 5,0 0,6.9999 -5,0 z" style="fill:#354d62;fill-opacity:1;stroke:none;stroke-width:4;stroke-opacity:1"/>
      <path style="fill:#354d62;fill-opacity:1;stroke:none;stroke-width:4;stroke-opacity:1" d="m -288.62951,2333.3245 13,0 0,5 -13,0 z" id="path6646" inkscape:connector-curvature="0" sodipodi:nodetypes="ccccc"/>
      <path inkscape:connector-curvature="0" id="rect6648" d="m -287.62954,2353.3271 3.00005,0 c 0.55398,0 0.99997,0.446 0.99997,1 l 0,1.9975 c 0,0.554 -0.44599,1 -0.99997,1 l -3.00005,0 c -0.55399,0 -0.99998,-0.446 -0.99998,-1 l 0,-1.9975 c 0,-0.554 0.44599,-1 0.99998,-1 z" style="fill:#d0e3eb;fill-opacity:1;stroke:none;stroke-width:4;stroke-opacity:1"/>
      <path inkscape:connector-curvature="0" id="rect6650" d="m -288.62952,2352.3245 5,0 0,0.9999 -5,0 z" style="fill:#d0e3eb;fill-opacity:1;stroke:none;stroke-width:4;stroke-opacity:1"/>
      <path inkscape:connector-curvature="0" id="rect6652" d="m -288.62952,2353.3245 5,0 0,0.9999 -5,0 z" style="fill:#273951;fill-opacity:1;stroke:none;stroke-width:4;stroke-opacity:1"/>
      <path style="color:#000000;font-style:normal;font-variant:normal;font-weight:normal;font-stretch:normal;font-size:medium;line-height:normal;font-family:sans-serif;text-indent:0;text-align:start;text-decoration:none;text-decoration-line:none;text-decoration-style:solid;text-decoration-color:#000000;letter-spacing:normal;word-spacing:normal;text-transform:none;direction:ltr;writing-mode:lr-tb;baseline-shift:baseline;text-anchor:start;white-space:normal;clip-rule:nonzero;display:inline;overflow:visible;visibility:visible;opacity:1;isolation:auto;mix-blend-mode:normal;color-interpolation:sRGB;color-interpolation-filters:linearRGB;solid-color:#000000;solid-opacity:1;fill:#ffcaa0;fill-opacity:1;fill-rule:evenodd;stroke:none;stroke-width:5;stroke-linecap:round;stroke-linejoin:round;stroke-miterlimit:4;stroke-dasharray:none;stroke-dashoffset:0;stroke-opacity:1;color-rendering:auto;image-rendering:auto;shape-rendering:auto;text-rendering:auto;enable-background:accumulate" d="m -284.49865,2314.0354 a 2.50025,2.50025 0 0 0 -0.13086,0.8262 l 0,1.9023 c 0.59129,0.3462 1.26948,0.5606 2,0.5606 l 1,0 c 0.73052,0 1.40871,-0.2144 2,-0.5606 l 0,-1.9023 a 2.50025,2.50025 0 0 0 -0.13086,-0.8262 c -0.28045,0.7605 -0.99687,1.2891 -1.86914,1.2891 l -1,0 c -0.87227,0 -1.58869,-0.5286 -1.86914,-1.2891 z" id="path6654" inkscape:connector-curvature="0"/>
      <path sodipodi:nodetypes="cssssc" d="m -277.62926,2306.4247 0,5.5772 c 0,2.3874 -1.93524,4.3225 -4.32249,4.3225 l -0.34581,0 c -2.38726,0 -4.3225,-1.9351 -4.3225,-4.3225 l 0,-5.5772" class="st3" id="path6656" inkscape:connector-curvature="0" style="fill:#ffd6b6;fill-opacity:1"/>
      <path inkscape:connector-curvature="0" id="circle6658" d="m -283.62927,2310.3198 a 0.49999973,0.49999973 0 0 1 -0.5,0.5 0.49999973,0.49999973 0 0 1 -0.5,-0.5 0.49999973,0.49999973 0 0 1 0.5,-0.5 0.49999973,0.49999973 0 0 1 0.5,0.5 z" style="fill:#234957"/>
      <path inkscape:connector-curvature="0" id="circle6660" d="m -279.62927,2310.2788 a 0.49999973,0.49999973 0 0 1 -0.5,0.5 0.49999973,0.49999973 0 0 1 -0.5,-0.5 0.49999973,0.49999973 0 0 1 0.5,-0.5 0.49999973,0.49999973 0 0 1 0.5,0.5 z" style="fill:#234957"/>
      <path inkscape:connector-curvature="0" id="rect6662" d="m -286.62927,2307.3245 9,0 0,2 -9,0 z" style="fill:#273951;fill-opacity:1;stroke:none;stroke-width:0.5;stroke-linecap:round;stroke-linejoin:round;stroke-miterlimit:4;stroke-dasharray:none;stroke-opacity:1"/>
      <path d="m -284.12927,2304.3912 -1.16666,0 c -0.64047,0 -1.15989,-0.4773 -1.16608,-1.1163 -0.65781,0.082 -1.16725,0.6806 -1.16725,1.3607 l 0,2.4332 c 0,0.7364 0.59695,1.2557 1.33333,1.2557 l 2.33333,0 1.50001,0 4.83341,0 c 0.27614,0 0.5,-0.1507 0.5,-0.4258 l 0,-2.7707 c 0,-0.3669 -0.29859,-0.746 -0.66666,-0.7368 l -4.00008,0 z" class="st6" id="path6664" inkscape:connector-curvature="0" style="fill:#273951;fill-opacity:1" sodipodi:nodetypes="cscsssccsssscc"/>
      <path style="fill:#f2f2f2;fill-opacity:1;stroke:none;stroke-width:5;stroke-linecap:round;stroke-linejoin:round;stroke-miterlimit:4;stroke-dasharray:none;stroke-opacity:1" d="m -286.62926,2308.3245 0,1 9,0 0,-1 z" id="path6666" inkscape:connector-curvature="0" sodipodi:nodetypes="ccccc"/>
      <path inkscape:connector-curvature="0" id="rect6668" d="m -280.62952,2334.3245 5,0 0,6.9999 -5,0 z" style="fill:#354d62;fill-opacity:1;stroke:none;stroke-width:4;stroke-opacity:1"/>
      <path inkscape:connector-curvature="0" id="rect6670" d="m -279.62954,2353.3271 3.00005,0 c 0.55398,0 0.99997,0.446 0.99997,1 l 0,1.9975 c 0,0.554 -0.44599,1 -0.99997,1 l -3.00005,0 c -0.55399,0 -0.99998,-0.446 -0.99998,-1 l 0,-1.9975 c 0,-0.554 0.44599,-1 0.99998,-1 z" style="fill:#d0e3eb;fill-opacity:1;stroke:none;stroke-width:4;stroke-opacity:1"/>
      <path inkscape:connector-curvature="0" id="rect6672" d="m -280.62952,2352.3245 5,0 0,0.9999 -5,0 z" style="fill:#d0e3eb;fill-opacity:1;stroke:none;stroke-width:4;stroke-opacity:1"/>
      <path inkscape:connector-curvature="0" id="rect6674" d="m -280.62952,2353.3245 5,0 0,0.9999 -5,0 z" style="fill:#273951;fill-opacity:1;stroke:none;stroke-width:4;stroke-opacity:1"/>
      <path sodipodi:nodetypes="sscscscscssc" inkscape:connector-curvature="0" id="path6676" d="m -287.62951,2317.3245 c -0.554,0 -1,0.446 -1,1 l 0,5 c 1.108,0 2,-0.892 2,-2 l 0,-4 z m 10,0 0,4 c 0,1.108 0.892,2 2,2 l 0,-5 c 0,-0.554 -0.446,-1 -1,-1 z" style="fill:#f8b79c;fill-opacity:1;stroke:none;stroke-width:4;stroke-linecap:round;stroke-linejoin:round;stroke-opacity:1"/>
      <path sodipodi:nodetypes="cc" style="fill:none;fill-rule:evenodd;stroke:#f9c3ad;stroke-width:5.00847769;stroke-linecap:round;stroke-linejoin:round;stroke-miterlimit:4;stroke-dasharray:none;stroke-opacity:1" d="m -274.12951,2319.8272 -3,0" id="path6678" inkscape:connector-curvature="0"/>
      <path inkscape:connector-curvature="0" id="path6680" d="m -287.0939,2319.8272 -3,0" style="fill:none;fill-rule:evenodd;stroke:#ffd6b6;stroke-width:5.00847769;stroke-linecap:round;stroke-linejoin:round;stroke-miterlimit:4;stroke-dasharray:none;stroke-opacity:1" sodipodi:nodetypes="cc"/>
      <path sodipodi:nodetypes="cc" style="fill:none;fill-rule:evenodd;stroke:#ffd6b6;stroke-width:5.00847769;stroke-linecap:round;stroke-linejoin:round;stroke-miterlimit:4;stroke-dasharray:none;stroke-opacity:1" d="m -277.16512,2319.8272 3,0" id="path6682" inkscape:connector-curvature="0"/>
      <path style="fill:#ffcaa0;fill-opacity:1;stroke:none;stroke-width:4;stroke-linecap:round;stroke-linejoin:round;stroke-opacity:1" d="m -276.62951,2317.3245 0,4 c 0,0.5627 0.43732,1 1,1 l 0,1 c -0.13808,0 -0.27388,-0.014 -0.4043,-0.041 -0.77695,-0.161 -1.39299,-0.778 -1.55468,-1.5547 -2.6e-4,0 2.5e-4,0 0,0 -0.0268,-0.1297 -0.041,-0.2629 -0.041,-0.4003 l 0,-4 z" id="path6684" inkscape:connector-curvature="0"/>
      <path id="path6686" d="m -286.62951,2317.3245 0,4 c 0,1.108 -0.892,2 -2,2 l 0,10 13,0 0,-10 c -1.108,0 -2,-0.892 -2,-2 l 0,-4 -2,0 0,0.5 c 0,0.5871 -0.20855,1.1192 -0.54492,1.5449 -0.43852,0.629 -1.1139,0.9551 -1.95508,0.9551 -0.84118,0 -1.51656,-0.3261 -1.95508,-0.9551 -0.33637,-0.4257 -0.54492,-0.9578 -0.54492,-1.5449 l 0,-0.5 z" style="fill:#5acfd6;fill-opacity:1;stroke:none;stroke-width:4;stroke-opacity:1" inkscape:connector-curvature="0"/>
      <path id="path6688" d="m -287.62951,2317.3245 0,4 c 0,0.5627 -0.43732,1 -1,1 l 0,1 c 0.13808,0 0.27388,-0.014 0.4043,-0.041 0.77695,-0.161 1.39299,-0.778 1.55468,-1.5547 2.6e-4,0 -2.5e-4,0 0,0 0.0268,-0.1297 0.041,-0.2629 0.041,-0.4003 l 0,-4 z" style="fill:#ffcaa0;fill-opacity:1;stroke:none;stroke-width:4;stroke-linecap:round;stroke-linejoin:round;stroke-opacity:1" inkscape:connector-curvature="0"/>
    </g>
  </g>

	<metadata>
		<rdf:RDF xmlns:rdf="http://www.w3.org/1999/02/22-rdf-syntax-ns#" xmlns:rdfs="http://www.w3.org/2000/01/rdf-schema#" xmlns:dc="http://purl.org/dc/elements/1.1/">
			<rdf:Description about="https://iconscout.com/legal#licenses" dc:title="10" dc:description="10" dc:publisher="Iconscout" dc:date="2017-03-06" dc:format="image/svg+xml" dc:language="en">
				<dc:creator>
					<rdf:Bag>
						<rdf:li>Jemis Mali</rdf:li>
					</rdf:Bag>
				</dc:creator>
			</rdf:Description>
		</rdf:RDF>
    </metadata></svg>
