<?xml version="1.0" encoding="UTF-8" standalone="no"?>
<svg xmlns:dc="http://purl.org/dc/elements/1.1/" xmlns:cc="http://creativecommons.org/ns#" xmlns:rdf="http://www.w3.org/1999/02/22-rdf-syntax-ns#" xmlns:svg="http://www.w3.org/2000/svg" xmlns="http://www.w3.org/2000/svg" xmlns:sodipodi="http://sodipodi.sourceforge.net/DTD/sodipodi-0.dtd" xmlns:inkscape="http://www.inkscape.org/namespaces/inkscape" width="64" height="64" viewBox="0 0 64.000001 64.000001" id="svg7251" version="1.1" inkscape:version="0.91 r13725" sodipodi:docname="2.svg">
  <defs id="defs7253"/>
  <sodipodi:namedview id="base" pagecolor="#ffffff" bordercolor="#666666" borderopacity="1.0" inkscape:pageopacity="0.0" inkscape:pageshadow="2" inkscape:zoom="7.9195959" inkscape:cx="34.797027" inkscape:cy="32.894389" inkscape:document-units="px" inkscape:current-layer="layer1" showgrid="true" units="px" inkscape:snap-bbox="true" inkscape:bbox-paths="true" inkscape:bbox-nodes="true" inkscape:snap-bbox-edge-midpoints="true" inkscape:snap-bbox-midpoints="true" inkscape:window-width="1366" inkscape:window-height="705" inkscape:window-x="-8" inkscape:window-y="-8" inkscape:window-maximized="1">
    <inkscape:grid type="xygrid" id="grid7259"/>
  </sodipodi:namedview>
  
  <g inkscape:label="Layer 1" inkscape:groupmode="layer" id="layer1" transform="translate(0,-988.36216)">
    <g transform="matrix(0.99839638,0,0,1,308.20321,-1242.9674)" id="g7405">
      <path inkscape:connector-curvature="0" id="path6776" d="m -281.12891,2271.332 a 2.50025,2.50025 0 0 0 -2.5,2.5 l 0,10 a 2.50025,2.50025 0 1 0 5,0 l 0,-7.5 5.47266,0 a 2.50025,2.50025 0 1 0 0,-5 l -7.97266,0 z" style="color:#000000;font-style:normal;font-variant:normal;font-weight:normal;font-stretch:normal;font-size:medium;line-height:normal;font-family:sans-serif;text-indent:0;text-align:start;text-decoration:none;text-decoration-line:none;text-decoration-style:solid;text-decoration-color:#000000;letter-spacing:normal;word-spacing:normal;text-transform:none;direction:ltr;block-progression:tb;writing-mode:lr-tb;baseline-shift:baseline;text-anchor:start;white-space:normal;clip-rule:nonzero;display:inline;overflow:visible;visibility:visible;opacity:1;isolation:auto;mix-blend-mode:normal;color-interpolation:sRGB;color-interpolation-filters:linearRGB;solid-color:#000000;solid-opacity:1;fill:#ffd6b6;fill-opacity:1;fill-rule:evenodd;stroke:none;stroke-width:5;stroke-linecap:round;stroke-linejoin:round;stroke-miterlimit:4;stroke-dasharray:none;stroke-dashoffset:0;stroke-opacity:1;color-rendering:auto;image-rendering:auto;shape-rendering:auto;text-rendering:auto;enable-background:accumulate"/>
      <path inkscape:connector-curvature="0" id="path6778" d="m -270.16602,2249.7949 a 2.50025,2.50025 0 0 0 -2.46289,2.5352 l 0,6 a 2.50025,2.50025 0 1 0 5,0 l 0,-6 a 2.50025,2.50025 0 0 0 -2.53711,-2.5352 z" style="color:#000000;font-style:normal;font-variant:normal;font-weight:normal;font-stretch:normal;font-size:medium;line-height:normal;font-family:sans-serif;text-indent:0;text-align:start;text-decoration:none;text-decoration-line:none;text-decoration-style:solid;text-decoration-color:#000000;letter-spacing:normal;word-spacing:normal;text-transform:none;direction:ltr;block-progression:tb;writing-mode:lr-tb;baseline-shift:baseline;text-anchor:start;white-space:normal;clip-rule:nonzero;display:inline;overflow:visible;visibility:visible;opacity:1;isolation:auto;mix-blend-mode:normal;color-interpolation:sRGB;color-interpolation-filters:linearRGB;solid-color:#000000;solid-opacity:1;fill:#ffd6b6;fill-opacity:1;fill-rule:evenodd;stroke:none;stroke-width:5;stroke-linecap:round;stroke-linejoin:round;stroke-miterlimit:4;stroke-dasharray:none;stroke-dashoffset:0;stroke-opacity:1;color-rendering:auto;image-rendering:auto;shape-rendering:auto;text-rendering:auto;enable-background:accumulate"/>
      <path inkscape:connector-curvature="0" id="rect6780" d="m -271.62952,2268.3296 4,0 c 1.108,0 2,0.892 2,2 l 0,5 c 0,1.108 -0.892,2 -2,2 l -4,0 c -1.108,0 -2,-0.892 -2,-2 l 0,-5 c 0,-1.108 0.892,-2 2,-2 z" style="fill:#354d62;fill-opacity:1;stroke:none;stroke-width:0.5;stroke-linecap:round;stroke-linejoin:round;stroke-miterlimit:4;stroke-dasharray:none;stroke-opacity:1"/>
      <path inkscape:connector-curvature="0" id="rect6782" d="m -269.62952,2254.3296 c 2.216,0 4,1.784 4,4 l 0,8 c 0,2.216 -1.784,4 -4,4 -2.216,0 -4,-1.784 -4,-4 l 0,-8 c 0,-2.216 1.784,-4 4,-4 z" style="fill:#5acfd6;fill-opacity:1;stroke:none;stroke-width:0.5;stroke-linecap:round;stroke-linejoin:round;stroke-miterlimit:4;stroke-dasharray:none;stroke-opacity:1"/>
      <path inkscape:connector-curvature="0" id="rect6787" d="m -273.62952,2261.3296 8,0 0,10.0025 -8,0 z" style="fill:#5acfd6;fill-opacity:1;stroke:none;stroke-width:0.5;stroke-linecap:round;stroke-linejoin:round;stroke-miterlimit:4;stroke-dasharray:none;stroke-opacity:1"/>
      <path inkscape:connector-curvature="0" id="rect6789" d="m -269.62952,2255.8293 c 1.385,0 2.5,1.115 2.5,2.5 l 0,3.0902 c 0,1.385 -1.115,2.5 -2.5,2.5 -1.385,0 -2.5,-1.115 -2.5,-2.5 l 0,-3.0902 c 0,-1.385 1.115,-2.5 2.5,-2.5 z" style="fill:#ffd6b6;fill-opacity:1;stroke:none;stroke-width:0.5;stroke-linecap:round;stroke-linejoin:round;stroke-miterlimit:4;stroke-dasharray:none;stroke-opacity:1"/>
      <path inkscape:connector-curvature="0" id="path6791" d="m -285.12891,2256.332 a 2.50025,2.50025 0 1 0 0,5 l 13.97071,0 a 2.50025,2.50025 0 1 0 0,-5 l -13.97071,0 z" style="color:#000000;font-style:normal;font-variant:normal;font-weight:normal;font-stretch:normal;font-size:medium;line-height:normal;font-family:sans-serif;text-indent:0;text-align:start;text-decoration:none;text-decoration-line:none;text-decoration-style:solid;text-decoration-color:#000000;letter-spacing:normal;word-spacing:normal;text-transform:none;direction:ltr;block-progression:tb;writing-mode:lr-tb;baseline-shift:baseline;text-anchor:start;white-space:normal;clip-rule:nonzero;display:inline;overflow:visible;visibility:visible;opacity:1;isolation:auto;mix-blend-mode:normal;color-interpolation:sRGB;color-interpolation-filters:linearRGB;solid-color:#000000;solid-opacity:1;fill:#ffd6b6;fill-opacity:1;fill-rule:evenodd;stroke:none;stroke-width:5;stroke-linecap:round;stroke-linejoin:round;stroke-miterlimit:4;stroke-dasharray:none;stroke-dashoffset:0;stroke-opacity:1;color-rendering:auto;image-rendering:auto;shape-rendering:auto;text-rendering:auto;enable-background:accumulate"/>
      <path style="color:#000000;font-style:normal;font-variant:normal;font-weight:normal;font-stretch:normal;font-size:medium;line-height:normal;font-family:sans-serif;text-indent:0;text-align:start;text-decoration:none;text-decoration-line:none;text-decoration-style:solid;text-decoration-color:#000000;letter-spacing:normal;word-spacing:normal;text-transform:none;direction:ltr;writing-mode:lr-tb;baseline-shift:baseline;text-anchor:start;white-space:normal;clip-rule:nonzero;display:inline;overflow:visible;visibility:visible;opacity:1;isolation:auto;mix-blend-mode:normal;color-interpolation:sRGB;color-interpolation-filters:linearRGB;solid-color:#000000;solid-opacity:1;fill:#ffcaa0;fill-opacity:1;fill-rule:evenodd;stroke:none;stroke-width:5;stroke-linecap:round;stroke-linejoin:round;stroke-miterlimit:4;stroke-dasharray:none;stroke-dashoffset:0;stroke-opacity:1;color-rendering:auto;image-rendering:auto;shape-rendering:auto;text-rendering:auto;enable-background:accumulate" d="m -272.49865,2251.0405 a 2.50025,2.50025 0 0 0 -0.13086,0.8262 l 0,1.9023 c 0.59129,0.3462 1.26948,0.5606 2,0.5606 l 1,0 c 0.73052,0 1.40871,-0.2144 2,-0.5606 l 0,-1.9023 a 2.50025,2.50025 0 0 0 -0.13086,-0.8262 c -0.28045,0.7605 -0.99687,1.2891 -1.86914,1.2891 l -1,0 c -0.87227,0 -1.58869,-0.5287 -1.86914,-1.2891 z" id="path6794" inkscape:connector-curvature="0"/>
      <path sodipodi:nodetypes="cssssc" d="m -265.6346,2242.4402 0,6.1348 c 0,2.626 -2.1287,4.7546 -4.75458,4.7546 l -0.38038,0 c -2.6259,0 -4.7546,-2.1286 -4.7546,-4.7546 l 0,-6.1348" class="st3" id="path6797" inkscape:connector-curvature="0" style="fill:#ffd6b6;fill-opacity:1"/>
      <path d="m -272.77932,2240.2636 -1.28328,0 c -0.7045,0 -1.27584,-0.525 -1.28265,-1.228 -0.72356,0.09 -1.28393,0.7486 -1.28393,1.4968 l 0,2.6162 c 0,0.81 0.65662,1.3812 1.46661,1.3812 l 2.56658,0 1.64996,0 4.76687,0 c 0.30374,0 0.54998,-0.1658 0.54998,-0.4684 l 0,-2.9874 c 0,-0.4037 -0.32832,-0.8105 -0.7333,-0.8105 l -3.85024,0 z" class="st6" id="path6799" inkscape:connector-curvature="0" style="fill:#273951;fill-opacity:1" sodipodi:nodetypes="cscsssccsssscc"/>
      <path style="fill:#273951;fill-opacity:1;stroke:none;stroke-width:5;stroke-linecap:round;stroke-linejoin:round;stroke-miterlimit:4;stroke-dasharray:none;stroke-opacity:1" d="m -268.16676,2242.4394 c -0.46942,0.5699 -0.76267,1.2911 -0.76267,2.0904 l 0,3.2999 c 0,1.5815 1.10381,2.8922 2.58448,3.2182 0.44296,-0.7223 0.71111,-1.5631 0.71111,-2.4727 l 0,-6.1358 z" id="path6801" inkscape:connector-curvature="0"/>
      <path inkscape:connector-curvature="0" id="circle6803" d="m -267.82945,2246.73 a 1.0999637,1.0999637 0 0 1 -1.09996,1.0999 1.0999637,1.0999637 0 0 1 -1.09997,-1.0999 1.0999637,1.0999637 0 0 1 1.09997,-1.1 1.0999637,1.0999637 0 0 1 1.09996,1.1 z" style="fill:#ffd6b6;fill-opacity:1;stroke:none;stroke-width:5;stroke-linecap:round;stroke-linejoin:round;stroke-miterlimit:4;stroke-dasharray:none;stroke-opacity:1"/>
      <path inkscape:connector-curvature="0" id="path6805" d="m -275.5293,2246.7305 0,1.0996 1.09961,0 0,-1.0996 -1.09961,0 z" style="color:#000000;font-style:normal;font-variant:normal;font-weight:normal;font-stretch:normal;font-size:medium;line-height:normal;font-family:sans-serif;text-indent:0;text-align:start;text-decoration:none;text-decoration-line:none;text-decoration-style:solid;text-decoration-color:#000000;letter-spacing:normal;word-spacing:normal;text-transform:none;direction:ltr;block-progression:tb;writing-mode:lr-tb;baseline-shift:baseline;text-anchor:start;white-space:normal;clip-rule:nonzero;display:inline;overflow:visible;visibility:visible;opacity:1;isolation:auto;mix-blend-mode:normal;color-interpolation:sRGB;color-interpolation-filters:linearRGB;solid-color:#000000;solid-opacity:1;fill:#273951;fill-opacity:1;fill-rule:evenodd;stroke:none;stroke-width:1.09996367px;stroke-linecap:butt;stroke-linejoin:miter;stroke-miterlimit:4;stroke-dasharray:none;stroke-dashoffset:0;stroke-opacity:1;color-rendering:auto;image-rendering:auto;shape-rendering:auto;text-rendering:auto;enable-background:accumulate"/>
      <path inkscape:connector-curvature="0" id="rect6807" d="m -275.52921,2244.53 9.89968,0 0,1.1 -9.89968,0 z" style="fill:#ffffff;fill-opacity:1;stroke:none;stroke-width:5;stroke-linecap:round;stroke-linejoin:round;stroke-miterlimit:4;stroke-dasharray:none;stroke-opacity:1"/>
      <path inkscape:connector-curvature="0" id="rect6809" d="m 2271.3323,269.62952 5.9974,0 0,7 -5.9974,0 z" style="fill:#354d62;fill-opacity:1;stroke:none;stroke-width:5;stroke-linecap:round;stroke-linejoin:round;stroke-miterlimit:4;stroke-dasharray:none;stroke-opacity:1" transform="matrix(0,1,-1,0,0,0)"/>
      <path inkscape:connector-curvature="0" id="rect6811" d="m -282.62952,2283.3296 3.00033,0 c 0.554,0 1,0.446 1,1 l 0,2 c 0,0.554 -0.446,1 -1,1 l -3.00033,0 c -0.554,0 -1,-0.446 -1,-1 l 0,-2 c 0,-0.554 0.446,-1 1,-1 z" style="fill:#d0e3eb;fill-opacity:1;stroke:none;stroke-width:4;stroke-opacity:1"/>
      <path inkscape:connector-curvature="0" id="rect6813" d="m -283.62952,2282.3296 5.00033,0 0,1 -5.00033,0 z" style="fill:#d0e3eb;fill-opacity:1;stroke:none;stroke-width:4;stroke-opacity:1"/>
      <path inkscape:connector-curvature="0" id="rect6815" d="m -283.62952,2283.3296 5.00033,0 0,1 -5.00033,0 z" style="fill:#354d62;fill-opacity:1;stroke:none;stroke-width:4;stroke-opacity:1"/>
    </g>
  </g>

	<metadata>
		<rdf:RDF xmlns:rdf="http://www.w3.org/1999/02/22-rdf-syntax-ns#" xmlns:rdfs="http://www.w3.org/2000/01/rdf-schema#" xmlns:dc="http://purl.org/dc/elements/1.1/">
			<rdf:Description about="https://iconscout.com/legal#licenses" dc:title="2" dc:description="2" dc:publisher="Iconscout" dc:date="2017-03-06" dc:format="image/svg+xml" dc:language="en">
				<dc:creator>
					<rdf:Bag>
						<rdf:li>Jemis Mali</rdf:li>
					</rdf:Bag>
				</dc:creator>
			</rdf:Description>
		</rdf:RDF>
    </metadata></svg>
