<?xml version="1.0" encoding="UTF-8" standalone="no"?>
<svg xmlns:dc="http://purl.org/dc/elements/1.1/" xmlns:cc="http://creativecommons.org/ns#" xmlns:rdf="http://www.w3.org/1999/02/22-rdf-syntax-ns#" xmlns:svg="http://www.w3.org/2000/svg" xmlns="http://www.w3.org/2000/svg" xmlns:sodipodi="http://sodipodi.sourceforge.net/DTD/sodipodi-0.dtd" xmlns:inkscape="http://www.inkscape.org/namespaces/inkscape" width="64" height="64" viewBox="0 0 64.000001 64.000001" id="svg7251" version="1.1" inkscape:version="0.91 r13725" sodipodi:docname="19.svg">
  <defs id="defs7253"/>
  <sodipodi:namedview id="base" pagecolor="#ffffff" bordercolor="#666666" borderopacity="1.0" inkscape:pageopacity="0.0" inkscape:pageshadow="2" inkscape:zoom="7.9195959" inkscape:cx="13.514805" inkscape:cy="33.755425" inkscape:document-units="px" inkscape:current-layer="layer1" showgrid="true" units="px" inkscape:snap-bbox="true" inkscape:bbox-paths="true" inkscape:bbox-nodes="true" inkscape:snap-bbox-edge-midpoints="true" inkscape:snap-bbox-midpoints="true" inkscape:window-width="1366" inkscape:window-height="705" inkscape:window-x="-8" inkscape:window-y="-8" inkscape:window-maximized="1">
    <inkscape:grid type="xygrid" id="grid7259"/>
  </sodipodi:namedview>
  
  <g inkscape:label="Layer 1" inkscape:groupmode="layer" id="layer1" transform="translate(0,-988.36216)">
    <g transform="translate(156.62908,-1389.9675)" id="g9550">
      <path sodipodi:nodetypes="cc" inkscape:connector-curvature="0" id="path6589" d="m -125.12951,2406.8654 0,-18" style="fill:none;fill-rule:evenodd;stroke:#ffd6b6;stroke-width:5;stroke-linecap:round;stroke-linejoin:round;stroke-miterlimit:4;stroke-dasharray:none;stroke-opacity:1"/>
      <path inkscape:connector-curvature="0" id="rect7782" d="m -130.62952,2396.3298 11,0 c 0.554,0 1,0.446 1,1 l 0,5 c 0,0.554 -0.446,1 -1,1 l -11,0 c -0.554,0 -1,-0.446 -1,-1 l 0,-5 c 0,-0.554 0.446,-1 1,-1 z" style="fill:#f9c3ad;fill-opacity:1;stroke:none;stroke-width:4;stroke-linecap:round;stroke-linejoin:round;stroke-opacity:1"/>
      <path style="fill:none;fill-rule:evenodd;stroke:#f9c3ad;stroke-width:5;stroke-linecap:butt;stroke-linejoin:miter;stroke-miterlimit:4;stroke-dasharray:none;stroke-opacity:1" d="m -129.12951,2413.3299 0,20" id="path7784" inkscape:connector-curvature="0"/>
      <path inkscape:connector-curvature="0" id="rect7786" d="m -131.62952,2413.3296 5,0 0,7 -5,0 z" style="fill:#f5583b;fill-opacity:1;stroke:none;stroke-width:4;stroke-opacity:1"/>
      <path style="fill:#f5583b;fill-opacity:1;stroke:none;stroke-width:4;stroke-opacity:1" d="m -131.62951,2412.3299 13,0 0,5 -13,0 z" id="path7788" inkscape:connector-curvature="0" sodipodi:nodetypes="ccccc"/>
      <path style="fill:#273951;fill-opacity:1;stroke:none;stroke-width:4;stroke-opacity:1" d="m -129.62951,2396.3299 0,3 c 0,1.108 -0.892,2 -2,2 l 0,11 13,0 0,-11 c -1.108,0 -2,-0.892 -2,-2 l 0,-3 -2.05078,0 c -0.23757,1.1638 -1.26134,1.9998 -2.44922,2 -1.18641,0 -2.20803,-0.8376 -2.44531,-2 z" id="path7790" inkscape:connector-curvature="0" sodipodi:nodetypes="csccccsccccc"/>
      <path inkscape:connector-curvature="0" id="path7798" d="m -123.62891,2413.3301 0,20 5,0 0,-20 -5,0 z" style="color:#000000;font-style:normal;font-variant:normal;font-weight:normal;font-stretch:normal;font-size:medium;line-height:normal;font-family:sans-serif;text-indent:0;text-align:start;text-decoration:none;text-decoration-line:none;text-decoration-style:solid;text-decoration-color:#000000;letter-spacing:normal;word-spacing:normal;text-transform:none;direction:ltr;block-progression:tb;writing-mode:lr-tb;baseline-shift:baseline;text-anchor:start;white-space:normal;clip-rule:nonzero;display:inline;overflow:visible;visibility:visible;opacity:1;isolation:auto;mix-blend-mode:normal;color-interpolation:sRGB;color-interpolation-filters:linearRGB;solid-color:#000000;solid-opacity:1;fill:#ffd6b6;fill-opacity:1;fill-rule:evenodd;stroke:none;stroke-width:5;stroke-linecap:butt;stroke-linejoin:miter;stroke-miterlimit:4;stroke-dasharray:none;stroke-dashoffset:0;stroke-opacity:1;color-rendering:auto;image-rendering:auto;shape-rendering:auto;text-rendering:auto;enable-background:accumulate"/>
      <path inkscape:connector-curvature="0" id="rect7800" d="m -123.62951,2413.3296 5,0 0,7 -5,0 z" style="fill:#f5583b;fill-opacity:1;stroke:none;stroke-width:4;stroke-opacity:1"/>
      <path inkscape:connector-curvature="0" id="rect7802" d="m -131.62952,2396.3296 13,0 c 0.554,0 1,0.446 1,1 l 0,1 c 0,0.554 -0.446,1 -1,1 l -13,0 c -0.554,0 -1,-0.446 -1,-1 l 0,-1 c 0,-0.554 0.446,-1 1,-1 z" style="fill:#ffd6b6;fill-opacity:1;stroke-width:5;stroke-miterlimit:4;stroke-dasharray:none"/>
      <path inkscape:connector-curvature="0" id="rect7804" d="m -130.62952,2396.3298 11,0 c 0.554,0 1,0.446 1,1 l 0,5 c 0,0.554 -0.446,1 -1,1 l -11,0 c -0.554,0 -1,-0.446 -1,-1 l 0,-5 c 0,-0.554 0.446,-1 1,-1 z" style="fill:#ffd6b6;fill-opacity:1;stroke:none;stroke-width:4;stroke-linecap:round;stroke-linejoin:round;stroke-opacity:1"/>
      <path inkscape:connector-curvature="0" style="fill:#5acfd6;fill-opacity:1;stroke:none;stroke-width:4;stroke-opacity:1" d="m -129.62951,2396.3299 0,3 c 0,1.108 -0.892,2 -2,2 l 0,11 13,0 0,-11 c -1.108,0 -2,-0.892 -2,-2 l 0,-3 -2,0 a 2.5000112,2.5000112 0 0 1 -2.5,2.5 2.5000112,2.5000112 0 0 1 -2.5,-2.5 z" id="path7806"/>
      <path inkscape:connector-curvature="0" id="path7808" d="m -131.62891,2413.3301 0,20 5,0 0,-20 -5,0 z" style="color:#000000;font-style:normal;font-variant:normal;font-weight:normal;font-stretch:normal;font-size:medium;line-height:normal;font-family:sans-serif;text-indent:0;text-align:start;text-decoration:none;text-decoration-line:none;text-decoration-style:solid;text-decoration-color:#000000;letter-spacing:normal;word-spacing:normal;text-transform:none;direction:ltr;block-progression:tb;writing-mode:lr-tb;baseline-shift:baseline;text-anchor:start;white-space:normal;clip-rule:nonzero;display:inline;overflow:visible;visibility:visible;opacity:1;isolation:auto;mix-blend-mode:normal;color-interpolation:sRGB;color-interpolation-filters:linearRGB;solid-color:#000000;solid-opacity:1;fill:#ffd6b6;fill-opacity:1;fill-rule:evenodd;stroke:none;stroke-width:5;stroke-linecap:butt;stroke-linejoin:miter;stroke-miterlimit:4;stroke-dasharray:none;stroke-dashoffset:0;stroke-opacity:1;color-rendering:auto;image-rendering:auto;shape-rendering:auto;text-rendering:auto;enable-background:accumulate"/>
      <path inkscape:connector-curvature="0" id="rect7810" d="m -131.62952,2413.3296 5,0 0,7 -5,0 z" style="fill:#354d62;fill-opacity:1;stroke:none;stroke-width:4;stroke-opacity:1"/>
      <path sodipodi:nodetypes="ccccc" inkscape:connector-curvature="0" id="path7812" d="m -131.62951,2412.3299 13,0 0,5 -13,0 z" style="fill:#354d62;fill-opacity:1;stroke:none;stroke-width:4;stroke-opacity:1"/>
      <path inkscape:connector-curvature="0" id="rect7814" d="m -130.62954,2432.3323 3.00005,0 c 0.55398,0 0.99997,0.446 0.99997,1 l 0,1.9975 c 0,0.5539 -0.44599,0.9999 -0.99997,0.9999 l -3.00005,0 c -0.55399,0 -0.99998,-0.446 -0.99998,-0.9999 l 0,-1.9975 c 0,-0.554 0.44599,-1 0.99998,-1 z" style="fill:#d0e3eb;fill-opacity:1;stroke:none;stroke-width:4;stroke-opacity:1"/>
      <path inkscape:connector-curvature="0" id="rect7816" d="m -131.62952,2431.3298 5,0 0,1 -5,0 z" style="fill:#d0e3eb;fill-opacity:1;stroke:none;stroke-width:4;stroke-opacity:1"/>
      <path inkscape:connector-curvature="0" id="rect7818" d="m -131.62952,2432.3298 5,0 0,1 -5,0 z" style="fill:#273951;fill-opacity:1;stroke:none;stroke-width:4;stroke-opacity:1"/>
      <path inkscape:connector-curvature="0" id="rect7824" d="m -123.62951,2413.3296 5,0 0,7 -5,0 z" style="fill:#354d62;fill-opacity:1;stroke:none;stroke-width:4;stroke-opacity:1"/>
      <path inkscape:connector-curvature="0" id="rect7826" d="m -122.62953,2432.3323 3.00004,0 c 0.55399,0 0.99998,0.446 0.99998,1 l 0,1.9975 c 0,0.5539 -0.44599,0.9999 -0.99998,0.9999 l -3.00004,0 c -0.55399,0 -0.99998,-0.446 -0.99998,-0.9999 l 0,-1.9975 c 0,-0.554 0.44599,-1 0.99998,-1 z" style="fill:#d0e3eb;fill-opacity:1;stroke:none;stroke-width:4;stroke-opacity:1"/>
      <path inkscape:connector-curvature="0" id="rect7828" d="m -123.62951,2431.3298 5,0 0,1 -5,0 z" style="fill:#d0e3eb;fill-opacity:1;stroke:none;stroke-width:4;stroke-opacity:1"/>
      <path inkscape:connector-curvature="0" id="rect7830" d="m -123.62951,2432.3298 5,0 0,1 -5,0 z" style="fill:#273951;fill-opacity:1;stroke:none;stroke-width:4;stroke-opacity:1"/>
      <path inkscape:connector-curvature="0" id="path7832" d="m -132.0293,2396.3047 a 2.50025,2.50025 0 0 0 -1.9375,0.8301 l -6,6.5 a 2.50025,2.50025 0 0 0 -0.0703,3.3105 l 5.5,6.5 a 2.50025,2.50025 0 1 0 3.81641,-3.2305 l -4.07227,-4.8125 4.5,-4.8769 a 2.50025,2.50025 0 0 0 -1.73633,-4.2207 z" style="color:#000000;font-style:normal;font-variant:normal;font-weight:normal;font-stretch:normal;font-size:medium;line-height:normal;font-family:sans-serif;text-indent:0;text-align:start;text-decoration:none;text-decoration-line:none;text-decoration-style:solid;text-decoration-color:#000000;letter-spacing:normal;word-spacing:normal;text-transform:none;direction:ltr;block-progression:tb;writing-mode:lr-tb;baseline-shift:baseline;text-anchor:start;white-space:normal;clip-rule:nonzero;display:inline;overflow:visible;visibility:visible;opacity:1;isolation:auto;mix-blend-mode:normal;color-interpolation:sRGB;color-interpolation-filters:linearRGB;solid-color:#000000;solid-opacity:1;fill:#ffd6b6;fill-opacity:1;fill-rule:evenodd;stroke:none;stroke-width:5;stroke-linecap:round;stroke-linejoin:round;stroke-miterlimit:4;stroke-dasharray:none;stroke-dashoffset:0;stroke-opacity:1;color-rendering:auto;image-rendering:auto;shape-rendering:auto;text-rendering:auto;enable-background:accumulate"/>
      <path inkscape:connector-curvature="0" id="path7834" d="m -118.04688,2396.3047 a 2.50025,2.50025 0 0 0 -1.91406,4.2187 l 4.49805,4.8789 -4.07031,4.8145 a 2.5002858,2.5002858 0 0 0 3.82031,3.2266 l 5.49219,-6.5 a 2.50025,2.50025 0 0 0 -0.0703,-3.3086 l -5.99414,-6.5 a 2.50025,2.50025 0 0 0 -1.76172,-0.8301 z" style="color:#000000;font-style:normal;font-variant:normal;font-weight:normal;font-stretch:normal;font-size:medium;line-height:normal;font-family:sans-serif;text-indent:0;text-align:start;text-decoration:none;text-decoration-line:none;text-decoration-style:solid;text-decoration-color:#000000;letter-spacing:normal;word-spacing:normal;text-transform:none;direction:ltr;block-progression:tb;writing-mode:lr-tb;baseline-shift:baseline;text-anchor:start;white-space:normal;clip-rule:nonzero;display:inline;overflow:visible;visibility:visible;opacity:1;isolation:auto;mix-blend-mode:normal;color-interpolation:sRGB;color-interpolation-filters:linearRGB;solid-color:#000000;solid-opacity:1;fill:#ffd6b6;fill-opacity:1;fill-rule:evenodd;stroke:none;stroke-width:5;stroke-linecap:round;stroke-linejoin:round;stroke-miterlimit:4;stroke-dasharray:none;stroke-dashoffset:0;stroke-opacity:1;color-rendering:auto;image-rendering:auto;shape-rendering:auto;text-rendering:auto;enable-background:accumulate"/>
      <path inkscape:connector-curvature="0" id="path6591" d="m -127.49865,2393.0408 a 2.50025,2.50025 0 0 0 -0.13086,0.8262 l 0,1.9023 c 0.59129,0.3462 1.26948,0.5606 2,0.5606 l 1,0 c 0.73052,0 1.40871,-0.2144 2,-0.5606 l 0,-1.9023 a 2.50025,2.50025 0 0 0 -0.13086,-0.8262 c -0.28045,0.7605 -0.99687,1.2891 -1.86914,1.2891 l -1,0 c -0.87227,0 -1.58869,-0.5286 -1.86914,-1.2891 z" style="color:#000000;font-style:normal;font-variant:normal;font-weight:normal;font-stretch:normal;font-size:medium;line-height:normal;font-family:sans-serif;text-indent:0;text-align:start;text-decoration:none;text-decoration-line:none;text-decoration-style:solid;text-decoration-color:#000000;letter-spacing:normal;word-spacing:normal;text-transform:none;direction:ltr;writing-mode:lr-tb;baseline-shift:baseline;text-anchor:start;white-space:normal;clip-rule:nonzero;display:inline;overflow:visible;visibility:visible;opacity:1;isolation:auto;mix-blend-mode:normal;color-interpolation:sRGB;color-interpolation-filters:linearRGB;solid-color:#000000;solid-opacity:1;fill:#ffcaa0;fill-opacity:1;fill-rule:evenodd;stroke:none;stroke-width:5;stroke-linecap:round;stroke-linejoin:round;stroke-miterlimit:4;stroke-dasharray:none;stroke-dashoffset:0;stroke-opacity:1;color-rendering:auto;image-rendering:auto;shape-rendering:auto;text-rendering:auto;enable-background:accumulate"/>
      <path style="fill:#ffd6b6;fill-opacity:1" inkscape:connector-curvature="0" id="path6595" class="st3" d="m -120.62926,2385.4301 0,5.5772 c 0,2.3874 -1.93524,4.3225 -4.32249,4.3225 l -0.34581,0 c -2.38726,0 -4.3225,-1.9351 -4.3225,-4.3225 l 0,-5.5772" sodipodi:nodetypes="cssssc"/>
      <path inkscape:connector-curvature="0" id="circle7792" d="m -126.62926,2389.325 a 0.49999973,0.49999973 0 0 1 -0.5,0.5 0.49999973,0.49999973 0 0 1 -0.5,-0.5 0.49999973,0.49999973 0 0 1 0.5,-0.5 0.49999973,0.49999973 0 0 1 0.5,0.5 z" style="fill:#234957"/>
      <path inkscape:connector-curvature="0" id="circle7794" d="m -122.62926,2389.2839 a 0.49999973,0.49999973 0 0 1 -0.5,0.5 0.49999973,0.49999973 0 0 1 -0.5,-0.5 0.49999973,0.49999973 0 0 1 0.5,-0.5 0.49999973,0.49999973 0 0 1 0.5,0.5 z" style="fill:#234957"/>
      <path inkscape:connector-curvature="0" style="fill:#273951;fill-opacity:1;stroke:none;stroke-width:0.5;stroke-linecap:round;stroke-linejoin:round;stroke-miterlimit:4;stroke-dasharray:none;stroke-opacity:1" d="m -129.46289,2382.2802 c -0.65781,0.082 -1.16602,0.6812 -1.16602,1.3613 l 0,2.4336 c 0,0.6183 0.42913,1.062 1,1.1953 l 0,1.0586 9,0 0,-1 c 0.27614,0 0.5,-0.1507 0.5,-0.4258 l 0,-2.7695 c 0,-0.3669 -0.29794,-0.7455 -0.66601,-0.7363 l -4.00196,0 -2.33203,0 -1.16797,0 c -0.64046,0 -1.15982,-0.4782 -1.16601,-1.1172 z" id="path7796"/>
      <path inkscape:connector-curvature="0" id="circle7820" d="m -126.62926,2389.325 a 0.49999973,0.49999973 0 0 1 -0.5,0.5 0.49999973,0.49999973 0 0 1 -0.5,-0.5 0.49999973,0.49999973 0 0 1 0.5,-0.5 0.49999973,0.49999973 0 0 1 0.5,0.5 z" style="fill:#234957"/>
      <path inkscape:connector-curvature="0" id="circle7822" d="m -122.62926,2389.2839 a 0.49999973,0.49999973 0 0 1 -0.5,0.5 0.49999973,0.49999973 0 0 1 -0.5,-0.5 0.49999973,0.49999973 0 0 1 0.5,-0.5 0.49999973,0.49999973 0 0 1 0.5,0.5 z" style="fill:#234957"/>
      <path d="m -127.12927,2383.3966 -1.16666,0 c -0.64047,0 -1.15989,-0.4773 -1.16608,-1.1163 -0.65781,0.082 -1.16725,0.6806 -1.16725,1.3607 l 0,2.4332 c 0,0.7364 0.59695,1.2557 1.33333,1.2557 l 2.33333,0 1.50001,0 4.83341,0 c 0.27614,0 0.5,-0.1507 0.5,-0.4258 l 0,-2.7707 c 0,-0.3669 -0.29859,-0.746 -0.66666,-0.7368 l -4.00008,0 z" class="st6" id="path8011" inkscape:connector-curvature="0" style="fill:#273951;fill-opacity:1" sodipodi:nodetypes="cscsssccsssscc"/>
      <path sodipodi:nodetypes="ccccc" inkscape:connector-curvature="0" id="path8013" d="m -129.62926,2387.3299 0,1 9,0 0,-1 z" style="fill:#f2f2f2;fill-opacity:1;stroke:none;stroke-width:5;stroke-linecap:round;stroke-linejoin:round;stroke-miterlimit:4;stroke-dasharray:none;stroke-opacity:1"/>
    </g>
  </g>

	<metadata>
		<rdf:RDF xmlns:rdf="http://www.w3.org/1999/02/22-rdf-syntax-ns#" xmlns:rdfs="http://www.w3.org/2000/01/rdf-schema#" xmlns:dc="http://purl.org/dc/elements/1.1/">
			<rdf:Description about="https://iconscout.com/legal#licenses" dc:title="19" dc:description="19" dc:publisher="Iconscout" dc:date="2017-03-06" dc:format="image/svg+xml" dc:language="en">
				<dc:creator>
					<rdf:Bag>
						<rdf:li>Jemis Mali</rdf:li>
					</rdf:Bag>
				</dc:creator>
			</rdf:Description>
		</rdf:RDF>
    </metadata></svg>
