<?xml version="1.0" encoding="UTF-8" standalone="no"?>
<svg xmlns:dc="http://purl.org/dc/elements/1.1/" xmlns:cc="http://creativecommons.org/ns#" xmlns:rdf="http://www.w3.org/1999/02/22-rdf-syntax-ns#" xmlns:svg="http://www.w3.org/2000/svg" xmlns="http://www.w3.org/2000/svg" xmlns:sodipodi="http://sodipodi.sourceforge.net/DTD/sodipodi-0.dtd" xmlns:inkscape="http://www.inkscape.org/namespaces/inkscape" width="64" height="64" viewBox="0 0 64.000001 64.000001" id="svg7251" version="1.1" inkscape:version="0.91 r13725" sodipodi:docname="5.svg">
  <defs id="defs7253"/>
  <sodipodi:namedview id="base" pagecolor="#ffffff" bordercolor="#666666" borderopacity="1.0" inkscape:pageopacity="0.0" inkscape:pageshadow="2" inkscape:zoom="7.9195959" inkscape:cx="4.7315075" inkscape:cy="31.304843" inkscape:document-units="px" inkscape:current-layer="layer1" showgrid="true" units="px" inkscape:snap-bbox="true" inkscape:bbox-paths="true" inkscape:bbox-nodes="true" inkscape:snap-bbox-edge-midpoints="true" inkscape:snap-bbox-midpoints="true" inkscape:window-width="1366" inkscape:window-height="705" inkscape:window-x="-8" inkscape:window-y="-8" inkscape:window-maximized="1">
    <inkscape:grid type="xygrid" id="grid7259"/>
  </sodipodi:namedview>
  
  <g inkscape:label="Layer 1" inkscape:groupmode="layer" id="layer1" transform="translate(0,-988.36216)">
    <g transform="translate(184.6295,-1245.965)" id="g7838">
      <path inkscape:connector-curvature="0" id="path7221" d="m -151.60412,2243.3131 a 2.50025,2.50025 0 0 0 -1.45312,4.5723 l 8.93945,6.2187 -5.59961,5.1543 a 2.5005032,2.5005032 0 1 0 3.38672,3.6797 l 7.89453,-7.2656 a 2.50025,2.50025 0 0 0 -0.26563,-3.8926 l -11.5,-8 a 2.50025,2.50025 0 0 0 -1.40234,-0.4668 z" style="color:#000000;font-style:normal;font-variant:normal;font-weight:normal;font-stretch:normal;font-size:medium;line-height:normal;font-family:sans-serif;text-indent:0;text-align:start;text-decoration:none;text-decoration-line:none;text-decoration-style:solid;text-decoration-color:#000000;letter-spacing:normal;word-spacing:normal;text-transform:none;direction:ltr;writing-mode:lr-tb;baseline-shift:baseline;text-anchor:start;white-space:normal;clip-rule:nonzero;display:inline;overflow:visible;visibility:visible;opacity:1;isolation:auto;mix-blend-mode:normal;color-interpolation:sRGB;color-interpolation-filters:linearRGB;solid-color:#000000;solid-opacity:1;fill:#ffd6b6;fill-opacity:1;fill-rule:evenodd;stroke:none;stroke-width:5;stroke-linecap:round;stroke-linejoin:round;stroke-miterlimit:4;stroke-dasharray:none;stroke-dashoffset:0;stroke-opacity:1;color-rendering:auto;image-rendering:auto;shape-rendering:auto;text-rendering:auto;enable-background:accumulate"/>
      <path inkscape:connector-curvature="0" id="path7224" d="m -156.1711,2261.2191 -7.95841,-7.3867 11.5,-8" style="fill:none;fill-rule:evenodd;stroke:#ffd6b6;stroke-width:5;stroke-linecap:round;stroke-linejoin:round;stroke-miterlimit:4;stroke-dasharray:none;stroke-opacity:1" sodipodi:nodetypes="ccc"/>
      <path id="path7226" d="m -153.23693,2243.396 a 2.50025,2.50025 0 0 0 -0.82031,0.3848 l -2.03321,1.414 c 0.24703,0.1207 0.51066,0.2012 0.79492,0.2012 l 1.16602,0 2.33398,0 3.66602,0 0,1.9336 -0.5,0 0,2 0,1.6367 1.98242,1.3789 c 0.007,-0.1121 0.0176,-0.224 0.0176,-0.3379 l 0,-2.6777 0,-0.3769 c 0.28674,-0.2513 0.5,-0.6583 0.5,-1.0489 l 0,-1.291 -4.07227,-2.832 a 2.50025,2.50025 0 0 0 -0.82812,-0.3848 l -0.76563,0 z m -3.39258,2.1738 -2,1.3926 0,0.1113 c 0,0.7448 0.44685,1.2946 1,1.6954 l 0,1.5605 0.01,0 0,1.6777 c 0,0.1119 0.0107,0.2218 0.0176,0.3321 l 1.98243,-1.3809 0,-1.6289 0,-1 0,-0.8555 -0.7793,-0.1757 c -0.20107,-0.045 -0.23073,-0.069 -0.23073,-0.2247 z" style="color:#000000;font-style:normal;font-variant:normal;font-weight:normal;font-stretch:normal;font-size:medium;line-height:normal;font-family:sans-serif;text-indent:0;text-align:start;text-decoration:none;text-decoration-line:none;text-decoration-style:solid;text-decoration-color:#000000;letter-spacing:normal;word-spacing:normal;text-transform:none;direction:ltr;writing-mode:lr-tb;baseline-shift:baseline;text-anchor:start;white-space:normal;clip-rule:nonzero;display:inline;overflow:visible;visibility:visible;opacity:1;isolation:auto;mix-blend-mode:normal;color-interpolation:sRGB;color-interpolation-filters:linearRGB;solid-color:#000000;solid-opacity:1;fill:#ffcaa0;fill-opacity:1;fill-rule:evenodd;stroke:none;stroke-width:5;stroke-linecap:round;stroke-linejoin:round;stroke-miterlimit:4;stroke-dasharray:none;stroke-dashoffset:0;stroke-opacity:1;color-rendering:auto;image-rendering:auto;shape-rendering:auto;text-rendering:auto;enable-background:accumulate" inkscape:connector-curvature="0"/>
      <path inkscape:connector-curvature="0" id="path7232" d="m -148.10156,2273.3301 a 2.50025,2.50025 0 1 0 0,5 l 5.47265,0 -0.002,7.5 a 2.50025,2.50025 0 1 0 5,0 l 0.002,-10 a 2.50025,2.50025 0 0 0 -2.5,-2.5 l -7.97265,0 z" style="color:#000000;font-style:normal;font-variant:normal;font-weight:normal;font-stretch:normal;font-size:medium;line-height:normal;font-family:sans-serif;text-indent:0;text-align:start;text-decoration:none;text-decoration-line:none;text-decoration-style:solid;text-decoration-color:#000000;letter-spacing:normal;word-spacing:normal;text-transform:none;direction:ltr;block-progression:tb;writing-mode:lr-tb;baseline-shift:baseline;text-anchor:start;white-space:normal;clip-rule:nonzero;display:inline;overflow:visible;visibility:visible;opacity:1;isolation:auto;mix-blend-mode:normal;color-interpolation:sRGB;color-interpolation-filters:linearRGB;solid-color:#000000;solid-opacity:1;fill:#ffd6b6;fill-opacity:1;fill-rule:evenodd;stroke:none;stroke-width:5;stroke-linecap:round;stroke-linejoin:round;stroke-miterlimit:4;stroke-dasharray:none;stroke-dashoffset:0;stroke-opacity:1;color-rendering:auto;image-rendering:auto;shape-rendering:auto;text-rendering:auto;enable-background:accumulate"/>
      <path inkscape:connector-curvature="0" id="rect7234" d="m 149.62952,2270.3271 4,0 c 1.108,0 2,0.892 2,2 l 0,4.0026 c 0,1.108 -0.892,2 -2,2 l -4,0 c -1.108,0 -2,-0.892 -2,-2 l 0,-4.0026 c 0,-1.108 0.892,-2 2,-2 z" style="fill:#f5583b;fill-opacity:1;stroke:none;stroke-width:0.5;stroke-linecap:round;stroke-linejoin:round;stroke-miterlimit:4;stroke-dasharray:none;stroke-opacity:1" transform="scale(-1,1)"/>
      <path inkscape:connector-curvature="0" id="rect7236" d="m 2273.3296,-151.62952 5,0 0,7 -5,0 z" style="fill:#354d62;fill-opacity:1;stroke:none;stroke-width:5;stroke-linecap:round;stroke-linejoin:round;stroke-miterlimit:4;stroke-dasharray:none;stroke-opacity:1" transform="matrix(0,1,1,0,0,0)"/>
      <path inkscape:connector-curvature="0" id="rect7238" d="m 138.62952,2285.3271 3.00032,0 c 0.554,0 1,0.446 1,1 l 0,2.0001 c 0,0.554 -0.446,1 -1,1 l -3.00032,0 c -0.554,0 -1,-0.446 -1,-1 l 0,-2.0001 c 0,-0.554 0.446,-1 1,-1 z" style="fill:#d0e3eb;fill-opacity:1;stroke:none;stroke-width:4;stroke-opacity:1" transform="scale(-1,1)"/>
      <path inkscape:connector-curvature="0" id="rect7240" d="m 137.62952,2284.3271 5.00032,0 0,1 -5.00032,0 z" style="fill:#d0e3eb;fill-opacity:1;stroke:none;stroke-width:4;stroke-opacity:1" transform="scale(-1,1)"/>
      <path inkscape:connector-curvature="0" id="rect7243" d="m 137.62952,2285.3271 5.00032,0 0,1 -5.00032,0 z" style="fill:#354d62;fill-opacity:1;stroke:none;stroke-width:4;stroke-opacity:1" transform="scale(-1,1)"/>
      <path inkscape:connector-curvature="0" id="path7247" d="m -164.12891,2273.3301 a 2.50025,2.50025 0 0 0 -2.5,2.5 l 0,10 a 2.50025,2.50025 0 1 0 5,0 l 0,-7.5 5.47266,0 a 2.50025,2.50025 0 1 0 0,-5 l -7.97266,0 z" style="color:#000000;font-style:normal;font-variant:normal;font-weight:normal;font-stretch:normal;font-size:medium;line-height:normal;font-family:sans-serif;text-indent:0;text-align:start;text-decoration:none;text-decoration-line:none;text-decoration-style:solid;text-decoration-color:#000000;letter-spacing:normal;word-spacing:normal;text-transform:none;direction:ltr;block-progression:tb;writing-mode:lr-tb;baseline-shift:baseline;text-anchor:start;white-space:normal;clip-rule:nonzero;display:inline;overflow:visible;visibility:visible;opacity:1;isolation:auto;mix-blend-mode:normal;color-interpolation:sRGB;color-interpolation-filters:linearRGB;solid-color:#000000;solid-opacity:1;fill:#ffd6b6;fill-opacity:1;fill-rule:evenodd;stroke:none;stroke-width:5;stroke-linecap:round;stroke-linejoin:round;stroke-miterlimit:4;stroke-dasharray:none;stroke-dashoffset:0;stroke-opacity:1;color-rendering:auto;image-rendering:auto;shape-rendering:auto;text-rendering:auto;enable-background:accumulate"/>
      <path inkscape:connector-curvature="0" id="rect7249" d="m -154.6295,2270.3271 4,0 c 1.108,0 2,0.892 2,2 l 0,4.0026 c 0,1.108 -0.892,2 -2,2 l -4,0 c -1.108,0 -2,-0.892 -2,-2 l 0,-4.0026 c 0,-1.108 0.892,-2 2,-2 z" style="fill:#354d62;fill-opacity:1;stroke:none;stroke-width:0.5;stroke-linecap:round;stroke-linejoin:round;stroke-miterlimit:4;stroke-dasharray:none;stroke-opacity:1"/>
      <path inkscape:connector-curvature="0" id="rect7251" d="m 2273.3296,152.6295 5,0 0,7 -5,0 z" style="fill:#354d62;fill-opacity:1;stroke:none;stroke-width:5;stroke-linecap:round;stroke-linejoin:round;stroke-miterlimit:4;stroke-dasharray:none;stroke-opacity:1" transform="matrix(0,1,-1,0,0,0)"/>
      <path inkscape:connector-curvature="0" id="rect7253" d="m -165.6295,2285.3271 3.00033,0 c 0.554,0 1,0.446 1,1 l 0,2.0001 c 0,0.554 -0.446,1 -1,1 l -3.00033,0 c -0.554,0 -1,-0.446 -1,-1 l 0,-2.0001 c 0,-0.554 0.446,-1 1,-1 z" style="fill:#d0e3eb;fill-opacity:1;stroke:none;stroke-width:4;stroke-opacity:1"/>
      <path inkscape:connector-curvature="0" id="rect7255" d="m -166.6295,2284.3271 5.00033,0 0,1 -5.00033,0 z" style="fill:#d0e3eb;fill-opacity:1;stroke:none;stroke-width:4;stroke-opacity:1"/>
      <path inkscape:connector-curvature="0" id="rect7257" d="m -166.6295,2285.3271 5.00033,0 0,1 -5.00033,0 z" style="fill:#354d62;fill-opacity:1;stroke:none;stroke-width:4;stroke-opacity:1"/>
      <path sodipodi:nodetypes="sccccs" inkscape:connector-curvature="0" id="path7259" d="m -152.16797,2251.3301 c -1.37916,0.021 -2.48033,1.1559 -2.46094,2.5351 l 0,14 c -0.0478,3.3808 5.04781,3.3808 5,0 l 0,-14 c 0.0198,-1.4098 -1.12931,-2.5571 -2.53906,-2.5351 z" style="color:#000000;font-style:normal;font-variant:normal;font-weight:normal;font-stretch:normal;font-size:medium;line-height:normal;font-family:sans-serif;text-indent:0;text-align:start;text-decoration:none;text-decoration-line:none;text-decoration-style:solid;text-decoration-color:#000000;letter-spacing:normal;word-spacing:normal;text-transform:none;direction:ltr;block-progression:tb;writing-mode:lr-tb;baseline-shift:baseline;text-anchor:start;white-space:normal;clip-rule:nonzero;display:inline;overflow:visible;visibility:visible;opacity:1;isolation:auto;mix-blend-mode:normal;color-interpolation:sRGB;color-interpolation-filters:linearRGB;solid-color:#000000;solid-opacity:1;fill:#ffd6b6;fill-opacity:1;fill-rule:evenodd;stroke:none;stroke-width:5;stroke-linecap:round;stroke-linejoin:round;stroke-miterlimit:4;stroke-dasharray:none;stroke-dashoffset:0;stroke-opacity:1;color-rendering:auto;image-rendering:auto;shape-rendering:auto;text-rendering:auto;enable-background:accumulate"/>
      <path inkscape:connector-curvature="0" id="rect7261" d="m -156.94234,2257.3298 9.625,0 c 0.48475,0 0.875,0.446 0.875,1 l 0,5 c 0,0.554 -0.39025,1 -0.875,1 l -9.625,0 c -0.48475,0 -0.875,-0.446 -0.875,-1 l 0,-5 c 0,-0.554 0.39025,-1 0.875,-1 z" style="fill:#ffd6b6;fill-opacity:1;stroke:none;stroke-width:3.7416575;stroke-linecap:round;stroke-linejoin:round;stroke-opacity:1"/>
      <path style="color:#000000;font-style:normal;font-variant:normal;font-weight:normal;font-stretch:normal;font-size:medium;line-height:normal;font-family:sans-serif;text-indent:0;text-align:start;text-decoration:none;text-decoration-line:none;text-decoration-style:solid;text-decoration-color:#000000;letter-spacing:normal;word-spacing:normal;text-transform:none;direction:ltr;writing-mode:lr-tb;baseline-shift:baseline;text-anchor:start;white-space:normal;clip-rule:nonzero;display:inline;overflow:visible;visibility:visible;opacity:1;isolation:auto;mix-blend-mode:normal;color-interpolation:sRGB;color-interpolation-filters:linearRGB;solid-color:#000000;solid-opacity:1;fill:#ffcaa0;fill-opacity:1;fill-rule:evenodd;stroke:none;stroke-width:5;stroke-linecap:round;stroke-linejoin:round;stroke-miterlimit:4;stroke-dasharray:none;stroke-dashoffset:0;stroke-opacity:1;color-rendering:auto;image-rendering:auto;shape-rendering:auto;text-rendering:auto;enable-background:accumulate" d="m -154.49898,2254.0406 a 2.50025,2.50025 0 0 0 -0.13086,0.8262 l 0,1.9023 c 0.59129,0.3462 1.26948,0.5606 2,0.5606 l 1,0 c 0.73052,0 1.40871,-0.2144 2,-0.5606 l 0,-1.9023 a 2.50025,2.50025 0 0 0 -0.13086,-0.8262 c -0.28045,0.7605 -0.99687,1.2891 -1.86914,1.2891 l -1,0 c -0.87227,0 -1.58869,-0.5286 -1.86914,-1.2891 z" id="path7263" inkscape:connector-curvature="0"/>
      <path sodipodi:nodetypes="cssssc" d="m -147.62959,2246.4299 0,5.5772 c 0,2.3874 -1.93524,4.3225 -4.32249,4.3225 l -0.34581,0 c -2.38726,0 -4.3225,-1.9351 -4.3225,-4.3225 l 0,-5.5772" class="st3" id="path7265" inkscape:connector-curvature="0" style="fill:#ffd6b6;fill-opacity:1"/>
      <path inkscape:connector-curvature="0" id="circle7267" d="m -153.62959,2250.325 a 0.49999973,0.49999973 0 0 1 -0.5,0.5 0.49999973,0.49999973 0 0 1 -0.5,-0.5 0.49999973,0.49999973 0 0 1 0.5,-0.5 0.49999973,0.49999973 0 0 1 0.5,0.5 z" style="fill:#234957"/>
      <path inkscape:connector-curvature="0" id="circle7269" d="m -149.62959,2250.2839 a 0.49999973,0.49999973 0 0 1 -0.5,0.5 0.49999973,0.49999973 0 0 1 -0.5,-0.5 0.49999973,0.49999973 0 0 1 0.5,-0.5 0.49999973,0.49999973 0 0 1 0.5,0.5 z" style="fill:#234957"/>
      <path inkscape:connector-curvature="0" id="rect7271" d="m -156.62959,2247.3298 9,0 0,2 -9,0 z" style="fill:#273951;fill-opacity:1;stroke:none;stroke-width:0.5;stroke-linecap:round;stroke-linejoin:round;stroke-miterlimit:4;stroke-dasharray:none;stroke-opacity:1"/>
      <path d="m -154.1296,2244.3964 -1.16666,0 c -0.64047,0 -1.15989,-0.4773 -1.16608,-1.1163 -0.65781,0.082 -1.16725,0.6806 -1.16725,1.3607 l 0,2.4332 c 0,0.7364 0.59695,1.2557 1.33333,1.2557 l 2.33333,0 1.50001,0 4.83341,0 c 0.27614,0 0.5,-0.1507 0.5,-0.4258 l 0,-2.7707 c 0,-0.3669 -0.29859,-0.746 -0.66666,-0.7368 l -4.00008,0 z" class="st6" id="path7273" inkscape:connector-curvature="0" style="fill:#273951;fill-opacity:1" sodipodi:nodetypes="cscsssccsssscc"/>
      <path style="fill:#f2f2f2;fill-opacity:1;stroke:none;stroke-width:5;stroke-linecap:round;stroke-linejoin:round;stroke-miterlimit:4;stroke-dasharray:none;stroke-opacity:1" d="m -156.62959,2248.3297 0,1 9,0 0,-1 z" id="path7276" inkscape:connector-curvature="0" sodipodi:nodetypes="ccccc"/>
      <path style="fill:#ffcaa0;fill-opacity:1;stroke:none;stroke-width:4;stroke-linecap:round;stroke-linejoin:round;stroke-opacity:1" d="m -146.62984,2259.1891 0,2.1406 c 0,0.5627 0.43732,1 1,1 l 0,1 c -0.13808,0 -0.27388,-0.014 -0.4043,-0.041 -0.77695,-0.161 -1.39299,-0.778 -1.55468,-1.5547 -2.6e-4,-10e-4 2.5e-4,0 0,0 -0.0268,-0.1297 -0.041,-0.2629 -0.041,-0.4003 l 0,-2.1406 z" id="path7280" inkscape:connector-curvature="0" sodipodi:nodetypes="cscccccscc"/>
      <path inkscape:connector-curvature="0" style="fill:#ffcaa0;fill-opacity:1;stroke:none;stroke-width:4;stroke-linecap:round;stroke-linejoin:round;stroke-opacity:1" d="m -146.62951,2256.4175 -1,0.9199 0,3.9922 c 0,0.1374 0.0142,0.2706 0.041,0.4004 2.5e-4,0 -2.6e-4,0 0,0 0.12473,0.5991 0.52196,1.098 1.05273,1.3711 a 2.5005032,2.5005032 0 0 0 0.20508,-0.166 l 0.66797,-0.6153 c -0.54558,-0.018 -0.96678,-0.4433 -0.96678,-0.9942 z" id="path7282"/>
      <path sodipodi:nodetypes="cscccccscc" inkscape:connector-curvature="0" id="path7284" d="m -157.62984,2258.7047 0,2.625 c 0,0.5627 -0.43732,1 -1,1 l 0,1 c 0.13808,0 0.27388,-0.014 0.4043,-0.041 0.77695,-0.161 1.39299,-0.778 1.55468,-1.5547 2.6e-4,-10e-4 -2.5e-4,0 0,0 0.0268,-0.1297 0.041,-0.2629 0.041,-0.4003 l 0,-2.625 z" style="fill:#ffcaa0;fill-opacity:1;stroke:none;stroke-width:4;stroke-linecap:round;stroke-linejoin:round;stroke-opacity:1"/>
      <path id="path7286" d="m -157.62951,2256.4566 0,4.873 c 0,0.5627 -0.43732,1 -1,1 l 0,0.019 0.75781,0.7031 a 2.50025,2.50025 0 0 0 0.0859,0.074 c 0.55967,-0.2655 0.98604,-0.7719 1.11523,-1.3925 0.0268,-0.1297 0.041,-0.263 0.041,-0.4004 l 0,-3.9493 z" style="color:#000000;font-style:normal;font-variant:normal;font-weight:normal;font-stretch:normal;font-size:medium;line-height:normal;font-family:sans-serif;text-indent:0;text-align:start;text-decoration:none;text-decoration-line:none;text-decoration-style:solid;text-decoration-color:#000000;letter-spacing:normal;word-spacing:normal;text-transform:none;direction:ltr;writing-mode:lr-tb;baseline-shift:baseline;text-anchor:start;white-space:normal;clip-rule:nonzero;display:inline;overflow:visible;visibility:visible;opacity:1;isolation:auto;mix-blend-mode:normal;color-interpolation:sRGB;color-interpolation-filters:linearRGB;solid-color:#000000;solid-opacity:1;fill:#ffcaa0;fill-opacity:1;fill-rule:evenodd;stroke:none;stroke-width:5;stroke-linecap:round;stroke-linejoin:round;stroke-miterlimit:4;stroke-dasharray:none;stroke-dashoffset:0;stroke-opacity:1;color-rendering:auto;image-rendering:auto;shape-rendering:auto;text-rendering:auto;enable-background:accumulate" inkscape:connector-curvature="0"/>
      <path inkscape:connector-curvature="0" id="path8009" d="m -156.62984,2257.3297 0,4 c 0,1.108 -0.892,2 -2,2 l 0,10 13,0 0,-10 c -1.108,0 -2,-0.892 -2,-2 l 0,-4 -2,0 0,0.5 c 0,0.5871 -0.20855,1.1192 -0.54492,1.5449 -0.43852,0.629 -1.1139,0.9551 -1.95508,0.9551 -0.84118,0 -1.51656,-0.3261 -1.95508,-0.9551 -0.33637,-0.4257 -0.54492,-0.9578 -0.54492,-1.5449 l 0,-0.5 z" style="fill:#5acfd6;fill-opacity:1;stroke:none;stroke-width:4;stroke-opacity:1"/>
    </g>
  </g>

	<metadata>
		<rdf:RDF xmlns:rdf="http://www.w3.org/1999/02/22-rdf-syntax-ns#" xmlns:rdfs="http://www.w3.org/2000/01/rdf-schema#" xmlns:dc="http://purl.org/dc/elements/1.1/">
			<rdf:Description about="https://iconscout.com/legal#licenses" dc:title="5" dc:description="5" dc:publisher="Iconscout" dc:date="2017-03-06" dc:format="image/svg+xml" dc:language="en">
				<dc:creator>
					<rdf:Bag>
						<rdf:li>Jemis Mali</rdf:li>
					</rdf:Bag>
				</dc:creator>
			</rdf:Description>
		</rdf:RDF>
    </metadata></svg>
