<?xml version="1.0" encoding="UTF-8" standalone="no"?>
<svg xmlns:dc="http://purl.org/dc/elements/1.1/" xmlns:cc="http://creativecommons.org/ns#" xmlns:rdf="http://www.w3.org/1999/02/22-rdf-syntax-ns#" xmlns:svg="http://www.w3.org/2000/svg" xmlns="http://www.w3.org/2000/svg" xmlns:sodipodi="http://sodipodi.sourceforge.net/DTD/sodipodi-0.dtd" xmlns:inkscape="http://www.inkscape.org/namespaces/inkscape" width="64" height="64" viewBox="0 0 64.000001 64.000001" id="svg7251" version="1.1" inkscape:version="0.91 r13725" sodipodi:docname="23.svg">
  <defs id="defs7253"/>
  <sodipodi:namedview id="base" pagecolor="#ffffff" bordercolor="#666666" borderopacity="1.0" inkscape:pageopacity="0.0" inkscape:pageshadow="2" inkscape:zoom="7.9195959" inkscape:cx="11.290841" inkscape:cy="35.204253" inkscape:document-units="px" inkscape:current-layer="layer1" showgrid="true" units="px" inkscape:snap-bbox="true" inkscape:bbox-paths="true" inkscape:bbox-nodes="true" inkscape:snap-bbox-edge-midpoints="true" inkscape:snap-bbox-midpoints="true" inkscape:window-width="1366" inkscape:window-height="705" inkscape:window-x="-8" inkscape:window-y="-8" inkscape:window-maximized="1">
    <inkscape:grid type="xygrid" id="grid7259"/>
  </sodipodi:namedview>
  
  <g inkscape:label="Layer 1" inkscape:groupmode="layer" id="layer1" transform="translate(0,-988.36216)">
    <g transform="matrix(1.0034952,0,0,1,333.73429,-1428.2282)" id="g10070">
      <path inkscape:connector-curvature="0" id="path6737" d="m -294.98047,2449.0137 -1.7793,4.6718 18.68946,7.1211 1.77929,-4.6718 -18.68945,-7.1211 z" style="color:#000000;font-style:normal;font-variant:normal;font-weight:normal;font-stretch:normal;font-size:medium;line-height:normal;font-family:sans-serif;text-indent:0;text-align:start;text-decoration:none;text-decoration-line:none;text-decoration-style:solid;text-decoration-color:#000000;letter-spacing:normal;word-spacing:normal;text-transform:none;direction:ltr;block-progression:tb;writing-mode:lr-tb;baseline-shift:baseline;text-anchor:start;white-space:normal;clip-rule:nonzero;display:inline;overflow:visible;visibility:visible;opacity:1;isolation:auto;mix-blend-mode:normal;color-interpolation:sRGB;color-interpolation-filters:linearRGB;solid-color:#000000;solid-opacity:1;fill:#ffd6b6;fill-opacity:1;fill-rule:evenodd;stroke:none;stroke-width:5;stroke-linecap:butt;stroke-linejoin:miter;stroke-miterlimit:4;stroke-dasharray:none;stroke-dashoffset:0;stroke-opacity:1;color-rendering:auto;image-rendering:auto;shape-rendering:auto;text-rendering:auto;enable-background:accumulate"/>
      <path style="fill:none;fill-rule:evenodd;stroke:#ffd6b6;stroke-width:4.99128485;stroke-linecap:round;stroke-linejoin:round;stroke-miterlimit:4;stroke-dasharray:none;stroke-opacity:1" d="m -307.66263,2445.7864 -5.60663,-2.1367" id="path6739" inkscape:connector-curvature="0" sodipodi:nodetypes="cc"/>
      <path inkscape:connector-curvature="0" id="rect6741" d="m -2396.551,593.31659 4,0 c 1.108,0 2,0.892 2,2 l 0,4.00254 c 0,1.108 -0.892,2 -2,2 l -4,0 c -1.108,0 -2,-0.892 -2,-2 l 0,-4.00254 c 0,-1.108 0.892,-2 2,-2 z" style="fill:#354d62;fill-opacity:1;stroke:none;stroke-width:0.5;stroke-linecap:round;stroke-linejoin:round;stroke-miterlimit:4;stroke-dasharray:none;stroke-opacity:1" transform="matrix(0.35604791,-0.9344677,0.9344677,0.35604791,0,0)"/>
      <path inkscape:connector-curvature="0" id="rect6743" d="m -2394.551,579.31659 c 2.216,0 4,1.784 4,4 l 0,8 c 0,2.216 -1.784,4 -4,4 -2.216,0 -4,-1.784 -4,-4 l 0,-8 c 0,-2.216 1.784,-4 4,-4 z" style="fill:#5acfd6;fill-opacity:1;stroke:none;stroke-width:0.5;stroke-linecap:round;stroke-linejoin:round;stroke-miterlimit:4;stroke-dasharray:none;stroke-opacity:1" transform="matrix(0.35604791,-0.9344677,0.9344677,0.35604791,0,0)"/>
      <path inkscape:connector-curvature="0" id="rect6745" d="m -2397.5513,615.31659 3,0 c 0.554,0 1,0.446 1,1 l 0,2.00002 c 0,0.554 -0.446,1 -1,1 l -3,0 c -0.554,0 -1,-0.446 -1,-1 l 0,-2.00002 c 0,-0.554 0.446,-1 1,-1 z" style="fill:#d0e3eb;fill-opacity:1;stroke:none;stroke-width:4;stroke-opacity:1" transform="matrix(0.35604791,-0.9344677,0.9344677,0.35604791,0,0)"/>
      <path inkscape:connector-curvature="0" id="rect6747" d="m -2398.5513,614.31659 5,0 0,0.99998 -5,0 z" style="fill:#d0e3eb;fill-opacity:1;stroke:none;stroke-width:4;stroke-opacity:1" transform="matrix(0.35604791,-0.9344677,0.9344677,0.35604791,0,0)"/>
      <path inkscape:connector-curvature="0" id="rect6749" d="m -2398.5513,615.31659 5,0 0,0.99998 -5,0 z" style="fill:#273951;fill-opacity:1;stroke:none;stroke-width:4;stroke-opacity:1" transform="matrix(0.35604791,-0.9344677,0.9344677,0.35604791,0,0)"/>
      <path inkscape:connector-curvature="0" id="rect6751" d="m -2398.551,586.31659 8,0 0,10.00254 -8,0 z" style="fill:#5acfd6;fill-opacity:1;stroke:none;stroke-width:0.5;stroke-linecap:round;stroke-linejoin:round;stroke-miterlimit:4;stroke-dasharray:none;stroke-opacity:1" transform="matrix(0.35604791,-0.9344677,0.9344677,0.35604791,0,0)"/>
      <path inkscape:connector-curvature="0" id="rect6753" d="m -2394.551,580.81635 c 1.385,0 2.5,1.115 2.5,2.5 l 0,3.09017 c 0,1.385 -1.115,2.5 -2.5,2.5 -1.385,0 -2.5,-1.115 -2.5,-2.5 l 0,-3.09017 c 0,-1.385 1.115,-2.5 2.5,-2.5 z" style="fill:#ffd6b6;fill-opacity:1;stroke:none;stroke-width:0.5;stroke-linecap:round;stroke-linejoin:round;stroke-miterlimit:4;stroke-dasharray:none;stroke-opacity:1" transform="matrix(0.35604791,-0.9344677,0.9344677,0.35604791,0,0)"/>
      <path inkscape:connector-curvature="0" id="path6755" d="m -307.78516,2444.2559 a 2.0002,2.0002 0 0 0 -1.87304,1.1699 l -3.70508,7.834 -6.57617,4.6972 a 2.0002,2.0002 0 1 0 2.32422,3.2559 l 7,-5 a 2.0002,2.0002 0 0 0 0.64648,-0.7734 l 3.92578,-8.3047 a 2.0002,2.0002 0 0 0 -1.74219,-2.8789 z" style="color:#000000;font-style:normal;font-variant:normal;font-weight:normal;font-stretch:normal;font-size:medium;line-height:normal;font-family:sans-serif;text-indent:0;text-align:start;text-decoration:none;text-decoration-line:none;text-decoration-style:solid;text-decoration-color:#000000;letter-spacing:normal;word-spacing:normal;text-transform:none;direction:ltr;block-progression:tb;writing-mode:lr-tb;baseline-shift:baseline;text-anchor:start;white-space:normal;clip-rule:nonzero;display:inline;overflow:visible;visibility:visible;opacity:1;isolation:auto;mix-blend-mode:normal;color-interpolation:sRGB;color-interpolation-filters:linearRGB;solid-color:#000000;solid-opacity:1;fill:#ffd6b6;fill-opacity:1;fill-rule:evenodd;stroke:none;stroke-width:4;stroke-linecap:round;stroke-linejoin:round;stroke-miterlimit:4;stroke-dasharray:none;stroke-dashoffset:0;stroke-opacity:1;color-rendering:auto;image-rendering:auto;shape-rendering:auto;text-rendering:auto;enable-background:accumulate"/>
      <path inkscape:connector-curvature="0" id="path6757" d="m -315.31739,2445.4051 a 2.50025,2.50025 0 0 0 0.72546,0.4164 l 1.77764,0.6773 c 0.53404,-0.4292 0.97586,-0.9866 1.23596,-1.6693 l 0.35604,-0.9345 c 0.2601,-0.6826 0.30122,-1.3927 0.18824,-2.0685 l -1.77764,-0.6773 a 2.50025,2.50025 0 0 0 -0.81865,-0.1719 c 0.61081,0.5329 0.84969,1.3905 0.53912,2.2056 l -0.35605,0.9345 c -0.31057,0.8151 -1.05961,1.2964 -1.87012,1.2877 z" style="color:#000000;font-style:normal;font-variant:normal;font-weight:normal;font-stretch:normal;font-size:medium;line-height:normal;font-family:sans-serif;text-indent:0;text-align:start;text-decoration:none;text-decoration-line:none;text-decoration-style:solid;text-decoration-color:#000000;letter-spacing:normal;word-spacing:normal;text-transform:none;direction:ltr;writing-mode:lr-tb;baseline-shift:baseline;text-anchor:start;white-space:normal;clip-rule:nonzero;display:inline;overflow:visible;visibility:visible;opacity:1;isolation:auto;mix-blend-mode:normal;color-interpolation:sRGB;color-interpolation-filters:linearRGB;solid-color:#000000;solid-opacity:1;fill:#ffcaa0;fill-opacity:1;fill-rule:evenodd;stroke:none;stroke-width:5;stroke-linecap:round;stroke-linejoin:round;stroke-miterlimit:4;stroke-dasharray:none;stroke-dashoffset:0;stroke-opacity:1;color-rendering:auto;image-rendering:auto;shape-rendering:auto;text-rendering:auto;enable-background:accumulate"/>
      <path style="fill:#ffd6b6;fill-opacity:1" inkscape:connector-curvature="0" id="path6759" class="st3" d="m -321.01361,2435.8893 5.79108,2.2065 c 2.47877,0.9445 3.72254,3.7195 2.7781,6.1982 l -0.13681,0.3591 c -0.94445,2.4787 -3.71945,3.7225 -6.19822,2.7781 l -5.79108,-2.2065" sodipodi:nodetypes="cssssc"/>
      <path sodipodi:nodetypes="cscsssccsssscc" style="fill:#273951;fill-opacity:1" inkscape:connector-curvature="0" id="path6761" class="st6" d="m -325.48878,2441.8304 -0.45693,1.1992 c -0.25085,0.6584 -0.94488,1.0054 -1.60423,0.7614 -0.17354,0.7083 0.24247,1.4665 0.94154,1.7328 l 2.44494,0.9316 c 0.75702,0.2884 1.52459,-0.1218 1.813,-0.8788 l 0.91387,-2.3985 0.58749,-1.5419 1.69732,-4.4547 c 0.10816,-0.2839 0.041,-0.573 -0.24187,-0.6808 l -2.79182,-1.0637 c -0.37715,-0.1437 -0.87428,0.018 -1.01849,0.3967 l -1.37094,3.5981 z"/>
      <path inkscape:connector-curvature="0" id="path6764" d="m -321.8129,2438.2946 c 0.36531,0.6416 0.93483,1.1724 1.68184,1.4571 l 3.08384,1.175 c 1.47786,0.563 3.09579,0 3.92765,-1.2694 -0.51734,-0.6712 -1.20756,-1.2211 -2.05755,-1.545 l -5.7339,-2.1847 z" style="fill:#273951;fill-opacity:1;stroke:none;stroke-width:5;stroke-linecap:round;stroke-linejoin:round;stroke-miterlimit:4;stroke-dasharray:none;stroke-opacity:1"/>
      <path inkscape:connector-curvature="0" id="circle6766" d="m -2392.7511,571.71649 a 1.1000206,1.1000206 0 0 1 -1.1,1.10002 1.1000206,1.1000206 0 0 1 -1.1,-1.10002 1.1000206,1.1000206 0 0 1 1.1,-1.10002 1.1000206,1.1000206 0 0 1 1.1,1.10002 z" style="fill:#ffd6b6;fill-opacity:1;stroke:none;stroke-width:5;stroke-linecap:round;stroke-linejoin:round;stroke-miterlimit:4;stroke-dasharray:none;stroke-opacity:1" transform="matrix(0.35604791,-0.9344677,0.9344677,0.35604791,0,0)"/>
      <path inkscape:connector-curvature="0" id="path6768" d="m -320.00394,2446.9701 0.39562,-1.0383" style="fill:none;fill-rule:evenodd;stroke:#273951;stroke-width:1.10920286px;stroke-linecap:butt;stroke-linejoin:miter;stroke-opacity:1"/>
      <path inkscape:connector-curvature="0" id="rect6770" d="m -2400.5513,569.51642 10.0002,0 0,1.10002 -10.0002,0 z" style="fill:#ffffff;fill-opacity:1;stroke:none;stroke-width:5;stroke-linecap:round;stroke-linejoin:round;stroke-miterlimit:4;stroke-dasharray:none;stroke-opacity:1" transform="matrix(0.35604791,-0.9344677,0.9344677,0.35604791,0,0)"/>
      <path inkscape:connector-curvature="0" id="rect6772" d="m -2398.5513,598.31659 5,0 0,7 -5,0 z" style="fill:#354d62;fill-opacity:1;stroke:none;stroke-width:5;stroke-linecap:round;stroke-linejoin:round;stroke-miterlimit:4;stroke-dasharray:none;stroke-opacity:1" transform="matrix(0.35604791,-0.9344677,0.9344677,0.35604791,0,0)"/>
    </g>
  </g>

	<metadata>
		<rdf:RDF xmlns:rdf="http://www.w3.org/1999/02/22-rdf-syntax-ns#" xmlns:rdfs="http://www.w3.org/2000/01/rdf-schema#" xmlns:dc="http://purl.org/dc/elements/1.1/">
			<rdf:Description about="https://iconscout.com/legal#licenses" dc:title="23" dc:description="23" dc:publisher="Iconscout" dc:date="2017-03-06" dc:format="image/svg+xml" dc:language="en">
				<dc:creator>
					<rdf:Bag>
						<rdf:li>Jemis Mali</rdf:li>
					</rdf:Bag>
				</dc:creator>
			</rdf:Description>
		</rdf:RDF>
    </metadata></svg>
