<?xml version="1.0" encoding="UTF-8" standalone="no"?>
<svg xmlns:dc="http://purl.org/dc/elements/1.1/" xmlns:cc="http://creativecommons.org/ns#" xmlns:rdf="http://www.w3.org/1999/02/22-rdf-syntax-ns#" xmlns:svg="http://www.w3.org/2000/svg" xmlns="http://www.w3.org/2000/svg" xmlns:sodipodi="http://sodipodi.sourceforge.net/DTD/sodipodi-0.dtd" xmlns:inkscape="http://www.inkscape.org/namespaces/inkscape" width="64" height="64" viewBox="0 0 64.000001 64.000001" id="svg7251" version="1.1" inkscape:version="0.91 r13725" sodipodi:docname="25.svg">
  <defs id="defs7253"/>
  <sodipodi:namedview id="base" pagecolor="#ffffff" bordercolor="#666666" borderopacity="1.0" inkscape:pageopacity="0.0" inkscape:pageshadow="2" inkscape:zoom="7.9195959" inkscape:cx="14.549612" inkscape:cy="34.557135" inkscape:document-units="px" inkscape:current-layer="layer1" showgrid="true" units="px" inkscape:snap-bbox="true" inkscape:bbox-paths="true" inkscape:bbox-nodes="true" inkscape:snap-bbox-edge-midpoints="true" inkscape:snap-bbox-midpoints="true" inkscape:window-width="1366" inkscape:window-height="705" inkscape:window-x="-8" inkscape:window-y="-8" inkscape:window-maximized="1">
    <inkscape:grid type="xygrid" id="grid7259"/>
  </sodipodi:namedview>
  
  <g inkscape:label="Layer 1" inkscape:groupmode="layer" id="layer1" transform="translate(0,-988.36216)">
    <g transform="translate(263.63319,-1434.9805)" id="g10248">
      <path inkscape:connector-curvature="0" id="path7070" d="m -223.60352,2453.6719 a 2.50025,2.50025 0 1 0 -0.0312,5 l 6,0.037 a 2.50025,2.50025 0 1 0 0.0293,-5 l -5.99805,-0.037 z" style="color:#000000;font-style:normal;font-variant:normal;font-weight:normal;font-stretch:normal;font-size:medium;line-height:normal;font-family:sans-serif;text-indent:0;text-align:start;text-decoration:none;text-decoration-line:none;text-decoration-style:solid;text-decoration-color:#000000;letter-spacing:normal;word-spacing:normal;text-transform:none;direction:ltr;block-progression:tb;writing-mode:lr-tb;baseline-shift:baseline;text-anchor:start;white-space:normal;clip-rule:nonzero;display:inline;overflow:visible;visibility:visible;opacity:1;isolation:auto;mix-blend-mode:normal;color-interpolation:sRGB;color-interpolation-filters:linearRGB;solid-color:#000000;solid-opacity:1;fill:#ffd6b6;fill-opacity:1;fill-rule:evenodd;stroke:none;stroke-width:5;stroke-linecap:round;stroke-linejoin:round;stroke-miterlimit:4;stroke-dasharray:none;stroke-dashoffset:0;stroke-opacity:1;color-rendering:auto;image-rendering:auto;shape-rendering:auto;text-rendering:auto;enable-background:accumulate"/>
      <path inkscape:connector-curvature="0" id="path7072" d="m -216.31679,2453.8315 a 2.50025,2.50025 0 0 0 -0.82539,-0.1359 l -1.90227,-0.011 c -0.34976,0.5892 -0.56825,1.2661 -0.57266,1.9966 l -0.006,0.9999 c -0.004,0.7305 0.20591,1.4101 0.54853,2.0034 l 1.90226,0.011 a 2.50025,2.50025 0 0 0 0.82694,-0.126 c -0.75881,-0.2851 -1.28307,-1.0047 -1.27779,-1.8769 l 0.006,-1.0001 c 0.005,-0.8722 0.53818,-1.5854 1.30037,-1.8612 z" style="color:#000000;font-style:normal;font-variant:normal;font-weight:normal;font-stretch:normal;font-size:medium;line-height:normal;font-family:sans-serif;text-indent:0;text-align:start;text-decoration:none;text-decoration-line:none;text-decoration-style:solid;text-decoration-color:#000000;letter-spacing:normal;word-spacing:normal;text-transform:none;direction:ltr;writing-mode:lr-tb;baseline-shift:baseline;text-anchor:start;white-space:normal;clip-rule:nonzero;display:inline;overflow:visible;visibility:visible;opacity:1;isolation:auto;mix-blend-mode:normal;color-interpolation:sRGB;color-interpolation-filters:linearRGB;solid-color:#000000;solid-opacity:1;fill:#ffcaa0;fill-opacity:1;fill-rule:evenodd;stroke:none;stroke-width:5;stroke-linecap:round;stroke-linejoin:round;stroke-miterlimit:4;stroke-dasharray:none;stroke-dashoffset:0;stroke-opacity:1;color-rendering:auto;image-rendering:auto;shape-rendering:auto;text-rendering:auto;enable-background:accumulate"/>
      <path style="fill:#ffd6b6;fill-opacity:1" inkscape:connector-curvature="0" id="path7074" class="st3" d="m -207.64737,2460.33 -6.1971,-0.037 c -2.65254,-0.016 -4.78983,-2.1793 -4.77381,-4.8317 l 0.002,-0.3843 c 0.016,-2.6525 2.17925,-4.7898 4.83181,-4.7738 l 6.19708,0.037" sodipodi:nodetypes="cssssc"/>
      <path sodipodi:nodetypes="cscsssccsssscc" style="fill:#273951;fill-opacity:1" inkscape:connector-curvature="0" id="path7076" class="st6" d="m -205.5377,2453.1974 0.008,-1.2833 c 0.004,-0.7045 0.53268,-1.2727 1.23571,-1.2753 -0.0856,-0.7241 -0.74093,-1.2885 -1.48903,-1.293 l -2.61635,-0.016 c -0.81009,0 -1.38522,0.6484 -1.39012,1.4584 l -0.0155,2.5666 -0.01,1.65 -0.0288,4.7671 c -0.002,0.3037 0.16235,0.5509 0.46507,0.5528 l 2.98754,0.018 c 0.40353,0 0.81247,-0.3234 0.81491,-0.7284 l 0.0233,-3.8504 z"/>
      <path inkscape:connector-curvature="0" id="path7078" d="m -207.74159,2457.797 c -0.56696,-0.4729 -1.28637,-0.7704 -2.08577,-0.7753 l -3.30003,-0.02 c -1.58148,-0.01 -2.89891,1.0864 -3.23382,2.5652 0.7197,0.4473 1.55886,0.7205 2.46845,0.726 l 6.13589,0.037 z" style="fill:#273951;fill-opacity:1;stroke:none;stroke-width:5;stroke-linecap:round;stroke-linejoin:round;stroke-miterlimit:4;stroke-dasharray:none;stroke-opacity:1"/>
      <path inkscape:connector-curvature="0" id="circle7080" d="m 2459.3432,197.19574 a 1.1000206,1.1000206 0 0 1 -1.1,1.10002 1.1000206,1.1000206 0 0 1 -1.1001,-1.10002 1.1000206,1.1000206 0 0 1 1.1001,-1.10002 1.1000206,1.1000206 0 0 1 1.1,1.10002 z" style="fill:#ffd6b6;fill-opacity:1;stroke:none;stroke-width:5;stroke-linecap:round;stroke-linejoin:round;stroke-miterlimit:4;stroke-dasharray:none;stroke-opacity:1" transform="matrix(-0.00603491,0.99998179,-0.99998179,-0.00603491,0,0)"/>
      <path inkscape:connector-curvature="0" id="path7082" d="m -212.47576,2450.3055 -0.007,1.1111" style="fill:none;fill-rule:evenodd;stroke:#273951;stroke-width:1.11113966px;stroke-linecap:butt;stroke-linejoin:miter;stroke-opacity:1"/>
      <path inkscape:connector-curvature="0" id="rect7084" d="m 2451.543,194.99567 10.0002,0 0,1.10002 -10.0002,0 z" style="fill:#ffffff;fill-opacity:1;stroke:none;stroke-width:5;stroke-linecap:round;stroke-linejoin:round;stroke-miterlimit:4;stroke-dasharray:none;stroke-opacity:1" transform="matrix(-0.00603491,0.99998179,-0.99998179,-0.00603491,0,0)"/>
      <path inkscape:connector-curvature="0" id="path7086" d="m -236.80664,2453.4102 -19.92188,1.7617 0.43946,4.9804 19.92383,-1.7617 -0.44141,-4.9804 z" style="color:#000000;font-style:normal;font-variant:normal;font-weight:normal;font-stretch:normal;font-size:medium;line-height:normal;font-family:sans-serif;text-indent:0;text-align:start;text-decoration:none;text-decoration-line:none;text-decoration-style:solid;text-decoration-color:#000000;letter-spacing:normal;word-spacing:normal;text-transform:none;direction:ltr;block-progression:tb;writing-mode:lr-tb;baseline-shift:baseline;text-anchor:start;white-space:normal;clip-rule:nonzero;display:inline;overflow:visible;visibility:visible;opacity:1;isolation:auto;mix-blend-mode:normal;color-interpolation:sRGB;color-interpolation-filters:linearRGB;solid-color:#000000;solid-opacity:1;fill:#ffd6b6;fill-opacity:1;fill-rule:evenodd;stroke:none;stroke-width:5;stroke-linecap:butt;stroke-linejoin:miter;stroke-miterlimit:4;stroke-dasharray:none;stroke-dashoffset:0;stroke-opacity:1;color-rendering:auto;image-rendering:auto;shape-rendering:auto;text-rendering:auto;enable-background:accumulate"/>
      <path inkscape:connector-curvature="0" id="rect7088" d="m 2454.3459,233.36565 4,0 c 1.108,0 2,0.892 2,2 l 0,4.00254 c 0,1.108 -0.892,2 -2,2 l -4,0 c -1.108,0 -2,-0.892 -2,-2 l 0,-4.00254 c 0,-1.108 0.892,-2 2,-2 z" style="fill:#354d62;fill-opacity:1;stroke:none;stroke-width:0.5;stroke-linecap:round;stroke-linejoin:round;stroke-miterlimit:4;stroke-dasharray:none;stroke-opacity:1" transform="matrix(-7.1750485e-5,1,-1,-7.1750485e-5,0,0)"/>
      <path inkscape:connector-curvature="0" id="rect7090" d="m 2456.3459,219.36565 c 2.216,0 4,1.784 4,4 l 0,8 c 0,2.216 -1.784,4 -4,4 -2.216,0 -4,-1.784 -4,-4 l 0,-8 c 0,-2.216 1.784,-4 4,-4 z" style="fill:#5acfd6;fill-opacity:1;stroke:none;stroke-width:0.5;stroke-linecap:round;stroke-linejoin:round;stroke-miterlimit:4;stroke-dasharray:none;stroke-opacity:1" transform="matrix(-7.1750485e-5,1,-1,-7.1750485e-5,0,0)"/>
      <path inkscape:connector-curvature="0" id="rect7092" d="m 2424.0635,470.73068 3,0 c 0.554,0 1,0.446 1,1 l 0,2.00002 c 0,0.554 -0.446,1 -1,1 l -3,0 c -0.554,0 -1,-0.446 -1,-1 l 0,-2.00002 c 0,-0.554 0.446,-1 1,-1 z" style="fill:#d0e3eb;fill-opacity:1;stroke:none;stroke-width:4;stroke-opacity:1" transform="matrix(0.08797655,0.99612255,-0.99612255,0.08797655,0,0)"/>
      <path inkscape:connector-curvature="0" id="rect7094" d="m 2423.0635,469.73068 5,0 0,0.99998 -5,0 z" style="fill:#d0e3eb;fill-opacity:1;stroke:none;stroke-width:4;stroke-opacity:1" transform="matrix(0.08797655,0.99612255,-0.99612255,0.08797655,0,0)"/>
      <path inkscape:connector-curvature="0" id="rect7096" d="m 2423.0635,470.73068 5,0 0,0.99998 -5,0 z" style="fill:#273951;fill-opacity:1;stroke:none;stroke-width:4;stroke-opacity:1" transform="matrix(0.08797655,0.99612255,-0.99612255,0.08797655,0,0)"/>
      <path inkscape:connector-curvature="0" id="rect7098" d="m 2452.3459,226.36565 8,0 0,10.00254 -8,0 z" style="fill:#5acfd6;fill-opacity:1;stroke:none;stroke-width:0.5;stroke-linecap:round;stroke-linejoin:round;stroke-miterlimit:4;stroke-dasharray:none;stroke-opacity:1" transform="matrix(-7.1750485e-5,1,-1,-7.1750485e-5,0,0)"/>
      <path inkscape:connector-curvature="0" id="rect7100" d="m 2456.3459,220.8654 c 1.385,0 2.5,1.115 2.5,2.5 l 0,3.09017 c 0,1.385 -1.115,2.5 -2.5,2.5 -1.385,0 -2.5,-1.115 -2.5,-2.5 l 0,-3.09017 c 0,-1.385 1.115,-2.5 2.5,-2.5 z" style="fill:#ffd6b6;fill-opacity:1;stroke:none;stroke-width:0.5;stroke-linecap:round;stroke-linejoin:round;stroke-miterlimit:4;stroke-dasharray:none;stroke-opacity:1" transform="matrix(-7.1750485e-5,1,-1,-7.1750485e-5,0,0)"/>
      <path inkscape:connector-curvature="0" id="rect7102" d="m 2423.0635,453.73068 5,0 0,7 -5,0 z" style="fill:#354d62;fill-opacity:1;stroke:none;stroke-width:5;stroke-linecap:round;stroke-linejoin:round;stroke-miterlimit:4;stroke-dasharray:none;stroke-opacity:1" transform="matrix(0.08797655,0.99612255,-0.99612255,0.08797655,0,0)"/>
      <path inkscape:connector-curvature="0" id="path7104" d="m -223.55469,2454.3223 a 2.0002,2.0002 0 0 0 -0.5332,0.068 l -7.76172,1.9395 -8.75391,0 a 2.0002,2.0002 0 1 0 0,4 l 9,0 a 2.0002,2.0002 0 0 0 0.48633,-0.061 l 8,-2 a 2.0002,2.0002 0 0 0 -0.4375,-3.9472 z" style="color:#000000;font-style:normal;font-variant:normal;font-weight:normal;font-stretch:normal;font-size:medium;line-height:normal;font-family:sans-serif;text-indent:0;text-align:start;text-decoration:none;text-decoration-line:none;text-decoration-style:solid;text-decoration-color:#000000;letter-spacing:normal;word-spacing:normal;text-transform:none;direction:ltr;block-progression:tb;writing-mode:lr-tb;baseline-shift:baseline;text-anchor:start;white-space:normal;clip-rule:nonzero;display:inline;overflow:visible;visibility:visible;opacity:1;isolation:auto;mix-blend-mode:normal;color-interpolation:sRGB;color-interpolation-filters:linearRGB;solid-color:#000000;solid-opacity:1;fill:#ffd6b6;fill-opacity:1;fill-rule:evenodd;stroke:none;stroke-width:4;stroke-linecap:round;stroke-linejoin:round;stroke-miterlimit:4;stroke-dasharray:none;stroke-dashoffset:0;stroke-opacity:1;color-rendering:auto;image-rendering:auto;shape-rendering:auto;text-rendering:auto;enable-background:accumulate"/>
    </g>
  </g>

	<metadata>
		<rdf:RDF xmlns:rdf="http://www.w3.org/1999/02/22-rdf-syntax-ns#" xmlns:rdfs="http://www.w3.org/2000/01/rdf-schema#" xmlns:dc="http://purl.org/dc/elements/1.1/">
			<rdf:Description about="https://iconscout.com/legal#licenses" dc:title="25" dc:description="25" dc:publisher="Iconscout" dc:date="2017-03-06" dc:format="image/svg+xml" dc:language="en">
				<dc:creator>
					<rdf:Bag>
						<rdf:li>Jemis Mali</rdf:li>
					</rdf:Bag>
				</dc:creator>
			</rdf:Description>
		</rdf:RDF>
    </metadata></svg>
