<?xml version="1.0" encoding="UTF-8" standalone="no"?>
<svg xmlns:dc="http://purl.org/dc/elements/1.1/" xmlns:cc="http://creativecommons.org/ns#" xmlns:rdf="http://www.w3.org/1999/02/22-rdf-syntax-ns#" xmlns:svg="http://www.w3.org/2000/svg" xmlns="http://www.w3.org/2000/svg" xmlns:sodipodi="http://sodipodi.sourceforge.net/DTD/sodipodi-0.dtd" xmlns:inkscape="http://www.inkscape.org/namespaces/inkscape" width="64" height="64" viewBox="0 0 64.000001 64.000001" id="svg7251" version="1.1" inkscape:version="0.91 r13725" sodipodi:docname="6.svg">
  <defs id="defs7253"/>
  <sodipodi:namedview id="base" pagecolor="#ffffff" bordercolor="#666666" borderopacity="1.0" inkscape:pageopacity="0.0" inkscape:pageshadow="2" inkscape:zoom="7.9195959" inkscape:cx="14.76678" inkscape:cy="28.489503" inkscape:document-units="px" inkscape:current-layer="layer1" showgrid="true" units="px" inkscape:snap-bbox="true" inkscape:bbox-paths="true" inkscape:bbox-nodes="true" inkscape:snap-bbox-edge-midpoints="true" inkscape:snap-bbox-midpoints="true" inkscape:window-width="1366" inkscape:window-height="705" inkscape:window-x="-8" inkscape:window-y="-8" inkscape:window-maximized="1">
    <inkscape:grid type="xygrid" id="grid7259"/>
  </sodipodi:namedview>
  
  <g inkscape:label="Layer 1" inkscape:groupmode="layer" id="layer1" transform="translate(0,-988.36216)">
    <g transform="translate(147.13924,-1241.965)" id="g7971">
      <path inkscape:connector-curvature="0" id="path7549" d="m -114.125,2266.3262 0,20 5,0 0,-20 -5,0 z" style="color:#000000;font-style:normal;font-variant:normal;font-weight:normal;font-stretch:normal;font-size:medium;line-height:normal;font-family:sans-serif;text-indent:0;text-align:start;text-decoration:none;text-decoration-line:none;text-decoration-style:solid;text-decoration-color:#000000;letter-spacing:normal;word-spacing:normal;text-transform:none;direction:ltr;block-progression:tb;writing-mode:lr-tb;baseline-shift:baseline;text-anchor:start;white-space:normal;clip-rule:nonzero;display:inline;overflow:visible;visibility:visible;opacity:1;isolation:auto;mix-blend-mode:normal;color-interpolation:sRGB;color-interpolation-filters:linearRGB;solid-color:#000000;solid-opacity:1;fill:#ffd6b6;fill-opacity:1;fill-rule:evenodd;stroke:none;stroke-width:5;stroke-linecap:butt;stroke-linejoin:miter;stroke-miterlimit:4;stroke-dasharray:none;stroke-dashoffset:0;stroke-opacity:1;color-rendering:auto;image-rendering:auto;shape-rendering:auto;text-rendering:auto;enable-background:accumulate"/>
      <path inkscape:connector-curvature="0" id="path7551" d="m -110.66211,2244.791 a 2.50025,2.50025 0 0 0 -2.46289,2.5352 l 0,6 a 2.50025,2.50025 0 1 0 5,0 l 0,-6 a 2.50025,2.50025 0 0 0 -2.53711,-2.5352 z" style="color:#000000;font-style:normal;font-variant:normal;font-weight:normal;font-stretch:normal;font-size:medium;line-height:normal;font-family:sans-serif;text-indent:0;text-align:start;text-decoration:none;text-decoration-line:none;text-decoration-style:solid;text-decoration-color:#000000;letter-spacing:normal;word-spacing:normal;text-transform:none;direction:ltr;block-progression:tb;writing-mode:lr-tb;baseline-shift:baseline;text-anchor:start;white-space:normal;clip-rule:nonzero;display:inline;overflow:visible;visibility:visible;opacity:1;isolation:auto;mix-blend-mode:normal;color-interpolation:sRGB;color-interpolation-filters:linearRGB;solid-color:#000000;solid-opacity:1;fill:#ffd6b6;fill-opacity:1;fill-rule:evenodd;stroke:none;stroke-width:5;stroke-linecap:round;stroke-linejoin:round;stroke-miterlimit:4;stroke-dasharray:none;stroke-dashoffset:0;stroke-opacity:1;color-rendering:auto;image-rendering:auto;shape-rendering:auto;text-rendering:auto;enable-background:accumulate"/>
      <path inkscape:connector-curvature="0" id="rect7553" d="m -112.12549,2263.3271 4,0 c 1.108,0 2,0.892 2,2 l 0,4.0026 c 0,1.108 -0.892,2 -2,2 l -4,0 c -1.108,0 -2,-0.892 -2,-2 l 0,-4.0026 c 0,-1.108 0.892,-2 2,-2 z" style="fill:#354d62;fill-opacity:1;stroke:none;stroke-width:0.5;stroke-linecap:round;stroke-linejoin:round;stroke-miterlimit:4;stroke-dasharray:none;stroke-opacity:1"/>
      <path inkscape:connector-curvature="0" id="rect7555" d="m -110.12549,2249.3271 c 2.216,0 4,1.784 4,4 l 0,8 c 0,2.216 -1.784,4 -4,4 -2.216,0 -4,-1.784 -4,-4 l 0,-8 c 0,-2.216 1.784,-4 4,-4 z" style="fill:#5acfd6;fill-opacity:1;stroke:none;stroke-width:0.5;stroke-linecap:round;stroke-linejoin:round;stroke-miterlimit:4;stroke-dasharray:none;stroke-opacity:1"/>
      <path inkscape:connector-curvature="0" id="rect7557" d="m -113.12573,2285.3271 3,0 c 0.554,0 1,0.446 1,1 l 0,2.0001 c 0,0.554 -0.446,1 -1,1 l -3,0 c -0.554,0 -1,-0.446 -1,-1 l 0,-2.0001 c 0,-0.554 0.446,-1 1,-1 z" style="fill:#d0e3eb;fill-opacity:1;stroke:none;stroke-width:4;stroke-opacity:1"/>
      <path inkscape:connector-curvature="0" id="rect7559" d="m -114.12573,2284.3271 5,0 0,1 -5,0 z" style="fill:#d0e3eb;fill-opacity:1;stroke:none;stroke-width:4;stroke-opacity:1"/>
      <path inkscape:connector-curvature="0" id="rect7561" d="m -114.12573,2285.3271 5,0 0,1 -5,0 z" style="fill:#354d62;fill-opacity:1;stroke:none;stroke-width:4;stroke-opacity:1"/>
      <path inkscape:connector-curvature="0" id="rect7563" d="m -114.12549,2256.3271 8,0 0,10.0026 -8,0 z" style="fill:#5acfd6;fill-opacity:1;stroke:none;stroke-width:0.5;stroke-linecap:round;stroke-linejoin:round;stroke-miterlimit:4;stroke-dasharray:none;stroke-opacity:1"/>
      <path inkscape:connector-curvature="0" id="rect7565" d="m -110.12549,2250.8269 c 1.385,0 2.5,1.115 2.5,2.5 l 0,3.0902 c 0,1.385 -1.115,2.5 -2.5,2.5 -1.385,0 -2.5,-1.115 -2.5,-2.5 l 0,-3.0902 c 0,-1.385 1.115,-2.5 2.5,-2.5 z" style="fill:#ffd6b6;fill-opacity:1;stroke:none;stroke-width:0.5;stroke-linecap:round;stroke-linejoin:round;stroke-miterlimit:4;stroke-dasharray:none;stroke-opacity:1"/>
      <path inkscape:connector-curvature="0" id="path7569" d="m -112.99463,2246.0379 a 2.50025,2.50025 0 0 0 -0.13086,0.8262 l 0,1.9023 c 0.59129,0.3462 1.26948,0.5606 2,0.5606 l 1,0 c 0.73052,0 1.40871,-0.2144 2,-0.5606 l 0,-1.9023 a 2.50025,2.50025 0 0 0 -0.13086,-0.8262 c -0.28045,0.7605 -0.99687,1.2891 -1.86914,1.2891 l -1,0 c -0.87227,0 -1.58869,-0.5286 -1.86914,-1.2891 z" style="color:#000000;font-style:normal;font-variant:normal;font-weight:normal;font-stretch:normal;font-size:medium;line-height:normal;font-family:sans-serif;text-indent:0;text-align:start;text-decoration:none;text-decoration-line:none;text-decoration-style:solid;text-decoration-color:#000000;letter-spacing:normal;word-spacing:normal;text-transform:none;direction:ltr;writing-mode:lr-tb;baseline-shift:baseline;text-anchor:start;white-space:normal;clip-rule:nonzero;display:inline;overflow:visible;visibility:visible;opacity:1;isolation:auto;mix-blend-mode:normal;color-interpolation:sRGB;color-interpolation-filters:linearRGB;solid-color:#000000;solid-opacity:1;fill:#ffcaa0;fill-opacity:1;fill-rule:evenodd;stroke:none;stroke-width:5;stroke-linecap:round;stroke-linejoin:round;stroke-miterlimit:4;stroke-dasharray:none;stroke-dashoffset:0;stroke-opacity:1;color-rendering:auto;image-rendering:auto;shape-rendering:auto;text-rendering:auto;enable-background:accumulate"/>
      <path style="fill:#ffd6b6;fill-opacity:1" inkscape:connector-curvature="0" id="path7571" class="st3" d="m -106.13058,2237.3269 0,6.1972 c 0,2.6526 -2.15033,4.8029 -4.80289,4.8029 l -0.38425,0 c -2.65258,0 -4.8029,-2.1503 -4.8029,-4.8029 l 0,-6.1972" sodipodi:nodetypes="cssssc"/>
      <path sodipodi:nodetypes="cscsssccsssscc" style="fill:#273951;fill-opacity:1" inkscape:connector-curvature="0" id="path7579" class="st6" d="m -113.27567,2235.2603 -1.28335,0 c -0.70453,0 -1.2759,-0.525 -1.28271,-1.228 -0.72361,0.09 -1.284,0.7487 -1.284,1.4968 l 0,2.6164 c 0,0.8101 0.65666,1.3813 1.46669,1.3813 l 2.56671,0 1.65004,0 4.76712,0 c 0.30376,0 0.55001,-0.1657 0.55001,-0.4684 l 0,-2.9876 c 0,-0.4036 -0.32833,-0.8105 -0.73334,-0.8105 l -3.85044,0 z"/>
      <path inkscape:connector-curvature="0" id="path7585" d="m -108.66287,2237.4364 c -0.46945,0.5698 -0.76272,1.291 -0.76272,2.0904 l 0,3.3001 c 0,1.5815 1.10388,2.8923 2.58462,3.2183 0.44298,-0.7224 0.71115,-1.5632 0.71115,-2.4728 l 0,-6.136 z" style="fill:#273951;fill-opacity:1;stroke:none;stroke-width:5;stroke-linecap:round;stroke-linejoin:round;stroke-miterlimit:4;stroke-dasharray:none;stroke-opacity:1"/>
      <path inkscape:connector-curvature="0" id="circle7587" d="m -108.32558,2241.7271 a 1.1000206,1.1000206 0 0 1 -1.10002,1.1 1.1000206,1.1000206 0 0 1 -1.10002,-1.1 1.1000206,1.1000206 0 0 1 1.10002,-1.1001 1.1000206,1.1000206 0 0 1 1.10002,1.1001 z" style="fill:#ffd6b6;fill-opacity:1;stroke:none;stroke-width:5;stroke-linecap:round;stroke-linejoin:round;stroke-miterlimit:4;stroke-dasharray:none;stroke-opacity:1"/>
      <path inkscape:connector-curvature="0" id="path7599" d="m -116.12573,2242.2157 1.11114,0" style="fill:none;fill-rule:evenodd;stroke:#273951;stroke-width:1.11113966px;stroke-linecap:butt;stroke-linejoin:miter;stroke-opacity:1"/>
      <path inkscape:connector-curvature="0" id="rect7601" d="m -116.12573,2239.5269 10.00021,0 0,1.1 -10.00021,0 z" style="fill:#ffffff;fill-opacity:1;stroke:none;stroke-width:5;stroke-linecap:round;stroke-linejoin:round;stroke-miterlimit:4;stroke-dasharray:none;stroke-opacity:1"/>
      <path inkscape:connector-curvature="0" id="rect7604" d="m -114.12573,2268.3271 5,0 0,7 -5,0 z" style="fill:#354d62;fill-opacity:1;stroke:none;stroke-width:5;stroke-linecap:round;stroke-linejoin:round;stroke-miterlimit:4;stroke-dasharray:none;stroke-opacity:1"/>
      <path inkscape:connector-curvature="0" id="rect7606" d="m -114.12574,2271.3296 8.00002,0 c 0.55399,0 0.99999,0.446 0.99999,1 0,0.554 -0.446,1 -0.99999,1 l -8.00002,0 c -0.554,0 -0.99999,-0.446 -0.99999,-1 0,-0.554 0.44599,-1 0.99999,-1 z" style="fill:#273951;fill-opacity:1"/>
      <path inkscape:connector-curvature="0" id="rect7608" d="m -107.12574,2270.3296 2e-5,0 c 0.55399,0 0.99999,0.446 0.99999,1 l 0,2 c 0,0.554 -0.446,1 -0.99999,1 l -2e-5,0 c -0.554,0 -0.99999,-0.446 -0.99999,-1 l 0,-2 c 0,-0.554 0.44599,-1 0.99999,-1 z" style="fill:#273951;fill-opacity:1"/>
      <path inkscape:connector-curvature="0" id="rect7610" d="m -113.12574,2270.3296 2e-5,0 c 0.55399,0 0.99999,0.446 0.99999,1 l 0,2 c 0,0.554 -0.446,1 -0.99999,1 l -2e-5,0 c -0.554,0 -0.99999,-0.446 -0.99999,-1 l 0,-2 c 0,-0.554 0.44599,-1 0.99999,-1 z" style="fill:#273951;fill-opacity:1"/>
      <path inkscape:connector-curvature="0" id="path7613" d="m -110.15625,2252.3008 a 2.0002,2.0002 0 0 0 -1.96875,2.0293 l 0,17.9707 a 2.0002,2.0002 0 1 0 4,0 l 0,-17.9707 a 2.0002,2.0002 0 0 0 -2.03125,-2.0293 z" style="color:#000000;font-style:normal;font-variant:normal;font-weight:normal;font-stretch:normal;font-size:medium;line-height:normal;font-family:sans-serif;text-indent:0;text-align:start;text-decoration:none;text-decoration-line:none;text-decoration-style:solid;text-decoration-color:#000000;letter-spacing:normal;word-spacing:normal;text-transform:none;direction:ltr;block-progression:tb;writing-mode:lr-tb;baseline-shift:baseline;text-anchor:start;white-space:normal;clip-rule:nonzero;display:inline;overflow:visible;visibility:visible;opacity:1;isolation:auto;mix-blend-mode:normal;color-interpolation:sRGB;color-interpolation-filters:linearRGB;solid-color:#000000;solid-opacity:1;fill:#ffd6b6;fill-opacity:1;fill-rule:evenodd;stroke:none;stroke-width:4;stroke-linecap:round;stroke-linejoin:round;stroke-miterlimit:4;stroke-dasharray:none;stroke-dashoffset:0;stroke-opacity:1;color-rendering:auto;image-rendering:auto;shape-rendering:auto;text-rendering:auto;enable-background:accumulate"/>
      <path id="path7615" d="m -125.125,2280.327 a 1.0001,1.0001 0 1 0 0,2 l 2.5,0 0,6 -1,0 a 0.50005,0.50005 0 1 0 0,1 l 3,0 a 0.50005,0.50005 0 1 0 0,-1 l -1,0 0,-6 2.5,0 a 1.0001,1.0001 0 1 0 0,-2 l -6,0 z" style="color:#000000;font-style:normal;font-variant:normal;font-weight:normal;font-stretch:normal;font-size:medium;line-height:normal;font-family:sans-serif;text-indent:0;text-align:start;text-decoration:none;text-decoration-line:none;text-decoration-style:solid;text-decoration-color:#000000;letter-spacing:normal;word-spacing:normal;text-transform:none;direction:ltr;writing-mode:lr-tb;baseline-shift:baseline;text-anchor:start;white-space:normal;clip-rule:nonzero;display:inline;overflow:visible;visibility:visible;opacity:1;isolation:auto;mix-blend-mode:normal;color-interpolation:sRGB;color-interpolation-filters:linearRGB;solid-color:#000000;solid-opacity:1;fill:#273951;fill-opacity:1;fill-rule:nonzero;stroke:none;stroke-width:2;stroke-linecap:round;stroke-linejoin:round;stroke-miterlimit:4;stroke-dasharray:none;stroke-dashoffset:0;stroke-opacity:1;color-rendering:auto;image-rendering:auto;shape-rendering:auto;text-rendering:auto;enable-background:accumulate" inkscape:connector-curvature="0"/>
    </g>
  </g>

	<metadata>
		<rdf:RDF xmlns:rdf="http://www.w3.org/1999/02/22-rdf-syntax-ns#" xmlns:rdfs="http://www.w3.org/2000/01/rdf-schema#" xmlns:dc="http://purl.org/dc/elements/1.1/">
			<rdf:Description about="https://iconscout.com/legal#licenses" dc:title="6" dc:description="6" dc:publisher="Iconscout" dc:date="2017-03-06" dc:format="image/svg+xml" dc:language="en">
				<dc:creator>
					<rdf:Bag>
						<rdf:li>Jemis Mali</rdf:li>
					</rdf:Bag>
				</dc:creator>
			</rdf:Description>
		</rdf:RDF>
    </metadata></svg>
