<?xml version="1.0" encoding="UTF-8" standalone="no"?>
<svg xmlns:dc="http://purl.org/dc/elements/1.1/" xmlns:cc="http://creativecommons.org/ns#" xmlns:rdf="http://www.w3.org/1999/02/22-rdf-syntax-ns#" xmlns:svg="http://www.w3.org/2000/svg" xmlns="http://www.w3.org/2000/svg" xmlns:sodipodi="http://sodipodi.sourceforge.net/DTD/sodipodi-0.dtd" xmlns:inkscape="http://www.inkscape.org/namespaces/inkscape" width="64" height="64" viewBox="0 0 64.000001 64.000001" id="svg7251" version="1.1" inkscape:version="0.91 r13725" sodipodi:docname="11.svg">
  <defs id="defs7253"/>
  <sodipodi:namedview id="base" pagecolor="#ffffff" bordercolor="#666666" borderopacity="1.0" inkscape:pageopacity="0.0" inkscape:pageshadow="2" inkscape:zoom="1.979899" inkscape:cx="-66.656358" inkscape:cy="61.970542" inkscape:document-units="px" inkscape:current-layer="layer1" showgrid="true" units="px" inkscape:snap-bbox="true" inkscape:bbox-paths="true" inkscape:bbox-nodes="true" inkscape:snap-bbox-edge-midpoints="true" inkscape:snap-bbox-midpoints="true" inkscape:window-width="1366" inkscape:window-height="705" inkscape:window-x="-8" inkscape:window-y="-8" inkscape:window-maximized="1">
    <inkscape:grid type="xygrid" id="grid7259"/>
  </sodipodi:namedview>
  
  <g inkscape:label="Layer 1" inkscape:groupmode="layer" id="layer1" transform="translate(0,-988.36216)">
    <g transform="matrix(0.99874425,0,0,0.99918437,271.81797,-1308.0397)" id="g8504">
      <path inkscape:connector-curvature="0" id="path6817" d="m -238.62891,2334.3242 0,20 5,0 0,-20 -5,0 z" style="color:#000000;font-style:normal;font-variant:normal;font-weight:normal;font-stretch:normal;font-size:medium;line-height:normal;font-family:sans-serif;text-indent:0;text-align:start;text-decoration:none;text-decoration-line:none;text-decoration-style:solid;text-decoration-color:#000000;letter-spacing:normal;word-spacing:normal;text-transform:none;direction:ltr;block-progression:tb;writing-mode:lr-tb;baseline-shift:baseline;text-anchor:start;white-space:normal;clip-rule:nonzero;display:inline;overflow:visible;visibility:visible;opacity:1;isolation:auto;mix-blend-mode:normal;color-interpolation:sRGB;color-interpolation-filters:linearRGB;solid-color:#000000;solid-opacity:1;fill:#ffd6b6;fill-opacity:1;fill-rule:evenodd;stroke:none;stroke-width:5;stroke-linecap:butt;stroke-linejoin:miter;stroke-miterlimit:4;stroke-dasharray:none;stroke-dashoffset:0;stroke-opacity:1;color-rendering:auto;image-rendering:auto;shape-rendering:auto;text-rendering:auto;enable-background:accumulate"/>
      <path sodipodi:nodetypes="cc" inkscape:connector-curvature="0" id="path6819" d="m -240.12951,2327.8601 0,-18" style="fill:none;fill-rule:evenodd;stroke:#f9c3ad;stroke-width:5.00518417;stroke-linecap:round;stroke-linejoin:round;stroke-miterlimit:4;stroke-dasharray:none;stroke-opacity:1"/>
      <path inkscape:connector-curvature="0" id="rect6821" d="m -245.62952,2317.3245 11,0 c 0.554,0 1,0.446 1,1 l 0,5 c 0,0.554 -0.446,1 -1,1 l -11,0 c -0.554,0 -1,-0.446 -1,-1 l 0,-5 c 0,-0.554 0.446,-1 1,-1 z" style="fill:#f9c3ad;fill-opacity:1;stroke:none;stroke-width:4;stroke-linecap:round;stroke-linejoin:round;stroke-opacity:1"/>
      <path sodipodi:nodetypes="cc" inkscape:connector-curvature="0" id="path6823" d="m -220.62951,2319.8273 -14,0" style="fill:none;fill-rule:evenodd;stroke:#f9c3ad;stroke-width:5.00518417;stroke-linecap:round;stroke-linejoin:round;stroke-miterlimit:4;stroke-dasharray:none;stroke-opacity:1"/>
      <path sodipodi:nodetypes="cc" style="fill:none;fill-rule:evenodd;stroke:#f9c3ad;stroke-width:5.00518417;stroke-linecap:round;stroke-linejoin:round;stroke-miterlimit:4;stroke-dasharray:none;stroke-opacity:1" d="m -245.62951,2319.8273 -14,0" id="path6825" inkscape:connector-curvature="0"/>
      <path inkscape:connector-curvature="0" id="path6827" d="m -244.12951,2334.3246 0,20" style="fill:none;fill-rule:evenodd;stroke:#f9c3ad;stroke-width:5.00518417;stroke-linecap:butt;stroke-linejoin:miter;stroke-miterlimit:4;stroke-dasharray:none;stroke-opacity:1"/>
      <path inkscape:connector-curvature="0" id="rect6829" d="m -246.62952,2334.3245 5,0 0,6.9999 -5,0 z" style="fill:#f5583b;fill-opacity:1;stroke:none;stroke-width:4;stroke-opacity:1"/>
      <path sodipodi:nodetypes="ccccc" inkscape:connector-curvature="0" id="path6831" d="m -246.62951,2333.3246 13,0 0,5 -13,0 z" style="fill:#f5583b;fill-opacity:1;stroke:none;stroke-width:4;stroke-opacity:1"/>
      <path inkscape:connector-curvature="0" id="rect6833" d="m -245.62954,2353.3271 3.00005,0 c 0.55398,0 0.99997,0.446 0.99997,1 l 0,1.9975 c 0,0.554 -0.44599,1 -0.99997,1 l -3.00005,0 c -0.55399,0 -0.99998,-0.446 -0.99998,-1 l 0,-1.9975 c 0,-0.554 0.44599,-1 0.99998,-1 z" style="fill:#4d80ac;fill-opacity:1;stroke:none;stroke-width:4;stroke-opacity:1"/>
      <path inkscape:connector-curvature="0" id="rect6835" d="m -246.62952,2352.3245 5,0 0,0.9999 -5,0 z" style="fill:#4d80ac;fill-opacity:1;stroke:none;stroke-width:4;stroke-opacity:1"/>
      <path inkscape:connector-curvature="0" id="rect6837" d="m -246.62952,2353.3245 5,0 0,0.9999 -5,0 z" style="fill:#273951;fill-opacity:1;stroke:none;stroke-width:4;stroke-opacity:1"/>
      <path inkscape:connector-curvature="0" id="path6839" d="m -242.49865,2314.0355 a 2.50025,2.50025 0 0 0 -0.13086,0.8262 l 0,1.9023 c 0.59129,0.3462 1.26948,0.5606 2,0.5606 l 1,0 c 0.73052,0 1.40871,-0.2144 2,-0.5606 l 0,-1.9023 a 2.50025,2.50025 0 0 0 -0.13086,-0.8262 c -0.28045,0.7605 -0.99687,1.2891 -1.86914,1.2891 l -1,0 c -0.87227,0 -1.58869,-0.5286 -1.86914,-1.2891 z" style="color:#000000;font-style:normal;font-variant:normal;font-weight:normal;font-stretch:normal;font-size:medium;line-height:normal;font-family:sans-serif;text-indent:0;text-align:start;text-decoration:none;text-decoration-line:none;text-decoration-style:solid;text-decoration-color:#000000;letter-spacing:normal;word-spacing:normal;text-transform:none;direction:ltr;writing-mode:lr-tb;baseline-shift:baseline;text-anchor:start;white-space:normal;clip-rule:nonzero;display:inline;overflow:visible;visibility:visible;opacity:1;isolation:auto;mix-blend-mode:normal;color-interpolation:sRGB;color-interpolation-filters:linearRGB;solid-color:#000000;solid-opacity:1;fill:#f8b79c;fill-opacity:1;fill-rule:evenodd;stroke:none;stroke-width:5;stroke-linecap:round;stroke-linejoin:round;stroke-miterlimit:4;stroke-dasharray:none;stroke-dashoffset:0;stroke-opacity:1;color-rendering:auto;image-rendering:auto;shape-rendering:auto;text-rendering:auto;enable-background:accumulate"/>
      <path style="fill:#f9c3ad;fill-opacity:1" inkscape:connector-curvature="0" id="path6841" class="st3" d="m -235.62926,2306.4248 0,5.5772 c 0,2.3874 -1.93524,4.3225 -4.32249,4.3225 l -0.34581,0 c -2.38726,0 -4.3225,-1.9351 -4.3225,-4.3225 l 0,-5.5772" sodipodi:nodetypes="cssssc"/>
      <path inkscape:connector-curvature="0" id="circle6843" d="m -241.62927,2310.3198 a 0.49999973,0.49999973 0 0 1 -0.5,0.5 0.49999973,0.49999973 0 0 1 -0.5,-0.5 0.49999973,0.49999973 0 0 1 0.5,-0.5 0.49999973,0.49999973 0 0 1 0.5,0.5 z" style="fill:#234957"/>
      <path inkscape:connector-curvature="0" id="circle6845" d="m -237.62927,2310.2788 a 0.49999973,0.49999973 0 0 1 -0.5,0.5 0.49999973,0.49999973 0 0 1 -0.5,-0.5 0.49999973,0.49999973 0 0 1 0.5,-0.5 0.49999973,0.49999973 0 0 1 0.5,0.5 z" style="fill:#234957"/>
      <path inkscape:connector-curvature="0" id="rect6847" d="m -244.62927,2307.3245 9,0 0,2 -9,0 z" style="fill:#273951;fill-opacity:1;stroke:none;stroke-width:0.5;stroke-linecap:round;stroke-linejoin:round;stroke-miterlimit:4;stroke-dasharray:none;stroke-opacity:1"/>
      <path sodipodi:nodetypes="cscsssccsssscc" style="fill:#273951;fill-opacity:1" inkscape:connector-curvature="0" id="path6849" class="st6" d="m -242.12927,2304.3913 -1.16666,0 c -0.64047,0 -1.15989,-0.4773 -1.16608,-1.1163 -0.65781,0.082 -1.16725,0.6806 -1.16725,1.3607 l 0,2.4332 c 0,0.7364 0.59695,1.2557 1.33333,1.2557 l 2.33333,0 1.50001,0 4.83341,0 c 0.27614,0 0.5,-0.1507 0.5,-0.4258 l 0,-2.7707 c 0,-0.3669 -0.29859,-0.746 -0.66666,-0.7368 l -4.00008,0 z"/>
      <path sodipodi:nodetypes="ccccc" inkscape:connector-curvature="0" id="path6851" d="m -244.62926,2308.3246 0,1 9,0 0,-1 z" style="fill:#f2f2f2;fill-opacity:1;stroke:none;stroke-width:5;stroke-linecap:round;stroke-linejoin:round;stroke-miterlimit:4;stroke-dasharray:none;stroke-opacity:1"/>
      <path inkscape:connector-curvature="0" id="rect6853" d="m -238.62952,2334.3245 5,0 0,6.9999 -5,0 z" style="fill:#f5583b;fill-opacity:1;stroke:none;stroke-width:4;stroke-opacity:1"/>
      <path inkscape:connector-curvature="0" id="rect6855" d="m -237.62954,2353.3271 3.00005,0 c 0.55398,0 0.99997,0.446 0.99997,1 l 0,1.9975 c 0,0.554 -0.44599,1 -0.99997,1 l -3.00005,0 c -0.55399,0 -0.99998,-0.446 -0.99998,-1 l 0,-1.9975 c 0,-0.554 0.44599,-1 0.99998,-1 z" style="fill:#4d80ac;fill-opacity:1;stroke:none;stroke-width:4;stroke-opacity:1"/>
      <path inkscape:connector-curvature="0" id="rect6857" d="m -238.62952,2352.3245 5,0 0,0.9999 -5,0 z" style="fill:#4d80ac;fill-opacity:1;stroke:none;stroke-width:4;stroke-opacity:1"/>
      <path inkscape:connector-curvature="0" id="rect6859" d="m -238.62952,2353.3245 5,0 0,0.9999 -5,0 z" style="fill:#273951;fill-opacity:1;stroke:none;stroke-width:4;stroke-opacity:1"/>
      <path inkscape:connector-curvature="0" id="path6861" d="m -240.16797,2307.3242 a 2.50025,2.50025 0 0 0 -2.46094,2.5352 l 0,18 a 2.50025,2.50025 0 1 0 5,0 l 0,-18 a 2.50025,2.50025 0 0 0 -2.53906,-2.5352 z" style="color:#000000;font-style:normal;font-variant:normal;font-weight:normal;font-stretch:normal;font-size:medium;line-height:normal;font-family:sans-serif;text-indent:0;text-align:start;text-decoration:none;text-decoration-line:none;text-decoration-style:solid;text-decoration-color:#000000;letter-spacing:normal;word-spacing:normal;text-transform:none;direction:ltr;block-progression:tb;writing-mode:lr-tb;baseline-shift:baseline;text-anchor:start;white-space:normal;clip-rule:nonzero;display:inline;overflow:visible;visibility:visible;opacity:1;isolation:auto;mix-blend-mode:normal;color-interpolation:sRGB;color-interpolation-filters:linearRGB;solid-color:#000000;solid-opacity:1;fill:#ffd6b6;fill-opacity:1;fill-rule:evenodd;stroke:none;stroke-width:5;stroke-linecap:round;stroke-linejoin:round;stroke-miterlimit:4;stroke-dasharray:none;stroke-dashoffset:0;stroke-opacity:1;color-rendering:auto;image-rendering:auto;shape-rendering:auto;text-rendering:auto;enable-background:accumulate"/>
      <path inkscape:connector-curvature="0" id="rect6863" d="m -245.62952,2317.3245 11,0 c 0.554,0 1,0.446 1,1 l 0,5 c 0,0.554 -0.446,1 -1,1 l -11,0 c -0.554,0 -1,-0.446 -1,-1 l 0,-5 c 0,-0.554 0.446,-1 1,-1 z" style="fill:#ffd6b6;fill-opacity:1;stroke:none;stroke-width:4;stroke-linecap:round;stroke-linejoin:round;stroke-opacity:1"/>
      <path inkscape:connector-curvature="0" id="path6865" d="m -234.62891,2317.3281 a 2.50025,2.50025 0 1 0 0,5 l 14,0 a 2.50025,2.50025 0 1 0 0,-5 l -14,0 z" style="color:#000000;font-style:normal;font-variant:normal;font-weight:normal;font-stretch:normal;font-size:medium;line-height:normal;font-family:sans-serif;text-indent:0;text-align:start;text-decoration:none;text-decoration-line:none;text-decoration-style:solid;text-decoration-color:#000000;letter-spacing:normal;word-spacing:normal;text-transform:none;direction:ltr;block-progression:tb;writing-mode:lr-tb;baseline-shift:baseline;text-anchor:start;white-space:normal;clip-rule:nonzero;display:inline;overflow:visible;visibility:visible;opacity:1;isolation:auto;mix-blend-mode:normal;color-interpolation:sRGB;color-interpolation-filters:linearRGB;solid-color:#000000;solid-opacity:1;fill:#ffd6b6;fill-opacity:1;fill-rule:evenodd;stroke:none;stroke-width:5;stroke-linecap:round;stroke-linejoin:round;stroke-miterlimit:4;stroke-dasharray:none;stroke-dashoffset:0;stroke-opacity:1;color-rendering:auto;image-rendering:auto;shape-rendering:auto;text-rendering:auto;enable-background:accumulate"/>
      <path inkscape:connector-curvature="0" id="path6867" d="m -259.62891,2317.3281 a 2.50025,2.50025 0 1 0 0,5 l 14,0 a 2.50025,2.50025 0 1 0 0,-5 l -14,0 z" style="color:#000000;font-style:normal;font-variant:normal;font-weight:normal;font-stretch:normal;font-size:medium;line-height:normal;font-family:sans-serif;text-indent:0;text-align:start;text-decoration:none;text-decoration-line:none;text-decoration-style:solid;text-decoration-color:#000000;letter-spacing:normal;word-spacing:normal;text-transform:none;direction:ltr;block-progression:tb;writing-mode:lr-tb;baseline-shift:baseline;text-anchor:start;white-space:normal;clip-rule:nonzero;display:inline;overflow:visible;visibility:visible;opacity:1;isolation:auto;mix-blend-mode:normal;color-interpolation:sRGB;color-interpolation-filters:linearRGB;solid-color:#000000;solid-opacity:1;fill:#ffd6b6;fill-opacity:1;fill-rule:evenodd;stroke:none;stroke-width:5;stroke-linecap:round;stroke-linejoin:round;stroke-miterlimit:4;stroke-dasharray:none;stroke-dashoffset:0;stroke-opacity:1;color-rendering:auto;image-rendering:auto;shape-rendering:auto;text-rendering:auto;enable-background:accumulate"/>
      <path inkscape:connector-curvature="0" id="path6869" d="m -246.62891,2334.3242 0,20 5,0 0,-20 -5,0 z" style="color:#000000;font-style:normal;font-variant:normal;font-weight:normal;font-stretch:normal;font-size:medium;line-height:normal;font-family:sans-serif;text-indent:0;text-align:start;text-decoration:none;text-decoration-line:none;text-decoration-style:solid;text-decoration-color:#000000;letter-spacing:normal;word-spacing:normal;text-transform:none;direction:ltr;block-progression:tb;writing-mode:lr-tb;baseline-shift:baseline;text-anchor:start;white-space:normal;clip-rule:nonzero;display:inline;overflow:visible;visibility:visible;opacity:1;isolation:auto;mix-blend-mode:normal;color-interpolation:sRGB;color-interpolation-filters:linearRGB;solid-color:#000000;solid-opacity:1;fill:#ffd6b6;fill-opacity:1;fill-rule:evenodd;stroke:none;stroke-width:5;stroke-linecap:butt;stroke-linejoin:miter;stroke-miterlimit:4;stroke-dasharray:none;stroke-dashoffset:0;stroke-opacity:1;color-rendering:auto;image-rendering:auto;shape-rendering:auto;text-rendering:auto;enable-background:accumulate"/>
      <path inkscape:connector-curvature="0" id="rect6871" d="m -246.62952,2334.3245 5,0 0,6.9999 -5,0 z" style="fill:#354d62;fill-opacity:1;stroke:none;stroke-width:4;stroke-opacity:1"/>
      <path style="fill:#354d62;fill-opacity:1;stroke:none;stroke-width:4;stroke-opacity:1" d="m -246.62951,2333.3246 13,0 0,5 -13,0 z" id="path6873" inkscape:connector-curvature="0" sodipodi:nodetypes="ccccc"/>
      <path inkscape:connector-curvature="0" id="rect6875" d="m -245.62954,2353.3271 3.00005,0 c 0.55398,0 0.99997,0.446 0.99997,1 l 0,1.9975 c 0,0.554 -0.44599,1 -0.99997,1 l -3.00005,0 c -0.55399,0 -0.99998,-0.446 -0.99998,-1 l 0,-1.9975 c 0,-0.554 0.44599,-1 0.99998,-1 z" style="fill:#d0e3eb;fill-opacity:1;stroke:none;stroke-width:4;stroke-opacity:1"/>
      <path inkscape:connector-curvature="0" id="rect6877" d="m -246.62952,2352.3245 5,0 0,0.9999 -5,0 z" style="fill:#d0e3eb;fill-opacity:1;stroke:none;stroke-width:4;stroke-opacity:1"/>
      <path inkscape:connector-curvature="0" id="rect6879" d="m -246.62952,2353.3245 5,0 0,0.9999 -5,0 z" style="fill:#273951;fill-opacity:1;stroke:none;stroke-width:4;stroke-opacity:1"/>
      <path style="color:#000000;font-style:normal;font-variant:normal;font-weight:normal;font-stretch:normal;font-size:medium;line-height:normal;font-family:sans-serif;text-indent:0;text-align:start;text-decoration:none;text-decoration-line:none;text-decoration-style:solid;text-decoration-color:#000000;letter-spacing:normal;word-spacing:normal;text-transform:none;direction:ltr;writing-mode:lr-tb;baseline-shift:baseline;text-anchor:start;white-space:normal;clip-rule:nonzero;display:inline;overflow:visible;visibility:visible;opacity:1;isolation:auto;mix-blend-mode:normal;color-interpolation:sRGB;color-interpolation-filters:linearRGB;solid-color:#000000;solid-opacity:1;fill:#ffcaa0;fill-opacity:1;fill-rule:evenodd;stroke:none;stroke-width:5;stroke-linecap:round;stroke-linejoin:round;stroke-miterlimit:4;stroke-dasharray:none;stroke-dashoffset:0;stroke-opacity:1;color-rendering:auto;image-rendering:auto;shape-rendering:auto;text-rendering:auto;enable-background:accumulate" d="m -242.49865,2314.0355 a 2.50025,2.50025 0 0 0 -0.13086,0.8262 l 0,1.9023 c 0.59129,0.3462 1.26948,0.5606 2,0.5606 l 1,0 c 0.73052,0 1.40871,-0.2144 2,-0.5606 l 0,-1.9023 a 2.50025,2.50025 0 0 0 -0.13086,-0.8262 c -0.28045,0.7605 -0.99687,1.2891 -1.86914,1.2891 l -1,0 c -0.87227,0 -1.58869,-0.5286 -1.86914,-1.2891 z" id="path6881" inkscape:connector-curvature="0"/>
      <path sodipodi:nodetypes="cssssc" d="m -235.62926,2306.4248 0,5.5772 c 0,2.3874 -1.93524,4.3225 -4.32249,4.3225 l -0.34581,0 c -2.38726,0 -4.3225,-1.9351 -4.3225,-4.3225 l 0,-5.5772" class="st3" id="path6883" inkscape:connector-curvature="0" style="fill:#ffd6b6;fill-opacity:1"/>
      <path inkscape:connector-curvature="0" id="circle6885" d="m -241.62927,2310.3198 a 0.49999973,0.49999973 0 0 1 -0.5,0.5 0.49999973,0.49999973 0 0 1 -0.5,-0.5 0.49999973,0.49999973 0 0 1 0.5,-0.5 0.49999973,0.49999973 0 0 1 0.5,0.5 z" style="fill:#234957"/>
      <path inkscape:connector-curvature="0" id="circle6887" d="m -237.62927,2310.2788 a 0.49999973,0.49999973 0 0 1 -0.5,0.5 0.49999973,0.49999973 0 0 1 -0.5,-0.5 0.49999973,0.49999973 0 0 1 0.5,-0.5 0.49999973,0.49999973 0 0 1 0.5,0.5 z" style="fill:#234957"/>
      <path inkscape:connector-curvature="0" id="rect6889" d="m -244.62927,2307.3245 9,0 0,2 -9,0 z" style="fill:#273951;fill-opacity:1;stroke:none;stroke-width:0.5;stroke-linecap:round;stroke-linejoin:round;stroke-miterlimit:4;stroke-dasharray:none;stroke-opacity:1"/>
      <path d="m -242.12927,2304.3913 -1.16666,0 c -0.64047,0 -1.15989,-0.4773 -1.16608,-1.1163 -0.65781,0.082 -1.16725,0.6806 -1.16725,1.3607 l 0,2.4332 c 0,0.7364 0.59695,1.2557 1.33333,1.2557 l 2.33333,0 1.50001,0 4.83341,0 c 0.27614,0 0.5,-0.1507 0.5,-0.4258 l 0,-2.7707 c 0,-0.3669 -0.29859,-0.746 -0.66666,-0.7368 l -4.00008,0 z" class="st6" id="path6892" inkscape:connector-curvature="0" style="fill:#273951;fill-opacity:1" sodipodi:nodetypes="cscsssccsssscc"/>
      <path style="fill:#f2f2f2;fill-opacity:1;stroke:none;stroke-width:5;stroke-linecap:round;stroke-linejoin:round;stroke-miterlimit:4;stroke-dasharray:none;stroke-opacity:1" d="m -244.62926,2308.3246 0,1 9,0 0,-1 z" id="path6894" inkscape:connector-curvature="0" sodipodi:nodetypes="ccccc"/>
      <path inkscape:connector-curvature="0" id="rect6896" d="m -238.62952,2334.3245 5,0 0,6.9999 -5,0 z" style="fill:#354d62;fill-opacity:1;stroke:none;stroke-width:4;stroke-opacity:1"/>
      <path inkscape:connector-curvature="0" id="rect6898" d="m -237.62954,2353.3271 3.00005,0 c 0.55398,0 0.99997,0.446 0.99997,1 l 0,1.9975 c 0,0.554 -0.44599,1 -0.99997,1 l -3.00005,0 c -0.55399,0 -0.99998,-0.446 -0.99998,-1 l 0,-1.9975 c 0,-0.554 0.44599,-1 0.99998,-1 z" style="fill:#d0e3eb;fill-opacity:1;stroke:none;stroke-width:4;stroke-opacity:1"/>
      <path inkscape:connector-curvature="0" id="rect6900" d="m -238.62952,2352.3245 5,0 0,0.9999 -5,0 z" style="fill:#d0e3eb;fill-opacity:1;stroke:none;stroke-width:4;stroke-opacity:1"/>
      <path inkscape:connector-curvature="0" id="rect6902" d="m -238.62952,2353.3245 5,0 0,0.9999 -5,0 z" style="fill:#273951;fill-opacity:1;stroke:none;stroke-width:4;stroke-opacity:1"/>
      <path inkscape:connector-curvature="0" style="fill:#5acfd6;fill-opacity:1;stroke:none;stroke-width:4;stroke-opacity:1" d="m -244.62951,2317.3245 0,4 c 0,1.108 -0.892,2 -2,2 l 0,10 13,0 0,-10 c -1.108,0 -2,-0.892 -2,-2 l 0,-4 -2,0 0,0.5 c 0,0.5871 -0.20855,1.1192 -0.54492,1.5449 -0.43852,0.629 -1.1139,0.9551 -1.95508,0.9551 -0.84118,0 -1.51656,-0.3261 -1.95508,-0.9551 -0.33637,-0.4257 -0.54492,-0.9578 -0.54492,-1.5449 l 0,-0.5 z" id="path8015"/>
    </g>
  </g>

	<metadata>
		<rdf:RDF xmlns:rdf="http://www.w3.org/1999/02/22-rdf-syntax-ns#" xmlns:rdfs="http://www.w3.org/2000/01/rdf-schema#" xmlns:dc="http://purl.org/dc/elements/1.1/">
			<rdf:Description about="https://iconscout.com/legal#licenses" dc:title="11" dc:description="11" dc:publisher="Iconscout" dc:date="2017-03-06" dc:format="image/svg+xml" dc:language="en">
				<dc:creator>
					<rdf:Bag>
						<rdf:li>Jemis Mali</rdf:li>
					</rdf:Bag>
				</dc:creator>
			</rdf:Description>
		</rdf:RDF>
    </metadata></svg>
